<?xml version="1.0" encoding="UTF-8"?><svg id="icon" xmlns="http://www.w3.org/2000/svg" viewBox="0 0 193.72 144.1"><path d="M188.65,48.22c1.3,0,2.6-.5,3.59-1.49,1.98-1.98,1.98-5.19,0-7.17C166.72,14.05,132.85,0,96.86,0S27,14.05,1.48,39.57c-1.98,1.98-1.98,5.19,0,7.17,1.98,1.98,5.19,1.98,7.17,0C32.26,23.14,63.58,10.14,96.86,10.14s64.61,13,88.21,36.6c.99.99,2.29,1.49,3.59,1.49Z" style="fill:#4b9bf5;"/><path d="M160.85,76.03c1.3,0,2.6-.5,3.59-1.49,1.98-1.98,1.98-5.19,0-7.17-18.08-18.08-42.07-28.03-67.57-28.03s-49.5,9.96-67.57,28.03c-1.98,1.98-1.98,5.19,0,7.17,1.98,1.98,5.19,1.98,7.17,0,16.16-16.16,37.61-25.06,60.4-25.06s44.24,8.9,60.4,25.06c.99.99,2.29,1.48,3.59,1.48Z" style="fill:#4b9bf5;"/><path d="M133.06,103.82c1.3,0,2.6-.5,3.59-1.49,1.98-1.98,1.98-5.19,0-7.17-10.63-10.63-24.75-16.48-39.78-16.48s-29.16,5.85-39.78,16.48c-1.98,1.98-1.98,5.19,0,7.17,1.98,1.98,5.19,1.98,7.17,0,8.71-8.71,20.29-13.51,32.61-13.51s23.9,4.8,32.61,13.51c.99.99,2.29,1.49,3.59,1.49Z" style="fill:#4b9bf5;"/><path d="M87.71,134.94c0,5.06,4.1,9.15,9.15,9.15s9.15-4.1,9.15-9.15-4.1-9.15-9.15-9.15-9.15,4.1-9.15,9.15Z" style="fill:#4b9bf5;"/></svg>