<?xml version="1.0" encoding="UTF-8"?><svg id="Layer_3" xmlns="http://www.w3.org/2000/svg" viewBox="0 0 115 115"><path d="M57.5,0C25.79,0,0,25.79,0,57.5s25.79,57.5,57.5,57.5,57.5-25.79,57.5-57.5S89.21,0,57.5,0ZM57.5,111c-29.5,0-53.5-24-53.5-53.5S28,4,57.5,4s53.5,24,53.5,53.5-24,53.5-53.5,53.5Z" style="fill:#4b9bf5;"/><rect x="55.5" y="96.99" width="4" height="5.59" style="fill:#4b9bf5;"/><rect x="33.56" y="92.12" width="5.59" height="4" transform="translate(-63.34 78.56) rotate(-60.01)" style="fill:#4b9bf5;"/><rect x="18.08" y="76.64" width="5.59" height="4" transform="translate(-36.52 20.97) rotate(-29.99)" style="fill:#4b9bf5;"/><rect x="12.42" y="55.5" width="5.59" height="4" style="fill:#4b9bf5;"/><rect x="92.12" y="75.85" width="4" height="5.59" transform="translate(-21.05 120.83) rotate(-60)" style="fill:#4b9bf5;"/><rect x="18.88" y="33.56" width="4" height="5.59" transform="translate(-21.05 36.26) rotate(-60.01)" style="fill:#4b9bf5;"/><rect x="76.64" y="91.33" width="4" height="5.59" transform="translate(-36.53 51.95) rotate(-30.01)" style="fill:#4b9bf5;"/><rect x="34.36" y="18.08" width="4" height="5.59" transform="translate(-5.57 20.97) rotate(-30)" style="fill:#4b9bf5;"/><path d="M57.5,16.01h-2v43.49h43.49v-2c0-22.88-18.61-41.49-41.49-41.49ZM84.46,31.48l-24.96,17.47v-9.77l18.58-13.01c2.32,1.53,4.46,3.31,6.38,5.3ZM59.5,26.99l8.01-5.61c3.08.86,6.01,2.09,8.72,3.66l-16.73,11.71v-9.77ZM64.92,20.75l-5.42,3.79v-4.48c1.84.1,3.65.33,5.42.69ZM59.5,51.4l26.32-18.43c1.75,2.01,3.28,4.21,4.57,6.57l-22.8,15.96h-8.09v-4.1ZM91.31,41.33c1.19,2.48,2.11,5.11,2.74,7.85l-9.02,6.32h-13.95l20.23-14.17ZM88.51,55.5l5.96-4.17c.23,1.37.39,2.76.47,4.17h-6.42Z" style="fill:#4b9bf5;"/></svg>