<?xml version="1.0" encoding="UTF-8"?><svg id="Layer_2" xmlns="http://www.w3.org/2000/svg" viewBox="0 0 512.65 506.98"><line x1="44.42" y1="458.7" x2="468.22" y2="458.7" style="fill:none; stroke:#4b9bf5; stroke-linecap:round; stroke-linejoin:round; stroke-width:18.53px;"/><line x1="230.05" y1="497.71" x2="414.13" y2="497.71" style="fill:none; stroke:#4b9bf5; stroke-linecap:round; stroke-linejoin:round; stroke-width:18.53px;"/><line x1="98.52" y1="497.71" x2="164.69" y2="497.71" style="fill:none; stroke:#4b9bf5; stroke-linecap:round; stroke-linejoin:round; stroke-width:18.53px;"/><path d="M398.05,458.72c63.7-44.69,105.33-118.68,105.33-202.39,0-136.45-110.61-247.06-247.06-247.06S9.26,119.88,9.26,256.32c0,83.73,41.65,157.73,105.37,202.42" style="fill:none; stroke:#4b9bf5; stroke-linecap:round; stroke-linejoin:round; stroke-width:18.53px;"/><path d="M256.32,169.1c-26.45,0-38.61-37.79-37.12-62.41,1.33-21.94,16.62-39.79,37.12-39.79s35.78,17.86,37.12,39.79c1.5,24.62-10.67,62.41-37.12,62.41Z" style="fill:none; stroke:#4b9bf5; stroke-linecap:round; stroke-linejoin:round; stroke-width:18.53px;"/><path d="M307.01,334.02c2.94,9.57,6.2,15.24,6.2,15.24" style="fill:none; stroke:#4b9bf5; stroke-linecap:round; stroke-linejoin:round; stroke-width:18.53px;"/><path d="M310.06,245.1h0c-2.31,7.44-5.01,18.18-6.6,30.89" style="fill:none; stroke:#4b9bf5; stroke-linecap:round; stroke-linejoin:round; stroke-width:18.53px;"/><path d="M363.64,407.89h-135.82c0-22.09,14.36-38.5,37-45.84,28.22-9.15,75.17-19.66,97.09-19.61,20.09.05,35.31,13.31,35.31,31.86h0c0,18.55-15.04,33.59-33.59,33.59Z" style="fill:none; stroke:#4b9bf5; stroke-linecap:round; stroke-linejoin:round; stroke-width:18.53px;"/><path d="M219.08,353.91c-25-6.28-52.89-11.49-68.34-11.46-20.09.05-35.31,13.31-35.31,31.86h0c0,18.55,15.04,33.59,33.59,33.59h47.55" style="fill:none; stroke:#4b9bf5; stroke-linecap:round; stroke-linejoin:round; stroke-width:18.53px;"/><path d="M205.62,333.93c-2.93,9.56-6.17,15.33-6.17,15.33" style="fill:none; stroke:#4b9bf5; stroke-linecap:round; stroke-linejoin:round; stroke-width:18.53px;"/><path d="M202.6,245.1h0c2.32,7.45,5.02,18.21,6.61,30.95" style="fill:none; stroke:#4b9bf5; stroke-linecap:round; stroke-linejoin:round; stroke-width:18.53px;"/><path d="M239.87,163.35c-.47,11.23-3.03,16.66-13.23,23.26-20.2,13.06-33.76,13.52-46.43,23.16-9.91,7.54-14.08,16.6-16.66,30.8-3.73,20.58-5.18,42.76-5.73,58.54-.37,10.56,9.84,18.29,19.92,15.13l65.38-20.48c7.85-2.46,13.19-9.73,13.19-17.96v-30.52" style="fill:none; stroke:#4b9bf5; stroke-linecap:round; stroke-linejoin:round; stroke-width:18.53px;"/><path d="M272.77,163.35c.47,11.23,3.03,16.66,13.23,23.26,20.2,13.06,33.76,13.52,46.43,23.16,9.91,7.54,14.08,16.6,16.66,30.8,3.73,20.58,5.18,42.76,5.73,58.54.37,10.56-9.84,18.29-19.92,15.13l-65.38-20.48c-7.85-2.46-13.19-9.73-13.19-17.96" style="fill:none; stroke:#4b9bf5; stroke-linecap:round; stroke-linejoin:round; stroke-width:18.53px;"/><path d="M416.75,128.04c-13.66-17.61-30.16-32.91-48.81-45.21" style="fill:none; stroke:#4b9bf5; stroke-linecap:round; stroke-linejoin:round; stroke-width:18.53px;"/></svg>