<?xml version="1.0" encoding="UTF-8"?><svg id="Layer_1" xmlns="http://www.w3.org/2000/svg" viewBox="0 0 42 39.54"><rect x="5" y="16.01" width="4" height="15.09" rx=".61" ry=".61" style="fill:none; stroke:#4b9bf5; stroke-miterlimit:10; stroke-width:2px;"/><path d="M5,29.54h-.77c-1.78,0-3.23-1.26-3.23-2.82v-6.36c0-1.56,1.45-2.82,3.23-2.82h.77" style="fill:none; stroke:#4b9bf5; stroke-miterlimit:10; stroke-width:2px;"/><rect x="33" y="16.01" width="4" height="15.09" rx=".61" ry=".61" transform="translate(70 47.12) rotate(180)" style="fill:none; stroke:#4b9bf5; stroke-miterlimit:10; stroke-width:2px;"/><path d="M37,29.58h.77c1.78,0,3.23-1.27,3.23-2.83v-6.39c0-1.56-1.45-2.83-3.23-2.83h-.77" style="fill:none; stroke:#4b9bf5; stroke-miterlimit:10; stroke-width:2px;"/><path d="M34.93,16.01v-1.26c0-2.52-.82-4.84-2.19-6.73" style="fill:none; stroke:#4b9bf5; stroke-miterlimit:10; stroke-width:2px;"/><path d="M9.26,8.02c-1.37,1.9-2.19,4.22-2.19,6.74v1.26" style="fill:none; stroke:#4b9bf5; stroke-miterlimit:10; stroke-width:2px;"/><path d="M32.68,8.04c-.68.42-1.54.29-2.09-.31-1.84-2.02-4.43-3.19-7.17-3.19h-4.84c-2.74,0-5.33,1.17-7.17,3.19-.55.6-1.41.73-2.09.31-.02-.01-.05-.02-.07-.03l-.16-.11c-.81-.56-.98-1.73-.33-2.47,2.5-2.8,6.05-4.43,9.82-4.43h4.84c3.77,0,7.33,1.63,9.82,4.43.66.74.48,1.91-.33,2.47l-.16.11s-.05.02-.07.03Z" style="fill:none; stroke:#4b9bf5; stroke-miterlimit:10; stroke-width:2px;"/><path d="M7.19,31.11h0c0,3.21,2.6,5.81,5.81,5.81h2" style="fill:none; stroke:#4b9bf5; stroke-miterlimit:10; stroke-width:2px;"/><rect x="15" y="35.54" width="7" height="3" rx="1" ry="1" style="fill:none; stroke:#4b9bf5; stroke-miterlimit:10; stroke-width:2px;"/></svg>