<svg id="Layer_1" data-name="Layer 1" xmlns="http://www.w3.org/2000/svg" viewBox="0 0 168.5 134.71"><title>iconSound</title><path d="M29.22,91.25H2.89A2.39,2.39,0,0,1,.5,88.86V40.2a2.39,2.39,0,0,1,2.39-2.39H29.22a2.39,2.39,0,0,1,2.39,2.39V88.86A2.39,2.39,0,0,1,29.22,91.25ZM5.29,86.47H26.82V42.59H5.29Z" style="fill:#237580;stroke:#237580;stroke-miterlimit:10"/><path d="M105.4,134.21a2.47,2.47,0,0,1-1.17-.31L28.05,91.13A2.4,2.4,0,1,1,30.39,87L103,127.73V6.74L30.27,42.53a2.39,2.39,0,0,1-2.11-4.3L104.35.74a2.4,2.4,0,0,1,3.45,2.15V131.81a2.39,2.39,0,0,1-1.19,2.07A2.37,2.37,0,0,1,105.4,134.21Z" style="fill:#237580;stroke:#237580;stroke-miterlimit:10"/><path d="M124.05,99.56a2.36,2.36,0,0,1-1.64-.65,2.4,2.4,0,0,1-.1-3.38,45.08,45.08,0,0,0-.09-62,2.39,2.39,0,0,1,3.46-3.3,49.84,49.84,0,0,1,.11,68.57A2.37,2.37,0,0,1,124.05,99.56Z" style="fill:#237580;stroke:#237580;stroke-miterlimit:10"/><path d="M143.92,121.56a2.36,2.36,0,0,1-1.64-.65,2.39,2.39,0,0,1-.1-3.38,77.08,77.08,0,0,0-.16-106,2.39,2.39,0,1,1,3.46-3.3,81.84,81.84,0,0,1,.18,112.57A2.37,2.37,0,0,1,143.92,121.56Z" style="fill:#237580;stroke:#237580;stroke-miterlimit:10"/></svg>