<?xml version="1.0" encoding="UTF-8"?><svg id="_Ñëîé_1" xmlns="http://www.w3.org/2000/svg" viewBox="0 0 259.59 265.82"><path d="M72.71.56c4.5-.53,6.49,2.46,7.69,4.26,34.77,69.29,66.72,103.66,78.84,115.22,8.34,7.95,12.84,13.09,13.49,15.4,1.17,8.35-5.52,10.64-7.72,11.39-14.04,2.65-28.16,4.69-42.13,6.04,1.17,5.03,2.46,10,3.86,14.89,19.1,66.3,55.06,99.5,90.79,91.25-5.16,1.26-11.55,2.5-16.45,3.53-14.65,2.28-16.78,2.33-37.21,2.78-26.71-1.32-34.5-2.96-59.11-10-26.21-8.64-50.18-39.7-64.55-89.6-1.4-4.86-2.68-9.81-3.85-14.82-10.64-1.91-20.07-4.48-29.03-8.04-4.95-3.98-7.62-10.67-6.63-16.65C20.98,60,64.1,1.86,72.71.56Z" style="fill:#fff; stroke:#fff; stroke-miterlimit:10;"/><path d="M217.45,252.93c-18.63,3.56-37.23-4.11-53.4-21.82,2.17-2.18,4.33-4.52,6.45-7.06,3.72-3.66,8.25-5,14.23-4.21,12.47,2.57,25.02,4.03,37.48,4.25,11.36.21,22.14-.62,32.27-2.4,6.43-.68,4.73,2.65,3.14,4.7-11.64,13.91-24.08,22.36-36.58,25.72-1.13.25-2.34.53-3.59.82h0Z" style="fill:#fff; stroke:#fff; stroke-miterlimit:10;"/></svg>