<?xml version="1.0" encoding="UTF-8"?><svg id="Layer_1" xmlns="http://www.w3.org/2000/svg" viewBox="0 0 10.56 10.56"><path d="M10.56,6.04c0,.28-.22.5-.5.5-.28,0-.5-.22-.5-.5V1.71S.85,10.41.85,10.41c-.2.2-.51.2-.71,0s-.2-.51,0-.71L8.85,1h-4.34c-.28,0-.5-.22-.5-.5,0-.28.22-.5.5-.5h5.54s.03,0,.04,0h0s.02,0,.02,0h0s0,0,0,0h0s0,0,0,0h0s0,0,0,0h0s0,0,0,0h0s.01,0,.01,0c.08.02.16.06.23.13s.11.15.13.23h0s0,.01,0,.01h0s0,.01,0,.01h0s0,.01,0,.01h0s0,0,0,0h0s0,.01,0,.01c0,0,0,.02,0,.02h0s0,.03,0,.04v5.54h0Z" style="fill:#fff;"/></svg>