<?xml version="1.0" encoding="UTF-8"?><svg id="_1" xmlns="http://www.w3.org/2000/svg" viewBox="0 0 1137.54 1150.56"><path id="_1-2" d="M0,1061.16c.22-23.51,9.5-45.62,26.13-62.24l260.03-260.03c6.36-6.36,14.81-9.86,23.8-9.86,8.16,0,16.03,2.95,22.17,8.3l5,4.36,4.69-4.69,85.62-85.62,4.45-4.45-3.89-4.95c-59.54-75.77-89.33-170.73-83.89-267.41,2.68-47.69,13.74-93.94,32.88-137.45,19.8-45.05,47.65-85.7,82.77-120.81,37.9-37.9,82.09-67.25,131.34-87.22C638.67,9.78,688.94,0,740.51,0s101.84,9.78,149.41,29.07c49.25,19.97,93.44,49.31,131.34,87.22,37.9,37.9,67.25,82.09,87.22,131.34,19.29,47.57,29.07,97.84,29.07,149.41s-9.78,101.84-29.07,149.41c-19.97,49.25-49.31,93.44-87.22,131.34-37.9,37.9-82.09,67.25-131.34,87.22-47.57,19.29-97.84,29.07-149.41,29.07-40.56,0-80.69-6.15-119.27-18.27-39.46-12.4-76.56-30.82-110.27-54.77l-4.89-3.47-4.24,4.24-87.61,87.61-4.68,4.68,4.34,5c11.58,13.34,10.87,33.56-1.61,46.04l-258.56,258.56c-17.08,17.08-40.82,26.87-65.14,26.87-24.5,0-47.13-9.51-63.71-26.77C8.61,1106.89-.22,1084.64,0,1061.16ZM514.99,622.55c60.24,60.24,140.33,93.41,225.52,93.41s165.28-33.17,225.52-93.41c60.24-60.24,93.41-140.33,93.41-225.52s-33.17-165.28-93.41-225.52c-60.24-60.24-140.33-93.41-225.52-93.41-85.19,0-165.28,33.17-225.52,93.41-60.24,60.24-93.41,140.33-93.41,225.52,0,85.19,33.17,165.28,93.41,225.52ZM480.91,397.04s103.84-146.83,259.6-146.83,259.6,146.83,259.6,146.83c0,0-104.92,146.3-259.6,146.83-155.76.54-259.6-146.83-259.6-146.83ZM626.57,397.04c0,62.93,51.01,113.94,113.94,113.94,62.93,0,113.94-51.01,113.94-113.94s-51.01-113.94-113.94-113.94c-62.93,0-113.94,51.01-113.94,113.94ZM661.81,397.04c0-43.47,35.24-78.7,78.7-78.7,10.92,0,21.32,2.23,30.77,6.25-14.42,4.42-24.9,17.83-24.9,33.69,0,19.46,15.78,35.24,35.24,35.24,15.14,0,28.02-9.57,33-22.98,2.96,8.28,4.59,17.2,4.59,26.5,0,43.47-35.24,78.7-78.7,78.7-43.47,0-78.7-35.24-78.7-78.7Z" style="fill:#715034; fill-rule:evenodd;"/></svg>