<?xml version="1.0" encoding="UTF-8"?><svg id="Calque_1" xmlns="http://www.w3.org/2000/svg" viewBox="0 0 55.19 64.51"><path d="M54.82,30.4c-.08,1.79-.64,2.97-2.22,1.48-.53-.08-.86-.18-.74-.74l-1.73-.84-4.17-7.35c-1.78,2.82-3.53,5.55-5.22,8.19,3.54.3,7,.55,10.38.74,3.74-.1,3.77,3.17.74,2.22l-1.61.87c-3.5-.54-6.91-.42-10.22.38-1.8,7.66-4.52,14.91-8.19,21.74l.54.92-4.99,6.49h-.74L.25,33.38c-.56-1.05-.03-1.8.27-2.75.46-1.48,7.01-12.57,8.02-13.52,1.27-1.19,1.95-1.35,3.64-1.55,9.95-1.17,22.27.77,32.48.17,1.33.3,1.8.86,2.64,1.81,1.42,1.59,6.85,10.84,7.52,12.87Z" style="fill:#dda179;"/><path d="M28.13,64.51h-.74c.14-2.83,2.68-5.08,4.45-7.41,4.44-8.81,11.78-17.76,20.02-22.99,1.84-.93.31-1.56-.74-2.22.17-.55.66-.55,1.48,0,.57-.1,1.55-1.2,2.22-1.48,1.21,3.63-.75,4.95-2.99,7.76-7.31,9.2-16.31,17.21-23.71,26.34Z" style="fill:#db9a6f;"/><path d="M28.87,0c.96,14.48-3.18,14.48-2.22,0h2.22Z" style="fill:#db9e74;"/><path d="M4.03,6.69c.43.02,6.98,5.98,3.7,6.65-1.98.41-7.05-6.84-3.7-6.65Z" style="fill:#e1a882;"/><path d="M52.59,7.42c1.34,1.34-5.21,8.31-5.92,4.8-.25-1.22,4.78-5.95,5.92-4.8Z" style="fill:#dea077;"/><path d="M34.8,31.14c-2.56-.04-3.4-.67-2.97,2.23h3.71s-.05,1.8-.05,1.8l-8.1,23.41c-.06-3.54-8.58-24.08-7.43-25.2.16-.16,4.5.38,4.44-1.11-.07-1.61-4.23-.22-3.68-2.21.23-.82,6.42-10.01,7.03-10.01,1.2,1.06,7.81,10.41,7.04,11.1Z" style="fill:#fefefd;"/><polygon points="17.01 33.37 24.41 57.1 3.66 33.37 17.01 33.37" style="fill:#fefdfd;"/><path d="M51.86,34.11c-6.63,7.67-13.88,14.9-20.02,22.99l7.02-23.01c1.21-1.23,10.89-1.15,13,.02Z" style="fill:#fefdfd;"/><path d="M15.52,31.15c-3.59.51-8.21.83-11.86,0-.28-2.27,5.09-8.73,6.3-11.11.62,0,5.69,10.09,5.56,11.11Z" style="fill:#fdfbfa;"/><path d="M51.86,31.15c-3.53.63-7.5.67-11.12,0-.74-.66-.8-.15-.43-1.47.88-3.17,4.41-6.15,4.89-9.65.75-.56,6.83,9.41,6.66,11.12Z" style="fill:#fdfbf9;"/><path d="M42.96,18.54c.47.42-5.13,11.65-5.92,11.12l-6.68-11.12h12.61Z" style="fill:#fdfcfc;"/><path d="M25.16,18.54c-1.58,1.67-5.91,10.38-7.78,10.39-.57,0-4.34-8.95-4.83-10.39h12.61Z" style="fill:#fdfcfc;"/><path d="M15.52,31.15c-.04.33.07.6-.38.73-3.2-.35-7.36.52-10.39.03-.69-.11-.98.17-1.09-.76h11.86Z" style="fill:#d38d5d;"/><path d="M51.86,31.15c.18.02.5.56.74.74-.44.08-1-.04-1.48,0-2.31.17-9.04.47-10.38-.74,3.57.28,7.64-.39,11.12,0Z" style="fill:#d38d5d;"/></svg>