<?xml version="1.0" encoding="UTF-8"?><svg id="Layer_1" xmlns="http://www.w3.org/2000/svg" viewBox="0 0 14.52 8.84"><path d="M10.45,8.69c-.2.2-.51.2-.71,0-.2-.2-.2-.51,0-.71l3.07-3.06H.5c-.28,0-.5-.22-.5-.5s.22-.5.5-.5h12.31l-3.07-3.07c-.2-.2-.2-.51,0-.71.2-.19.51-.19.71,0l3.92,3.92s.02.02.03.03h0s0,.01.01.02h0s0,.01,0,.01h0s0,0,0,0h0s0,0,0,0h0s0,.01,0,.01h0s0,.01,0,.01c.04.07.07.16.07.25s-.03.18-.07.25h0s0,.01,0,.01h0s0,.01,0,.01h0s0,0,0,0h0s0,.02,0,.02h0s0,.02-.01.02h0s-.02.02-.03.03l-3.92,3.92h0Z" style="fill:#fff;"/></svg>