<?xml version="1.0" encoding="UTF-8"?><svg id="Layer_1" xmlns="http://www.w3.org/2000/svg" viewBox="0 0 16.07 15.29"><path d="M1.43,10.71c-.11-.25,0-.55.26-.66.25-.11.55,0,.66.26.35.79.85,1.52,1.49,2.13.61.59,1.35,1.06,2.18,1.39,1.71.67,3.53.58,5.09-.11,1.56-.68,2.85-1.96,3.52-3.67.67-1.71.58-3.53-.11-5.09-.68-1.56-1.96-2.85-3.67-3.52-1.71-.67-3.53-.58-5.09.11-1.53.67-2.8,1.91-3.48,3.57l2.45-.65c.27-.07.54.09.61.36.07.27-.09.54-.36.61l-3.44.91c-.27.07-.54-.09-.61-.36L.02,2.56c-.07-.27.09-.54.36-.61.27-.07.54.09.61.36l.54,2.05c.81-1.71,2.2-3,3.83-3.71,1.79-.79,3.88-.89,5.84-.12,1.97.77,3.44,2.26,4.22,4.05.79,1.79.89,3.88.12,5.84-.77,1.97-2.26,3.44-4.05,4.22-1.79.79-3.88.89-5.84.12-.96-.38-1.81-.93-2.51-1.6-.73-.7-1.31-1.53-1.71-2.45h0Z" style="fill:#fff;"/></svg>