<?xml version="1.0" encoding="UTF-8"?><svg id="_Ñëîé_1" xmlns="http://www.w3.org/2000/svg" viewBox="0 0 95.19 131.02"><path d="M4.19,26.67l6.82,98.31c.24,3.4,3.06,6.03,6.46,6.03h60.25c3.4,0,6.23-2.64,6.46-6.03l6.82-98.31H4.19ZM22.73,115.94l-4.44-71c-.15-2.37,1.73-4.37,4.11-4.37h3.22c2.21,0,4.03,1.75,4.11,3.96l2.69,70.65c.09,2.33-1.78,4.27-4.11,4.27h-1.85c-1.98,0-3.61-1.54-3.73-3.51ZM48.35,119.44h-1.5c-2.25,0-4.09-1.81-4.11-4.06l-.87-70.65c-.03-2.29,1.82-4.17,4.11-4.17h3.23c2.29,0,4.14,1.87,4.11,4.17l-.87,70.65c-.03,2.25-1.86,4.06-4.11,4.06ZM68.38,119.44h-1.5c-2.33,0-4.2-1.94-4.11-4.27l2.69-70.65c.08-2.21,1.9-3.96,4.11-3.96h3.22c2.37,0,4.25,2,4.11,4.37l-4.42,70.65c-.14,2.17-1.93,3.86-4.11,3.86Z" style="fill:#fff; stroke-width:0px;"/><path d="M88.94,7.72h-24.74l-.85-5.17c-.24-1.47-1.52-2.56-3.01-2.56h-25.5c-1.49,0-2.77,1.08-3.01,2.56l-.85,5.17H6.25c-3.45,0-6.25,2.8-6.25,6.25v7.44h95.19v-7.44c0-3.45-2.8-6.25-6.25-6.25Z" style="fill:#fff; stroke-width:0px;"/></svg>