<?xml version="1.0" encoding="UTF-8"?><svg xmlns="http://www.w3.org/2000/svg" viewBox="0 0 255.66 268.14"><g id="_Ñëîé_1" style="opacity:.3;"><path d="M254.94,209.15c1-4.42-1.77-6.72-3.43-8.09-65.28-41.82-96.12-77.19-106.35-90.45q-10.56-13.69-13.9-15.03c-8.19-2.03-11.16,4.38-12.13,6.49-4.1,13.68-7.61,27.52-10.41,41.27-4.88-1.69-9.69-3.49-14.4-5.4C30.38,112.01,1.11,72.77,13.06,38.1c-1.79,5-3.69,11.22-5.23,15.99-3.8,14.33-4.07,16.45-6.65,36.71-1.48,26.7-.67,34.62,3.77,59.83,5.85,26.97,34.24,54.05,82.36,73.56,4.69,1.9,9.47,3.69,14.33,5.37.78,10.78,2.36,20.42,4.96,29.71,3.44,5.34,9.82,8.69,15.86,8.33,67.97-13.23,130.3-50.04,132.48-58.47Z" style="fill:#2e2d2c; stroke:#fff; stroke-miterlimit:10;"/><path d="M19.09,38.82c-5.48,18.15.2,37.46,16.12,55.39,2.39-1.93,4.95-3.83,7.7-5.68,4.03-3.32,5.83-7.68,5.67-13.71-1.25-12.67-1.39-25.31-.31-37.72.98-11.32,2.94-21.95,5.76-31.84,1.35-6.32-2.14-4.98-4.34-3.62-15.05,10.13-24.76,21.61-29.41,33.69-.37,1.1-.77,2.27-1.19,3.48Z" style="fill:#2e2d2c; stroke:#fff; stroke-miterlimit:10;"/></g></svg>