<?xml version="1.0" encoding="UTF-8"?><svg id="Artwork" xmlns="http://www.w3.org/2000/svg" viewBox="0 0 149.33 139.99"><path d="m148.03,73.22s-.04.06-.07.08l-65.33,65.33c-1.82,1.82-4.78,1.82-6.6,0-1.82-1.82-1.82-4.77,0-6.59l57.37-57.37H4.67c-2.58,0-4.67-2.09-4.67-4.67s2.09-4.67,4.67-4.67h128.73L76.03,7.96c-1.82-1.82-1.82-4.78,0-6.6,1.82-1.82,4.77-1.82,6.59,0l65.33,65.33s.04.06.07.08c.19.19.36.4.51.63.08.13.15.26.22.4.07.13.15.26.21.4.06.17.12.34.16.51.03.12.08.23.11.36.12.61.12,1.23,0,1.83-.02.12-.07.24-.11.36-.04.17-.1.35-.16.51-.06.14-.14.27-.21.4-.07.14-.14.27-.22.4-.15.22-.32.43-.51.63Z" style="fill:#bababa;"/></svg>