<svg id="Artwork" xmlns="http://www.w3.org/2000/svg" viewBox="0 0 200 200"><defs><style>.cls-1{fill:#fff;}</style></defs><title>RWC23_IC_CCTV_WHITE_R_NEG</title><path class="cls-1" d="M170.793,89.92578c-16.34375-17.9707-43.55762-37.01562-70.80176-36.584q-.44824-.00733-.89453-.00684c-26.99512,0-53.74414,18.81836-69.9043,36.60645a14.98408,14.98408,0,0,0,.01172,20.11132C45.35254,127.83789,72.09863,146.667,99.09961,146.665c.29492,0,.59668-.00195.8916-.00684.29688.00489.59473.00684.8916.00684,26.99414,0,53.75391-18.82813,69.92481-36.626A14.98348,14.98348,0,0,0,170.793,89.92578Zm-6.90625,13.85254c-14.97852,16.48438-39.62793,33.94336-63.81738,33.54688h-.15625c-.27832.00488-.55371.00683-.832.00683-23.94238,0-48.17187-17.25781-62.95507-33.53906a5.66391,5.66391,0,0,1-.0127-7.58985C58.60449,71.44727,83.292,62.669,99.19824,62.669c.23924,0,.47852.002.71387.00585h.1582q.353-.00585.71387-.00585c15.89746,0,40.58789,8.78027,63.08984,33.5205A5.66263,5.66263,0,0,1,163.88672,103.77832ZM99.99707,72.001h-.00879a28,28,0,0,0-.00488,56l.00683.001a28.00049,28.00049,0,0,0,.00684-56.001Zm18.65918,28.00586a18.68842,18.68842,0,0,1-18.667,18.66211h-.00391a18.66749,18.66749,0,0,1,.00488-37.335h.00586a18.66315,18.66315,0,0,1,18.66016,18.67188Z"/></svg>