<svg xmlns="http://www.w3.org/2000/svg" xmlns:xlink="http://www.w3.org/1999/xlink" viewBox="0 0 352 127"><defs><style>.cls-1{isolation:isolate;}.cls-2{fill:#2d3cff;}.cls-3{fill:url(#radial-gradient);}.cls-4{fill:url(#radial-gradient-2);}.cls-5{fill:url(#radial-gradient-3);}.cls-6{fill:url(#radial-gradient-4);}.cls-7{mix-blend-mode:multiply;fill:url(#linear-gradient);}.cls-8{fill:url(#radial-gradient-5);}.cls-9{fill:#ff00d2;}.cls-10{fill:url(#radial-gradient-6);}.cls-11{fill:url(#linear-gradient-2);}</style><radialGradient id="radial-gradient" cx="55.30307" cy="81.42959" r="21.86315" gradientTransform="translate(59.00767 -92.12244) rotate(19.8) scale(1 2.02072)" gradientUnits="userSpaceOnUse"><stop offset="0.75" stop-color="#2d3cff"/><stop offset="1" stop-color="#19194b"/></radialGradient><radialGradient id="radial-gradient-2" cx="58.14607" cy="84.21677" r="25.5492" gradientTransform="translate(56.57001 -132.46878) rotate(15.14854) scale(1 2.47865)" gradientUnits="userSpaceOnUse"><stop offset="0.77" stop-color="#2d3cff"/><stop offset="1" stop-color="#19194b"/></radialGradient><radialGradient id="radial-gradient-3" cx="67.28734" cy="71.14716" r="25.49295" gradientTransform="matrix(0.99276, 0.12009, -0.29143, 2.40925, 21.22109, -108.34472)" gradientUnits="userSpaceOnUse"><stop offset="0" stop-color="#30305d"/><stop offset="1" stop-color="#2d3cff"/></radialGradient><radialGradient id="radial-gradient-4" cx="21.5129" cy="78.66236" r="19.00367" gradientTransform="translate(-41.43779 -92.80697) rotate(-13.39569) scale(1 2.30591)" gradientUnits="userSpaceOnUse"><stop offset="0.17882" stop-color="#19194b"/><stop offset="1" stop-color="#2d3cff"/></radialGradient><linearGradient id="linear-gradient" x1="38.72792" y1="12.89751" x2="68.18966" y2="122.08759" gradientUnits="userSpaceOnUse"><stop offset="0" stop-color="#2d3cff" stop-opacity="0"/><stop offset="1" stop-color="#19194b" stop-opacity="0.55"/></linearGradient><radialGradient id="radial-gradient-5" cx="51.91569" cy="25.5402" r="12.40539" gradientTransform="translate(5.6303 52.24933) rotate(-43.7) scale(1 0.496)" gradientUnits="userSpaceOnUse"><stop offset="0" stop-color="#ff8366"/><stop offset="1" stop-color="#ff3000"/></radialGradient><radialGradient id="radial-gradient-6" cx="12.17414" cy="48.79566" r="10.69488" gradientTransform="translate(41.6803 49.48535) rotate(115.7) scale(1 0.551)" xlink:href="#radial-gradient-5"/><linearGradient id="linear-gradient-2" x1="60.1637" y1="121.6106" x2="60.1637" y2="23.60826" gradientUnits="userSpaceOnUse"><stop offset="0" stop-color="#dc0a0a"/><stop offset="1" stop-color="#ff00d2"/></linearGradient></defs><title>RWC23_ENG_EM_HOR_FC_R_POS</title><g class="cls-1"><g id="ARTWORK"><g id="Artwork-2" data-name="Artwork"><path class="cls-2" d="M133.26622,33.28614V22.04468h4.43188V33.17847c0,3.09961,1.55079,4.94678,4.10767,4.94678s4.10669-1.79175,4.10669-4.81177V22.04468h4.43115v11.105c0,5.76661-3.479,8.5962-8.59253,8.5962C136.63731,41.74586,133.26622,38.89039,133.26622,33.28614Zm30.7229,8.45972a10.55113,10.55113,0,0,0,7.22754-2.66919V31.6399h-4.16455v6.15869a7.08594,7.08594,0,0,1-2.83594.59692A6.47525,6.47525,0,0,1,159.37,36.48243a6.83582,6.83582,0,0,1-1.92676-4.93091,6.82672,6.82672,0,0,1,1.94141-4.94409,6.51833,6.51833,0,0,1,4.91577-1.957,9.94206,9.94206,0,0,1,5.29785,1.38891V22.64014a13.74276,13.74276,0,0,0-5.94946-1.10693,10.67517,10.67517,0,0,0-7.67993,2.72168,9.66468,9.66468,0,0,0-2.91211,7.14258c0,3.24658.95361,5.57544,2.83227,7.27563A11.99891,11.99891,0,0,0,163.98912,41.74586Zm-2.51733,11.60107q4.19347-3.873,11.09936-3.86939,6.89063,0,11.08838,3.86939a13.43475,13.43475,0,0,1,4.439,10.4104,13.55141,13.55141,0,0,1-4.439,10.44751q-4.18945,3.832-11.08838,3.8335-6.89941,0-11.09936-3.8335a13.53342,13.53342,0,0,1-4.43628-10.44751A13.417,13.417,0,0,1,161.47179,53.34693ZM164.056,63.79468a10.25163,10.25163,0,0,0,2.17774,6.77637,7.66932,7.66932,0,0,0,6.3374,2.86694,7.78909,7.78909,0,0,0,6.37085-2.86694,10.47136,10.47136,0,0,0,2.137-6.77637,10.4727,10.4727,0,0,0-2.137-6.77392,8.44173,8.44173,0,0,0-12.70825.04053A10.38074,10.38074,0,0,0,164.056,63.79468Zm72.70948,8.67237a37.30525,37.30525,0,0,1-8.98242.81274,29.06236,29.06236,0,0,1-3.14307-.125V50.24708h-6.21V77.27027h16.39844ZM120.016,41.0315h-4.363V22.04322a36.51528,36.51528,0,0,1,4.82324-.25244,12.5923,12.5923,0,0,1,6.24585,1.21484,4.97731,4.97731,0,0,1-1.5083,9.46631l7.05054,8.55957h-5.35669l-6.8916-8.67017Zm0-10.5a6.93173,6.93173,0,0,0,1.05639.07056c2.45484,0,4.20752-1.06177,4.20752-3.03809,0-2.08423-1.75268-2.79932-4.20752-2.79932a8.61778,8.61778,0,0,0-1.05639.06324Zm87.32128,21.07642a7.6134,7.6134,0,0,1,2.33838,11.1394,6.6491,6.6491,0,0,1-4.23486,2.35913l9.55786,12.16382h-7.62109L198.139,64.928V77.27027h-6.217V50.24708a47.88137,47.88137,0,0,1,6.66382-.3667Q204.48034,49.88038,207.33726,51.60792Zm-2.65893,6.64721q0-4.14294-5.24609-4.14428c-.46241,0-.88819.0144-1.29322.04614v8.231c.405.02294.83081.0371,1.29322.0371Q204.67234,62.42505,204.67833,58.25513ZM179.37535,41.333a40.42179,40.42179,0,0,1-4.874-.22729v-19.238c1.94775-.17407,3.58154-.12671,4.90234-.12671a13.69117,13.69117,0,0,1,6.42407,1.25293,4.031,4.031,0,0,1,1.845,3.66162,4.09981,4.09981,0,0,1-2.01684,3.19483c-.1145.06982-.23169.13891-.35034.20508a2.68028,2.68028,0,0,1-.34668.1372,6.73741,6.73741,0,0,1,2.11963.854q.15856.09924.30712.20263a4.718,4.718,0,0,1,1.85352,3.32862c.00635.14526.01074.29638.01074.45459,0,2.69726-1.25781,4.13281-3.46826,5.18432A14.78965,14.78965,0,0,1,179.37535,41.333Zm-.7168-12.11547h1.35279c2.208.01855,3.658-.7732,3.658-2.377,0-1.79687-1.65772-2.37939-3.86573-2.37939h-1.145Zm0,9.30908c.33863.01855,1.40088.02881,1.95044.02881,3.18824,0,4.50318-1.24292,4.50318-3.29273,0-2.17944-1.88086-3.26684-4.65723-3.26684-.54932,0-1.45776.01074-1.79639.0288Zm17.47583,2.50488h4.26929V33.50489l7.3584-11.46021h-4.8418l-4.65185,7.46558-4.64991-7.46558H188.776l7.35839,11.46021ZM321.0775,65.917c0,4.19971-2.15552,6.69116-5.71069,6.69116s-5.71216-2.56787-5.71216-6.87891V50.24708h-6.16309V65.87891c0,7.7937,4.688,11.76538,11.79907,11.76538,7.11084,0,11.94849-3.93579,11.94849-11.95532V50.24708H321.0775Zm-35.98609,4.79516a9.69037,9.69037,0,0,1-2.51586-7.04834,9.41665,9.41665,0,0,1,2.54394-6.74072,8.66238,8.66238,0,0,1,6.58106-2.68555,12.09447,12.09447,0,0,1,6.98144,1.78223V50.80665a19.959,19.959,0,0,0-7.38867-1.32911,16.12928,16.12928,0,0,0-10.97192,3.79908,13.07654,13.07654,0,0,0-4.68653,10.44751A13.243,13.243,0,0,0,280.036,74.20338q4.19679,3.68334,10.92579,3.6853a19.90922,19.90922,0,0,0,7.1499-1.17383l2.46411-5.93506a14.97477,14.97477,0,0,1-8.59912,2.5376A9.01309,9.01309,0,0,1,285.09141,70.71216Zm-20.33276-6.95483A12.30047,12.30047,0,0,1,259.88219,74.002q-4.56666,3.59472-12.71094,3.59033a46.53965,46.53965,0,0,1-7.38428-.48193v-26.748a48.83519,48.83519,0,0,1,7.38428-.48193q8.14746,0,12.71094,3.5874A12.4289,12.4289,0,0,1,264.75865,63.75733Zm-6.81836.01709q0-4.76844-2.70068-7.23389-2.58252-2.34118-7.3794-2.342c-.56811,0-1.18457.02466-1.8562.07764V73.19654c.67163.05444,1.28809.08325,1.8562.08325Q257.94017,73.27979,257.94029,63.77442Zm93.47363-4.77563a7.38181,7.38181,0,0,1-2.57275,5.88916,9.01388,9.01388,0,0,1-6.13769,2.09423A8.39592,8.39592,0,0,1,338.2628,65.856V77.27735h-6.21411V50.19825a69.72422,69.72422,0,0,1,7.26855-.31787q8.183,0,11.00489,4.918A8.43806,8.43806,0,0,1,351.41392,58.99879Zm-6.3291-.197a4.30269,4.30269,0,0,0-1.57739-3.56884,5.82746,5.82746,0,0,0-3.74219-1.12622c-.51709,0-1.019.03442-1.50244.03857v9.8623a6.341,6.341,0,0,0,1.01.07471C343.16368,64.08228,345.08482,62.32007,345.08482,58.80176ZM135.8607,60.53345l4.11548,12.13648a10.79827,10.79827,0,0,0,1.3269,2.78345,6.845,6.845,0,0,0,2.53467,1.73632c1.44922.512,2.55249.88892,3.302,1.13037l9.48023-28.073h-5.91724l-5.75659,18.55053-6.48047-18.55053h-4.40014l-6.07691,18.49585-6.43848-18.49585h-6.6831l7.90649,22.14526A12.45263,12.45263,0,0,0,123.8983,75.065a6.44748,6.44748,0,0,0,2.73682,2.11743c.47534.21435,1.57959.58984,3.29345,1.13061Zm136.46607,42.04c2.352-2.7207,6.88623-7.76538,6.88623-11.47754,0-3.65576-3.259-5.15771-6.46118-5.15771a12.30171,12.30171,0,0,0-5.32837,1.19018l-.67994,3.71241a9.05281,9.05281,0,0,1,5.07276-1.61524c1.502,0,3.00415.65161,3.00415,2.38062a4.63528,4.63528,0,0,1-.62354,2.12549,27.276,27.276,0,0,1-2.63549,3.85376,81.21866,81.21866,0,0,1-6.71656,7.907h14.7649l1.19018-3.28784a25.0442,25.0442,0,0,1-5.24292.48193C274.48033,102.68653,273.40343,102.63013,272.32677,102.57349Zm21.17016-7.87842a3.856,3.856,0,0,0,2.636-3.85424c0-3.571-3.51465-4.87427-6.54688-4.87427a13.06062,13.06062,0,0,0-4.42065.76538l-.56714,3.48535a9.80909,9.80909,0,0,1,4.22266-.96338c1.38867,0,3.0039.39673,3.0039,2.09717,0,2.21021-2.63525,2.21021-4.22241,2.21021-.39673,0-.79346,0-1.19043-.02808v3.31567a17.18812,17.18812,0,0,1,2.40894-.14209c1.81372,0,4.166.51026,4.166,2.77784,0,2.63574-2.66382,3.28662-4.7893,3.28662a19.22453,19.22453,0,0,1-5.24292-.73633l1.58715,3.62744a16.59459,16.59459,0,0,0,3.5708.36816c4.10914,0,9.40894-1.61523,9.40894-6.60254C297.52159,96.7356,296.01915,95.31861,293.49693,94.69507Zm-29.16919,1.27515c0,5.66821-3.88257,10.0603-9.66382,10.0603-5.80981,0-9.69213-4.39209-9.69213-10.0603,0-5.668,3.88232-10.0603,9.69213-10.0603C260.44517,85.90992,264.32774,90.30225,264.32774,95.97022Zm-4.90283,0c0-2.97559-1.19043-6.71631-4.761-6.71631-3.54272,0-4.7893,3.7688-4.7893,6.71631,0,2.97583,1.19018,6.688,4.7893,6.688C258.23448,102.65821,259.42491,98.94605,259.42491,95.97022Zm-67.57886,0a6.28291,6.28291,0,0,1,6.405-6.63159,8.25776,8.25776,0,0,1,4.90259,1.24707V86.92994a13.03741,13.03741,0,0,0-5.186-.93531c-5.92286,0-10.99585,3.74146-10.99585,10.00391,0,6.37622,4.676,9.947,10.769,9.947a14.34338,14.34338,0,0,0,5.01636-.82129l1.72851-4.1665a9.94675,9.94675,0,0,1-6.03638,1.78589C194.28355,102.74366,191.84605,100.07911,191.84605,95.97022Zm-11.67163,2.06885L170.59581,86.5044h-4.05249v18.988H170.369V92.99463l8.502,10.23047c1.53027,1.87036,2.8623,2.3523,5.12963,2.89087V86.5044h-3.82617Zm-64.56518,7.45337h4.39258v-8.7002h5.41284V93.95777h-5.41284V89.33863c.53857-.02808,1.10522-.02808,1.64379-.02808a23.59923,23.59923,0,0,1,4.70411.36817V86.5044H115.60924Zm40.87207-19.01563,7.93481,19.01563h-4.846l-2.09716-5.3562h-6.74488l-2.0686,5.3562h-8.761l-6.48974-8.67188v8.67188H129.045V86.47681a32.27938,32.27938,0,0,1,4.67578-.25537c1.95508,0,4.44922.16992,6.14941,1.21875a5.37609,5.37609,0,0,1,2.69239,4.53418,4.67231,4.67231,0,0,1-4.02442,4.95947l6.16211,7.85157,7.55835-18.3086ZM138.00011,92.116c0-2.15381-1.78565-2.91919-3.68433-2.91919-.31177,0-.595,0-.907.02881v5.80933c.312,0,.59521.02832.907.02832C136.21446,95.06324,138.00011,94.29859,138.00011,92.116Zm18.25439,4.959-2.21069-5.58252L151.89,97.075Zm78.69873,5.49853c2.35205-2.7207,6.88623-7.76538,6.88623-11.47754,0-3.65576-3.259-5.15771-6.46118-5.15771a12.30118,12.30118,0,0,0-5.32788,1.19018l-.67993,3.71241a9.05082,9.05082,0,0,1,5.07251-1.61524c1.50171,0,3.0039.65161,3.0039,2.38062a4.63237,4.63237,0,0,1-.62353,2.12549,27.2955,27.2955,0,0,1-2.63526,3.85376,81.15121,81.15121,0,0,1-6.71679,7.907h14.76513l1.19019-3.28784a25.04574,25.04574,0,0,1-5.24292.48193C237.1068,102.68653,236.02989,102.63013,234.95323,102.57349Zm-23.59448.02832V96.79224h5.92334V93.95777h-5.92334V89.33863c.6521-.02808,1.332-.02808,2.01221-.02808a20.04782,20.04782,0,0,1,4.70434.36817V86.5044H206.99474v18.988h11.73242l1.44555-3.54248a25.91335,25.91335,0,0,1-6.43335.73657Q212.54919,102.68653,211.35875,102.60181Z"/><path class="cls-3" d="M38.98964,79.78554a74.37192,74.37192,0,0,0,.45721,23.01874c1.6027,8.03306,4.86143,13.36378,8.71691,14.25935,3.42085.79388,7.76641-1.62795,12.1038-6.54271,2.32851-8.15322,4.03395-18.50359,5.08719-30.73538Z"/><path class="cls-4" d="M65.05007,83.094c.9-9.11634,1.42-19.35009,1.53248-30.60171.14435-8.18415-.01528-16.53967-.37987-24.27338-8.29295,1.51417-19.91307,17.45977-25.23419,40.37114a103.392,103.392,0,0,0-2.31837,14.504Z"/><path class="cls-2" d="M31.63969,65.70293c3.22371-13.51773,8.6467-25.71824,15.306-34.41755,5.89476-7.70064,12.36263-12.10345,18.6666-12.82552-.32566-4.36085-.71336-8.34912-1.13963-11.77566C43.46672,13.01181,32.00446,20.567,32.00446,20.567s-.79922,16.76152-.726,26.40155C31.27172,53.762,31.4006,59.99144,31.63969,65.70293Z"/><path class="cls-5" d="M88.786,0A59.66257,59.66257,0,0,0,76.38163,2.89384c20.81831,86.6971-19.32327,122.19727-19.32327,122.19727C123.95549,95.77566,88.786,0,88.786,0"/><path class="cls-6" d="M27.499,116.43842c-5.91792-6.684-11.01382-16.31195-14.34885-27.11044-3.335-10.79832-4.556-21.623-3.43776-30.47992.84752-6.7134,3.00463-11.92748,6.24545-15.29013.222-4.89.58358-9.35994.93512-13.2l.108-1.18112A129.05043,129.05043,0,0,0,.60473,41.72723a133.49057,133.49057,0,0,0-.593,14.34957A101.91293,101.91293,0,0,0,4.12315,84.25268a70.42513,70.42513,0,0,0,13.5655,25.2521c8.97111,10.47486,18.26877,14.29463,20.67936,15.15379A29.82537,29.82537,0,0,1,27.499,116.43842Z"/><path class="cls-7" d="M57.0584,125.091S97.19987,89.59092,76.38165,2.894A59.64743,59.64743,0,0,1,88.78587,0S123.95553,95.77561,57.0584,125.091ZM60.26753,110.521c3.902-13.66313,6.06933-33.45194,6.315-58.02859.14435-8.18415-.01528-16.53967-.37987-24.27338-8.293,1.51417-19.91307,17.45977-25.23419,40.37114-2.89574,12.46858-3.43632,24.61931-1.52182,34.21419,1.6027,8.03306,4.86143,13.36378,8.71709,14.25935C51.58458,117.85755,55.93014,115.43572,60.26753,110.521Zm-28.62784-44.818c3.22371-13.51773,8.6467-25.71824,15.306-34.41755,5.89476-7.70064,12.36263-12.10345,18.6666-12.82552-.32566-4.36085-.71336-8.34912-1.13963-11.77566C43.46672,13.01181,32.00446,20.567,32.00446,20.567s-.79922,16.76152-.726,26.40155C31.27172,53.762,31.4006,59.99144,31.63969,65.70293ZM27.49891,116.4383c-5.91787-6.68385-11.01377-16.31179-14.34876-27.11047-3.335-10.79832-4.556-21.623-3.43774-30.47976.84757-6.71335,3.00453-11.92747,6.24548-15.29.222-4.89023.58342-9.36023.935-13.20024l.10808-1.181A129.06661,129.06661,0,0,0,.60478,41.72711,133.53707,133.53707,0,0,0,.01159,56.07676a101.91654,101.91654,0,0,0,4.11163,28.176,70.427,70.427,0,0,0,13.56536,25.25215c8.97129,10.47479,18.26895,14.29454,20.6794,15.15384A29.82865,29.82865,0,0,1,27.49891,116.4383Z"/><path class="cls-8" d="M52.63281,121.50494C40.58992,120.02278,38.812,107.238,38.16244,99.18185a107.05883,107.05883,0,0,1,4.07581-35.52151,92.77743,92.77743,0,0,1,6.74137-17.27307,83.6122,83.6122,0,0,1,10.865-16.78234c6.636-7.94341,15.78158-7.49694,21.13434-1.58138q-.17433-1.42262-.37225-2.86822a17.12576,17.12576,0,0,0-9.61189-6.3956c-7.91748-1.838-16.45845,2.60962-24.04921,12.52573C40.17438,40.131,34.68126,52.5967,31.47886,66.38606c-3.2026,13.78935-3.76584,27.40009-1.58624,38.32452,2.44333,12.24655,8.1495,20.0036,16.067,21.8426a15.6005,15.6005,0,0,0,2.90835.38482,20.68518,20.68518,0,0,0,8.19251-1.84876,43.63994,43.63994,0,0,0,4.8558-5.45608A15.75519,15.75519,0,0,1,52.63281,121.50494Z"/><path class="cls-9" d="M25.25819,43.388C22.80126,45.1762,20.018,49.06359,19.16,55.85956a68.74478,68.74478,0,0,0,1.5127,22.87718,58.24611,58.24611,0,0,1-1.0986-18.64358c.739-5.85369,2.75179-9.97,5.25266-10.74234a3.56591,3.56591,0,0,1,1.056-.15111c1.501,0,3.36964.79824,5.41207,2.35007q-.01858-2.2467-.01642-4.58109c-.00985-1.29883-.00387-2.727.01386-4.22594l-.00012.01044C29.01079,42.07818,26.92221,42.17693,25.25819,43.388Z"/><path class="cls-10" d="M19.16,55.85956c.858-6.796,3.64126-10.68336,6.09819-12.47154,1.664-1.21109,3.7526-1.30984,6.03393-.63483.00954-.80942.02252-1.63956.03828-2.48121a14.46032,14.46032,0,0,0-9.4368-.41857c-6.56473,2.02748-10.89086,8.77326-12.18125,18.99466-1.11826,8.8569.10273,19.6816,3.43776,30.47992,3.335,10.79848,8.43093,20.42645,14.34885,27.11043,3.6503,4.12284,7.45665,6.93657,11.21188,8.35333.476.18867,1.02981.34894,1.57858.53615l.01643.00587c.097.034.19818.06749.297.10134a25.56264,25.56264,0,0,0,8.23014,1.50144,15.58339,15.58339,0,0,1-2.87337-.38337c-7.91748-1.839-13.62365-9.596-16.067-21.8426q-.25428-1.27452-.45884-2.59661a75.13648,75.13648,0,0,1-6.78626-15.71914c-.795-2.5742-1.45466-5.13838-1.97481-7.65806h0A68.74471,68.74471,0,0,1,19.16,55.85956Z"/><path class="cls-11" d="M80.979,28.02309v.00036c-5.35277-5.91556-14.49826-6.3621-21.13429,1.58137a83.61848,83.61848,0,0,0-10.865,16.7825c5.786-11.17092,12.79139-18.00408,18.15074-18.27819a5.969,5.969,0,0,1,1.66047.14043c3.85548.89556,7.114,6.22593,8.71691,14.259,1.9145,9.59488,1.37392,21.746-1.52182,34.21419A95.64148,95.64148,0,0,1,67.928,99.01408l-.00035.00213A57.77814,57.77814,0,0,1,60.26756,110.521v-.00036l-.117.13226L60.144,110.66l-.10541.11768-.037.04124q-.14772.16371-.29544.32388l-.07821.08461-.06649.07111c-.02879.03093-.05759.0615-.08639.09208l-.06115.06506q-.06879.07306-.13759.1447l-.04586.048q-.06159.064-.123.12728l-.02364.02453q-.16132.16586-.32264.32708l-.00658.00676q-.58368.58341-1.16452,1.1039h.00018c-3.41374,3.06035-6.7114,4.45614-9.42653,3.82579-3.85566-.89556-7.11439-6.22629-8.71709-14.25934-1.9145-9.59488-1.37392-21.74562,1.52182-34.21419q.58581-2.523,1.26975-4.92969a107.06022,107.06022,0,0,0-4.07572,35.52144c.64954,8.05617,2.42751,20.84081,14.47035,22.323a15.75406,15.75406,0,0,0,9.28344-1.87184,76.457,76.457,0,0,0,4.91689-7.18478l.03253-.05368.12283-.20336.01867-.03093v-.00036C75.70441,97.69722,86.19093,70.55689,80.979,28.02309Z"/></g></g></g></svg>