<?xml version="1.0" encoding="UTF-8"?><svg id="Layer_1" xmlns="http://www.w3.org/2000/svg" viewBox="0 0 376.66 632.88"><path d="M352.4,256.22h-13.79v-105.94C338.61,67.41,271.19,0,188.33,0S38.05,67.41,38.05,150.28v105.94h-13.79c-13.34,0-24.26,10.91-24.26,24.26v328.15c0,13.34,10.92,24.26,24.26,24.26h328.14c13.34,0,24.26-10.92,24.26-24.26v-328.15c0-13.34-10.92-24.26-24.26-24.26ZM95,150.28c0-51.46,41.87-93.33,93.33-93.33s93.33,41.87,93.33,93.33v105.94H95v-105.94ZM212.98,447.31l2.19,60.6c.19,5.22-3.93,9.48-9.15,9.48h-35.39c-5.22,0-9.34-4.27-9.15-9.48l2.19-60.6c-10.41-7.61-17.18-19.91-17.18-33.79,0-23.1,18.73-41.83,41.83-41.83s41.83,18.73,41.83,41.83c0,13.88-6.77,26.18-17.18,33.79Z" style="fill:#ec750b;"/></svg>