<?xml version="1.0" encoding="UTF-8"?><svg id="Calque_1" xmlns="http://www.w3.org/2000/svg" viewBox="0 0 447.42 461.93"><path d="M421.58,286.37c0-17.01,25.84-17.01,25.84,0v109.21c0,36.52-29.83,66.35-66.35,66.35H66.35c-36.52,0-66.35-29.83-66.35-66.35v-109.21c0-17.01,25.84-17.01,25.84,0v109.21c0,22.26,18.26,40.51,40.51,40.51h314.72c22.26,0,40.51-18.26,40.51-40.51v-109.21h0ZM213.86,358.91l-90.4-91.92c-11.89-12.09,6.48-30.16,18.37-18.07l68.96,70.12V12.76c0-17.01,25.84-17.01,25.84,0v306.29l68.96-70.12c11.89-12.09,30.26,5.97,18.37,18.07l-90.39,91.92c-5.76,6.31-14.7,5.9-19.7,0h0Z" style="fill:#fff; stroke-width:0px;"/></svg>