<?xml version="1.0" encoding="UTF-8"?><svg id="_Ñëîé_1" xmlns="http://www.w3.org/2000/svg" viewBox="0 0 1056.13 987.82"><path d="M449.78,198.8c-36.14-.13-71.23-26.63-88.84-58.02-27.91-49.72-17.49-108.77,23.22-131.62,10.83-6.08,22.81-9.16,35.61-9.16,34.24,0,69.11,22.72,88.85,57.88,27.91,49.72,17.49,108.76-23.22,131.61-11.59,6.51-23.66,9.35-35.61,9.31ZM419.76,33.58c-6.35.1-12.75,1.68-18.98,5.18-24.39,13.7-28.99,52.01-10.24,85.41,13.83,24.64,48.32,52.51,78.25,35.74,24.39-13.7,28.98-52.01,10.24-85.41-11.07-19.73-34.84-41.3-59.26-40.92Z" style="fill:#fff; stroke-width:0px;"/><path d="M1039.64,953.88h-482.02v-91.79h137.27c9.37,0,16.97-7.61,16.97-16.97v-127.5h131.71c9.37,0,16.97-7.61,16.97-16.97v-107.27h136.46c21.74,0,22.07-33.94,0-33.94h-153.43c-9.37,0-16.97,7.6-16.97,16.97v107.27h-131.71c-9.37,0-16.97,7.6-16.97,16.97v127.5s-86.9,0-86.9-.27c-15.07-61.92-50.78-207.34-56.89-220.1-2.99-6.25-8.55-17.92-149.22-72.5,13.17-45.6,24.3-86.32,24.31-93.81.03-21.66-33.63-23.24-33.95-1.1-1.09,8.96-79.97,312.56-87.3,324.1-5.84,8.15-87.31,101.43-146.91,169.32l-17.11-14.39c-9.78-8.14-11.13-22.95-2.99-32.72,37.88-45.35,101.7-126,109.17-139.72,4.48-8.28,6.11-26.75,10.45-96.27,2.44-38.97,5.57-87.58,9.1-101.56,2.99-11.68,79.02-258.79,93.85-308.78,17.41-8.71,51.29-9.68,66.64,5.04l116.91,157.77c4.21,5.7,11.67,8.29,18.46,6.25l73.59-21.86c18.2-5.43,37.34,4.89,42.64,23.08l.27.68-136.73,40.73s-93.39-87.99-93.96-88.53c-15.96-15.04-39.36,9.67-23.36,24.71l101.02,95.18c4.48,4.21,10.73,5.7,16.57,3.94,0,0,161.95-48.21,162.39-48.34,18.35-5.46,10.09-25.54,6.38-38.15-10.73-35.98-48.88-56.62-84.86-45.89l-62.19,18.46s-111.34-150.04-111.74-150.44c-20.91-22.81-75.9-26.62-95.18-18.74-2.72,1.09-70.33,37.07-95.05,50.92-85.67,47.79-90.43,53.36-92.46,61.24,0,0-67.07,173.75-67.35,174.47-3.2,8.3,1.31,19.09,10.46,22.13,0,0,41,12.9,47.11,12.9,22.81,0,43.86-13.85,52.41-36.39l39.38-104.28,33.95-16.16c-4.08,13.31-48.88,159.13-52,171.63-4.07,15.88-6.65,53.09-10.05,107.94-2.04,31.23-4.61,73.59-7.06,82.96-7.47,12.08-62.05,82.01-104.82,133.33-20.1,24.17-16.84,60.29,7.2,80.52l10.05,8.42H16.28c-21.34,0-22.06,33.94,0,33.94h1023.37c21.92,0,22.04-33.94,0-33.94ZM214.1,357.54c-15.33,7.32-21.74,44.26-26.98,58.13-7.8,20.63-15.67,41.23-23.39,61.9-7.03,18.83-25.78,13.93-40.19,8.97l60.01-155.46c13.17-9.78,72.64-43.45,117.72-68.16-5.84,19.41-12.22,40.46-18.87,62.05,0,0-68.16,32.52-68.3,32.59ZM523.68,953.88H168.62c51.05-58.25,142.57-162.8,147.73-170.67,9.23-14.39,24.98-75.22,37.07-126.28l87.44,30.01c4.08,16.43,21.18,102.79,24.17,117.31,3.94,18.87,15.62,35.3,32.18,45.21,8.15,4.89,17.25,8.01,26.48,9.1v95.32ZM542.55,823.8c-9.5,2.85-19.42,1.63-27.97-3.53-8.55-5.02-14.26-13.17-16.29-22.95-2.99-14.39-22.54-112.83-27.02-128.31-1.49-5.3-5.57-9.5-10.73-11.27l-99.25-34.22c2.85-12.63,5.3-23.36,6.92-30.82v-.54c2.44-7.88,4.75-16.02,7.2-24.17,55.12,21.59,115.55,47.39,128.85,56.49,6.38,19.82,32.18,122.88,49.97,195.79l-11.68,3.53Z" style="fill:#fff; stroke-width:0px;"/></svg>