<?xml version="1.0" encoding="UTF-8"?><svg id="Capa_1" xmlns="http://www.w3.org/2000/svg" viewBox="0 0 258 258"><g id="map_location"><line x1="85" y1="253" x2="5" y2="229" style="fill:none; stroke:#fff; stroke-linecap:round; stroke-linejoin:round; stroke-width:10px;"/><line x1="85" y1="149" x2="85" y2="157" style="fill:none; stroke:#fff; stroke-linecap:round; stroke-linejoin:round; stroke-width:10px;"/><line x1="85" y1="173" x2="85" y2="181" style="fill:none; stroke:#fff; stroke-linecap:round; stroke-linejoin:round; stroke-width:10px;"/><line x1="85" y1="197" x2="85" y2="205" style="fill:none; stroke:#fff; stroke-linecap:round; stroke-linejoin:round; stroke-width:10px;"/><line x1="85" y1="221" x2="85" y2="229" style="fill:none; stroke:#fff; stroke-linecap:round; stroke-linejoin:round; stroke-width:10px;"/><line x1="85" y1="245" x2="85" y2="253" style="fill:none; stroke:#fff; stroke-linecap:round; stroke-linejoin:round; stroke-width:10px;"/><line x1="173" y1="149" x2="173" y2="157" style="fill:none; stroke:#fff; stroke-linecap:round; stroke-linejoin:round; stroke-width:10px;"/><line x1="173" y1="173" x2="173" y2="181" style="fill:none; stroke:#fff; stroke-linecap:round; stroke-linejoin:round; stroke-width:10px;"/><line x1="173" y1="197" x2="173" y2="205" style="fill:none; stroke:#fff; stroke-linecap:round; stroke-linejoin:round; stroke-width:10px;"/><line x1="173" y1="221" x2="173" y2="229" style="fill:none; stroke:#fff; stroke-linecap:round; stroke-linejoin:round; stroke-width:10px;"/><line x1="5" y1="37" x2="48.67" y2="50.1" style="fill:none; stroke:#fff; stroke-linecap:round; stroke-linejoin:round; stroke-width:10px;"/><line x1="5" y1="229" x2="5" y2="37" style="fill:none; stroke:#fff; stroke-linecap:round; stroke-linejoin:round; stroke-width:10px;"/><line x1="85" y1="253" x2="173" y2="229" style="fill:none; stroke:#fff; stroke-linecap:round; stroke-linejoin:round; stroke-width:10px;"/><polyline points="209.18 47.85 253 61 253 253 173 229" style="fill:none; stroke:#fff; stroke-linecap:round; stroke-linejoin:round; stroke-width:10px;"/><path d="M178.39,109.81c9.79-12.53,15.42-28.09,14.5-43.96-.88-15.24-7.07-30.23-18.6-41.88-25.01-25.29-65.57-25.29-90.58,0-11.53,11.66-17.72,26.65-18.6,41.89-.92,15.87,4.71,31.43,14.5,43.96l49.39,63.19,49.39-63.19Z" style="fill:none; stroke:#fff; stroke-linecap:round; stroke-linejoin:round; stroke-width:10px;"/><circle cx="129" cy="69" r="32" style="fill:none; stroke:#fff; stroke-linecap:round; stroke-linejoin:round; stroke-width:10px;"/></g></svg>