<?xml version="1.0" encoding="UTF-8"?><svg id="_Ñëîé_1" xmlns="http://www.w3.org/2000/svg" viewBox="0 0 48 48"><path d="M18,37c2.21,0,4-1.79,4-4v-9c0-2.21-1.79-4-4-4s-4,1.79-4,4" style="fill:none; stroke:#fff; stroke-miterlimit:10; stroke-width:2px;"/><path d="M22,18V7c0-3.31-2.69-6-6-6-2.76,0-5.08,1.87-5.78,4.4-.15.51-.22,1.05-.22,1.6,0,.97.23,1.88.63,2.68" style="fill:none; stroke:#fff; stroke-miterlimit:10; stroke-width:2px;"/><path d="M22,32v9c0,3.31-2.69,6-6,6s-6-2.69-6-6c0-.58.08-1.15.24-1.68" style="fill:none; stroke:#fff; stroke-miterlimit:10; stroke-width:2px;"/><path d="M6.93,14.87c-3.5,1.56-5.93,5.06-5.93,9.13,0,2.79,1.15,5.32,3,7.14,1.11,1.08,2.46,1.91,3.98,2.39" style="fill:none; stroke:#fff; stroke-miterlimit:10; stroke-width:2px;"/><path d="M3.34,17.58c-.22-.82-.34-1.69-.34-2.58,0-4.55,3.05-8.4,7.22-9.6" style="fill:none; stroke:#fff; stroke-miterlimit:10; stroke-width:2px;"/><path d="M3.04,34.27c-.03.24-.04.48-.04.73,0,4.2,3.23,7.64,7.34,7.97" style="fill:none; stroke:#fff; stroke-miterlimit:10; stroke-width:2px;"/><path d="M17,12c2.76,0,5-2.24,5-5" style="fill:none; stroke:#fff; stroke-miterlimit:10; stroke-width:2px;"/><path d="M9.46,27.54c.91.9,2.16,1.46,3.54,1.46s2.63-.56,3.54-1.46" style="fill:none; stroke:#fff; stroke-miterlimit:10; stroke-width:2px;"/><path d="M13,15.35c2.07.73,3.62,2.57,3.93,4.8" style="fill:none; stroke:#fff; stroke-miterlimit:10; stroke-width:2px;"/><path d="M13,29c0,1.84-.7,3.49-1.86,4.74" style="fill:none; stroke:#fff; stroke-miterlimit:10; stroke-width:2px;"/><path d="M30,37c-2.21,0-4-1.79-4-4v-9c0-2.21,1.79-4,4-4s4,1.79,4,4" style="fill:none; stroke:#fff; stroke-miterlimit:10; stroke-width:2px;"/><path d="M37.37,9.68c.4-.8.63-1.71.63-2.68,0-.55-.07-1.09-.22-1.6-.7-2.53-3.02-4.4-5.78-4.4-3.31,0-6,2.69-6,6v11" style="fill:none; stroke:#fff; stroke-miterlimit:10; stroke-width:2px;"/><path d="M37.76,39.32c.16.53.24,1.1.24,1.68,0,3.31-2.69,6-6,6s-6-2.69-6-6v-9" style="fill:none; stroke:#fff; stroke-miterlimit:10; stroke-width:2px;"/><path d="M40.02,33.53c1.52-.48,2.87-1.31,3.98-2.39,1.85-1.82,3-4.35,3-7.14,0-4.07-2.43-7.57-5.93-9.13" style="fill:none; stroke:#fff; stroke-miterlimit:10; stroke-width:2px;"/><path d="M37.78,5.4c4.17,1.2,7.22,5.05,7.22,9.6,0,.89-.12,1.76-.34,2.58" style="fill:none; stroke:#fff; stroke-miterlimit:10; stroke-width:2px;"/><path d="M44.96,34.26c.03.24.04.49.04.74,0,4.2-3.23,7.64-7.34,7.97" style="fill:none; stroke:#fff; stroke-miterlimit:10; stroke-width:2px;"/><path d="M31,12c-2.76,0-5-2.24-5-5" style="fill:none; stroke:#fff; stroke-miterlimit:10; stroke-width:2px;"/><path d="M31.46,27.54c.91.9,2.16,1.46,3.54,1.46s2.63-.56,3.54-1.46" style="fill:none; stroke:#fff; stroke-miterlimit:10; stroke-width:2px;"/><path d="M31.07,20.15c.31-2.23,1.86-4.07,3.93-4.8" style="fill:none; stroke:#fff; stroke-miterlimit:10; stroke-width:2px;"/><path d="M36.86,33.74c-1.16-1.25-1.86-2.9-1.86-4.74" style="fill:none; stroke:#fff; stroke-miterlimit:10; stroke-width:2px;"/></svg>