<?xml version="1.0" encoding="UTF-8"?><svg id="Layer_1" xmlns="http://www.w3.org/2000/svg" viewBox="0 0 394.91 342.55"><path d="M388.34,342.55H6.57c-3.63,0-6.57-2.94-6.57-6.57s2.94-6.57,6.57-6.57h381.77c3.63,0,6.57,2.94,6.57,6.57s-2.94,6.57-6.57,6.57Z" style="fill:#fff; stroke-width:0px;"/><path d="M368.64,305.95h-42.41c-3.63,0-6.57-2.94-6.57-6.57v-18.13c0-3.63,2.94-6.57,6.57-6.57h42.41c3.63,0,6.57,2.94,6.57,6.57v18.13c0,3.63-2.94,6.57-6.57,6.57ZM332.8,292.81h29.26v-4.99h-29.26v4.99Z" style="fill:#fff; stroke-width:0px;"/><path d="M295.16,305.95h-42.41c-3.63,0-6.57-2.94-6.57-6.57v-52.9c0-3.63,2.94-6.57,6.57-6.57h42.41c3.63,0,6.57,2.94,6.57,6.57v52.9c0,3.63-2.94,6.57-6.57,6.57ZM259.33,292.81h29.26v-39.76h-29.26v39.76Z" style="fill:#fff; stroke-width:0px;"/><path d="M221.68,305.95h-42.41c-3.63,0-6.57-2.94-6.57-6.57v-81.49c0-3.63,2.94-6.57,6.57-6.57h42.41c3.63,0,6.57,2.94,6.57,6.57v81.49c0,3.63-2.94,6.57-6.57,6.57ZM185.85,292.81h29.26v-68.35h-29.26v68.35Z" style="fill:#fff; stroke-width:0px;"/><path d="M148.2,305.95h-42.41c-3.63,0-6.57-2.94-6.57-6.57v-121.74c0-3.63,2.94-6.57,6.57-6.57h42.41c3.63,0,6.57,2.94,6.57,6.57v121.74c0,3.63-2.94,6.57-6.57,6.57ZM112.37,292.81h29.26v-108.6h-29.26v108.6Z" style="fill:#fff; stroke-width:0px;"/><path d="M74.72,305.95h-42.41c-3.63,0-6.57-2.94-6.57-6.57V105.08c0-3.63,2.94-6.57,6.57-6.57h42.41c3.63,0,6.57,2.94,6.57,6.57v194.3c0,3.63-2.94,6.57-6.57,6.57ZM38.89,292.81h29.26V111.65h-29.26v181.16Z" style="fill:#fff; stroke-width:0px;"/><path d="M368.64,240.34c-.54,0-1.09-.06-1.63-.21-11.1-2.85-272.33-71.61-319.79-231.69-1.03-3.48.95-7.14,4.43-8.17,3.52-1.05,7.15.96,8.18,4.43,45.35,152.92,307.8,222.01,310.45,222.69,3.52.9,5.63,4.49,4.74,8-.77,2.96-3.44,4.93-6.37,4.93Z" style="fill:#fff; stroke-width:0px;"/></svg>