<?xml version="1.0" encoding="UTF-8"?><svg id="Layer_2" xmlns="http://www.w3.org/2000/svg" viewBox="0 0 351.34 312.26"><path d="M349.62,264.9l-49.95-86.52h8.59c2.21,0,4-1.79,4-4v-36.51c0-2.21-1.79-4-4-4h-19.13c-3.35-20.15-11.32-39.38-23.23-56.03l13.55-13.55c.75-.75,1.17-1.77,1.17-2.83s-.42-2.08-1.17-2.83l-25.82-25.82c-.75-.75-1.77-1.17-2.83-1.17s-2.08.42-2.83,1.17l-13.55,13.55c-16.64-11.9-35.89-19.88-56.04-23.23V4c0-2.21-1.79-4-4-4h-36.51c-2.21,0-4,1.79-4,4v19.13c-20.15,3.35-39.39,11.32-56.03,23.23l-13.55-13.55c-.75-.75-1.77-1.17-2.83-1.17s-2.08.42-2.83,1.17l-25.82,25.82c-1.56,1.56-1.56,4.09,0,5.66l13.55,13.55c-11.9,16.64-19.88,35.88-23.23,56.03H4c-2.21,0-4,1.79-4,4v36.51c0,2.21,1.79,4,4,4h19.13c3.35,20.15,11.33,39.4,23.23,56.04l-13.55,13.55c-1.56,1.56-1.56,4.09,0,5.66l25.82,25.82c.75.75,1.77,1.17,2.83,1.17s2.08-.42,2.83-1.17l13.55-13.55c16.65,11.91,35.88,19.88,56.03,23.23v19.13c0,2.21,1.79,4,4,4h36.51c2.21,0,4-1.79,4-4v-19.14c7.1-1.18,14.08-2.94,20.84-5.22h139.43c4.58,0,8.68-2.37,10.97-6.33,2.29-3.97,2.29-8.7,0-12.67ZM170.38,285.69v18.57h-28.51v-18.57c0-2-1.47-3.69-3.45-3.96-21.2-2.95-41.45-11.35-58.57-24.28-1.59-1.2-3.83-1.05-5.24.36l-13.15,13.15-20.16-20.16,13.15-13.15c1.41-1.41,1.57-3.65.36-5.24-12.93-17.12-21.33-37.37-24.28-58.58-.28-1.98-1.97-3.45-3.96-3.45H8v-28.51h18.57c2,0,3.69-1.47,3.96-3.45,2.95-21.2,11.35-41.45,24.28-58.57,1.2-1.59,1.05-3.83-.36-5.24l-13.15-13.15,20.16-20.16,13.15,13.15c1.41,1.41,3.65,1.57,5.24.36,17.12-12.93,37.37-21.33,58.57-24.28,1.98-.27,3.45-1.97,3.45-3.96V8h28.51v18.57c0,2,1.47,3.69,3.45,3.96,21.21,2.95,41.46,11.35,58.58,24.28,1.59,1.2,3.83,1.05,5.24-.36l13.15-13.15,20.16,20.16-13.15,13.15c-1.41,1.41-1.57,3.65-.36,5.24,12.93,17.12,21.33,37.37,24.28,58.57.28,1.98,1.97,3.45,3.96,3.45h18.57v28.51h-9.21l-29.91-51.81c-2.29-3.97-6.39-6.33-10.97-6.33s-8.68,2.37-10.97,6.33l-7.91,13.7c-2.05-6.82-4.96-13.35-8.73-19.44-6.75-11-16.14-20.38-27.12-27.12-7.47-4.62-15.59-7.99-24.12-10-12.39-2.99-25.98-2.98-38.37,0-8.53,2.01-16.65,5.38-24.12,10-10.99,6.75-20.37,16.13-27.12,27.12-4.62,7.48-7.99,15.6-10,24.12-1.49,6.21-2.25,12.67-2.25,19.2s.76,12.99,2.25,19.17c2.01,8.54,5.38,16.66,9.99,24.12,6.75,11,16.13,20.38,27.12,27.13,7.48,4.62,15.6,7.99,24.12,10,6.21,1.49,12.67,2.25,19.2,2.25s12.81-.74,18.91-2.19l-16.33,28.29c-2.29,3.97-2.29,8.7,0,12.67,2.29,3.97,6.39,6.33,10.97,6.33h1.14c-.27.54-.44,1.14-.44,1.79ZM180.81,226.61c-2.38.83-4.85,1.56-7.37,2.16-11.17,2.69-23.43,2.7-34.65,0-7.69-1.82-15.02-4.85-21.78-9.02-9.93-6.1-18.4-14.57-24.5-24.52-4.17-6.74-7.2-14.06-9.02-21.78-1.35-5.58-2.03-11.41-2.03-17.31s.68-11.73,2.03-17.34c1.82-7.69,4.85-15.02,9.02-21.78,6.1-9.93,14.57-18.4,24.5-24.5,6.75-4.17,14.07-7.2,21.78-9.02,11.19-2.69,23.45-2.7,34.66,0,7.7,1.82,15.02,4.85,21.78,9.03,9.93,6.09,18.4,14.56,24.51,24.5,4.17,6.75,7.21,14.07,9.03,21.79.28,1.16.52,2.32.73,3.47l-48.69,84.33ZM342.69,273.57c-.41.7-1.61,2.33-4.04,2.33h-168.96c-2.43,0-3.64-1.63-4.04-2.33-.41-.7-1.22-2.56,0-4.67l84.48-146.33c1.22-2.11,3.23-2.33,4.04-2.33s2.83.23,4.04,2.33l84.48,146.33c1.22,2.11.41,3.97,0,4.67Z" style="fill:#fff; stroke-width:0px;"/><path d="M254.17,163.04c-4.09,0-8.01,1.73-10.77,4.74-2.76,3.01-4.13,7.08-3.77,11.15l4.45,50.26c.47,5.27,4.81,9.24,10.1,9.24s9.63-3.97,10.1-9.24l4.45-50.26c.36-4.07-1.02-8.13-3.77-11.15-2.76-3.01-6.68-4.74-10.77-4.74ZM260.74,178.23l-4.45,50.26c-.1,1.11-1.01,1.95-2.13,1.95s-2.03-.84-2.13-1.95l-4.45-50.26c-.16-1.87.44-3.66,1.71-5.04,1.27-1.38,3-2.14,4.87-2.14s3.6.76,4.87,2.14c1.27,1.38,1.87,3.17,1.71,5.04Z" style="fill:#fff; stroke-width:0px;"/><path d="M254.17,242.36c-5.69,0-10.32,4.63-10.32,10.32s4.63,10.32,10.32,10.32,10.32-4.63,10.32-10.32-4.63-10.32-10.32-10.32ZM254.17,255c-1.28,0-2.32-1.04-2.32-2.32s1.04-2.32,2.32-2.32,2.32,1.04,2.32,2.32-1.04,2.32-2.32,2.32Z" style="fill:#fff; stroke-width:0px;"/></svg>