<?xml version="1.0" encoding="UTF-8"?><svg id="Layer_1" xmlns="http://www.w3.org/2000/svg" viewBox="0 0 136.32 151.1"><path d="M73.73,34.08c0-9.69-7.88-17.58-17.58-17.58h-2.12v19.7h19.7v-2.12ZM58.28,31.96v-11.04c5.66.91,10.14,5.39,11.04,11.04h-11.04Z" style="fill:#fff; stroke-width:0px;"/><path d="M50.52,22.15c-9.69,0-17.58,7.88-17.58,17.58s7.88,17.58,17.58,17.58,17.58-7.88,17.58-17.58v-2.12h-15.45v-15.45h-2.12ZM63.68,41.85c-1.02,6.35-6.53,11.21-13.16,11.21-7.35,0-13.33-5.98-13.33-13.33,0-6.63,4.86-12.15,11.21-13.16v15.29h15.29Z" style="fill:#fff; stroke-width:0px;"/><path d="M121.88,140.35l-5.93-3.1c-.19-.1-.3-.29-.3-.5v-1.51c1.53-1.41,2.56-3.36,2.78-5.59l.4-3.98c.25-2.47-.56-4.95-2.23-6.79-1.33-1.47-3.12-2.44-5.06-2.77-.4-3.14-2.29-5.91-5.15-7.4l-5.93-3.1c-.19-.1-.3-.29-.3-.5v-1.51c1.53-1.41,2.56-3.36,2.78-5.59l.4-3.98c.25-2.47-.56-4.95-2.23-6.79-1.67-1.84-4.05-2.9-6.53-2.9h-.81c-2.49,0-4.87,1.06-6.53,2.9-1.67,1.84-2.48,4.32-2.23,6.79l.4,3.98c.22,2.22,1.26,4.18,2.78,5.59v1.51c0,.21-.12.4-.3.5l-5.93,3.1c-1.23.64-2.28,1.52-3.11,2.56-.83-1.04-1.88-1.92-3.11-2.56l-5.93-3.1c-.19-.1-.3-.29-.3-.5v-1.51c1.53-1.41,2.56-3.36,2.78-5.59l.4-3.98c.25-2.47-.56-4.95-2.23-6.79-1.67-1.84-4.05-2.9-6.53-2.9h-.81c-2.49,0-4.87,1.06-6.53,2.9-1.67,1.84-2.48,4.32-2.23,6.79l.4,3.98c.22,2.22,1.26,4.18,2.78,5.59v1.51c0,.21-.12.4-.3.5l-5.93,3.1c-1.23.64-2.28,1.52-3.11,2.56-.83-1.04-1.88-1.92-3.11-2.56l-5.93-3.1c-.19-.1-.3-.29-.3-.5v-1.51c1.53-1.41,2.56-3.36,2.78-5.59l.4-3.98c.25-2.47-.56-4.95-2.23-6.79-1.67-1.84-4.05-2.9-6.53-2.9h-.81c-2.49,0-4.87,1.06-6.53,2.9-1.67,1.84-2.48,4.32-2.23,6.79l.4,3.98c.22,2.22,1.26,4.18,2.78,5.59v1.51c0,.21-.12.4-.3.5l-5.93,3.1c-2.86,1.49-4.75,4.26-5.15,7.4-1.93.33-3.72,1.3-5.06,2.77-1.67,1.84-2.48,4.32-2.23,6.79l.4,3.98c.22,2.22,1.26,4.18,2.78,5.59v1.51c0,.21-.12.4-.3.5l-5.93,3.1c-3.22,1.68-5.23,4.99-5.23,8.63,0,1.17.95,2.12,2.12,2.12s2.12-.95,2.12-2.12c0-2.05,1.13-3.92,2.95-4.87l5.93-3.1c1.4-.73,2.33-2.08,2.54-3.62.58.12,1.17.18,1.78.18s1.21-.07,1.78-.18c.2,1.54,1.14,2.89,2.54,3.62l5.93,3.1c1.82.95,2.95,2.81,2.95,4.87,0,1.17.95,2.12,2.12,2.12s2.12-.95,2.12-2.12c0-2.05,1.13-3.92,2.95-4.87l5.93-3.1c1.4-.73,2.33-2.08,2.54-3.62.58.12,1.17.18,1.78.18s1.21-.07,1.78-.18c.2,1.54,1.14,2.89,2.54,3.62l5.93,3.1c1.82.95,2.95,2.81,2.95,4.87,0,1.17.95,2.12,2.12,2.12.05,0,.11-.01.16-.02.05,0,.11.02.16.02,1.17,0,2.12-.95,2.12-2.12,0-2.05,1.13-3.92,2.95-4.87l5.93-3.1c1.4-.73,2.33-2.08,2.54-3.62.58.12,1.17.18,1.78.18s1.2-.07,1.78-.18c.2,1.54,1.14,2.89,2.54,3.62l5.93,3.1c1.82.95,2.95,2.81,2.95,4.87,0,1.17.95,2.12,2.12,2.12s2.12-.95,2.12-2.12c0-2.05,1.13-3.92,2.95-4.87l5.93-3.1c1.4-.73,2.33-2.08,2.54-3.62.58.12,1.17.18,1.78.18s1.21-.07,1.78-.18c.2,1.54,1.14,2.89,2.54,3.62l5.93,3.1c1.82.95,2.95,2.81,2.95,4.87,0,1.17.95,2.12,2.12,2.12s2.12-.95,2.12-2.12c0-3.64-2-6.94-5.23-8.63ZM90.4,90.09c.88-.97,2.08-1.5,3.39-1.5h.81c1.31,0,2.51.53,3.39,1.5.88.97,1.29,2.22,1.16,3.52l-.4,3.98c-.24,2.34-2.19,4.11-4.54,4.11s-4.31-1.76-4.54-4.11l-.4-3.98c-.13-1.3.28-2.55,1.16-3.52ZM59.77,90.09c.88-.97,2.08-1.5,3.39-1.5h.81c1.31,0,2.51.53,3.39,1.5s1.29,2.22,1.16,3.52l-.4,3.98c-.24,2.34-2.19,4.11-4.54,4.11s-4.31-1.76-4.54-4.11l-.4-3.98c-.13-1.3.28-2.55,1.16-3.52ZM29.13,90.09c.88-.97,2.08-1.5,3.39-1.5h.81c1.31,0,2.51.53,3.39,1.5.88.97,1.29,2.22,1.16,3.52l-.4,3.98c-.24,2.34-2.19,4.11-4.54,4.11s-4.31-1.77-4.54-4.11l-.4-3.98c-.13-1.3.28-2.55,1.16-3.52ZM22.38,125.25l-.4,3.98c-.24,2.34-2.19,4.11-4.54,4.11s-4.31-1.76-4.54-4.11l-.4-3.98c-.13-1.3.28-2.55,1.16-3.52.88-.97,2.08-1.5,3.39-1.5h.81c1.31,0,2.51.53,3.39,1.5.88.97,1.29,2.22,1.16,3.52ZM42.1,136.76c0,.21-.12.4-.3.5l-5.93,3.1c-1.23.64-2.28,1.52-3.11,2.56-.83-1.04-1.88-1.92-3.11-2.56l-5.93-3.1c-.19-.1-.3-.29-.3-.5v-1.51c1.53-1.41,2.56-3.36,2.78-5.59l.4-3.98c.25-2.47-.56-4.95-2.23-6.79-1.21-1.34-2.8-2.26-4.54-2.67.33-1.59,1.35-2.97,2.83-3.74l5.93-3.1c1.4-.73,2.33-2.08,2.54-3.62.58.12,1.17.18,1.78.18s1.21-.07,1.78-.18c.2,1.54,1.14,2.89,2.54,3.62l5.93,3.1c1.46.76,2.47,2.11,2.82,3.68-1.85.36-3.56,1.31-4.84,2.73-1.67,1.84-2.48,4.32-2.23,6.79l.4,3.98c.23,2.22,1.26,4.18,2.78,5.59v1.51ZM53.02,125.25l-.4,3.98c-.24,2.34-2.19,4.11-4.54,4.11s-4.31-1.76-4.54-4.11l-.4-3.98c-.13-1.3.28-2.55,1.16-3.52.88-.97,2.08-1.5,3.39-1.5h.81c1.31,0,2.51.53,3.39,1.5.88.97,1.29,2.22,1.16,3.52ZM73.06,136.76c0,.21-.12.4-.3.5l-5.93,3.1c-1.31.68-2.41,1.64-3.27,2.77-.85-1.13-1.96-2.09-3.27-2.77l-5.93-3.1c-.19-.1-.3-.29-.3-.5v-1.51c1.53-1.41,2.56-3.36,2.78-5.59l.4-3.98c.25-2.47-.56-4.95-2.23-6.79-1.21-1.34-2.8-2.26-4.54-2.67.33-1.59,1.35-2.97,2.83-3.74l5.93-3.1c1.4-.73,2.33-2.08,2.54-3.62.58.12,1.17.18,1.78.18s1.21-.07,1.78-.18c.2,1.54,1.14,2.89,2.54,3.62l5.93,3.1c1.48.77,2.5,2.15,2.83,3.74-1.73.4-3.33,1.33-4.54,2.67-1.67,1.84-2.48,4.32-2.23,6.79l.4,3.98c.23,2.22,1.26,4.18,2.78,5.59v1.51ZM83.98,125.25l-.4,3.98c-.24,2.34-2.19,4.11-4.54,4.11h0c-2.35,0-4.31-1.76-4.54-4.11l-.4-3.98c-.13-1.3.28-2.55,1.16-3.52.88-.97,2.08-1.5,3.39-1.5h.81c1.31,0,2.51.53,3.39,1.5.88.97,1.29,2.22,1.16,3.52ZM103.69,136.76c0,.21-.12.4-.3.5l-5.93,3.1c-1.23.64-2.28,1.52-3.11,2.56-.83-1.04-1.88-1.92-3.11-2.56l-5.93-3.1c-.19-.1-.3-.29-.3-.5v-1.51c1.53-1.41,2.56-3.36,2.78-5.59l.4-3.98c.25-2.47-.56-4.95-2.23-6.79-1.28-1.42-2.99-2.37-4.84-2.73.34-1.56,1.36-2.91,2.82-3.68l5.93-3.1c1.4-.73,2.33-2.08,2.54-3.62.58.12,1.17.18,1.78.18s1.21-.07,1.78-.18c.2,1.54,1.14,2.89,2.54,3.62l5.93,3.1c1.48.77,2.5,2.15,2.83,3.74-1.73.4-3.33,1.33-4.54,2.67-1.67,1.84-2.48,4.32-2.23,6.79l.4,3.98c.23,2.22,1.26,4.18,2.78,5.59v1.51ZM114.62,125.25l-.4,3.98c-.24,2.34-2.19,4.11-4.54,4.11s-4.31-1.76-4.54-4.11l-.4-3.98c-.13-1.3.28-2.55,1.16-3.52.88-.97,2.08-1.5,3.39-1.5h.81c1.31,0,2.51.53,3.39,1.5.88.97,1.29,2.22,1.16,3.52Z" style="fill:#fff; stroke-width:0px;"/><path d="M86.5,37.54v18.3c0,2.84,2.31,5.15,5.15,5.15.31,0,.61-.03.91-.08v19.22c0,1.17.95,2.12,2.12,2.12s2.12-.95,2.12-2.12v-37.16c0-1.17-.95-2.12-2.12-2.12s-2.12.95-2.12,2.12v12.88c0,.5-.41.91-.91.91s-.91-.41-.91-.91v-18.3c0-1.16.95-2.11,2.11-2.11h20.42c1.16,0,2.11.95,2.11,2.11v18.3c0,.5-.41.91-.91.91s-.91-.41-.91-.91v-12.85c0-1.17-.95-2.12-2.12-2.12s-2.12.95-2.12,2.12v37.24c0,1.17.95,2.12,2.12,2.12s2.12-.95,2.12-2.12v-19.33c.29.05.6.08.91.08,2.84,0,5.15-2.31,5.15-5.15v-18.3c0-3.5-2.85-6.35-6.35-6.35h-20.42c-3.5,0-6.35,2.85-6.35,6.35Z" style="fill:#fff; stroke-width:0px;"/><path d="M113,20.09c0-5.48-4.46-9.94-9.94-9.94s-9.94,4.46-9.94,9.94,4.46,9.94,9.94,9.94,9.94-4.46,9.94-9.94ZM97.37,20.09c0-3.14,2.55-5.69,5.69-5.69s5.69,2.55,5.69,5.69-2.55,5.69-5.69,5.69-5.69-2.55-5.69-5.69Z" style="fill:#fff; stroke-width:0px;"/><path d="M100.94,58.86v21.28c0,1.17.95,2.12,2.12,2.12s2.12-.95,2.12-2.12v-21.28c0-1.17-.95-2.12-2.12-2.12s-2.12.95-2.12,2.12Z" style="fill:#fff; stroke-width:0px;"/><path d="M134.13,0H17.08c-1.21,0-2.19.98-2.19,2.19v70.09c0,1.21.98,2.19,2.19,2.19h69.16c1.17,0,2.12-.95,2.12-2.12s-.95-2.12-2.12-2.12H19.13V4.24h112.95v65.99h-11.98c-1.17,0-2.12.95-2.12,2.12s.95,2.12,2.12,2.12h14.04c1.21,0,2.19-.98,2.19-2.19V2.19c0-1.21-.98-2.19-2.19-2.19Z" style="fill:#fff; stroke-width:0px;"/></svg>