<?xml version="1.0" encoding="UTF-8"?><svg id="Layer_1" xmlns="http://www.w3.org/2000/svg" viewBox="0 0 296 276.51"><path d="M225.4,238.19V38.32c0-17.9,14.41-32.32,32.3-32.32h0c17.89,0,32.3,14.41,32.3,32.32h-64.6" style="fill:none; fill-rule:evenodd; stroke:#fff; stroke-linejoin:round; stroke-width:12px;"/><path d="M225.4,238.19c0,17.9-14.41,32.32-32.3,32.32h0" style="fill:none; fill-rule:evenodd; stroke:#fff; stroke-linejoin:round; stroke-width:12px;"/><path d="M193.1,270.51H38.3c-17.89,0-32.3-14.41-32.3-32.32h154.8c0,17.9,14.41,32.32,32.3,32.32h0" style="fill:none; fill-rule:evenodd; stroke:#fff; stroke-linejoin:round; stroke-width:12px;"/><path d="M43.27,38.32c0-17.9,14.41-32.32,32.3-32.32h182.13" style="fill:none; fill-rule:evenodd; stroke:#fff; stroke-linejoin:round; stroke-width:12px;"/><line x1="43.27" y1="238.19" x2="43.27" y2="38.32" style="fill:none; stroke:#fff; stroke-linejoin:round; stroke-width:12px;"/><line x1="84.69" y1="66.17" x2="183.98" y2="66.17" style="fill:none; stroke:#fff; stroke-linejoin:round; stroke-width:12px;"/><line x1="84.69" y1="103.45" x2="183.98" y2="103.45" style="fill:none; stroke:#fff; stroke-linejoin:round; stroke-width:12px;"/><line x1="84.69" y1="140.74" x2="183.98" y2="140.74" style="fill:none; stroke:#fff; stroke-linejoin:round; stroke-width:12px;"/><line x1="84.69" y1="178.03" x2="183.98" y2="178.03" style="fill:none; stroke:#fff; stroke-linejoin:round; stroke-width:12px;"/></svg>