<?xml version="1.0" encoding="UTF-8"?><svg id="Capa_1" xmlns="http://www.w3.org/2000/svg" viewBox="0 0 256 232"><g id="euro_coins"><circle cx="168" cy="144" r="84" style="fill:none; stroke:#fff; stroke-linecap:round; stroke-linejoin:round; stroke-width:8px;"/><path d="M192,180c-8,8-20,8-20,8-15.4,0-28-12.6-28-28v-32c0-15.4,12.6-28,28-28,0,0,12,0,20,8" style="fill:none; stroke:#fff; stroke-linecap:round; stroke-linejoin:round; stroke-width:8px;"/><line x1="132" y1="132" x2="172" y2="132" style="fill:none; stroke:#fff; stroke-linecap:round; stroke-linejoin:round; stroke-width:8px;"/><line x1="132" y1="156" x2="172" y2="156" style="fill:none; stroke:#fff; stroke-linecap:round; stroke-linejoin:round; stroke-width:8px;"/><path d="M108,52H32V8c0-2.21,1.79-4,4-4h148c2.21,0,4,1.79,4,4v28" style="fill:none; stroke:#fff; stroke-linecap:round; stroke-linejoin:round; stroke-width:8px;"/><line x1="56" y1="24" x2="56" y2="52" style="fill:none; stroke:#fff; stroke-linecap:round; stroke-linejoin:round; stroke-width:8px;"/><line x1="88" y1="24" x2="88" y2="52" style="fill:none; stroke:#fff; stroke-linecap:round; stroke-linejoin:round; stroke-width:8px;"/><path d="M68,100H16c-2.21,0-4-1.79-4-4v-40c0-2.21,1.79-4,4-4h16" style="fill:none; stroke:#fff; stroke-linecap:round; stroke-linejoin:round; stroke-width:8px;"/><line x1="36" y1="72" x2="36" y2="100" style="fill:none; stroke:#fff; stroke-linecap:round; stroke-linejoin:round; stroke-width:8px;"/><line x1="68" y1="72" x2="68" y2="100" style="fill:none; stroke:#fff; stroke-linecap:round; stroke-linejoin:round; stroke-width:8px;"/><polyline points="60 148 32 148 32 100" style="fill:none; stroke:#fff; stroke-linecap:round; stroke-linejoin:round; stroke-width:8px;"/><line x1="56" y1="120" x2="56" y2="148" style="fill:none; stroke:#fff; stroke-linecap:round; stroke-linejoin:round; stroke-width:8px;"/><path d="M72,196H8c-2.21,0-4-1.79-4-4v-40c0-2.21,1.79-4,4-4h24" style="fill:none; stroke:#fff; stroke-linecap:round; stroke-linejoin:round; stroke-width:8px;"/><line x1="28" y1="168" x2="28" y2="196" style="fill:none; stroke:#fff; stroke-linecap:round; stroke-linejoin:round; stroke-width:8px;"/><line x1="60" y1="168" x2="60" y2="196" style="fill:none; stroke:#fff; stroke-linecap:round; stroke-linejoin:round; stroke-width:8px;"/></g></svg>