<?xml version="1.0" encoding="UTF-8"?><svg id="_Ñëîé_3" xmlns="http://www.w3.org/2000/svg" viewBox="0 0 175.41 144.83"><path d="M20.12,55.54c-1.1,0-2,.9-2,2v5.11c0,1.1.9,2,2,2s2-.9,2-2v-5.11c0-1.1-.9-2-2-2Z" style="fill:#fff; stroke:#fff; stroke-miterlimit:10; stroke-width:.75px;"/><path d="M20.12,73.83c-1.1,0-2,.9-2,2v5.11c0,1.1.9,2,2,2s2-.9,2-2v-5.11c0-1.1-.9-2-2-2Z" style="fill:#fff; stroke:#fff; stroke-miterlimit:10; stroke-width:.75px;"/><path d="M20.12,92.13c-1.1,0-2,.9-2,2v5.11c0,1.1.9,2,2,2s2-.9,2-2v-5.11c0-1.1-.9-2-2-2Z" style="fill:#fff; stroke:#fff; stroke-miterlimit:10; stroke-width:.75px;"/><path d="M33.17,64.64c1.1,0,2-.9,2-2v-5.11c0-1.1-.9-2-2-2s-2,.9-2,2v5.11c0,1.1.9,2,2,2Z" style="fill:#fff; stroke:#fff; stroke-miterlimit:10; stroke-width:.75px;"/><path d="M33.17,82.94c1.1,0,2-.9,2-2v-5.11c0-1.1-.9-2-2-2s-2,.9-2,2v5.11c0,1.1.9,2,2,2Z" style="fill:#fff; stroke:#fff; stroke-miterlimit:10; stroke-width:.75px;"/><path d="M33.17,101.24c1.1,0,2-.9,2-2v-5.11c0-1.1-.9-2-2-2s-2,.9-2,2v5.11c0,1.1.9,2,2,2Z" style="fill:#fff; stroke:#fff; stroke-miterlimit:10; stroke-width:.75px;"/><path d="M46.22,64.64c1.1,0,2-.9,2-2v-5.11c0-1.1-.9-2-2-2s-2,.9-2,2v5.11c0,1.1.9,2,2,2Z" style="fill:#fff; stroke:#fff; stroke-miterlimit:10; stroke-width:.75px;"/><path d="M46.22,82.94c1.1,0,2-.9,2-2v-5.11c0-1.1-.9-2-2-2s-2,.9-2,2v5.11c0,1.1.9,2,2,2Z" style="fill:#fff; stroke:#fff; stroke-miterlimit:10; stroke-width:.75px;"/><path d="M46.22,101.24c1.1,0,2-.9,2-2v-5.11c0-1.1-.9-2-2-2s-2,.9-2,2v5.11c0,1.1.9,2,2,2Z" style="fill:#fff; stroke:#fff; stroke-miterlimit:10; stroke-width:.75px;"/><path d="M55.85,19.82c1.1,0,2-.9,2-2v-4.81c0-1.1-.9-2-2-2s-2,.9-2,2v4.81c0,1.1.9,2,2,2Z" style="fill:#fff; stroke:#fff; stroke-miterlimit:10; stroke-width:.75px;"/><path d="M57.85,35.04v-4.81c0-1.1-.9-2-2-2s-2,.9-2,2v4.81c0,1.1.9,2,2,2s2-.9,2-2Z" style="fill:#fff; stroke:#fff; stroke-miterlimit:10; stroke-width:.75px;"/><path d="M68.99,19.82c1.1,0,2-.9,2-2v-4.81c0-1.1-.9-2-2-2s-2,.9-2,2v4.81c0,1.1.9,2,2,2Z" style="fill:#fff; stroke:#fff; stroke-miterlimit:10; stroke-width:.75px;"/><path d="M68.99,37.04c1.1,0,2-.9,2-2v-4.81c0-1.1-.9-2-2-2s-2,.9-2,2v4.81c0,1.1.9,2,2,2Z" style="fill:#fff; stroke:#fff; stroke-miterlimit:10; stroke-width:.75px;"/><path d="M68.99,54.26c1.1,0,2-.9,2-2v-4.81c0-1.1-.9-2-2-2s-2,.9-2,2v4.81c0,1.1.9,2,2,2Z" style="fill:#fff; stroke:#fff; stroke-miterlimit:10; stroke-width:.75px;"/><path d="M68.99,71.48c1.1,0,2-.9,2-2v-4.81c0-1.1-.9-2-2-2s-2,.9-2,2v4.81c0,1.1.9,2,2,2Z" style="fill:#fff; stroke:#fff; stroke-miterlimit:10; stroke-width:.75px;"/><path d="M68.99,88.7c1.1,0,2-.9,2-2v-4.81c0-1.1-.9-2-2-2s-2,.9-2,2v4.81c0,1.1.9,2,2,2Z" style="fill:#fff; stroke:#fff; stroke-miterlimit:10; stroke-width:.75px;"/><path d="M82.13,19.82c1.1,0,2-.9,2-2v-4.81c0-1.1-.9-2-2-2s-2,.9-2,2v4.81c0,1.1.9,2,2,2Z" style="fill:#fff; stroke:#fff; stroke-miterlimit:10; stroke-width:.75px;"/><path d="M82.13,37.04c1.1,0,2-.9,2-2v-4.81c0-1.1-.9-2-2-2s-2,.9-2,2v4.81c0,1.1.9,2,2,2Z" style="fill:#fff; stroke:#fff; stroke-miterlimit:10; stroke-width:.75px;"/><path d="M82.13,54.26c1.1,0,2-.9,2-2v-4.81c0-1.1-.9-2-2-2s-2,.9-2,2v4.81c0,1.1.9,2,2,2Z" style="fill:#fff; stroke:#fff; stroke-miterlimit:10; stroke-width:.75px;"/><path d="M82.13,71.48c1.1,0,2-.9,2-2v-4.81c0-1.1-.9-2-2-2s-2,.9-2,2v4.81c0,1.1.9,2,2,2Z" style="fill:#fff; stroke:#fff; stroke-miterlimit:10; stroke-width:.75px;"/><path d="M82.13,88.7c1.1,0,2-.9,2-2v-4.81c0-1.1-.9-2-2-2s-2,.9-2,2v4.81c0,1.1.9,2,2,2Z" style="fill:#fff; stroke:#fff; stroke-miterlimit:10; stroke-width:.75px;"/><path d="M82.13,105.92c1.1,0,2-.9,2-2v-4.81c0-1.1-.9-2-2-2s-2,.9-2,2v4.81c0,1.1.9,2,2,2Z" style="fill:#fff; stroke:#fff; stroke-miterlimit:10; stroke-width:.75px;"/><path d="M95.28,19.82c1.1,0,2-.9,2-2v-4.81c0-1.1-.9-2-2-2s-2,.9-2,2v4.81c0,1.1.9,2,2,2Z" style="fill:#fff; stroke:#fff; stroke-miterlimit:10; stroke-width:.75px;"/><path d="M95.28,37.04c1.1,0,2-.9,2-2v-4.81c0-1.1-.9-2-2-2s-2,.9-2,2v4.81c0,1.1.9,2,2,2Z" style="fill:#fff; stroke:#fff; stroke-miterlimit:10; stroke-width:.75px;"/><path d="M95.28,54.26c1.1,0,2-.9,2-2v-4.81c0-1.1-.9-2-2-2s-2,.9-2,2v4.81c0,1.1.9,2,2,2Z" style="fill:#fff; stroke:#fff; stroke-miterlimit:10; stroke-width:.75px;"/><path d="M95.28,71.48c1.1,0,2-.9,2-2v-4.81c0-1.1-.9-2-2-2s-2,.9-2,2v4.81c0,1.1.9,2,2,2Z" style="fill:#fff; stroke:#fff; stroke-miterlimit:10; stroke-width:.75px;"/><path d="M95.28,88.7c1.1,0,2-.9,2-2v-4.81c0-1.1-.9-2-2-2s-2,.9-2,2v4.81c0,1.1.9,2,2,2Z" style="fill:#fff; stroke:#fff; stroke-miterlimit:10; stroke-width:.75px;"/><path d="M95.28,105.92c1.1,0,2-.9,2-2v-4.81c0-1.1-.9-2-2-2s-2,.9-2,2v4.81c0,1.1.9,2,2,2Z" style="fill:#fff; stroke:#fff; stroke-miterlimit:10; stroke-width:.75px;"/><path d="M108.42,19.82c1.1,0,2-.9,2-2v-4.81c0-1.1-.9-2-2-2s-2,.9-2,2v4.81c0,1.1.9,2,2,2Z" style="fill:#fff; stroke:#fff; stroke-miterlimit:10; stroke-width:.75px;"/><path d="M108.42,37.04c1.1,0,2-.9,2-2v-4.81c0-1.1-.9-2-2-2s-2,.9-2,2v4.81c0,1.1.9,2,2,2Z" style="fill:#fff; stroke:#fff; stroke-miterlimit:10; stroke-width:.75px;"/><path d="M108.42,54.26c1.1,0,2-.9,2-2v-4.81c0-1.1-.9-2-2-2s-2,.9-2,2v4.81c0,1.1.9,2,2,2Z" style="fill:#fff; stroke:#fff; stroke-miterlimit:10; stroke-width:.75px;"/><path d="M108.42,71.48c1.1,0,2-.9,2-2v-4.81c0-1.1-.9-2-2-2s-2,.9-2,2v4.81c0,1.1.9,2,2,2Z" style="fill:#fff; stroke:#fff; stroke-miterlimit:10; stroke-width:.75px;"/><path d="M108.42,88.7c1.1,0,2-.9,2-2v-4.81c0-1.1-.9-2-2-2s-2,.9-2,2v4.81c0,1.1.9,2,2,2Z" style="fill:#fff; stroke:#fff; stroke-miterlimit:10; stroke-width:.75px;"/><path d="M108.42,105.92c1.1,0,2-.9,2-2v-4.81c0-1.1-.9-2-2-2s-2,.9-2,2v4.81c0,1.1.9,2,2,2Z" style="fill:#fff; stroke:#fff; stroke-miterlimit:10; stroke-width:.75px;"/><path d="M129.43,72.7c1.1,0,2-.9,2-2v-4.81c0-1.1-.9-2-2-2s-2,.9-2,2v4.81c0,1.1.9,2,2,2Z" style="fill:#fff; stroke:#fff; stroke-miterlimit:10; stroke-width:.75px;"/><path d="M129.43,89.92c1.1,0,2-.9,2-2v-4.81c0-1.1-.9-2-2-2s-2,.9-2,2v4.81c0,1.1.9,2,2,2Z" style="fill:#fff; stroke:#fff; stroke-miterlimit:10; stroke-width:.75px;"/><path d="M142.81,72.7c1.1,0,2-.9,2-2v-4.81c0-1.1-.9-2-2-2s-2,.9-2,2v4.81c0,1.1.9,2,2,2Z" style="fill:#fff; stroke:#fff; stroke-miterlimit:10; stroke-width:.75px;"/><path d="M142.81,89.92c1.1,0,2-.9,2-2v-4.81c0-1.1-.9-2-2-2s-2,.9-2,2v4.81c0,1.1.9,2,2,2Z" style="fill:#fff; stroke:#fff; stroke-miterlimit:10; stroke-width:.75px;"/><path d="M142.81,107.14c1.1,0,2-.9,2-2v-4.81c0-1.1-.9-2-2-2s-2,.9-2,2v4.81c0,1.1.9,2,2,2Z" style="fill:#fff; stroke:#fff; stroke-miterlimit:10; stroke-width:.75px;"/><path d="M156.2,72.7c1.1,0,2-.9,2-2v-4.81c0-1.1-.9-2-2-2s-2,.9-2,2v4.81c0,1.1.9,2,2,2Z" style="fill:#fff; stroke:#fff; stroke-miterlimit:10; stroke-width:.75px;"/><path d="M156.2,89.92c1.1,0,2-.9,2-2v-4.81c0-1.1-.9-2-2-2s-2,.9-2,2v4.81c0,1.1.9,2,2,2Z" style="fill:#fff; stroke:#fff; stroke-miterlimit:10; stroke-width:.75px;"/><path d="M156.2,107.14c1.1,0,2-.9,2-2v-4.81c0-1.1-.9-2-2-2s-2,.9-2,2v4.81c0,1.1.9,2,2,2Z" style="fill:#fff; stroke:#fff; stroke-miterlimit:10; stroke-width:.75px;"/><path d="M27.98,119.81c10.93,0,21.31-4.3,28.81-11.88,8.46,7.67,19.43,11.88,31.13,11.88s22.68-4.2,31.14-11.88c7.5,7.57,17.89,11.88,28.81,11.88,9.77,0,19.17-3.44,26.46-9.68.84-.72.94-1.98.22-2.82-.72-.84-1.98-.94-2.82-.22-.86.74-1.75,1.43-2.68,2.08v-54.19c0-1.1-.9-2-2-2h-46.59l.08-50.6c0-.53-.21-1.04-.59-1.42-.38-.38-.88-.59-1.41-.59H45.66c-1.1,0-2,.9-2,2v42.45H10.15c-1.1,0-2,.9-2,2v63.24c-1.56-1-3.05-2.11-4.45-3.34-.83-.73-2.09-.65-2.82.17-.73.83-.65,2.09.17,2.82,7.36,6.5,16.92,10.08,26.92,10.08ZM165.06,56.97v54.63c-5.23,2.74-11.12,4.2-17.18,4.2-10.49,0-20.42-4.39-27.24-12.04l-.26-.29.08-46.51h44.6ZM47.66,4.38h68.88l-.17,100.58c-7.72,7.01-17.75,10.85-28.45,10.85s-21.4-4.11-29.22-11.57l-.04-57.41c0-1.1-.9-2-2-2h-9.01V4.38ZM12.15,48.83h42.52l.04,55.48c-1.88,2.02-3.98,3.8-6.25,5.32v-.07c0-1.1-.9-2-2-2s-2,.9-2,2v2.4c-2.85,1.42-5.89,2.46-9.05,3.1v-5.5c0-1.1-.9-2-2-2s-2,.9-2,2v6.08c-1.14.1-2.28.17-3.43.17-5.55,0-10.95-1.22-15.83-3.53v-63.45Z" style="fill:#fff; stroke:#fff; stroke-miterlimit:10; stroke-width:.75px;"/><path d="M171.73,131.74c-6.56,5.62-15.04,8.72-23.86,8.72-10.49,0-20.42-4.39-27.24-12.04l-1.4-1.58-1.5,1.49c-7.88,7.82-18.47,12.13-29.81,12.13s-21.93-4.31-29.81-12.13l-1.5-1.49-1.4,1.58c-6.82,7.65-16.75,12.04-27.24,12.04-9.03,0-17.65-3.22-24.28-9.08-.83-.73-2.09-.65-2.82.17-.73.83-.65,2.09.17,2.82,7.36,6.5,16.92,10.08,26.92,10.08,10.93,0,21.31-4.3,28.81-11.88,8.46,7.67,19.43,11.88,31.13,11.88s22.68-4.2,31.14-11.88c7.5,7.57,17.89,11.88,28.81,11.88,9.77,0,19.17-3.44,26.46-9.68.84-.72.94-1.98.22-2.82-.72-.84-1.98-.94-2.82-.22Z" style="fill:#fff; stroke:#fff; stroke-miterlimit:10; stroke-width:.75px;"/></svg>