<?xml version="1.0" encoding="UTF-8"?><svg id="Layer_1" xmlns="http://www.w3.org/2000/svg" viewBox="0 0 296 216.87"><path d="M98.29,210.87c0-17.71,9.47-34.08,24.85-42.94,15.38-8.86,34.33-8.86,49.71,0,15.38,8.86,24.85,25.22,24.85,42.94h-49.71s-49.71,0-49.71,0Z" style="fill:none; fill-rule:evenodd; stroke:#fff; stroke-linejoin:round; stroke-width:12px;"/><line x1="148" y1="161.29" x2="148" y2="34.83" style="fill:none; stroke:#fff; stroke-linejoin:round; stroke-width:12px;"/><path d="M6,118.61c0,13.96,7.56,26.86,19.84,33.84,12.28,6.98,27.41,6.98,39.69,0,12.28-6.98,19.84-19.88,19.84-33.84H6Z" style="fill:none; fill-rule:evenodd; stroke:#fff; stroke-linejoin:round; stroke-width:12px;"/><polyline points="85.38 118.61 45.69 20.41 6 118.61" style="fill:none; fill-rule:evenodd; stroke:#fff; stroke-linejoin:round; stroke-width:12px;"/><path d="M133.56,20.41c0,7.96,6.46,14.41,14.44,14.41,7.97,0,14.44-6.45,14.44-14.41,0-7.96-6.46-14.41-14.44-14.41-7.97,0-14.44,6.45-14.44,14.41Z" style="fill:none; fill-rule:evenodd; stroke:#fff; stroke-linejoin:round; stroke-width:12px;"/><line x1="133.56" y1="20.41" x2="45.69" y2="20.41" style="fill:none; stroke:#fff; stroke-linejoin:round; stroke-width:12px;"/><path d="M290,118.61c0,13.96-7.56,26.86-19.84,33.84-12.28,6.98-27.41,6.98-39.69,0-12.28-6.98-19.84-19.88-19.84-33.84h79.38Z" style="fill:none; fill-rule:evenodd; stroke:#fff; stroke-linejoin:round; stroke-width:12px;"/><polyline points="210.62 118.61 250.31 20.41 290 118.61" style="fill:none; fill-rule:evenodd; stroke:#fff; stroke-linejoin:round; stroke-width:12px;"/><line x1="162.44" y1="20.41" x2="250.31" y2="20.41" style="fill:none; stroke:#fff; stroke-linejoin:round; stroke-width:12px;"/></svg>