<?xml version="1.0" encoding="UTF-8"?><svg id="Calque_1" xmlns="http://www.w3.org/2000/svg" viewBox="0 0 496.9 436.3"><path d="M66.27,112.31h76.12c6.95,0,12.58,5.63,12.58,12.58v286.25h38.27v-217.46c0-6.95,5.63-12.58,12.58-12.58h76.12c6.95,0,12.58,5.63,12.58,12.58v217.46h38.27v-121.05c0-6.95,5.63-12.58,12.58-12.58h76.12c6.95,0,12.58,5.63,12.58,12.58v121.05h41.26c16.56,0,16.56,25.16,0,25.16H12.42c-16.56,0-16.56-25.16,0-25.16h41.26V124.89c0-6.95,5.63-12.58,12.58-12.58h0ZM495.04,223.74c4.89,7.92-.33,18.55-9.95,19.12l-122.92,7.33c-16.49.98-17.98-24.09-1.47-25.06l78.68-4.69L72.49,23.74c-14.57-7.79-2.73-29.88,11.8-22.11l369.48,198.08-45.31-84.71c-7.77-14.54,14.34-26.36,22.11-11.8l64.47,120.53h0ZM408.9,302.67h-50.96v108.47h50.96v-108.47h0ZM269.35,206.26h-50.95v204.88h50.95v-204.88h0ZM129.8,137.47h-50.95v273.67h50.95V137.47h0Z" style="fill:#fff; stroke-width:0px;"/></svg>