<?xml version="1.0" encoding="UTF-8"?><svg id="Calque_1" xmlns="http://www.w3.org/2000/svg" viewBox="0 0 191.32 108.23"><path d="M69.83,24.74c5.09-10.08,12.87-16.98,21.72-20.88C99.31.44,107.9-.67,116.2.39c8.31,1.06,16.33,4.3,22.98,9.57,7.65,6.07,13.48,14.82,15.79,26.02,17.62.9,28.5,9.75,33.39,20.99,2.02,4.64,2.99,9.69,2.97,14.74-.02,5.04-1.02,10.07-2.95,14.71-5.07,12.21-16.45,21.81-33.13,21.81H27.58c-11.48,0-19.55-5.75-23.9-13.57-2.05-3.69-3.26-7.83-3.58-12.03-.32-4.19.23-8.46,1.68-12.41,2.85-7.74,9.1-14.23,18.95-16.59.56-3.07,1.47-5.96,2.68-8.67,3.36-7.5,9.03-13.45,15.85-17.29,6.81-3.83,14.78-5.58,22.77-4.68,2.61.29,5.23.87,7.81,1.75h0ZM143.36,87.72h3.63c.49,0,.9.14,1.23.41.32.28.49.66.49,1.15s-.16.84-.49,1.12c-.33.27-.73.41-1.22.41h-6.9c-.7,0-1.21-.16-1.53-.48-.26-.26-.39-.63-.39-1.12.02-.28.1-.53.26-.76.16-.23.37-.49.65-.79.05-.05.3-.33.76-.85.46-.52.88-1,1.26-1.43.38-.43.69-.79.93-1.06.24-.28.43-.49.55-.63.67-.77,1.21-1.44,1.61-2.02.4-.58.61-1.14.61-1.69,0-.28-.06-.54-.18-.78-.12-.24-.29-.44-.5-.59-.22-.15-.46-.22-.73-.22-.87,0-1.44.51-1.71,1.53-.12.46-.23.82-.32,1.05-.09.24-.24.45-.46.62-.21.18-.51.26-.89.26-.49,0-.88-.16-1.17-.48-.29-.32-.43-.73-.43-1.23,0-.66.14-1.29.42-1.89.28-.61.66-1.13,1.14-1.59.48-.46,1.04-.81,1.65-1.07.62-.26,1.25-.38,1.91-.38s1.26.11,1.84.33c.59.22,1.1.53,1.56.94.45.4.81.89,1.07,1.45.26.56.39,1.17.39,1.83,0,.85-.17,1.64-.51,2.35-.34.72-.83,1.48-1.48,2.28-1.01,1.23-2.03,2.34-3.04,3.33h0ZM88.17,76.23c1.38-1.38,3.62-1.37,5,.01,1.38,1.38,1.37,3.62-.01,5-1.89,1.88-4.15,3.4-6.66,4.44-2.43,1-5.08,1.56-7.83,1.56-5.67,0-10.81-2.3-14.53-6.02s-6.02-8.86-6.02-14.53,2.3-10.81,6.02-14.53c3.72-3.72,8.86-6.02,14.53-6.02,2.75,0,5.4.55,7.83,1.56,2.52,1.04,4.78,2.56,6.66,4.44,1.38,1.38,1.39,3.61.01,5-1.38,1.38-3.61,1.39-5,.01-1.25-1.24-2.73-2.24-4.37-2.92-1.57-.65-3.3-1.01-5.15-1.01-3.72,0-7.08,1.51-9.52,3.94-2.44,2.44-3.94,5.8-3.94,9.52s1.51,7.08,3.94,9.52c2.44,2.44,5.8,3.94,9.52,3.94,1.84,0,3.58-.36,5.15-1.01,1.64-.68,3.12-1.67,4.37-2.92h0ZM116.93,46.13c5.67,0,10.81,2.3,14.53,6.02,3.72,3.72,6.02,8.86,6.02,14.53s-2.3,10.81-6.02,14.53c-3.72,3.72-8.86,6.02-14.53,6.02s-10.81-2.3-14.53-6.02c-3.72-3.72-6.02-8.86-6.02-14.53s2.3-10.81,6.02-14.53c3.72-3.72,8.86-6.02,14.53-6.02h0ZM126.45,57.16c-2.44-2.44-5.8-3.94-9.52-3.94s-7.09,1.51-9.52,3.94c-2.44,2.44-3.94,5.8-3.94,9.52s1.51,7.09,3.94,9.52,5.8,3.94,9.52,3.94,7.08-1.51,9.52-3.94c2.44-2.44,3.94-5.8,3.94-9.52s-1.51-7.08-3.94-9.52h0ZM94.41,10.34c-8.19,3.61-15.3,10.29-19.52,20.28l-1.41,3.33-3.29-1.47c-2.92-1.31-5.93-2.11-8.95-2.45-6.49-.73-12.98.7-18.54,3.82-5.55,3.12-10.15,7.94-12.86,14-1.25,2.79-2.11,5.85-2.48,9.15l-.3,2.68-2.67.42c-8.46,1.32-13.71,6.41-15.98,12.56-1.1,2.99-1.52,6.24-1.27,9.45.25,3.21,1.16,6.35,2.7,9.12,3.18,5.71,9.15,9.91,17.73,9.91h127.66c13.41,0,22.55-7.67,26.6-17.43,1.58-3.81,2.41-7.93,2.43-12.03.02-4.08-.76-8.15-2.39-11.89-4.11-9.46-13.8-16.8-29.89-16.8h-3.06l-.44-3.04c-1.56-10.68-6.73-18.91-13.71-24.45-5.62-4.46-12.42-7.2-19.46-8.1-7.04-.9-14.32.04-20.91,2.95h0Z" style="fill:#fff; stroke-width:0px;"/></svg>