<?xml version="1.0" encoding="UTF-8"?><svg id="Layer_1" xmlns="http://www.w3.org/2000/svg" viewBox="0 0 241.19 241.18"><path d="M104.55,197.81c-.48,0-.96-.08-1.42-.27-1.68-.66-2.68-2.39-2.43-4.17l8.53-59.73h-29.89c-1.45,0-2.78-.8-3.45-2.08-.67-1.29-.57-2.84.25-4.02l57.29-82.5c1.03-1.49,2.95-2.07,4.62-1.41,1.68.66,2.68,2.39,2.43,4.17l-8.53,59.73h29.89c1.45,0,2.78.8,3.45,2.08.67,1.29.57,2.84-.25,4.02l-57.29,82.5c-.74,1.08-1.95,1.67-3.19,1.67ZM86.78,125.87h26.94c1.13,0,2.2.49,2.94,1.34.74.85,1.07,1.99.91,3.1l-6.84,47.9,43.68-62.9h-26.94c-1.13,0-2.2-.49-2.94-1.34-.74-.86-1.07-1.99-.91-3.1l6.84-47.9-43.68,62.9Z" style="fill:#fff; stroke-width:0px;"/><path d="M25.77,124.48H3.89c-2.15,0-3.89-1.74-3.89-3.89s1.74-3.89,3.89-3.89h21.88c2.15,0,3.89,1.74,3.89,3.89s-1.74,3.89-3.89,3.89Z" style="fill:#fff; stroke-width:0px;"/><path d="M120.59,29.66c-2.15,0-3.89-1.74-3.89-3.89V3.89c0-2.15,1.74-3.89,3.89-3.89s3.89,1.74,3.89,3.89v21.88c0,2.15-1.74,3.89-3.89,3.89Z" style="fill:#fff; stroke-width:0px;"/><path d="M53.55,57.43c-.99,0-1.99-.38-2.75-1.13l-15.47-15.47c-1.52-1.52-1.52-3.98,0-5.5,1.52-1.51,3.98-1.51,5.5,0l15.47,15.47c1.52,1.52,1.52,3.98,0,5.5-.76.76-1.75,1.14-2.75,1.14Z" style="fill:#fff; stroke-width:0px;"/><path d="M38.07,207c-1,0-1.99-.38-2.75-1.14-1.52-1.52-1.52-3.98,0-5.5l15.47-15.47c1.53-1.5,3.99-1.51,5.5,0,1.52,1.52,1.52,3.98,0,5.5l-15.47,15.47c-.76.75-1.76,1.13-2.75,1.13Z" style="fill:#fff; stroke-width:0px;"/><path d="M120.59,241.18c-2.15,0-3.89-1.74-3.89-3.89v-21.88c0-2.15,1.74-3.89,3.89-3.89s3.89,1.74,3.89,3.89v21.88c0,2.15-1.74,3.89-3.89,3.89Z" style="fill:#fff; stroke-width:0px;"/><path d="M203.12,207c-.99,0-1.99-.38-2.75-1.13l-15.47-15.47c-1.52-1.52-1.52-3.98,0-5.5,1.52-1.51,3.98-1.51,5.5,0l15.47,15.47c1.52,1.52,1.52,3.98,0,5.5-.76.76-1.75,1.14-2.75,1.14Z" style="fill:#fff; stroke-width:0px;"/><path d="M237.3,124.48h-21.88c-2.15,0-3.89-1.74-3.89-3.89s1.74-3.89,3.89-3.89h21.88c2.15,0,3.89,1.74,3.89,3.89s-1.74,3.89-3.89,3.89Z" style="fill:#fff; stroke-width:0px;"/><path d="M187.64,57.43c-1,0-1.99-.38-2.75-1.14-1.52-1.52-1.52-3.98,0-5.5l15.47-15.47c1.53-1.51,3.99-1.51,5.5,0,1.52,1.52,1.52,3.98,0,5.5l-15.47,15.47c-.76.75-1.76,1.13-2.75,1.13Z" style="fill:#fff; stroke-width:0px;"/></svg>