<?xml version="1.0" encoding="UTF-8"?><svg id="Layer_1" xmlns="http://www.w3.org/2000/svg" viewBox="0 0 297.41 377.97"><rect x="51.04" y="29.38" width="178.42" height="17.1" style="fill:#fff;"/><polygon points="76.63 235.66 93.99 235.66 85.31 188.22 76.63 235.66" style="fill:#fff;"/><path d="m37.74,58.94c-11.41,0-20.64-9.24-20.64-20.63v-.56c0-11.38,9.24-20.63,20.64-20.63h210.7V0H37.74C16.92,0,0,16.92,0,37.74v302.49c0,9.28,3.36,17.78,8.92,24.35l8.31,7.32c5.91,3.84,12.94,6.07,20.5,6.07h259.68V58.94H37.74Zm64.08,217.26l-5.24-26.82h-22.45l-5.32,26.82h-22.29l26.36-115.49h24.64l26.28,115.49h-21.98Zm74.27-38.73h-38.64v-13.51h38.64v13.51Zm74.82,38.73h-58.67v-13.79l34.42-87.14h-32.7v-14.56h56.87v10.38l-36.06,90.55h36.14v14.56Z" style="fill:#fff;"/></svg>