<?xml version="1.0" encoding="UTF-8"?>
<svg id="Calque_1" xmlns="http://www.w3.org/2000/svg" version="1.1" viewBox="0 0 64 64">
  <!-- Generator: Adobe Illustrator 29.7.1, SVG Export Plug-In . SVG Version: 2.1.1 Build 8)  -->
  <defs>
    <style>
      .st0 {
        fill: #e74c3c;
      }

      .st1 {
        fill: #31c15f;
      }
    </style>
  </defs>
  <g id="right">
    <ellipse class="st0" cx="44.1" cy="42.8" rx="8" ry="9.3"/>
    <path class="st0" d="M54.3,31l-2,9.3c-.2,1-1.2,1.6-2.2,1.4h0c-1-.2-1.6-1.2-1.4-2.2l2-9.3c.2-1,1.2-1.6,2.2-1.4h0c1,.2,1.6,1.2,1.4,2.2Z"/>
    <path class="st0" d="M49.1,26.1l-.4,11c0,1-.9,1.8-1.9,1.8h0c-1,0-1.8-.9-1.8-1.9l.4-11c0-1,.9-1.8,1.9-1.8h0c1,0,1.8.9,1.8,1.9Z"/>
    <path class="st0" d="M43.8,24.4l.2,11c0,1-.8,1.8-1.8,1.9h0c-1,0-1.8-.8-1.9-1.8l-.2-11c0-1,.8-1.8,1.8-1.9h0c1,0,1.8.8,1.9,1.8Z"/>
    <path class="st0" d="M37.8,28.4l2.6,9.2c.3,1-.3,2-1.3,2.3h0c-1,.3-2-.3-2.3-1.3l-2.6-9.2c-.3-1,.3-2,1.3-2.3h0c1-.3,2,.3,2.3,1.3Z"/>
    <path class="st0" d="M34.6,39l6.5,7c.7.7.6,1.9,0,2.6h0c-.7.7-1.9.6-2.6,0l-6.5-7c-.7-.7-.6-1.9,0-2.6h0c.7-.7,1.9-.6,2.6,0Z"/>
  </g>
  <g id="left">
    <ellipse class="st1" cx="21.9" cy="39.4" rx="10.9" ry="12.7"/>
    <path class="st1" d="M9.9,20.3h0c1.4-.3,2.7.6,3,1.9l2.7,12.7c.3,1.4-.6,2.7-1.9,3h0c-1.4.3-2.7-.6-3-1.9l-2.7-12.7c-.3-1.4.6-2.7,1.9-3Z"/>
    <path class="st1" d="M17.4,14.1h0c1.4,0,2.5,1,2.6,2.4l.5,15c0,1.4-1,2.5-2.4,2.6h0c-1.4,0-2.5-1-2.6-2.4l-.5-15c0-1.4,1-2.5,2.4-2.6Z"/>
    <path class="st1" d="M24.8,11.9h0c1.4,0,2.5,1.2,2.5,2.5l-.3,15c0,1.4-1.2,2.5-2.5,2.5h0c-1.4,0-2.5-1.2-2.5-2.5l.3-15c0-1.4,1.2-2.5,2.5-2.5Z"/>
    <path class="st1" d="M33.5,18.1h0c1.3.4,2.1,1.8,1.7,3.1l-3.6,12.5c-.4,1.3-1.8,2.1-3.1,1.7h0c-1.3-.4-2.1-1.8-1.7-3.1l3.6-12.5c.4-1.3,1.8-2.1,3.1-1.7Z"/>
    <path class="st1" d="M38.4,34.2h0c1,.9,1.1,2.5.1,3.5l-8.9,9.5c-.9,1-2.5,1.1-3.5.1h0c-1-.9-1.1-2.5-.1-3.5l8.9-9.5c.9-1,2.5-1.1,3.5-.1Z"/>
  </g>
</svg>