<?xml version="1.0" encoding="UTF-8"?><svg id="Calque_1" xmlns="http://www.w3.org/2000/svg" viewBox="0 0 2500 1235.8"><path d="M938.94,1119.18l-194.67-340.5c33.72-15.56,64.98-35.97,92.79-60.59,48.07-42.45,83.35-97.46,101.88-158.86v150.44c74.52-70.99,111.92-166.41,111.92-286.46s-37.4-218.86-111.92-289.31v151.12c-18.21-61.72-53.53-117.02-101.88-159.49-80.63-71.13-192.32-106.72-334.99-106.72H0v1198.31h258.43v-391.42h235.19l204.12,391.33h390.02l-148.82-260.46v162.61ZM646.95,554.25c-32.65,31.2-78.46,46.85-137.47,46.85h-251.1V250.92h251.01c59.1,0,104.91,15.33,137.51,45.9,32.56,30.61,48.88,73.98,48.88,130.14.05,53.68-16.28,96.14-48.88,127.29h.05ZM2499.1,598.25c-.59-18.09-2.08-35.27-4.39-51.5h-737.98v220.94h379.39c-6.33,41.74-19.26,77.96-38.89,108.57-26.45,41.24-62.81,72.08-109.11,92.7-46.3,20.57-100.57,30.88-162.74,30.88-66.83,0-126.39-15.6-178.62-46.8-52.14-31.2-92.93-75.52-122.27-132.95s-44-124.81-44-202.22,14.38-144.16,43.14-200.32c28.71-56.21,68.6-99.89,119.65-131.14,51.01-31.11,109.39-46.76,175.09-46.76,56.3,0,104.68,9.36,145.15,28.04,40.47,18.77,73.26,42.51,98.53,71.18,25.19,28.71,41.92,58.06,50.15,88.04h361.48c-11.76-74.93-41.38-144.79-88.86-209.73-10.4-14.2-21.71-27.72-33.64-40.79v176.99c-16.4-48.83-40.36-94.79-70.99-136.2-47.48-64.89-110.29-117.3-188.25-157.27C2013.89,19.99,1922.14,0,1816.55,0c-84.47,0-162.47,15.65-234.01,46.8-70.32,30.35-133.77,74.62-186.53,130.14-50.39,53.3-90.46,115.49-118.16,183.41v-163.2c-44.76,52.05-80.26,111.4-104.95,175.45-29.3,74.88-43.95,156.64-43.95,245.27s14.92,170.39,44.86,245.27c24.87,63.1,60.01,121.66,104,173.28v-163.33c28.48,69.14,69.44,132.44,120.83,186.76,53.04,55.96,117.15,100.27,188.25,130.1,72.17,30.57,150.44,45.85,234.91,45.85,109.07,0,206.7-23.38,292.93-70.18,86.23-46.85,154.51-113.91,204.98-201.27,11.89-20.57,22.34-42.19,31.43-64.66v163.78c28.06-30.17,52.61-63.42,73.17-99.12,50.46-87.36,75.7-191.59,75.7-312.69-.05-17.5-.36-35.27-.9-53.36v-.05Z"/></svg>