<?xml version="1.0" encoding="UTF-8"?>
<svg xmlns="http://www.w3.org/2000/svg" version="1.1" viewBox="0 0 32 46">
  <path d="M5.94,20.08c-.6-.54-1.23-.85-3.15-.67-1.56.37-2.35,1.56-2.68,3.24-.02.96.02,1.77.3,2.9l1.99,16.79c.97,2.22,3.08,3.66,5.36,3.66h15.9c2.03,0,3.89-1.1,4.99-2.93,2.2-3.7,3.37-7.99,3.37-12.4v-6.89c0-2.47-1.8-4.53-4.02-4.6-.82-.02-1.61.21-2.3.66-.66-1.52-2.09-2.58-3.75-2.58-.8,0-1.54.25-2.17.67-.66-1.52-2.09-2.59-3.76-2.59-.64,0-1.24.16-1.78.44V4.47c0-1.22-.45-2.36-1.26-3.21C12.15.41,11.07-.04,9.95,0c-2.22.07-4.02,2.14-4.02,4.6v15.47ZM2.47,23c.14-.7.62-1.07,1.26-1.23.89-.21,1.56.27,1.88.78l.52,8.83c.29.46.83.66,1.33.5.5-.17.83-.66.83-1.22V4.61c0-1.1.77-2.02,1.72-2.05.48-.02.95.18,1.29.54.35.36.54.85.54,1.38v18.53c0,.71.53,1.28,1.19,1.28s1.19-.57,1.19-1.28v-3.19c0-1.06.8-1.92,1.78-1.92s1.78.86,1.78,1.92v4.47c0,.71.53,1.28,1.19,1.28s1.19-.57,1.19-1.28v-2.56c0-1.06.8-1.92,1.78-1.92s1.78.86,1.78,1.92v3.83c0,.71.53,1.28,1.19,1.28s1.19-.57,1.19-1.28v-1.92c0-.52.19-1.01.54-1.38.35-.36.81-.56,1.29-.54.95.03,1.72.95,1.72,2.05v6.89c0,3.92-1.04,7.73-2.99,11.02-.66,1.1-1.77,1.76-2.99,1.76H7.74c-1.37,0-2.63-.86-3.21-2.2l-1.99-16.79c-.17-.39-.16-1.02-.07-1.46Z" fill="#ffffff"/>
</svg>