<?xml version="1.0" encoding="UTF-8"?><svg id="Layer_1" xmlns="http://www.w3.org/2000/svg" viewBox="0 0 139.06 99.18"><path d="M2.42,43.75c-1.55,1.55-2.42,3.65-2.42,5.84s.87,4.29,2.42,5.84c1.54,1.55,3.65,2.42,5.84,2.42h102.68l-27.25,27.17c-.78.77-1.39,1.68-1.81,2.69-.42,1-.64,2.08-.64,3.17s.21,2.17.64,3.18c.42,1.01,1.03,1.92,1.81,2.68.77.78,1.68,1.39,2.68,1.81,1.01.42,2.09.64,3.18.64s2.17-.21,3.18-.64c1-.42,1.92-1.03,2.68-1.81l41.29-41.29c.75-.78,1.34-1.71,1.73-2.73.83-2.01.83-4.26,0-6.28-.4-1.02-.98-1.94-1.73-2.73L95.41,2.43c-1.55-1.55-3.67-2.43-5.86-2.43s-4.31.88-5.86,2.43c-1.55,1.55-2.43,3.67-2.43,5.86s.88,4.31,2.43,5.86l27.25,27.17H8.26c-2.19,0-4.29.88-5.84,2.42Z" style="fill:#fff;"/></svg>