<svg width="738" height="727" viewBox="0 0 738 727" fill="none" xmlns="http://www.w3.org/2000/svg">
<path d="M-162.818 132.789C-154.768 124.739 -154.763 111.692 -162.807 103.648L-59.1588 0C6.08581 65.2446 6.04631 171.066 -59.2468 236.36L-274.64 451.753C-282.69 459.803 -282.695 472.85 -274.652 480.893C-266.608 488.937 -253.56 488.932 -245.511 480.883L-30.1175 265.489C35.1757 200.196 140.997 200.156 206.243 265.402C271.487 330.645 271.447 436.467 206.153 501.76L-9.24018 717.153C-17.2895 725.203 -17.2935 738.251 -9.2507 746.294C-1.20786 754.337 11.8407 754.333 19.89 746.284L235.284 530.89C300.577 465.597 406.398 465.557 471.642 530.8C536.888 596.047 536.848 701.868 471.555 767.162L256.162 982.555C248.112 990.605 248.105 1003.65 256.151 1011.7C264.194 1019.74 277.242 1019.73 285.292 1011.69L500.685 796.292C565.979 730.999 671.8 730.959 737.043 796.202L633.395 899.85C625.352 891.808 612.304 891.812 604.255 899.861L388.861 1115.25C323.568 1180.55 217.747 1180.59 152.503 1115.34C87.2562 1050.1 87.2969 944.276 152.589 878.983L367.983 663.589C376.032 655.54 376.039 642.494 367.994 634.449C359.951 626.406 346.902 626.41 338.853 634.459L123.459 849.853C58.1666 915.145 -47.6552 915.186 -112.899 849.942C-178.143 784.699 -178.102 678.877 -112.809 613.584L102.584 398.191C110.634 390.141 110.638 377.093 102.595 369.05C94.5489 361.004 81.5034 361.011 73.454 369.06L-141.94 584.454C-207.232 649.747 -313.055 649.786 -378.3 584.542C-443.544 519.297 -443.504 413.475 -378.211 348.182L-162.818 132.789Z" fill="#2187E7" fill-opacity="0.2"/>
</svg>
