<svg width="467" height="662" viewBox="0 0 467 662" fill="none" xmlns="http://www.w3.org/2000/svg">
<path d="M265.182 -370.211C273.232 -378.261 273.237 -391.308 265.193 -399.352L368.841 -503C434.086 -437.755 434.046 -331.934 368.753 -266.64L153.36 -51.2468C145.31 -43.1975 145.305 -30.1504 153.348 -22.1067C161.392 -14.0626 174.44 -14.0681 182.489 -22.1175L397.882 -237.511C463.176 -302.804 568.997 -302.844 634.243 -237.598C699.487 -172.355 699.447 -66.5333 634.153 -1.24017L418.76 214.153C410.71 222.203 410.706 235.251 418.749 243.294C426.792 251.337 439.841 251.333 447.89 243.284L663.284 27.89C728.577 -37.4031 834.398 -37.4432 899.642 27.8005C964.888 93.0471 964.848 198.868 899.555 264.162L684.162 479.555C676.112 487.605 676.105 500.65 684.151 508.696C692.194 516.739 705.242 516.735 713.292 508.685L928.685 293.292C993.979 227.999 1099.8 227.959 1165.04 293.202L1061.4 396.85C1053.35 388.808 1040.3 388.812 1032.25 396.861L816.861 612.255C751.568 677.547 645.747 677.588 580.503 612.344C515.256 547.097 515.297 441.276 580.589 375.983L795.983 160.589C804.032 152.54 804.039 139.494 795.993 131.449C787.951 123.406 774.902 123.41 766.853 131.459L551.459 346.853C486.167 412.145 380.345 412.186 315.101 346.942C249.857 281.699 249.898 175.877 315.191 110.584L530.584 -104.809C538.634 -112.859 538.638 -125.907 530.595 -133.95C522.549 -141.996 509.503 -141.989 501.454 -133.94L286.06 81.4541C220.768 146.747 114.945 146.786 49.7002 81.5415C-15.5444 16.2969 -15.504 -89.5252 49.7886 -154.818L265.182 -370.211Z" fill="#946EE8" fill-opacity="0.2"/>
</svg>
