<?xml version="1.0" encoding="UTF-8"?><!DOCTYPE svg PUBLIC "-//W3C//DTD SVG 1.1//EN" "http://www.w3.org/Graphics/SVG/1.1/DTD/svg11.dtd">
<svg xmlns="http://www.w3.org/2000/svg"
    xmlns:xlink="http://www.w3.org/1999/xlink">
    <symbol id="plyr-airplay" viewBox="0 0 18 18">
        <path d="M16 1H2a1 1 0 00-1 1v10a1 1 0 001 1h3v-2H3V3h12v8h-2v2h3a1 1 0 001-1V2a1 1 0 00-1-1z"/>
        <path d="M4 17h10l-5-6z"/>
    </symbol>
    <symbol id="plyr-captions-off" viewBox="0 0 18 18">
        <path d="M1 1c-.6 0-1 .4-1 1v11c0 .6.4 1 1 1h4.6l2.7 2.7c.2.2.4.3.7.3.3 0 .5-.1.7-.3l2.7-2.7H17c.6 0 1-.4 1-1V2c0-.6-.4-1-1-1H1zm4.52 10.15c1.99 0 3.01-1.32 3.28-2.41l-1.29-.39c-.19.66-.78 1.45-1.99 1.45-1.14 0-2.2-.83-2.2-2.34 0-1.61 1.12-2.37 2.18-2.37 1.23 0 1.78.75 1.95 1.43l1.3-.41C8.47 4.96 7.46 3.76 5.5 3.76c-1.9 0-3.61 1.44-3.61 3.7 0 2.26 1.65 3.69 3.63 3.69zm7.57 0c1.99 0 3.01-1.32 3.28-2.41l-1.29-.39c-.19.66-.78 1.45-1.99 1.45-1.14 0-2.2-.83-2.2-2.34 0-1.61 1.12-2.37 2.18-2.37 1.23 0 1.78.75 1.95 1.43l1.3-.41c-.28-1.15-1.29-2.35-3.25-2.35-1.9 0-3.61 1.44-3.61 3.7 0 2.26 1.65 3.69 3.63 3.69z" fill-rule="evenodd" fill-opacity=".5"/>
    </symbol>
    <symbol id="plyr-captions-on" viewBox="0 0 18 18">
        <path d="M1 1c-.6 0-1 .4-1 1v11c0 .6.4 1 1 1h4.6l2.7 2.7c.2.2.4.3.7.3.3 0 .5-.1.7-.3l2.7-2.7H17c.6 0 1-.4 1-1V2c0-.6-.4-1-1-1H1zm4.52 10.15c1.99 0 3.01-1.32 3.28-2.41l-1.29-.39c-.19.66-.78 1.45-1.99 1.45-1.14 0-2.2-.83-2.2-2.34 0-1.61 1.12-2.37 2.18-2.37 1.23 0 1.78.75 1.95 1.43l1.3-.41C8.47 4.96 7.46 3.76 5.5 3.76c-1.9 0-3.61 1.44-3.61 3.7 0 2.26 1.65 3.69 3.63 3.69zm7.57 0c1.99 0 3.01-1.32 3.28-2.41l-1.29-.39c-.19.66-.78 1.45-1.99 1.45-1.14 0-2.2-.83-2.2-2.34 0-1.61 1.12-2.37 2.18-2.37 1.23 0 1.78.75 1.95 1.43l1.3-.41c-.28-1.15-1.29-2.35-3.25-2.35-1.9 0-3.61 1.44-3.61 3.7 0 2.26 1.65 3.69 3.63 3.69z" fill-rule="evenodd"/>
    </symbol>
    <symbol id="plyr-download" viewBox="0 0 18 18">
        <path d="M9 13c.3 0 .5-.1.7-.3L15.4 7 14 5.6l-4 4V1H8v8.6l-4-4L2.6 7l5.7 5.7c.2.2.4.3.7.3zm-7 2h14v2H2z"/>
    </symbol>
    <symbol id="plyr-enter-fullscreen" viewBox="0 0 18 18">
        <path d="M0,1c0-0.6,0.5-1,1-1h5.5C7,0,7.2,0.3,6.8,0.7L0.7,6.8C0.3,7.2,0,7,0,6.5L0,1z"/>
        <path d="M0,17c0,0.6,0.5,1,1,1h5.5c0.6,0,0.7-0.3,0.3-0.7l-6.1-6.1C0.3,10.8,0,10.9,0,11.5L0,17z"/>
        <path d="M18,1c0-0.6-0.5-1-1-1h-5.5c-0.6,0-0.7,0.3-0.3,0.7l6.1,6.1C17.7,7.2,18,7,18,6.5V1z"/>
        <path d="M18,17c0,0.6-0.5,1-1,1h-5.5c-0.6,0-0.7-0.3-0.3-0.7l6.1-6.1c0.4-0.4,0.7-0.3,0.7,0.3V17z"/>
    </symbol>
    <symbol id="plyr-exit-fullscreen" viewBox="0 0 18 18">
        <path d="M12.2,4.8c0,0.6,0.5,1,1,1h4.2c0.6,0,0.7-0.3,0.3-0.7l-4.8-4.8c-0.4-0.4-0.7-0.3-0.7,0.3V4.8z"/>
        <path d="M0.2,5.1C-0.2,5.5,0,5.8,0.5,5.8l4.3,0c0.6,0,1-0.5,1-1V0.5c0-0.6-0.3-0.7-0.7-0.3L0.2,5.1"/>
        <path d="M0.3,12.9l4.8,4.8c0.4,0.4,0.7,0.3,0.7-0.3v-4.2c0-0.6-0.5-1-1-1H0.6C0,12.1-0.1,12.5,0.3,12.9"/>
        <path d="M13.2,12.1c-0.6,0-1,0.5-1,1v4.2c0,0.6,0.3,0.7,0.7,0.3l4.8-4.8c0.4-0.4,0.3-0.7-0.3-0.7L13.2,12.1z"/>
    </symbol>
    <symbol id="plyr-fast-forward" viewBox="0 0 13.46 19">
        <path d="M0,0l10.29,7.26V0h3.17v19h-3.17v-7.26S0,19,0,19V0Z"/>
    </symbol>
    <symbol id="plyr-logo-vimeo" viewBox="0 0 18 18">
        <path d="M17 5.3c-.1 1.6-1.2 3.7-3.3 6.4-2.2 2.8-4 4.2-5.5 4.2-.9 0-1.7-.9-2.4-2.6C5 10.9 4.4 6 3 6c-.1 0-.5.3-1.2.8l-.8-1c.8-.7 3.5-3.4 4.7-3.5 1.2-.1 2 .7 2.3 2.5.3 2 .8 6.1 1.8 6.1.9 0 2.5-3.4 2.6-4 .1-.9-.3-1.9-2.3-1.1.8-2.6 2.3-3.8 4.5-3.8 1.7.1 2.5 1.2 2.4 3.3z"/>
    </symbol>
    <symbol id="plyr-logo-youtube" viewBox="0 0 18 18">
        <path d="M16.8 5.8c-.2-1.3-.8-2.2-2.2-2.4C12.4 3 9 3 9 3s-3.4 0-5.6.4C2 3.6 1.3 4.5 1.2 5.8 1 7.1 1 9 1 9s0 1.9.2 3.2c.2 1.3.8 2.2 2.2 2.4C5.6 15 9 15 9 15s3.4 0 5.6-.4c1.4-.3 2-1.1 2.2-2.4.2-1.3.2-3.2.2-3.2s0-1.9-.2-3.2zM7 12V6l5 3-5 3z"/>
    </symbol>
    <symbol id="plyr-muted" viewBox="0 0 22.28 18">
        <path d="M11.8.56v16.88c0,.48-.57.74-.93.42l-3.69-3.27c-1.21-1.07-2.77-1.66-4.39-1.66H.56c-.31,0-.56-.25-.56-.56v-6.75c0-.31.25-.56.56-.56h2.24c1.62,0,3.18-.59,4.39-1.66L10.87.14c.36-.32.93-.06.93.42ZM21.9,11c.4.4.4,1,0,1.4-.2.2-.4.3-.7.3s-.5-.1-.7-.3l-2-2-2,2c-.2.2-.4.3-.7.3s-.5-.1-.7-.3c-.4-.4-.4-1,0-1.4l2-2-2-2c-.4-.4-.4-1,0-1.4s1-.4,1.4,0l2,2,2-2c.4-.4,1-.4,1.4,0s.4,1,0,1.4l-2,2,2,2Z"/>
    </symbol>
    <symbol id="plyr-pause" viewBox="0 0 36 36">
        <path d="M36,18c0,9.94-8.06,18-18,18S0,27.94,0,18,8.06,0,18,0s18,8.06,18,18ZM18,2.09c-8.79,0-15.91,7.12-15.91,15.91s7.12,15.91,15.91,15.91,15.91-7.12,15.91-15.91S26.79,2.09,18,2.09ZM16.41,11.02h-2v14h2v-14ZM22.41,11.02h-2v14h2v-14Z"/>
    </symbol>
    <symbol id="plyr-pip" viewBox="0 0 18 18">
        <path d="M13.293 3.293L7.022 9.564l1.414 1.414 6.271-6.271L17 7V1h-6z"/>
        <path d="M13 15H3V5h5V3H2a1 1 0 00-1 1v12a1 1 0 001 1h12a1 1 0 001-1v-6h-2v5z"/>
    </symbol>
    <symbol id="plyr-play" viewBox="0 0 36 36">
        <path d="M36,18c0,9.94-8.06,18-18,18S0,27.94,0,18,8.06,0,18,0s18,8.06,18,18ZM18,2.09c-8.79,0-15.91,7.12-15.91,15.91s7.12,15.91,15.91,15.91,15.91-7.12,15.91-15.91S26.79,2.09,18,2.09ZM26.71,18l-13.46,9.5V8.5l13.46,9.5Z"/>
    </symbol>
    <symbol id="plyr-restart" viewBox="0 0 18 18">
        <path d="M9.7 1.2l.7 6.4 2.1-2.1c1.9 1.9 1.9 5.1 0 7-.9 1-2.2 1.5-3.5 1.5-1.3 0-2.6-.5-3.5-1.5-1.9-1.9-1.9-5.1 0-7 .6-.6 1.4-1.1 2.3-1.3l-.6-1.9C6 2.6 4.9 3.2 4 4.1 1.3 6.8 1.3 11.2 4 14c1.3 1.3 3.1 2 4.9 2 1.9 0 3.6-.7 4.9-2 2.7-2.7 2.7-7.1 0-9.9L16 1.9l-6.3-.7z"/>
    </symbol>
    <symbol id="plyr-rewind" viewBox="0 0 13.46 19">
        <path d="M13.46,19L3.17,11.74v7.26H0V0h3.17v7.26L13.46,0v19Z"/>
    </symbol>
    <symbol id="plyr-settings" viewBox="0 0 18 18">
        <path d="M16.135 7.784a2 2 0 01-1.23-2.969c.322-.536.225-.998-.094-1.316l-.31-.31c-.318-.318-.78-.415-1.316-.094a2 2 0 01-2.969-1.23C10.065 1.258 9.669 1 9.219 1h-.438c-.45 0-.845.258-.997.865a2 2 0 01-2.969 1.23c-.536-.322-.999-.225-1.317.093l-.31.31c-.318.318-.415.781-.093 1.317a2 2 0 01-1.23 2.969C1.26 7.935 1 8.33 1 8.781v.438c0 .45.258.845.865.997a2 2 0 011.23 2.969c-.322.536-.225.998.094 1.316l.31.31c.319.319.782.415 1.316.094a2 2 0 012.969 1.23c.151.607.547.865.997.865h.438c.45 0 .845-.258.997-.865a2 2 0 012.969-1.23c.535.321.997.225 1.316-.094l.31-.31c.318-.318.415-.781.094-1.316a2 2 0 011.23-2.969c.607-.151.865-.547.865-.997v-.438c0-.451-.26-.846-.865-.997zM9 12a3 3 0 110-6 3 3 0 010 6z"/>
    </symbol>
    <symbol id="plyr-volume" viewBox="0 0 22.28 18">
        <path d="M11.8.56v16.88c0,.48-.57.74-.93.42l-3.69-3.27c-1.21-1.07-2.77-1.66-4.39-1.66H.56c-.31,0-.56-.25-.56-.56v-6.75c0-.31.25-.56.56-.56h2.24c1.62,0,3.18-.59,4.39-1.66L10.87.14c.36-.32.93-.06.93.42ZM22.28,8.64c0-2.72-1-5.21-2.66-7.11-.35-.4-.97-.43-1.35-.05h0c-.35.35-.36.9-.04,1.27,1.37,1.58,2.2,3.64,2.2,5.89,0,2.58-1.09,4.91-2.83,6.55-.38.36-.39.96-.02,1.33h0c.35.35.92.36,1.29.02,2.1-1.98,3.42-4.78,3.42-7.9ZM18.58,8.64c0-1.68-.58-3.23-1.56-4.45-.34-.43-.99-.47-1.38-.08h0c-.33.33-.37.86-.07,1.22.72.9,1.16,2.05,1.16,3.3,0,1.56-.67,2.95-1.74,3.92-.39.35-.4.96-.03,1.34h0c.35.35.91.36,1.28.03,1.44-1.31,2.34-3.19,2.34-5.29Z"/>
    </symbol>
</svg>