<?xml version="1.0" encoding="UTF-8"?><svg id="Artwork" xmlns="http://www.w3.org/2000/svg" viewBox="0 0 74.66 140.01"><path d="M74.56,69.07c-.03-.13-.08-.24-.11-.36-.04-.17-.1-.34-.16-.51-.06-.14-.14-.27-.21-.4-.07-.14-.14-.27-.22-.4-.15-.23-.32-.44-.51-.63-.03-.02-.07-.08-.07-.08L7.94,1.36C6.13-.45,3.19-.45,1.38,1.36-.44,3.17-.44,6.14,1.38,7.96l57.37,57.39,5.1,4.57-5.1,4.77L1.37,132.06c-1.82,1.82-1.82,4.77,0,6.59,1.82,1.82,4.78,1.82,6.6,0l65.33-65.33.07-.08v-.04c.18-.2.35-.41.5-.63.08-.13.15-.26.22-.4.07-.13.15-.26.21-.4.06-.16.12-.34.16-.51.04-.12.09-.24.11-.36.12-.6.12-1.22,0-1.83h0Z" style="fill:#ff7317;"/></svg>