<?xml version="1.0" encoding="UTF-8"?><svg id="_ëîé_1" xmlns="http://www.w3.org/2000/svg" viewBox="0 0 493.04 695.31"><line x1="402.87" y1="338.57" x2="402.87" y2="306.7" style="fill:none; stroke:#6a4841; stroke-linecap:round; stroke-linejoin:round; stroke-width:19px;"/><polyline points="323.8 259.27 323.8 264.12 323.8 338.57" style="fill:none; stroke:#6a4841; stroke-linecap:round; stroke-linejoin:round; stroke-width:19px;"/><line x1="323.8" y1="264.12" x2="323.8" y2="259.27" style="fill:none; stroke:#6a4841; stroke-linecap:round; stroke-linejoin:round; stroke-width:19px;"/><line x1="244.73" y1="264.12" x2="244.73" y2="221.78" style="fill:none; stroke:#6a4841; stroke-linecap:round; stroke-linejoin:round; stroke-width:19px;"/><path d="M482.82,514.59c-5.02,48.67-28.09,91.47-62.14,122.11-34.06,30.64-79.1,49.11-128.03,49.11-73.9,0-136.69-43.39-172.81-109.37-44.92-85.33-50.71-120.31-106.06-220.9-9.49-17.24-2.81-37.62,16.07-39.5,17.11-1.7,38.86,3.18,58.87,28.5,41.32,52.27,43.27,78.06,76.93,92.95V109.37c0-21.83,17.71-39.53,39.54-39.53s39.54,17.71,39.54,39.53v112.41c0-21.83,17.7-39.53,39.53-39.53,10.92,0,20.8,4.43,27.96,11.58,7.16,7.15,11.58,17.03,11.58,27.95v37.49c0-21.83,17.7-39.53,39.54-39.53,10.92,0,20.8,4.42,27.95,11.58,7.15,7.15,11.58,17.04,11.58,27.95v47.43c0-21.8,17.68-39.49,39.5-39.49s39.5,16.94,39.5,39.48c.2,18.87,2.93,188.68.95,207.9Z" style="fill:#fff; stroke:#6a4841; stroke-linecap:round; stroke-linejoin:round; stroke-width:19px;"/><line x1="402.87" y1="338.57" x2="402.87" y2="306.7" style="fill:none; stroke:#6a4841; stroke-linecap:round; stroke-linejoin:round; stroke-width:19px;"/><polyline points="244.73 221.78 244.73 264.12 244.73 338.57" style="fill:none; stroke:#6a4841; stroke-linecap:round; stroke-linejoin:round; stroke-width:19px;"/><polyline points="85.59 86.61 29.95 71.71 44.86 16.08" style="fill:none; stroke:#6a4841; stroke-linecap:round; stroke-linejoin:round; stroke-width:19px;"/><path d="M463.09,71.75h0C331.52-10.67,164.56-11.29,32.37,70.16" style="fill:none; stroke:#6a4841; stroke-linecap:round; stroke-linejoin:round; stroke-width:19px;"/></svg>