<?xml version="1.0" encoding="UTF-8"?><svg id="Time_and_clock_icons" xmlns="http://www.w3.org/2000/svg" viewBox="0 0 97.84 116.52"><path d="M49.3,76.56c-4.94,0-8.95-4.02-8.95-8.96s4.02-8.95,8.95-8.95,8.95,4.02,8.95,8.95-4.02,8.96-8.95,8.96ZM49.3,62.97c-2.56,0-4.63,2.08-4.63,4.63s2.08,4.63,4.63,4.63,4.63-2.08,4.63-4.63-2.08-4.63-4.63-4.63Z" style="fill:#ecd9c2;"/><path d="M42.5,69.76h-17.81c-1.19,0-2.16-.97-2.16-2.16s.97-2.16,2.16-2.16h17.81c1.19,0,2.16.97,2.16,2.16s-.97,2.16-2.16,2.16Z" style="fill:#ecd9c2;"/><path d="M94.01,31.75l-9.24-9.24c-.84-.84-2.21-.84-3.05,0s-.84,2.21,0,3.05l3.09,3.09-2.88,2.88c1.06.97,2.08,1.99,3.05,3.05l2.88-2.88,3.09,3.09c.42.42.97.63,1.53.63s1.11-.21,1.53-.63c.84-.84.84-2.21,0-3.05Z" style="fill:#ecd9c2;"/><path d="M3.82,31.75l9.24-9.24c.84-.84,2.21-.84,3.05,0s.84,2.21,0,3.05l-3.09,3.09,2.88,2.88c-1.06.97-2.08,1.99-3.05,3.05l-2.88-2.88-3.09,3.09c-.42.42-.97.63-1.53.63s-1.11-.21-1.53-.63c-.84-.84-.84-2.21,0-3.05Z" style="fill:#ecd9c2;"/><path d="M48.92,116.52C21.94,116.52,0,94.58,0,67.6S21.94,18.68,48.92,18.68s48.92,21.95,48.92,48.92-21.95,48.92-48.92,48.92ZM48.92,23c-24.59,0-44.6,20.01-44.6,44.6s20.01,44.6,44.6,44.6,44.6-20.01,44.6-44.6-20.01-44.6-44.6-44.6Z" style="fill:#ecd9c2;"/><path d="M59.1,0h-20.37c-1.19,0-2.16.97-2.16,2.16v9.38c0,1.19.97,2.16,2.16,2.16h8.03v4.49c0,.19.03.37.08.54.69-.03,1.38-.05,2.08-.05s1.39.02,2.08.05c.05-.17.08-.35.08-.54v-4.49h8.03c1.19,0,2.16-.97,2.16-2.16V2.16c0-1.19-.97-2.16-2.16-2.16ZM56.94,9.38h-16.05v-5.06h16.05v5.06Z" style="fill:#ecd9c2;"/><path d="M48.92,105.84c-21.09,0-38.24-17.16-38.24-38.24,0-1.1.9-2,2-2s2,.9,2,2c0,18.88,15.36,34.24,34.24,34.24s34.24-15.36,34.24-34.24-15.36-34.24-34.24-34.24c-1.1,0-2-.9-2-2s.9-2,2-2c21.09,0,38.24,17.16,38.24,38.24s-17.16,38.24-38.24,38.24Z" style="fill:#ecd9c2;"/><path d="M14.1,59.52c-.18,0-.37-.03-.56-.08-1.06-.31-1.67-1.42-1.37-2.48.68-2.36,1.6-4.67,2.73-6.85.51-.98,1.71-1.37,2.69-.86.98.51,1.37,1.71.86,2.69-1.01,1.96-1.83,4.02-2.44,6.13-.25.88-1.05,1.45-1.92,1.45ZM20.47,47.15c-.43,0-.87-.14-1.24-.43-.87-.69-1.01-1.94-.33-2.81,1.52-1.93,3.24-3.72,5.1-5.32.84-.72,2.1-.62,2.82.21.72.84.62,2.1-.21,2.82-1.67,1.43-3.21,3.04-4.57,4.77-.39.5-.98.76-1.57.76ZM31.02,38.08c-.7,0-1.37-.36-1.74-1.01-.55-.96-.21-2.18.75-2.73,2.14-1.22,4.41-2.23,6.73-3.01,1.04-.35,2.18.21,2.53,1.26.35,1.05-.21,2.18-1.26,2.53-2.08.7-4.11,1.6-6.02,2.69-.31.18-.65.26-.99.26Z" style="fill:#ecd9c2;"/></svg>