<?xml version="1.0" encoding="UTF-8"?><svg id="Layer_1" xmlns="http://www.w3.org/2000/svg" viewBox="0 0 198.21 296.92"><path d="m99.11,296.92c-20.72,0-41.44-6.04-59.12-18.12h0c-22.45-15.34-35.58-36.51-39.04-62.91C-10.79,126.38,91.34,6.55,95.7,1.49c1.71-1.99,5.11-1.99,6.82,0,4.35,5.06,106.49,124.89,94.76,214.39-3.46,26.4-16.6,47.57-39.04,62.91-17.68,12.08-38.4,18.12-59.12,18.12Zm-54.04-25.55c32.33,22.09,75.76,22.09,108.09,0,20.24-13.83,32.09-32.89,35.2-56.64C198.39,138.14,116.97,33.39,99.11,11.47,81.24,33.39-.18,138.14,9.86,214.72c3.11,23.75,14.96,42.81,35.2,56.64h0Z" style="fill:#fff;"/><path d="m99.11,272.93c-16.47,0-32.23-4.82-45.58-13.95-16.8-11.48-26.22-26.6-28.79-46.21-.32-2.46,1.41-4.72,3.88-5.05,2.47-.33,4.73,1.41,5.05,3.88,2.22,16.93,10.38,29.99,24.95,39.95,11.84,8.1,25.85,12.38,40.5,12.38,2.48,0,4.5,2.02,4.5,4.5s-2.02,4.5-4.5,4.5Z" style="fill:#fff;"/></svg>