<?xml version="1.0" encoding="UTF-8"?><svg id="_Ñëîé_1" xmlns="http://www.w3.org/2000/svg" viewBox="0 0 344.93 366.57"><path d="M149.62,345.78h-71.6c-31.55,0-57.22-25.67-57.22-57.22V78.01c0-31.55,25.67-57.22,57.22-57.22h71.6c5.74,0,10.4-4.65,10.4-10.4s-4.66-10.4-10.4-10.4h-71.6C35,0,0,35,0,78.01v210.54c0,43.02,35,78.01,78.01,78.01h71.6c5.74,0,10.4-4.65,10.4-10.4s-4.66-10.4-10.4-10.4Z" style="fill:#fff; stroke-width:0px;"/><path d="M343.18,189.05c.16-.24.27-.5.4-.74.19-.35.4-.68.55-1.05.13-.31.2-.64.3-.96.1-.33.22-.64.29-.98.11-.58.16-1.16.18-1.75,0-.1.03-.19.03-.28s-.03-.19-.03-.28c-.02-.59-.06-1.17-.18-1.75-.07-.34-.19-.65-.29-.98-.1-.32-.17-.65-.3-.96-.15-.37-.36-.7-.55-1.05-.14-.25-.24-.51-.4-.74-.38-.57-.82-1.11-1.3-1.59l-80.71-80.71c-4.06-4.06-10.65-4.06-14.7,0-4.06,4.06-4.06,10.64,0,14.7l62.96,62.96H114.46c-5.74,0-10.4,4.65-10.4,10.4s4.66,10.4,10.4,10.4h194.97l-62.96,62.96c-4.06,4.06-4.06,10.64,0,14.7,2.03,2.03,4.69,3.05,7.35,3.05s5.32-1.02,7.35-3.05l80.71-80.71c.49-.48.92-1.02,1.3-1.59Z" style="fill:#fff; stroke-width:0px;"/></svg>