<?xml version="1.0" encoding="UTF-8"?><svg id="Layer_1" xmlns="http://www.w3.org/2000/svg" viewBox="0 0 266.57 302.65"><path d="M169.35,302.65c-1.28,0-2.56-.49-3.54-1.46l-36.06-36.06c-1.95-1.95-1.95-5.12,0-7.07l36.06-36.06c1.95-1.95,5.12-1.95,7.07,0s1.95,5.12,0,7.07l-32.53,32.53,32.53,32.53c1.95,1.95,1.95,5.12,0,7.07-.98.98-2.26,1.46-3.54,1.46Z" style="fill:#fff; stroke-width:0px;"/><path d="M133.29,266.58c-2.76,0-5-2.24-5-5s2.24-5,5-5c67.98,0,123.29-55.31,123.29-123.29S201.26,10,133.29,10,10,65.31,10,133.29c0,2.76-2.24,5-5,5s-5-2.24-5-5C0,59.79,59.79,0,133.29,0s133.29,59.79,133.29,133.29-59.79,133.29-133.29,133.29Z" style="fill:#fff; stroke-width:0px;"/></svg>