<?xml version="1.0" encoding="UTF-8"?><svg id="Layer_1" xmlns="http://www.w3.org/2000/svg" viewBox="0 0 868.24 544.07"><path d="m462.51,393.14h-58.55c-6.69,0-12.11-5.42-12.11-12.11v-49.87c0-32.69,27.81-47.7,48.13-58.66,30.09-16.24,42.67-26.15,42.67-45.52,0-27.87-22.21-50.55-49.52-50.55-22.7,0-42.09,12.55-57.72,37.33-1.77,2.8-5.38,3.83-8.25,2.18l-61.01-34.94c-2.99-1.71-4.04-5.62-2.24-8.56,31-50.72,76.68-78.56,129.23-78.56,72.83,0,132.08,59.71,132.08,133.11s-67.62,92.33-86.02,118.18c-3.12,4.38-4.2,23.47-4.58,36.21-.19,6.56-5.54,11.78-12.1,11.78Z" style="fill:none; stroke:#7f919f; stroke-linecap:round; stroke-linejoin:round; stroke-width:21.18px;"/><path d="m679.1,179.16C641.41,80.59,545.94,10.59,434.12,10.59s-207.31,70.01-244.99,168.6" style="fill:none; stroke:#7f919f; stroke-linecap:round; stroke-linejoin:round; stroke-width:21.18px;"/><path d="m188.68,365.18c33.98,90.16,116.23,156.64,215.24,168-13.52-9.3-22.39-24.87-22.39-42.52,0-28.5,23.1-51.6,51.6-51.6s51.6,23.1,51.6,51.6c0,17.84-9.05,33.55-22.81,42.82,100.06-10.55,183.35-77.37,217.61-168.24" style="fill:none; stroke:#7f919f; stroke-linecap:round; stroke-linejoin:round; stroke-width:21.18px;"/><circle cx="124.03" cy="272.04" r="113.44" style="fill:none; stroke:#7f919f; stroke-linecap:round; stroke-linejoin:round; stroke-width:21.18px;"/><polyline points="70.55 268.86 109.96 308.26 177.51 240.71" style="fill:none; stroke:#7f919f; stroke-linecap:round; stroke-linejoin:round; stroke-width:21.18px;"/><circle cx="744.2" cy="272.04" r="113.44" style="fill:none; stroke:#7f919f; stroke-linecap:round; stroke-linejoin:round; stroke-width:21.18px;"/><line x1="701.98" y1="229.81" x2="786.42" y2="314.25" style="fill:none; stroke:#7f919f; stroke-linecap:round; stroke-linejoin:round; stroke-width:21.18px;"/><line x1="701.98" y1="314.25" x2="786.42" y2="229.81" style="fill:none; stroke:#7f919f; stroke-linecap:round; stroke-linejoin:round; stroke-width:21.18px;"/></svg>