<?xml version="1.0" encoding="UTF-8"?><svg id="Layer_2" xmlns="http://www.w3.org/2000/svg" viewBox="0 0 65.79 45.74"><path d="m55.86,4.51c.09.09-.07,4.87.16,8.12.35,3.35.91,5.12,2.13,5.3,1.12.17,2.54-1.68,2.13-5.76-.4-4.21-4.43-7.77-4.42-7.65Z" style="fill:none; stroke:#7f919f; stroke-linecap:round; stroke-linejoin:round;"/><path d="m51.34,22.33c.52,2.33,1.59,3.2,2.98,2.32,1.34-.85,2.2-3.29,1.17-5.8-1.06-2.5-4.26-2.63-4.23-2.66.1.05-.34,3.86.08,6.14Z" style="fill:none; stroke:#7f919f; stroke-linecap:round; stroke-linejoin:round;"/><path d="m61.57,26.47c-2.55,2.24-3.82,1.45-3.88-.27-.08-1.8.84-4.02,2.71-6.51,1.83-2.53,4.82-2.67,4.85-2.63.21,0-.92,7.21-3.69,9.42Z" style="fill:none; stroke:#7f919f; stroke-linecap:round; stroke-linejoin:round;"/><path d="m45.67,30.02c-.64,2.31-.12,3.6,1.51,3.47,1.57-.12,3.46-1.86,3.74-4.53.24-2.66-2.48-4.3-2.44-4.31.05.07-2.11,3.14-2.81,5.38Z" style="fill:none; stroke:#7f919f; stroke-linecap:round; stroke-linejoin:round;"/><path d="m52.66,38.54c-3.28.78-4.02-.52-3.25-2.08.78-1.63,2.61-3.16,5.41-4.42,2.78-1.29,5.46.04,5.47.09.17.08-4.17,5.74-7.63,6.41Z" style="fill:none; stroke:#7f919f; stroke-linecap:round; stroke-linejoin:round;"/><path d="m36.95,34.13c-1.74,1.72-1.94,3.09-.38,3.77,1.49.67,4.05.03,5.58-2.21,1.5-2.25-.12-5-.08-4.99.02.09-3.35,1.8-5.12,3.43Z" style="fill:none; stroke:#7f919f; stroke-linecap:round; stroke-linejoin:round;"/><path d="m38.96,45c-3.35-.92-3.39-2.43-1.89-3.41,1.53-1.05,3.95-1.51,7.02-1.3,3.07.16,4.78,2.62,4.77,2.66.13.15-6.42,3.15-9.9,2.05Z" style="fill:none; stroke:#7f919f; stroke-linecap:round; stroke-linejoin:round;"/><path d="m9.93,4.51c-.09.09.07,4.87-.16,8.12-.35,3.35-.91,5.12-2.13,5.3-1.12.17-2.54-1.68-2.13-5.76.4-4.21,4.43-7.77,4.42-7.65Z" style="fill:none; stroke:#7f919f; stroke-linecap:round; stroke-linejoin:round;"/><path d="m14.44,22.33c-.52,2.33-1.59,3.2-2.98,2.32-1.34-.85-2.2-3.29-1.17-5.8,1.06-2.5,4.26-2.63,4.23-2.66-.1.05.34,3.86-.08,6.14Z" style="fill:none; stroke:#7f919f; stroke-linecap:round; stroke-linejoin:round;"/><path d="m4.21,26.47c2.55,2.24,3.82,1.45,3.88-.27.08-1.8-.84-4.02-2.71-6.51-1.83-2.53-4.82-2.67-4.85-2.63-.21,0,.92,7.21,3.69,9.42Z" style="fill:none; stroke:#7f919f; stroke-linecap:round; stroke-linejoin:round;"/><path d="m20.12,30.02c.64,2.31.12,3.6-1.51,3.47-1.57-.12-3.46-1.86-3.74-4.53-.24-2.66,2.48-4.3,2.44-4.31-.05.07,2.11,3.14,2.81,5.38Z" style="fill:none; stroke:#7f919f; stroke-linecap:round; stroke-linejoin:round;"/><path d="m13.13,38.54c3.28.78,4.02-.52,3.25-2.08-.78-1.63-2.61-3.16-5.41-4.42-2.78-1.29-5.46.04-5.47.09-.17.08,4.17,5.74,7.63,6.41Z" style="fill:none; stroke:#7f919f; stroke-linecap:round; stroke-linejoin:round;"/><path d="m28.84,34.13c1.74,1.72,1.94,3.09.38,3.77-1.49.67-4.05.03-5.58-2.21-1.5-2.25.12-5,.08-4.99-.02.09,3.35,1.8,5.12,3.43Z" style="fill:none; stroke:#7f919f; stroke-linecap:round; stroke-linejoin:round;"/><path d="m26.83,45c3.35-.92,3.39-2.43,1.89-3.41-1.53-1.05-3.95-1.51-7.02-1.3-3.07.16-4.78,2.62-4.77,2.66-.13.15,6.42,3.15,9.9,2.05Z" style="fill:none; stroke:#7f919f; stroke-linecap:round; stroke-linejoin:round;"/><polygon points="32.89 .5 35.97 9.95 45.91 9.95 37.86 15.8 40.94 25.25 32.89 19.41 24.85 25.25 27.92 15.8 19.88 9.95 29.82 9.95 32.89 .5" style="fill:none; stroke:#7f919f; stroke-linecap:round; stroke-linejoin:round;"/></svg>