<?xml version="1.0" encoding="UTF-8"?><svg id="Calque_1" xmlns="http://www.w3.org/2000/svg" viewBox="0 0 81.35 20.45"><path d="m4.1,20.18H0V.27h4.1v19.91Z" style="fill:#171717;"/><path d="m19.88,12.04h-7.88v8.13h-4.1V.27h12.96v3.32h-8.86v5.14h7.88v3.31Z" style="fill:#171717;"/><path d="m38.87,13.55c-.16,2.14-.95,3.83-2.37,5.06s-3.31,1.85-5.64,1.85c-2.55,0-4.56-.86-6.02-2.58-1.46-1.72-2.19-4.08-2.19-7.08v-1.22c0-1.91.34-3.6,1.01-5.06.67-1.46,1.64-2.58,2.89-3.36s2.71-1.17,4.37-1.17c2.3,0,4.15.62,5.55,1.85s2.21,2.96,2.43,5.18h-4.1c-.1-1.29-.46-2.22-1.07-2.8-.62-.58-1.55-.87-2.81-.87-1.37,0-2.39.49-3.07,1.47-.68.98-1.03,2.5-1.05,4.56v1.5c0,2.15.33,3.72.98,4.72.65.99,1.68,1.49,3.08,1.49,1.27,0,2.21-.29,2.84-.87.62-.58.98-1.47,1.07-2.69h4.1Z" style="fill:#171717;"/><path d="m52.8,16.08h-7.19l-1.37,4.1h-4.36L47.29.27h3.8l7.45,19.91h-4.36l-1.38-4.1Zm-6.08-3.32h4.98l-2.5-7.45-2.47,7.45Z" style="fill:#171717;"/><path d="m65.76.27l5.11,14.44L75.96.27h5.39v19.91h-4.12v-5.44l.41-9.39-5.37,14.83h-2.82l-5.36-14.82.41,9.38v5.44h-4.1V.27h5.36Z" style="fill:#171717;"/></svg>