<?xml version="1.0" standalone="no"?>
<!DOCTYPE svg PUBLIC "-//W3C//DTD SVG 1.1//EN" "http://www.w3.org/Graphics/SVG/1.1/DTD/svg11.dtd" >
<svg xmlns="http://www.w3.org/2000/svg" xmlns:xlink="http://www.w3.org/1999/xlink" version="1.1">
<metadata></metadata>
<defs>
<font id="poppinsextralight_italic" horiz-adv-x="571" >
<font-face units-per-em="2048" ascent="1638" descent="-410" />
<missing-glyph horiz-adv-x="600" />
<glyph horiz-adv-x="0" />
<glyph horiz-adv-x="0" />
<glyph unicode="&#xd;" horiz-adv-x="600" />
<glyph unicode=" "  horiz-adv-x="600" />
<glyph unicode="&#x09;" horiz-adv-x="600" />
<glyph unicode="&#xa0;" horiz-adv-x="600" />
<glyph unicode="!" horiz-adv-x="514" d="M92 74q6 35 33 57.5t61 22.5q33 0 51.5 -22.5t12.5 -57.5t-33 -57.5t-61 -22.5q-33 0 -51.5 22.5t-12.5 57.5zM174 350l182 1088h103l-205 -1088h-80z" />
<glyph unicode="&#x22;" horiz-adv-x="471" d="M219 1245l47 381h103l-84 -381h-66zM428 1245l47 381h103l-82 -381h-68z" />
<glyph unicode="#" horiz-adv-x="1591" d="M61 473l15 82h346l153 393h-323l14 82h340l191 486h90l-191 -486h484l190 486h90l-190 -486h311l-14 -82h-328l-154 -393h306l-15 -82h-323l-185 -473h-90l185 473h-484l-184 -473h-90l184 473h-328zM512 555h483l154 393h-483z" />
<glyph unicode="$" horiz-adv-x="1159" d="M90 354h96q-2 -44 10 -88t40 -86.5t82.5 -73t127.5 -38.5l113 630q-36 11 -58.5 18t-56.5 18.5t-55 22t-49 25.5t-45 31.5t-36 37.5t-28.5 45.5t-17 53.5t-6.5 64.5t8 75.5q27 158 156 260t321 102l31 178h65l-32 -180q162 -16 244.5 -109t80.5 -219h-98q-1 37 -14 74.5 t-39.5 74t-75 63.5t-111.5 36l-108 -606q36 -10 58.5 -17.5t56 -19t55 -22.5t49 -26t44 -32t35.5 -38.5t28.5 -47t16 -55.5t6 -66.5t-8.5 -77.5q-12 -69 -48 -134t-93 -120t-144.5 -88.5t-191.5 -33.5l-29 -164h-66l29 166q-171 17 -263.5 120t-78.5 246zM303.5 1037.5 q-0.5 -26.5 4 -48.5t12 -41.5t20.5 -35.5t27 -30t33.5 -26t37.5 -21.5t42 -19t45 -16.5t48 -15l105 590q-145 0 -245 -72.5t-124 -207.5q-5 -30 -5.5 -56.5zM512 63q154 3 251 86t120 209q5 30 6 57.5t-3.5 50t-12.5 42.5t-20.5 37t-26.5 31.5t-33 27t-37.5 22.5t-42 19.5 t-45 17t-47.5 15.5z" />
<glyph unicode="%" horiz-adv-x="1187" d="M18 0l1108 1438h97l-1108 -1438h-97zM190 1176q22 122 113.5 200t210.5 78q118 0 181.5 -78t41.5 -200t-113 -199.5t-210 -77.5q-118 0 -182 77.5t-42 199.5zM268 1176q-17 -95 26.5 -154t131.5 -59q86 0 151 59t82 154q17 97 -26 155t-131 58q-87 0 -152 -58.5 t-82 -154.5zM506 260q22 123 112 201t209 78q118 0 183 -78.5t43 -200.5t-113 -200t-209 -78q-119 0 -183 78t-42 200zM584 260q-19 -96 25 -154.5t132 -58.5q87 0 151 58.5t83 154.5q15 97 -28.5 155t-131.5 58q-87 0 -150.5 -58.5t-80.5 -154.5z" />
<glyph unicode="&#x26;" horiz-adv-x="1431" d="M53 342q0 173 114.5 305t311.5 201q-106 133 -106 254q0 153 111 252.5t280 99.5q127 0 207 -65.5t80 -176.5q0 -19 -4 -51h-93q4 24 4 39q0 82 -57.5 128t-146.5 46q-124 0 -205.5 -73.5t-81.5 -186.5q0 -57 26 -113t80 -124l428 -537q87 97 166 205l150 194h100 l-182 -241q-104 -139 -182 -222l221 -276h-115l-170 211q-126 -121 -251 -177.5t-273 -56.5q-186 0 -299 100.5t-113 264.5zM145 352q0 -130 90.5 -211.5t239.5 -81.5q128 0 239 52t224 163l-410 512h-2q-178 -63 -279.5 -173t-101.5 -261z" />
<glyph unicode="'" horiz-adv-x="272" d="M225 1245l41 381h115l-90 -381h-66z" />
<glyph unicode="(" horiz-adv-x="778" d="M164 422q0 418 176.5 826t480.5 665h101l-2 -10q-310 -266 -487 -661.5t-177 -807.5q0 -233 63.5 -438.5t186.5 -366.5v-10h-98q-113 144 -178.5 349.5t-65.5 453.5z" />
<glyph unicode=")" horiz-adv-x="776" d="M-57 -371q307 268 479 660t172 801q0 492 -260 813l2 10h98q119 -144 184.5 -351t65.5 -456q0 -273 -76.5 -548.5t-223 -521t-343.5 -417.5h-98v10z" />
<glyph unicode="*" horiz-adv-x="919" d="M186 973l324 145l-266 150l47 65l254 -172l45 334h78l-72 -334l309 172l27 -69l-322 -146l269 -149l-48 -68l-251 172l-45 -336h-78l71 336l-311 -174z" />
<glyph unicode="+" horiz-adv-x="1273" d="M145 727l13 82h477l84 481h90l-84 -481h477l-14 -82h-479l-84 -481h-90l83 481h-473z" />
<glyph unicode="," horiz-adv-x="292" d="M-186 -309l247 524h107l-283 -524h-71z" />
<glyph unicode="-" horiz-adv-x="987" d="M25 729l14 80h770l-14 -80h-770z" />
<glyph unicode="." horiz-adv-x="305" d="M-12 74q6 35 33 57.5t61 22.5q33 0 51 -22.5t12 -57.5t-33 -57.5t-61 -22.5q-33 0 -51 22.5t-12 57.5z" />
<glyph unicode="/" horiz-adv-x="819" d="M-80 -330l961 2249h94l-963 -2249h-92z" />
<glyph unicode="0" horiz-adv-x="1232" d="M137.5 353q-4.5 87 3 177t27.5 201q24 134 54 237.5t78.5 200t112 159.5t156 100.5t207.5 37.5q96 0 166.5 -25t114 -73.5t68 -112t29 -149.5t-2.5 -175.5t-27 -199.5q-24 -134 -54 -239t-79.5 -202.5t-113.5 -161t-156 -101t-207 -37.5q-96 0 -167 25t-114 74.5t-67 113 t-28.5 150.5zM224.5 440.5q-1.5 -69.5 7.5 -122.5t30 -100.5t55.5 -78t87.5 -48t123 -17.5t129.5 17.5t105 48t83.5 78t65 100.5t50.5 123t39.5 137.5t31 152.5q15 84 23.5 151.5t10 136.5t-7.5 121.5t-30 99.5t-55.5 77t-87.5 47.5t-123 17.5q-98 0 -175 -34t-129 -89 t-92 -142t-63.5 -177t-44.5 -209q-15 -84 -23.5 -152.5t-10 -138z" />
<glyph unicode="1" horiz-adv-x="530" d="M156 0l241 1362h-211l17 84h303l-256 -1446h-94z" />
<glyph unicode="2" horiz-adv-x="1167" d="M4 6l10 62q206 128 370 247t303.5 245t224.5 251.5t106 241.5q8 53 8 102.5t-18.5 92t-49.5 74t-86.5 49.5t-130.5 18q-177 0 -291.5 -109t-158.5 -287h-90q54 224 202 349.5t353 125.5q89 0 160.5 -24.5t122 -73t70.5 -129t1 -184.5q-20 -109 -91.5 -227t-168 -219.5 t-220.5 -203.5t-235.5 -178.5t-226.5 -144.5h817l-14 -78h-967z" />
<glyph unicode="3" horiz-adv-x="1187" d="M78 412h90q-2 -153 88.5 -247.5t263.5 -94.5q175 0 282 88t132 227q30 168 -83.5 252t-350.5 84h-39l14 80h43q463 3 514 303q24 131 -48.5 211t-229.5 80q-154 0 -275 -81t-168 -239h-92q51 187 197 293.5t354 106.5q197 0 289 -102.5t65 -262.5q-24 -131 -120.5 -226 t-264.5 -114v-12q154 -24 232.5 -121t50.5 -258q-15 -82 -54.5 -152t-102.5 -124t-155 -84.5t-204 -30.5q-206 0 -320.5 111t-107.5 313z" />
<glyph unicode="4" horiz-adv-x="1214" d="M20 369l13 71l958 1010h107l-178 -1001h233l-14 -80h-234l-65 -369h-90l65 369h-795zM143 449h688l158 890z" />
<glyph unicode="5" horiz-adv-x="1239" d="M115 395h90q4 -157 96 -240t248 -83q197 0 318 115.5t155 304.5q31 184 -52 288.5t-272 104.5q-130 0 -241 -57.5t-183 -157.5h-86l140 786h874l-14 -82h-787l-104 -588q69 79 185.5 129t240.5 50q84 0 151.5 -18.5t111.5 -51.5t75.5 -78t43.5 -97.5t15 -110t-10 -115.5 q-18 -103 -61.5 -191.5t-113 -159.5t-172.5 -112t-228 -41q-201 0 -313 109t-107 296z" />
<glyph unicode="6" horiz-adv-x="1271" d="M144 489.5q5 100.5 28 227.5q32 179 84 315t129.5 237.5t188 154.5t249.5 53q190 0 280 -105.5t81 -281.5h-86q3 149 -68 229t-221 80q-110 0 -198 -40t-160.5 -126.5t-124 -230t-80.5 -343.5q57 142 197 225t307 83q220 0 321.5 -132.5t61.5 -365.5q-17 -96 -59 -180 t-109 -152t-167.5 -107.5t-222.5 -39.5q-129 0 -218 39t-135.5 103t-64.5 160.5t-13 197zM227 393.5q3 -53.5 15 -101.5t41 -89t69 -71t100 -47t134 -17q175 0 299 106.5t157 292.5q35 201 -49.5 310.5t-271.5 109.5q-61 0 -122.5 -14.5t-121 -45.5t-108.5 -75t-84.5 -108.5 t-48.5 -141.5q-12 -55 -9 -108.5z" />
<glyph unicode="7" horiz-adv-x="1058" d="M180 1374l15 80h942l-15 -74l-817 -1380h-102l829 1374h-852z" />
<glyph unicode="8" horiz-adv-x="1261" d="M84 379q26 149 129.5 247.5t261.5 131.5q-137 37 -192.5 127.5t-32.5 216.5q30 168 174.5 272.5t368.5 104.5q222 0 329.5 -104.5t77.5 -272.5q-23 -127 -110.5 -217.5t-237.5 -126.5q148 -33 218 -131.5t44 -247.5q-35 -197 -194 -311.5t-398 -114.5t-356 114.5 t-82 311.5zM174 381q-30 -165 69 -257.5t294 -92.5t325.5 92.5t159.5 257.5q30 170 -74 253t-291 83q-89 0 -167 -19t-144.5 -58t-111.5 -105t-60 -154zM338 1094q-25 -142 65.5 -222.5t268.5 -80.5q176 0 294 80.5t144 222.5q26 147 -65 226t-267 79t-294.5 -79 t-145.5 -226z" />
<glyph unicode="9" horiz-adv-x="1269" d="M154 381h86q-3 -150 71 -231.5t226 -81.5q85 0 156 24t134 78t112 138.5t86.5 207.5t59.5 283q-56 -135 -191.5 -215t-297.5 -80q-221 0 -324.5 131t-62.5 362q17 97 59 181.5t109.5 151.5t167.5 106t221 39q90 0 160.5 -19.5t118 -53.5t79 -85.5t47 -111t18 -134.5 t-4.5 -151t-23 -166q-32 -183 -81.5 -319.5t-125.5 -239t-185 -155t-251 -52.5q-193 0 -283 107.5t-81 285.5zM297 997q-34 -197 51.5 -306t272.5 -109q105 0 203.5 41t175.5 130.5t98 211.5q9 67 7.5 129.5t-26 118t-64.5 96.5t-107.5 64.5t-153.5 23.5q-175 0 -299 -107.5 t-158 -292.5z" />
<glyph unicode=":" horiz-adv-x="307" d="M-12 74q6 35 33 57.5t61 22.5q33 0 51 -22.5t12 -57.5t-33 -57.5t-61 -22.5q-33 0 -51 22.5t-12 57.5zM-12 983q6 35 33 57.5t61 22.5q33 0 51 -22.5t12 -57.5t-33 -57.5t-61 -22.5q-33 0 -51 22.5t-12 57.5z" />
<glyph unicode=";" horiz-adv-x="376" d="M-141 -309l247 524h107l-283 -524h-71zM176 987q6 35 33 57.5t61 22.5q33 0 51.5 -22.5t12.5 -57.5t-33 -57.5t-61 -22.5q-33 0 -51.5 22.5t-12.5 57.5z" />
<glyph unicode="&#x3c;" horiz-adv-x="905" d="M150 768l624 481h115l-625 -481l457 -479h-115z" />
<glyph unicode="=" horiz-adv-x="1269" d="M119 532l14 82h1018l-14 -82h-1018zM190 922l15 84h1016l-15 -84h-1016z" />
<glyph unicode="&#x3e;" horiz-adv-x="894" d="M74 289l622 479l-454 481h114l457 -481l-625 -479h-114z" />
<glyph unicode="?" horiz-adv-x="1017" d="M150 1057q33 182 172.5 288.5t328.5 106.5q194 0 296.5 -112.5t70.5 -297.5q-77 -433 -600 -436l-53 -262h-78l53 332h43q80 0 144 7.5t134 30.5t120.5 62t90 106.5t56.5 159.5q26 152 -54 242t-235 90q-158 0 -265.5 -86t-135.5 -231h-88zM201 74q6 35 33 57.5t61 22.5 q33 0 51 -22.5t12 -57.5t-33 -57.5t-61 -22.5q-33 0 -51 22.5t-12 57.5z" />
<glyph unicode="@" horiz-adv-x="2009" d="M137 285q0 208 74.5 394t203.5 320t311.5 212.5t389.5 78.5q161 0 297.5 -50t231 -139t147.5 -215t53 -274q0 -117 -27 -228t-76.5 -199.5t-126.5 -142.5t-169 -54q-98 0 -147 60t-46 161q-62 -105 -162 -163t-214 -58q-154 0 -241 94t-87 254q0 149 60.5 278t174 209 t254.5 80q113 0 187.5 -54.5t99.5 -156.5l33 185h82l-107 -601q-18 -99 14.5 -159t110.5 -60q93 0 165 85.5t107 208t35 251.5q0 284 -179 451.5t-482 167.5q-186 0 -351 -73t-282 -197.5t-185 -294.5t-69 -359q0 -290 176.5 -453t478.5 -163q184 0 336 67l17 -70 q-176 -69 -375 -69q-210 0 -371.5 82t-251.5 236t-90 358zM637 348q0 -132 69 -208.5t195 -76.5q143 0 251.5 108t135.5 294q26 157 -39.5 260.5t-212.5 103.5q-118 0 -211 -70.5t-140.5 -179t-47.5 -231.5z" />
<glyph unicode="A" horiz-adv-x="1284" d="M-37 0l776 1405h103l278 -1405h-100l-72 369h-682l-203 -369h-100zM307 444h627l-164 842z" />
<glyph unicode="B" horiz-adv-x="1185" d="M68 0l256 1438h448q110 0 189 -28t121 -77q44 -49 58 -113q8 -33 7 -70q0 -33 -6 -69q-25 -138 -113.5 -222.5t-208.5 -115.5q121 -23 189 -123q51 -75 51 -169q0 -32 -6 -66q-31 -169 -170 -277t-361 -108h-454zM174 78h358q175 0 289 83.5t140 229.5q6 33 6 62 q0 101 -68 167q-88 86 -262 85h-352zM299 782h360q162 0 263 77.5t125 213.5q6 32 6 62q0 89 -55 146q-73 77 -246 77h-351z" />
<glyph unicode="C" horiz-adv-x="1576" d="M137 422q-15 67 -15 140.5t15 154.5q38 213 157 381t291 261t367 93q245 0 393.5 -115t190.5 -321h-106q-35 162 -159.5 257t-332.5 95q-166 0 -313 -77t-253 -226.5t-141 -347.5q-14 -77 -14 -146q1 -65 13 -123q26 -120 90.5 -204t165 -129t223.5 -45q208 0 365.5 95 t250.5 257h105q-113 -206 -302 -321t-434 -115q-146 0 -263.5 54t-190.5 151t-103 231z" />
<glyph unicode="D" horiz-adv-x="1441" d="M68 0l256 1438h401q365 0 529 -190q119 -138 119 -356q0 -82 -17 -175q-59 -340 -289.5 -528.5t-597.5 -188.5h-401zM174 74h311q325 0 525 170.5t254 472.5q15 85 15 159q0 192 -101 314q-140 170 -467 170h-310z" />
<glyph unicode="E" horiz-adv-x="1005" d="M68 0l256 1438h725l-15 -76h-633l-106 -604h573l-14 -74h-571l-109 -608h635l-14 -76h-727z" />
<glyph unicode="F" horiz-adv-x="985" d="M68 0l256 1438h739l-14 -76h-648l-106 -604h567l-14 -76h-567l-121 -682h-92z" />
<glyph unicode="G" horiz-adv-x="1611" d="M137 717q37 212 157.5 380t296 260.5t374.5 92.5q232 0 380.5 -116t190.5 -320h-106q-35 161 -161 257.5t-319 96.5q-127 0 -245.5 -45.5t-214.5 -128.5t-164.5 -206t-94.5 -271q-14 -76 -14 -144q0 -67 13 -127q27 -120 93 -204t169 -129t229 -45q164 0 309 72t250 210 t145 322h-641l15 76h735l-12 -62q-41 -200 -158.5 -359.5t-290 -250t-366.5 -90.5q-199 0 -342 92.5t-204 259.5q-38 104 -38 225q0 74 14 154z" />
<glyph unicode="H" horiz-adv-x="1359" d="M68 0l256 1438h92l-119 -666h838l118 666h93l-256 -1438h-93l125 698h-837l-125 -698h-92z" />
<glyph unicode="I" horiz-adv-x="430" d="M68 0l256 1438h92l-256 -1438h-92z" />
<glyph unicode="J" horiz-adv-x="948" d="M35 367h92q-9 -39 -9 -76q0 -19 2 -37q7 -54 28.5 -95.5t70 -66t119.5 -24.5q68 0 122.5 22.5t88.5 60.5t54.5 80.5t29.5 90.5l196 1116h93l-197 -1116q-27 -149 -135.5 -242.5t-265.5 -93.5q-167 0 -244 102q-54 72 -54 183q0 45 9 96z" />
<glyph unicode="K" horiz-adv-x="1087" d="M68 0l256 1438h92l-121 -682l782 682h117l-827 -721l575 -717h-121l-540 674l-121 -674h-92z" />
<glyph unicode="L" horiz-adv-x="835" d="M68 0l256 1438h92l-242 -1364h535l-15 -74h-626z" />
<glyph unicode="M" horiz-adv-x="1679" d="M68 0l249 1407h97l348 -1284l801 1284h96l-250 -1407h-92l217 1217l-758 -1217h-74l-327 1208l-215 -1208h-92z" />
<glyph unicode="N" horiz-adv-x="1366" d="M68 0l254 1436h92l618 -1282l225 1282h93l-254 -1436h-92l-617 1286l-227 -1286h-92z" />
<glyph unicode="O" horiz-adv-x="1617" d="M127 567q0 238 109 440.5t302 322.5t425 120q265 0 423 -160.5t158 -421.5q0 -179 -64.5 -341.5t-174.5 -282t-266 -190t-330 -70.5q-264 0 -423 160.5t-159 422.5zM221 573q0 -233 138 -369t362 -136q155 0 291 64.5t231 173t150 254t55 304.5q0 233 -137 368.5 t-363 135.5q-156 0 -293 -65.5t-231 -174.5t-148.5 -254t-54.5 -301z" />
<glyph unicode="P" horiz-adv-x="1118" d="M68 0l256 1438h397q239 0 336 -109q72 -81 72 -205q0 -43 -9 -92q-33 -191 -170.5 -296t-371.5 -105h-306l-112 -631h-92zM287 711h305q380 0 434 321q9 46 9 85q1 97 -53 157q-74 84 -275 84h-306z" />
<glyph unicode="Q" horiz-adv-x="1619" d="M127 567q0 238 109 440.5t302 322.5t425 120q265 0 423 -160.5t158 -421.5q0 -271 -139.5 -493t-368.5 -324l342 -344h-131l-307 309q-118 -32 -231 -32q-264 0 -423 160.5t-159 422.5zM221 573q0 -233 138 -369t362 -136q155 0 291 64.5t231 173t150 254t55 304.5 q0 233 -137 368.5t-363 135.5q-156 0 -293 -65.5t-231 -174.5t-148.5 -254t-54.5 -301z" />
<glyph unicode="R" horiz-adv-x="1148" d="M68 0l256 1438h395q160 0 259.5 -54t133.5 -145q21 -56 20 -124q0 -42 -8 -89q-30 -165 -142 -272t-296 -133l268 -621h-110l-260 612h-9h-305l-110 -612h-92zM283 690h307q190 0 300 91.5t138 244.5q8 46 8 85q0 247 -331 247h-304z" />
<glyph unicode="S" horiz-adv-x="1120" d="M80 354h92q-1 -11 -1 -22q-1 -27 5 -54q8 -38 31 -77.5t59.5 -69.5t97 -49t138.5 -19q152 0 250.5 74t115.5 199q4 28 4 53q0 43 -12 79q-18 58 -57.5 95.5t-93.5 67.5t-115.5 54t-123.5 48t-116.5 56t-94.5 73q-39 40 -59 102q-13 41 -13 90q0 25 3 52q15 150 141 248 t324 98q192 0 299 -97q101 -92 101 -215v-14h-94v8q-1 37 -17 75q-18 42 -54 79.5t-99.5 61.5t-143.5 24q-146 0 -245.5 -68.5t-116.5 -189.5q-3 -23 -3 -44q0 -42 12 -77q20 -53 60 -88t95 -63.5t116.5 -52.5t123.5 -49t116 -59.5t93.5 -78.5t57.5 -111q11 -42 11 -90 q0 -29 -4 -61q-18 -152 -143 -254t-326 -102q-206 0 -316 105q-99 95 -99 232q0 15 1 31z" />
<glyph unicode="T" horiz-adv-x="1013" d="M190 1362l15 76h911l-14 -76h-410l-239 -1362h-93l240 1362h-410z" />
<glyph unicode="U" horiz-adv-x="1320" d="M150 290q-8 45 -7 98q0 70 13 153l159 897h93l-160 -897q-13 -78 -13 -143q1 -138 61 -216q90 -114 279 -114t317.5 114t170.5 359l160 897h92l-160 -897q-25 -142 -80.5 -250t-134.5 -174t-174 -98.5t-205 -32.5t-194 32t-141.5 99.5t-75.5 172.5z" />
<glyph unicode="V" horiz-adv-x="1308" d="M209 1438h104l260 -1321l732 1321h102l-803 -1438h-102z" />
<glyph unicode="W" horiz-adv-x="1902" d="M217 1438h102l113 -1303l623 1303h106l156 -1303l575 1303h103l-652 -1438h-100l-166 1292l-622 -1292h-101z" />
<glyph unicode="X" horiz-adv-x="1112" d="M-29 0l557 725l-301 713h105l268 -637l490 637h104l-559 -719l303 -719h-104l-273 645l-485 -645h-105z" />
<glyph unicode="Y" horiz-adv-x="1107" d="M207 1438h106l260 -768l531 768h106l-606 -856l-102 -582h-92l102 582z" />
<glyph unicode="Z" horiz-adv-x="1036" d="M-20 0l14 78l981 1276h-737l16 84h842l-15 -80l-979 -1276h770l-16 -82h-876z" />
<glyph unicode="[" horiz-adv-x="614" d="M43 -375l403 2294h256l-14 -80h-166l-377 -2134h166l-14 -80h-254z" />
<glyph unicode="\" horiz-adv-x="948" d="M295 1919h96l275 -2249h-93z" />
<glyph unicode="]" horiz-adv-x="614" d="M-14 -379l14 78h166l377 2136h-166l12 78h256l-403 -2292h-256z" />
<glyph unicode="^" horiz-adv-x="1185" d="M43 352l659 1053h78l289 -1053h-94l-252 934l-586 -934h-94z" />
<glyph unicode="_" horiz-adv-x="1234" d="M2 -152l14 84h985l-14 -84h-985z" />
<glyph unicode="`" horiz-adv-x="540" d="M223 1456l17 90l352 -268l-12 -76z" />
<glyph unicode="a" horiz-adv-x="1378" d="M109 557q45 260 222.5 414.5t416.5 154.5q175 0 282 -85.5t133 -219.5l51 291h93l-199 -1112h-90l51 293q-71 -135 -210.5 -222t-315.5 -87q-235 0 -357 157q-89 115 -89 284q0 62 12 132zM203 557q-11 -63 -11 -119q0 -145 74 -240q102 -132 305 -132q199 0 352.5 134.5 t192.5 356.5q10 59 10 112q0 145 -77 243q-106 136 -304 135q-204 0 -353.5 -131.5t-188.5 -358.5z" />
<glyph unicode="b" horiz-adv-x="1378" d="M68 0l268 1516h92l-123 -697q74 136 212 221.5t312 85.5q238 0 360 -154q89 -113 89 -282q0 -63 -12 -133q-45 -259 -223 -416t-414 -157q-175 0 -282.5 86t-135.5 221l-51 -291h-92zM258 557q-10 -60 -10 -113q0 -146 77 -244q106 -134 304 -134q204 0 353.5 132 t188.5 359q12 65 12 122q1 143 -73 237q-102 132 -307 131q-197 0 -351.5 -135.5t-193.5 -354.5z" />
<glyph unicode="c" horiz-adv-x="1271" d="M109 557q31 173 124 303.5t226 198t289 67.5q210 0 325 -104t117 -281h-96q-1 142 -99.5 225t-261.5 83q-122 0 -229 -52t-190 -165.5t-111 -274.5q-11 -67 -11 -125q0 -51 8 -94q18 -93 70 -154t125.5 -91t163.5 -30q164 0 289.5 82t179.5 226h98q-66 -175 -219.5 -281 t-361.5 -106q-237 0 -359 155q-89 113 -90 282q0 64 13 136z" />
<glyph unicode="d" horiz-adv-x="1378" d="M109 557q45 260 222.5 414.5t416.5 154.5q169 0 278.5 -84.5t136.5 -220.5l123 695h90l-268 -1516h-90l53 295q-73 -137 -211.5 -224t-314.5 -87q-237 0 -359 157q-90 115 -89 284q0 62 12 132zM203 557q-11 -63 -11 -119q0 -145 74 -240q102 -132 305 -132 q199 0 352.5 134.5t192.5 356.5q10 59 10 112q0 145 -77 243q-106 136 -304 135q-204 0 -353.5 -131.5t-188.5 -358.5z" />
<glyph unicode="e" horiz-adv-x="1280" d="M109 557q31 174 124 304t226.5 197.5t290.5 67.5q121 0 214 -41t145 -110t71 -157q10 -46 10 -95q0 -44 -8 -90q-11 -68 -25 -111h-960q-8 -52 -7 -98q0 -151 82 -242q108 -119 291 -119q162 0 288 82t179 220h96q-65 -170 -218 -275.5t-359 -105.5q-238 0 -362 156 q-90 113 -90 283q0 63 12 134zM209 594h874q13 67 13 124q0 42 -7 78q-17 86 -70 142t-126 83.5t-160 27.5q-117 0 -222.5 -48.5t-188.5 -154t-113 -252.5z" />
<glyph unicode="f" horiz-adv-x="659" d="M111 0l180 1030h-166l14 82h166l14 78q32 175 135 259.5t304 84.5l-15 -82q-159 0 -232 -61.5t-97 -200.5l-15 -78h289l-14 -82h-289l-182 -1030h-92z" />
<glyph unicode="g" horiz-adv-x="1378" d="M49 -174h92q15 -133 113.5 -212t267.5 -79q179 0 317.5 117t172.5 313l57 326q-72 -134 -210.5 -220.5t-313.5 -86.5q-236 0 -359 157q-89 115 -89 284q0 62 12 132q45 260 222.5 414.5t416.5 154.5q174 0 282 -85t133 -218l51 289h93l-203 -1147q-42 -231 -211 -370.5 t-385 -139.5q-208 0 -328 100t-131 271zM203 557q-11 -63 -11 -119q0 -145 74 -240q101 -132 305 -132q199 0 352.5 134.5t192.5 356.5q10 59 10 112q0 143 -77 243q-106 135 -304 135q-204 0 -353.5 -131.5t-188.5 -358.5z" />
<glyph unicode="h" horiz-adv-x="1275" d="M68 0l268 1516h92l-113 -642q69 127 191 194t268 67q93 0 167 -28.5t126 -88.5q52 -58 69 -150q8 -42 8 -92q0 -58 -11 -125l-115 -651h-90l114 645q11 60 11 111q1 120 -57 194q-82 106 -255 105q-179 0 -307 -115.5t-168 -339.5v2l-106 -602h-92z" />
<glyph unicode="i" horiz-adv-x="430" d="M68 0l198 1112h92l-198 -1112h-92zM291 1440q6 35 32.5 57.5t59.5 22.5t52.5 -22.5t13.5 -57.5q-6 -36 -33.5 -58t-61.5 -22q-33 0 -51 22t-12 58z" />
<glyph unicode="j" horiz-adv-x="444" d="M-244 -524l13 82h75q86 0 131 36t60 127l246 1391h92l-248 -1399q-21 -118 -89.5 -177.5t-193.5 -59.5h-86zM305 1440q6 35 32.5 57.5t59.5 22.5t52.5 -22.5t13.5 -57.5q-6 -36 -32.5 -58t-59.5 -22t-52.5 22t-13.5 58z" />
<glyph unicode="k" horiz-adv-x="894" d="M68 0l268 1516h92l-160 -908l566 504h129l-637 -553l446 -559h-127l-395 510l-90 -510h-92z" />
<glyph unicode="l" horiz-adv-x="430" d="M68 0l268 1516h92l-268 -1516h-92z" />
<glyph unicode="m" horiz-adv-x="2074" d="M68 0l198 1112h92l-43 -238q71 129 188 195t253 66q151 0 247 -78t109 -232q68 152 195 231t276 79q91 0 162.5 -28.5t122.5 -88.5q50 -58 66 -150q7 -41 7 -90q0 -58 -10 -127l-116 -651h-91l115 645q11 63 11 117q0 115 -52 187q-77 106 -242 106q-113 0 -206.5 -50 t-161.5 -156t-94 -257v2l-107 -594h-90l115 645q11 63 11 117q0 115 -52 187q-77 106 -242 106q-173 0 -299 -119t-164 -344v4l-106 -596h-92z" />
<glyph unicode="n" horiz-adv-x="1275" d="M68 0l198 1112h92l-41 -233q69 124 190 190t263 66q95 0 169.5 -28.5t126.5 -88.5q53 -58 70 -150q8 -42 8 -92q0 -58 -11 -125l-115 -651h-90l114 645q11 60 11 111q1 120 -57 194q-82 106 -255 105q-172 0 -297.5 -107t-171.5 -315l-112 -633h-92z" />
<glyph unicode="o" horiz-adv-x="1320" d="M98 432q0 189 84 347.5t236.5 252.5t339.5 94q207 0 334 -120t127 -328q0 -141 -50 -269t-136.5 -221.5t-210 -148.5t-263.5 -55q-208 0 -334.5 120.5t-126.5 327.5zM193 438q0 -93 30 -166t82.5 -118t120 -68t145.5 -23q160 0 288 85t196.5 224t68.5 302q0 93 -30.5 166 t-83.5 118t-121 68t-146 23q-121 0 -225.5 -50t-174.5 -134t-110 -195t-40 -232z" />
<glyph unicode="p" horiz-adv-x="1378" d="M-23 -524l289 1636h90l-51 -293q71 134 210.5 220.5t313.5 86.5q238 0 360 -154q89 -113 89 -282q0 -63 -12 -133q-45 -259 -223 -416t-414 -157q-175 0 -283.5 86.5t-134.5 220.5l-143 -815h-91zM258 557q-10 -60 -10 -113q0 -145 77 -244q106 -134 304 -134 q204 0 353.5 132t188.5 359q12 65 12 122q0 143 -73 237q-103 131 -307 131q-197 0 -351.5 -135.5t-193.5 -354.5z" />
<glyph unicode="q" horiz-adv-x="1378" d="M109 557q45 260 222.5 414.5t416.5 154.5q175 0 282.5 -86t132.5 -219l51 291h93l-289 -1636h-92l143 815q-70 -133 -209.5 -220t-316.5 -87q-235 0 -357 157q-89 115 -89 284q0 62 12 132zM203 557q-11 -63 -11 -119q0 -145 74 -240q101 -132 305 -132 q199 0 352.5 134.5t192.5 356.5q10 59 10 112q0 143 -77 243q-106 135 -304 135q-204 0 -353.5 -131.5t-188.5 -358.5z" />
<glyph unicode="r" horiz-adv-x="716" d="M68 0l198 1112h92l-43 -240q66 127 181.5 195t275.5 68l-18 -97h-29q-77 0 -145.5 -20t-131.5 -64t-109 -124t-65 -189l-114 -641h-92z" />
<glyph unicode="s" horiz-adv-x="1017" d="M55 299h92q-1 -12 -1 -24q0 -91 64 -149q72 -64 214 -65q145 0 231 65t86 167q0 45 -20 80.5t-53.5 59t-77.5 42.5t-92 35.5t-96.5 34.5t-92.5 42t-77.5 55t-53.5 77.5t-20 105.5q0 133 112 217t281 84q109 0 195 -40q86 -38 130 -114q34 -58 34 -130q0 -21 -3 -43h-90 q2 18 2 35q0 90 -67 148q-80 69 -209 69q-126 0 -209.5 -61t-83.5 -163q0 -48 20 -85.5t54 -62t77.5 -44.5t92 -37t97 -34.5t92 -41t77.5 -53t54 -74t20 -100.5q0 -143 -116 -227t-300 -84q-172 0 -274 82q-91 73 -90 202q0 15 1 31z" />
<glyph unicode="t" horiz-adv-x="710" d="M127 1032l14 80h168l49 283h95l-50 -283h328l-14 -80h-328l-131 -735q-9 -47 -9 -82q0 -59 24 -87q38 -46 153 -46h123l-14 -82h-140q-146 0 -202 68q-38 46 -38 134q0 43 9 95l131 735h-168z" />
<glyph unicode="u" horiz-adv-x="1275" d="M138 248q-8 44 -9 95q0 56 10 122l117 647h90l-115 -641q-10 -59 -10 -109q-1 -122 57 -196q82 -106 254 -105q181 0 309 115.5t165 339.5v-6l106 602h92l-196 -1112h-93l43 240q-68 -125 -189.5 -191.5t-262.5 -66.5q-95 0 -170 28t-127.5 87.5t-70.5 150.5z" />
<glyph unicode="v" horiz-adv-x="1087" d="M133 1112h98l234 -1003l584 1003h100l-657 -1112h-97z" />
<glyph unicode="w" horiz-adv-x="1656" d="M133 1112h96l123 -995l531 995h90l176 -995l475 995h94l-547 -1112h-88l-180 987l-530 -987h-88z" />
<glyph unicode="x" horiz-adv-x="897" d="M-66 0l459 561l-256 551h107l221 -475l387 475h98l-448 -551l260 -561h-107l-227 487l-395 -487h-99z" />
<glyph unicode="y" horiz-adv-x="1073" d="M98 -522l301 524l-266 1110h100l240 -997l563 997h99l-936 -1634h-101z" />
<glyph unicode="z" horiz-adv-x="868" d="M-31 0l15 78l778 956h-596l14 78h701l-15 -78l-778 -956h625l-15 -78h-729z" />
<glyph unicode="{" horiz-adv-x="724" d="M158 721l14 84q71 19 121.5 46t80 63.5t45.5 73t25 85.5q15 82 20 265t23 278q25 149 114 220t228 71h82l-14 -82h-70q-105 0 -168 -50t-84 -163q-16 -93 -22.5 -277.5t-20.5 -263.5q-44 -257 -282 -305v-4q97 -31 139.5 -80t42.5 -135q0 -84 -81 -354t-81 -347 q0 -145 183 -145h71l-14 -82h-84q-248 0 -248 215q0 70 41 214t82 284.5t41 202.5q0 74 -39.5 115t-144.5 71z" />
<glyph unicode="|" horiz-adv-x="462" d="M51 -190l318 1796h92l-318 -1796h-92z" />
<glyph unicode="}" horiz-adv-x="724" d="M-115 -381l15 82h71q104 0 167 50t83 163q17 95 23 279.5t20 261.5q20 116 93 196.5t200 110.5v4q-116 28 -160 108.5t-24 196.5q14 75 72.5 259.5t74.5 281.5q20 113 -25.5 163t-150.5 50h-70l15 82h82q139 0 202.5 -71t38.5 -220q-18 -93 -76 -276.5t-73 -266.5 q-5 -32 -5.5 -59t7.5 -59.5t27 -58.5t56 -50.5t91 -40.5l-14 -84q-74 -20 -126.5 -50.5t-81 -69t-42.5 -73t-21 -75.5q-15 -83 -20.5 -266.5t-22.5 -276.5q-27 -149 -116 -220t-226 -71h-84z" />
<glyph unicode="~" horiz-adv-x="921" d="M78 549q39 107 104.5 165t153.5 58q48 0 91 -21.5t70.5 -47t66 -47t77.5 -21.5q51 0 95 38t65 97h76q-37 -106 -104.5 -163.5t-156.5 -57.5q-39 0 -73.5 14t-60.5 33.5t-51 39.5t-56 34t-64 14q-51 0 -93.5 -38t-65.5 -97h-74z" />
<glyph unicode="&#xa1;" horiz-adv-x="581" d="M90 -303l205 1087h80l-182 -1087h-103zM299 1061q6 35 33 57.5t61 22.5q33 0 51.5 -22.5t12.5 -57.5t-33.5 -57.5t-61.5 -22.5q-33 0 -51 22.5t-12 57.5z" />
<glyph unicode="&#xa2;" horiz-adv-x="1259" d="M123 547q40 220 189 358.5t360 153.5l37 209h65l-37 -207q187 -6 288.5 -110.5t96.5 -270.5h-88q0 140 -89 221.5t-243 81.5q-84 0 -162.5 -27t-145.5 -79.5t-115.5 -137.5t-67.5 -192q-36 -211 63 -322.5t277 -111.5q153 0 269 81t167 222h88q-55 -167 -192.5 -272 t-325.5 -111l-39 -221h-65l41 223q-207 14 -308 152.5t-63 359.5z" />
<glyph unicode="&#xa3;" horiz-adv-x="1163" d="M113 61q108 104 165 185.5t78 197.5q15 96 -6 213h-235l12 70h211q-10 51 -15 78t-10.5 74t-3.5 91t10 91q31 176 163 288.5t315 112.5q128 0 214 -56t119.5 -144.5t24.5 -200.5h-88q14 141 -61.5 231t-223.5 90q-134 0 -239.5 -81.5t-134.5 -241.5q-10 -51 -7.5 -110.5 t8 -103.5t15.5 -98q1 -5 1.5 -7t1 -6t1.5 -7h395l-12 -70h-371q17 -113 2 -204q-18 -107 -73 -194.5t-154 -178.5h760l-14 -82h-842z" />
<glyph unicode="&#xa4;" horiz-adv-x="1052" d="M115 422l147 123q-50 94 -26 227q23 135 108 229l-104 125l57 48l102 -123q104 77 226 77q119 0 196 -77l146 123l41 -48l-150 -125q56 -95 33 -229q-23 -131 -113 -227l105 -123l-58 -47l-100 121q-107 -80 -227 -80q-127 0 -201 80l-141 -121zM315 772 q-24 -136 31.5 -214.5t163.5 -78.5q102 0 189.5 79.5t111.5 213.5q24 131 -36 212t-163 81q-105 0 -189 -80t-108 -213z" />
<glyph unicode="&#xa5;" horiz-adv-x="1175" d="M106 391l15 74h407l21 117l-29 80l-364 2l12 71h326l-248 703h104l260 -768l531 768h106l-497 -703h329l-12 -71l-369 -2l-57 -80l-20 -117h411l-14 -74h-410l-69 -391h-93l70 391h-410z" />
<glyph unicode="&#xa6;" horiz-adv-x="462" d="M51 -190l131 739h92l-131 -739h-92zM238 868l131 738h92l-131 -738h-92z" />
<glyph unicode="&#xa7;" horiz-adv-x="1165" d="M88 2h92q-3 -53 10.5 -98.5t46.5 -85t95.5 -62t148.5 -22.5q129 0 214.5 53.5t103.5 157.5q17 92 -49 148.5t-248 109.5q-82 23 -139 44t-113 53t-87 70t-45 92.5t-3 121.5q25 132 144.5 229.5t301.5 108.5q-51 15 -92.5 31.5t-82 42.5t-65.5 57t-37 74.5t-3 95.5 q22 124 138.5 203t293.5 79q182 0 283 -89.5t89 -250.5h-92q4 49 -9.5 94.5t-45.5 85.5t-93.5 64.5t-144.5 24.5q-133 0 -220 -52t-105 -153q-17 -94 48.5 -152.5t246.5 -109.5q81 -23 138.5 -44t113.5 -53.5t87 -70.5t45 -93t3 -122q-23 -130 -141.5 -227t-299.5 -111 q66 -20 115 -42.5t92.5 -57.5t61 -85t6.5 -112q-22 -124 -136.5 -204.5t-287.5 -80.5q-186 0 -288.5 89t-90.5 249zM209 584q-22 -124 67 -200.5t267 -76.5q174 0 287 81t133 196q22 124 -66.5 201t-265.5 77q-175 0 -288 -80.5t-134 -197.5z" />
<glyph unicode="&#xa8;" horiz-adv-x="649" d="M240 1346q0 35 27.5 62.5t64.5 27.5q27 0 44 -18.5t17 -45.5q0 -36 -27 -64t-61 -28q-29 0 -47 19t-18 47zM535 1346q0 35 27.5 62.5t64.5 27.5q27 0 45 -18.5t18 -45.5q0 -36 -28 -64t-62 -28q-29 0 -47 19t-18 47z" />
<glyph unicode="&#xa9;" horiz-adv-x="1636" d="M141 719q38 209 155 373t294 256t383 92t350.5 -92t203.5 -256t21 -373q-37 -209 -153.5 -373t-292.5 -256t-381 -92q-207 0 -352 92t-205 256t-23 373zM199 719q-34 -193 17.5 -344.5t184.5 -238.5t328 -87q194 0 356.5 87t267 238.5t138.5 344.5q35 194 -16.5 345 t-183.5 236.5t-326 85.5q-195 0 -358 -85.5t-268 -236.5t-140 -345zM408.5 513.5q18.5 -90.5 68.5 -152t123.5 -93.5t163.5 -32q148 0 276.5 82.5t196.5 230.5h-88q-59 -116 -157 -177t-214 -61q-71 0 -130 25.5t-100 76.5t-56 127t2 177q24 132 91 227t153.5 139.5 t183.5 44.5q113 0 191 -62t95 -177h88q-15 150 -114 231.5t-248 81.5q-186 0 -335 -128.5t-189 -352.5q-20 -117 -1.5 -207.5z" />
<glyph unicode="&#xaa;" horiz-adv-x="899" d="M168 1083q29 163 139.5 266t259.5 103q113 0 179.5 -54t78.5 -147l33 189h78l-125 -715h-78l33 186q-45 -93 -130 -146.5t-198 -53.5q-149 0 -223.5 103.5t-46.5 268.5zM248 1081q-24 -138 37.5 -221.5t177.5 -83.5q123 0 215.5 83t116.5 222q26 139 -38 222t-188 83 q-117 0 -207 -82.5t-114 -222.5z" />
<glyph unicode="&#xab;" horiz-adv-x="829" d="M98 604l275 359h100l-280 -359l155 -358h-100zM420 604l274 359h103l-281 -359l154 -358h-101z" />
<glyph unicode="&#xac;" horiz-adv-x="1472" d="M152 797l14 77h1264l-68 -376h-88l53 299h-1175z" />
<glyph unicode="&#xad;" horiz-adv-x="987" d="M25 729l14 80h770l-14 -80h-770z" />
<glyph unicode="&#xae;" horiz-adv-x="1011" d="M203 1053q29 171 160 285t303 114q171 0 260.5 -114t58.5 -285q-31 -172 -162 -287t-301 -115t-260 115t-59 287zM260 1053q-27 -151 48 -249.5t224 -98.5t259 98.5t137 249.5q26 151 -49.5 248.5t-223.5 97.5q-149 0 -258.5 -97.5t-136.5 -248.5zM408 834l77 438h181 q65 0 96 -33t22 -94q-9 -54 -47.5 -87.5t-95.5 -39.5l96 -182l-73 -2l-93 184h-65l-35 -184h-63zM514 1075h111q80 0 94 70q6 35 -13 51t-57 16h-110z" />
<glyph unicode="&#xaf;" horiz-adv-x="794" d="M203 1337l12 72h664l-13 -72h-663z" />
<glyph unicode="&#xb0;" horiz-adv-x="768" d="M150 1067q28 159 134 256.5t251 97.5t217.5 -97.5t44.5 -256.5q-29 -161 -135.5 -258.5t-251.5 -97.5t-217 97.5t-43 258.5zM227 1067q-24 -138 29 -215.5t164 -77.5q110 0 191.5 77.5t105.5 215.5q24 136 -30 213.5t-165 77.5q-109 0 -190 -77.5t-105 -213.5z" />
<glyph unicode="&#xb1;" horiz-adv-x="1275" d="M53 205l15 82h1042l-14 -82h-1043zM156 788l16 82h475l74 422h88l-74 -422h479l-16 -82h-477l-80 -450h-88l80 450h-477z" />
<glyph unicode="&#xb2;" horiz-adv-x="636" d="M102 721l11 51l266 213q56 46 87.5 75.5t64.5 78.5t42 100q13 73 -20 110t-94 37q-70 0 -118.5 -40.5t-70.5 -116.5h-77q23 96 94.5 158.5t183.5 62.5q100 0 150.5 -57.5t33.5 -149.5q-14 -86 -71 -153t-168 -150l-205 -154h383l-12 -65h-480z" />
<glyph unicode="&#xb3;" horiz-adv-x="641" d="M133 915h78q-4 -77 33.5 -109t107.5 -32q77 0 127.5 36.5t61.5 98.5q12 66 -29.5 103t-116.5 37h-112l12 59h115q73 0 123.5 36t62.5 101q11 62 -24.5 100.5t-106.5 38.5q-143 0 -191 -122h-77q27 83 101.5 135.5t180.5 52.5q101 0 158.5 -56.5t42.5 -144.5 q-10 -63 -53 -107t-111 -61v-4q58 -20 87.5 -64t19.5 -110q-14 -79 -89.5 -135.5t-189.5 -56.5q-109 0 -164.5 52t-46.5 152z" />
<glyph unicode="&#xb4;" horiz-adv-x="532" d="M178 1202l12 76l451 268l-16 -90z" />
<glyph unicode="&#xb5;" horiz-adv-x="1286" d="M-23 -524l289 1636h90l-104 -584q-40 -232 44.5 -351.5t262.5 -119.5q173 0 296 115.5t161 339.5v-2l106 602h92l-196 -1112h-92l47 266q-69 -143 -189.5 -216t-257.5 -73q-127 0 -215 59.5t-110 196.5l-133 -757h-91z" />
<glyph unicode="&#xb6;" horiz-adv-x="1079" d="M127 1001q32 185 175 295.5t378 110.5h379l-250 -1407h-84l236 1331h-199l-238 -1331h-84l107 600h-8q-238 0 -341 109.5t-71 291.5z" />
<glyph unicode="&#xb7;" horiz-adv-x="303" d="M-10 723q6 35 33 57.5t61 22.5q33 0 51 -22.5t12 -57.5t-33 -57.5t-61 -22.5q-33 0 -51 22.5t-12 57.5z" />
<glyph unicode="&#xb8;" horiz-adv-x="526" d="M-127 -524l12 69h150q88 0 131.5 30t54.5 89q10 53 -24.5 83t-120.5 30h-84l41 237h71l-30 -174q124 6 183 -40t44 -136q-14 -85 -84 -136.5t-176 -51.5h-168z" />
<glyph unicode="&#xb9;" horiz-adv-x="346" d="M209 721l115 657h-111l12 64h191l-129 -721h-78z" />
<glyph unicode="&#xba;" horiz-adv-x="862" d="M168 1079q29 166 146.5 269.5t271.5 103.5q156 0 238.5 -104t52.5 -269q-29 -166 -147 -270t-273 -104q-154 0 -236 104t-53 270zM248 1077q-25 -144 38.5 -224.5t182.5 -80.5q118 0 210.5 80.5t117.5 224.5q27 145 -38 227t-184 82t-210.5 -81.5t-116.5 -227.5z" />
<glyph unicode="&#xbb;" horiz-adv-x="829" d="M47 246l279 358l-154 359h100l148 -359l-273 -358h-100zM369 246l278 358l-153 359h102l147 -359l-272 -358h-102z" />
<glyph unicode="&#xbc;" horiz-adv-x="1140" d="M20 0l986 1438h88l-985 -1438h-89zM246 721l114 657h-110l12 64h191l-129 -721h-78zM440 152l11 53l440 520h90l-92 -514h108l-10 -59h-106l-29 -152h-78l27 152h-361zM537 211h276l72 410z" />
<glyph unicode="&#xbd;" horiz-adv-x="1273" d="M-6 0l981 1438h88l-981 -1438h-88zM252 721l115 657h-111l12 64h191l-129 -721h-78zM737 -2l11 51l266 213q56 46 87.5 75.5t64.5 78.5t42 100q13 73 -20 110.5t-94 37.5q-70 0 -118.5 -41t-70.5 -117h-78q23 96 95 158.5t184 62.5q100 0 150.5 -57.5t33.5 -149.5 q-14 -86 -71 -153t-168 -150l-205 -154h383l-12 -65h-480z" />
<glyph unicode="&#xbe;" horiz-adv-x="1204" d="M135 0l998 1438h88l-996 -1438h-90zM166 915h78q-4 -77 33.5 -109t107.5 -32q77 0 127 36.5t61 98.5q12 66 -29.5 103t-115.5 37h-113l13 59h114q73 0 124 36t63 101q11 62 -24.5 100.5t-106.5 38.5q-143 0 -191 -122h-78q27 83 102 135.5t181 52.5q101 0 158.5 -56.5 t42.5 -144.5q-10 -63 -53 -107t-111 -61v-4q58 -20 87 -64t19 -110q-14 -79 -89 -135.5t-189 -56.5q-109 0 -164.5 52t-46.5 152zM512 152l8 53l441 520h90l-90 -514h106l-10 -59h-107l-28 -152h-78l26 152h-358zM606 211h277l71 410z" />
<glyph unicode="&#xbf;" horiz-adv-x="987" d="M-14 68q77 433 600 436l53 262h78l-53 -332h-43q-80 0 -144 -7.5t-134 -30.5t-120.5 -62t-90 -106.5t-56.5 -159.5q-26 -152 54 -242t235 -90q158 0 265.5 86t135.5 231h88q-33 -182 -173 -288.5t-329 -106.5q-194 0 -296 112.5t-70 297.5zM645 1036q6 35 33 57.5 t61 22.5q33 0 51.5 -22.5t12.5 -57.5t-33 -57.5t-61 -22.5q-33 0 -51.5 22.5t-12.5 57.5z" />
<glyph unicode="&#xc0;" horiz-adv-x="1284" d="M-37 0l776 1405h103l278 -1405h-100l-72 369h-682l-203 -369h-100zM307 444h627l-164 842zM627 1751l16 90l352 -268l-12 -76z" />
<glyph unicode="&#xc1;" horiz-adv-x="1284" d="M-37 0l776 1405h103l278 -1405h-100l-72 369h-682l-203 -369h-100zM307 444h627l-164 842zM582 1497l12 76l450 268l-16 -90z" />
<glyph unicode="&#xc2;" horiz-adv-x="1284" d="M-37 0l776 1405h103l278 -1405h-100l-72 369h-682l-203 -369h-100zM307 444h627l-164 842zM553 1552l12 78l295 168l232 -168l-13 -78l-233 168z" />
<glyph unicode="&#xc3;" horiz-adv-x="1284" d="M-37 0l776 1405h103l278 -1405h-100l-72 369h-682l-203 -369h-100zM307 444h627l-164 842zM580 1534q23 77 71 120.5t109 43.5q35 0 64 -16t45.5 -34.5t42.5 -34.5t57 -16q34 0 63.5 25t42.5 70h62q-20 -73 -70.5 -117.5t-112.5 -44.5q-30 0 -55 10.5t-42 25t-33.5 29 t-36.5 25t-44 10.5q-73 0 -102 -96h-61z" />
<glyph unicode="&#xc4;" horiz-adv-x="1284" d="M-37 0l776 1405h103l278 -1405h-100l-72 369h-682l-203 -369h-100zM307 444h627l-164 842zM610 1640q0 36 28 63.5t64 27.5q27 0 44.5 -18.5t17.5 -45.5q0 -36 -27 -64t-61 -28q-29 0 -47.5 18.5t-18.5 46.5zM905 1640q0 36 27.5 63.5t64.5 27.5q27 0 45.5 -18.5 t18.5 -45.5q0 -36 -28 -64t-62 -28q-29 0 -47.5 18.5t-18.5 46.5z" />
<glyph unicode="&#xc5;" horiz-adv-x="1284" d="M-37 0l776 1405h103l278 -1405h-100l-72 369h-682l-203 -369h-100zM307 444h627l-164 842zM655 1743q17 90 82.5 143t147.5 53q84 0 130 -53t29 -143q-15 -89 -80 -142t-149 -53q-81 0 -128 53.5t-32 141.5zM717 1745q-10 -62 20.5 -99.5t87.5 -37.5q58 0 103 37.5 t55 99.5q12 62 -19.5 98.5t-91.5 36.5q-57 0 -100 -36.5t-55 -98.5z" />
<glyph unicode="&#xc6;" horiz-adv-x="1759" d="M-80 0l1116 1438h766l-14 -76h-633l-106 -604h573l-14 -74h-572l-106 -608h633l-15 -76h-725l66 369h-582l-284 -369h-103zM367 444h534l158 895z" />
<glyph unicode="&#xc7;" horiz-adv-x="1576" d="M137 422q-30 134 0 295q38 213 157 381t291 261t367 93q245 0 393.5 -115t190.5 -321h-106q-35 162 -159.5 257t-332.5 95q-166 0 -313 -77t-253 -226.5t-141 -347.5q-27 -150 -1.5 -269.5t90.5 -203.5t165.5 -129t223.5 -45q208 0 365.5 95t250.5 257h105 q-105 -190 -274 -303.5t-388 -130.5l-27 -148q124 6 183.5 -40t44.5 -136q-14 -85 -84 -136.5t-176 -51.5h-168l12 69h149q88 0 132 30t55 89q10 53 -24.5 83t-121.5 30h-84l37 209h-2q-146 0 -263.5 54t-190.5 151t-103 231z" />
<glyph unicode="&#xc8;" horiz-adv-x="1005" d="M68 0l256 1438h725l-15 -76h-633l-106 -604h573l-14 -74h-571l-109 -608h635l-14 -76h-727zM477 1751l17 90l352 -268l-12 -76z" />
<glyph unicode="&#xc9;" horiz-adv-x="1005" d="M68 0l256 1438h725l-15 -76h-633l-106 -604h573l-14 -74h-571l-109 -608h635l-14 -76h-727zM432 1497l12 76l451 268l-16 -90z" />
<glyph unicode="&#xca;" horiz-adv-x="1005" d="M68 0l256 1438h725l-15 -76h-633l-106 -604h573l-14 -74h-571l-109 -608h635l-14 -76h-727zM403 1552l13 78l295 168l231 -168l-12 -78l-234 168z" />
<glyph unicode="&#xcb;" horiz-adv-x="1005" d="M68 0l256 1438h725l-15 -76h-633l-106 -604h573l-14 -74h-571l-109 -608h635l-14 -76h-727zM461 1640q0 36 27.5 63.5t64.5 27.5q27 0 44 -18.5t17 -45.5q0 -36 -27 -64t-61 -28q-29 0 -47 18.5t-18 46.5zM756 1640q0 36 28 63.5t64 27.5q27 0 45 -18.5t18 -45.5 q0 -36 -28 -64t-62 -28q-29 0 -47 18.5t-18 46.5z" />
<glyph unicode="&#xcc;" horiz-adv-x="430" d="M68 0l256 1438h92l-256 -1438h-92zM199 1751l16 90l352 -268l-12 -76z" />
<glyph unicode="&#xcd;" horiz-adv-x="430" d="M68 0l256 1438h92l-256 -1438h-92zM154 1497l12 76l450 268l-16 -90z" />
<glyph unicode="&#xce;" horiz-adv-x="430" d="M68 0l256 1438h92l-256 -1438h-92zM125 1552l12 78l295 168l232 -168l-13 -78l-233 168z" />
<glyph unicode="&#xcf;" horiz-adv-x="430" d="M68 0l256 1438h92l-256 -1438h-92zM182 1640q0 36 28 63.5t64 27.5q27 0 44.5 -18.5t17.5 -45.5q0 -36 -27 -64t-61 -28q-29 0 -47.5 18.5t-18.5 46.5zM477 1640q0 36 27.5 63.5t64.5 27.5q27 0 45.5 -18.5t18.5 -45.5q0 -36 -28 -64t-62 -28q-29 0 -47.5 18.5 t-18.5 46.5z" />
<glyph unicode="&#xd0;" horiz-adv-x="1507" d="M39 676l16 84h215l119 678h402q366 0 529.5 -190t102.5 -531q-60 -340 -290.5 -528.5t-595.5 -188.5h-402l119 676h-215zM242 74h309q326 0 525 170t253 473q54 304 -86 473.5t-467 169.5h-309l-105 -600h447l-14 -84h-449z" />
<glyph unicode="&#xd1;" horiz-adv-x="1366" d="M68 0l254 1436h92l618 -1282l225 1282h93l-254 -1436h-92l-617 1286l-227 -1286h-92zM621 1534q23 77 71 120.5t109 43.5q35 0 64 -16t45.5 -34.5t42.5 -34.5t57 -16q34 0 63.5 25t42.5 70h62q-20 -73 -70.5 -117.5t-112.5 -44.5q-30 0 -55 10.5t-42 25t-33.5 29 t-36.5 25t-44 10.5q-73 0 -102 -96h-61z" />
<glyph unicode="&#xd2;" horiz-adv-x="1617" d="M127 567q0 238 109 440.5t302 322.5t425 120q265 0 423 -160.5t158 -421.5q0 -179 -64.5 -341.5t-174.5 -282t-266 -190t-330 -70.5q-264 0 -423 160.5t-159 422.5zM221 573q0 -233 138 -369t362 -136q155 0 291 64.5t231 173t150 254t55 304.5q0 233 -137 368.5 t-363 135.5q-156 0 -293 -65.5t-231 -174.5t-148.5 -254t-54.5 -301zM809 1755l16 90l353 -268l-13 -76z" />
<glyph unicode="&#xd3;" horiz-adv-x="1617" d="M127 567q0 238 109 440.5t302 322.5t425 120q265 0 423 -160.5t158 -421.5q0 -179 -64.5 -341.5t-174.5 -282t-266 -190t-330 -70.5q-264 0 -423 160.5t-159 422.5zM221 573q0 -233 138 -369t362 -136q155 0 291 64.5t231 173t150 254t55 304.5q0 233 -137 368.5 t-363 135.5q-156 0 -293 -65.5t-231 -174.5t-148.5 -254t-54.5 -301zM764 1501l12 76l451 268l-17 -90z" />
<glyph unicode="&#xd4;" horiz-adv-x="1617" d="M127 567q0 238 109 440.5t302 322.5t425 120q265 0 423 -160.5t158 -421.5q0 -179 -64.5 -341.5t-174.5 -282t-266 -190t-330 -70.5q-264 0 -423 160.5t-159 422.5zM221 573q0 -233 138 -369t362 -136q155 0 291 64.5t231 173t150 254t55 304.5q0 233 -137 368.5 t-363 135.5q-156 0 -293 -65.5t-231 -174.5t-148.5 -254t-54.5 -301zM733 1556l12 78l295 168l232 -168l-12 -78l-234 168z" />
<glyph unicode="&#xd5;" horiz-adv-x="1617" d="M127 567q0 238 109 440.5t302 322.5t425 120q265 0 423 -160.5t158 -421.5q0 -179 -64.5 -341.5t-174.5 -282t-266 -190t-330 -70.5q-264 0 -423 160.5t-159 422.5zM221 573q0 -233 138 -369t362 -136q155 0 291 64.5t231 173t150 254t55 304.5q0 233 -137 368.5 t-363 135.5q-156 0 -293 -65.5t-231 -174.5t-148.5 -254t-54.5 -301zM762 1538q23 77 71 120.5t109 43.5q29 0 53 -10.5t40.5 -25t32.5 -29t37 -25t46 -10.5q34 0 63.5 24.5t42.5 69.5h62q-20 -73 -70 -117.5t-112 -44.5q-30 0 -55 10.5t-42 25t-33.5 29t-36.5 25t-44 10.5 q-74 0 -103 -96h-61z" />
<glyph unicode="&#xd6;" horiz-adv-x="1617" d="M127 567q0 238 109 440.5t302 322.5t425 120q265 0 423 -160.5t158 -421.5q0 -179 -64.5 -341.5t-174.5 -282t-266 -190t-330 -70.5q-264 0 -423 160.5t-159 422.5zM221 573q0 -233 138 -369t362 -136q155 0 291 64.5t231 173t150 254t55 304.5q0 233 -137 368.5 t-363 135.5q-156 0 -293 -65.5t-231 -174.5t-148.5 -254t-54.5 -301zM791 1645q0 35 27.5 62.5t64.5 27.5q27 0 44 -18.5t17 -45.5q0 -36 -27 -64t-61 -28q-29 0 -47 19t-18 47zM1085 1645q0 35 28 62.5t65 27.5q27 0 45 -18.5t18 -45.5q0 -36 -28 -64t-62 -28 q-29 0 -47.5 19t-18.5 47z" />
<glyph unicode="&#xd7;" horiz-adv-x="1085" d="M102 416l416 354l-291 352l72 60l291 -353l414 353l49 -62l-414 -352l293 -354l-72 -60l-293 355l-415 -355z" />
<glyph unicode="&#xd8;" horiz-adv-x="1617" d="M6 0l227 207q-106 145 -106 360q0 238 109 440.5t302 322.5t425 120q279 0 438 -176l180 164h86l-229 -209q106 -145 106 -361q0 -179 -64.5 -341.5t-174.5 -282t-266 -190t-330 -70.5q-280 0 -441 178l-176 -162h-86zM221 573q0 -177 82 -301l1028 938 q-136 158 -383 158q-156 0 -293 -65.5t-231 -174.5t-148.5 -254t-54.5 -301zM338 225q139 -157 383 -157q155 0 291 64.5t231 173t150 254t55 304.5q0 174 -80 299z" />
<glyph unicode="&#xd9;" horiz-adv-x="1320" d="M150.5 290q-17.5 105 5.5 251l159 897h93l-160 -897q-42 -245 47.5 -359t279.5 -114q189 0 317.5 114t170.5 359l160 897h92l-160 -897q-25 -142 -80.5 -250t-134.5 -174t-174 -98.5t-205 -32.5t-194 32t-141.5 99.5t-75 172.5zM645 1751l17 90l352 -268l-13 -76z" />
<glyph unicode="&#xda;" horiz-adv-x="1320" d="M150.5 290q-17.5 105 5.5 251l159 897h93l-160 -897q-42 -245 47.5 -359t279.5 -114q189 0 317.5 114t170.5 359l160 897h92l-160 -897q-25 -142 -80.5 -250t-134.5 -174t-174 -98.5t-205 -32.5t-194 32t-141.5 99.5t-75 172.5zM600 1497l12 76l451 268l-16 -90z" />
<glyph unicode="&#xdb;" horiz-adv-x="1320" d="M150.5 290q-17.5 105 5.5 251l159 897h93l-160 -897q-42 -245 47.5 -359t279.5 -114q189 0 317.5 114t170.5 359l160 897h92l-160 -897q-25 -142 -80.5 -250t-134.5 -174t-174 -98.5t-205 -32.5t-194 32t-141.5 99.5t-75 172.5zM569 1552l13 78l295 168l231 -168l-12 -78 l-234 168z" />
<glyph unicode="&#xdc;" horiz-adv-x="1320" d="M150.5 290q-17.5 105 5.5 251l159 897h93l-160 -897q-42 -245 47.5 -359t279.5 -114q189 0 317.5 114t170.5 359l160 897h92l-160 -897q-25 -142 -80.5 -250t-134.5 -174t-174 -98.5t-205 -32.5t-194 32t-141.5 99.5t-75 172.5zM627 1640q0 36 27.5 63.5t64.5 27.5 q27 0 44 -18.5t17 -45.5q0 -36 -27 -64t-61 -28q-29 0 -47 18.5t-18 46.5zM922 1640q0 36 28 63.5t64 27.5q27 0 45 -18.5t18 -45.5q0 -36 -28 -64t-62 -28q-29 0 -47 18.5t-18 46.5z" />
<glyph unicode="&#xdd;" horiz-adv-x="1107" d="M207 1438h106l260 -768l531 768h106l-606 -856l-102 -582h-92l102 582zM496 1497l12 76l450 268l-16 -90z" />
<glyph unicode="&#xde;" horiz-adv-x="1118" d="M68 0l256 1438h90l-56 -316h308q238 0 335.5 -108t63.5 -295q-33 -191 -171.5 -297.5t-371.5 -106.5h-307l-55 -315h-92zM231 397h306q378 0 436 322q27 159 -47.5 242t-274.5 83h-305z" />
<glyph unicode="&#xdf;" horiz-adv-x="1255" d="M53 0l201 1145q35 192 166.5 308t333.5 116q170 0 262 -72t92 -190q0 -60 -22.5 -113.5t-58 -93.5t-79 -76t-87 -67.5t-79 -62t-58 -65.5t-22.5 -71q0 -48 48.5 -84t175.5 -80q116 -38 168.5 -98t52.5 -154q0 -156 -113 -258t-286 -102q-163 0 -252.5 96.5t-77.5 257.5 h92q-9 -127 57.5 -203t192.5 -76q125 0 209 79t84 196q0 68 -47 113t-150 81q-135 47 -191.5 95t-56.5 122q0 48 22.5 91.5t58 78t79 68t87 67.5t79 70t58 81.5t22.5 96.5q0 87 -72.5 140t-202.5 53q-161 0 -263 -94t-132 -258l-199 -1137h-92z" />
<glyph unicode="&#xe0;" horiz-adv-x="1378" d="M109 557q45 260 222.5 414.5t416.5 154.5q175 0 282 -85.5t133 -219.5l51 291h93l-199 -1112h-90l51 293q-71 -135 -210.5 -222t-315.5 -87q-235 0 -357 157t-77 416zM203 557q-39 -227 62.5 -359t305.5 -132q199 0 352.5 134.5t192.5 356.5q39 219 -67 354.5t-304 135.5 q-204 0 -353.5 -131.5t-188.5 -358.5zM627 1456l16 90l352 -268l-12 -76z" />
<glyph unicode="&#xe1;" horiz-adv-x="1378" d="M109 557q45 260 222.5 414.5t416.5 154.5q175 0 282 -85.5t133 -219.5l51 291h93l-199 -1112h-90l51 293q-71 -135 -210.5 -222t-315.5 -87q-235 0 -357 157t-77 416zM203 557q-39 -227 62.5 -359t305.5 -132q199 0 352.5 134.5t192.5 356.5q39 219 -67 354.5t-304 135.5 q-204 0 -353.5 -131.5t-188.5 -358.5zM582 1202l12 76l450 268l-16 -90z" />
<glyph unicode="&#xe2;" horiz-adv-x="1378" d="M109 557q45 260 222.5 414.5t416.5 154.5q175 0 282 -85.5t133 -219.5l51 291h93l-199 -1112h-90l51 293q-71 -135 -210.5 -222t-315.5 -87q-235 0 -357 157t-77 416zM203 557q-39 -227 62.5 -359t305.5 -132q199 0 352.5 134.5t192.5 356.5q39 219 -67 354.5t-304 135.5 q-204 0 -353.5 -131.5t-188.5 -358.5zM553 1257l12 78l295 168l232 -168l-13 -78l-233 168z" />
<glyph unicode="&#xe3;" horiz-adv-x="1378" d="M109 557q45 260 222.5 414.5t416.5 154.5q175 0 282 -85.5t133 -219.5l51 291h93l-199 -1112h-90l51 293q-71 -135 -210.5 -222t-315.5 -87q-235 0 -357 157t-77 416zM203 557q-39 -227 62.5 -359t305.5 -132q199 0 352.5 134.5t192.5 356.5q39 219 -67 354.5t-304 135.5 q-204 0 -353.5 -131.5t-188.5 -358.5zM580 1239q23 77 71 120.5t109 43.5q29 0 53 -10.5t40.5 -25t32.5 -29t37 -25t46 -10.5q34 0 63.5 24.5t42.5 69.5h62q-20 -73 -70.5 -117.5t-112.5 -44.5q-30 0 -55 10.5t-42 25t-33.5 29t-36.5 25t-44 10.5q-73 0 -102 -96h-61z" />
<glyph unicode="&#xe4;" horiz-adv-x="1378" d="M109 557q45 260 222.5 414.5t416.5 154.5q175 0 282 -85.5t133 -219.5l51 291h93l-199 -1112h-90l51 293q-71 -135 -210.5 -222t-315.5 -87q-235 0 -357 157t-77 416zM203 557q-39 -227 62.5 -359t305.5 -132q199 0 352.5 134.5t192.5 356.5q39 219 -67 354.5t-304 135.5 q-204 0 -353.5 -131.5t-188.5 -358.5zM610 1346q0 35 27.5 62.5t64.5 27.5q27 0 44.5 -18.5t17.5 -45.5q0 -36 -27 -64t-61 -28q-29 0 -47.5 19t-18.5 47zM905 1346q0 35 27.5 62.5t64.5 27.5q27 0 45.5 -18.5t18.5 -45.5q0 -36 -28 -64t-62 -28q-29 0 -47.5 19t-18.5 47z " />
<glyph unicode="&#xe5;" horiz-adv-x="1378" d="M109 557q45 260 222.5 414.5t416.5 154.5q175 0 282 -85.5t133 -219.5l51 291h93l-199 -1112h-90l51 293q-71 -135 -210.5 -222t-315.5 -87q-235 0 -357 157t-77 416zM203 557q-39 -227 62.5 -359t305.5 -132q199 0 352.5 134.5t192.5 356.5q39 219 -67 354.5t-304 135.5 q-204 0 -353.5 -131.5t-188.5 -358.5zM655 1448q17 90 82.5 143.5t147.5 53.5q84 0 130 -53.5t29 -143.5q-15 -89 -80 -142t-149 -53q-81 0 -128 53.5t-32 141.5zM717 1450q-10 -62 20.5 -99.5t87.5 -37.5q58 0 103 37.5t55 99.5q12 62 -19.5 98.5t-91.5 36.5 q-57 0 -100 -36.5t-55 -98.5z" />
<glyph unicode="&#xe6;" horiz-adv-x="2297" d="M109 557q45 260 223 414.5t418 154.5q173 0 279.5 -86t131.5 -233l53 305h89l-54 -305q79 156 219 237.5t304 81.5q121 0 213 -41t143 -110.5t70 -157.5t2 -184q-12 -58 -29 -111h-969q-16 -113 8 -203t78 -144.5t127 -83t158 -28.5q167 0 294.5 82t178.5 220h98 q-65 -170 -217 -275.5t-356 -105.5q-166 0 -279 85t-133 240l-53 -309h-88l55 307q-75 -144 -215 -233.5t-313 -89.5q-236 0 -358.5 157t-77.5 416zM203 557q-39 -227 62.5 -359t305.5 -132q199 0 352.5 134.5t192.5 356.5q39 219 -67 354.5t-304 135.5 q-204 0 -353.5 -131.5t-188.5 -358.5zM1217 594h884q23 116 5.5 201.5t-70.5 142t-126 84t-161 27.5t-171 -28.5t-155.5 -83t-127 -143.5t-78.5 -200z" />
<glyph unicode="&#xe7;" horiz-adv-x="1271" d="M109 557q31 173 124 303.5t226 198t289 67.5q210 0 325 -104t117 -281h-96q-1 142 -99.5 225t-261.5 83q-122 0 -229 -52t-190 -165.5t-111 -274.5q-20 -126 -2.5 -219t69.5 -154t125.5 -91t163.5 -30q164 0 289.5 82t179.5 226h98q-63 -168 -207 -273t-341 -114 l-25 -144q124 6 183 -40t44 -136q-14 -85 -84 -136.5t-176 -51.5h-168l13 69h149q88 0 131.5 30t54.5 89q10 53 -24.5 83t-120.5 30h-84l37 209q-221 12 -332.5 165.5t-66.5 405.5z" />
<glyph unicode="&#xe8;" horiz-adv-x="1280" d="M109 557q31 174 124 304t226.5 197.5t290.5 67.5q121 0 214 -41t145 -110t71 -157t2 -185q-11 -68 -25 -111h-960q-33 -221 74.5 -340t291.5 -119q162 0 288 82t179 220h96q-65 -170 -218 -275.5t-359 -105.5q-238 0 -362 155.5t-78 417.5zM209 594h874q23 117 6 202.5 t-70 141.5t-126 83.5t-160 27.5q-117 0 -222.5 -48.5t-188.5 -154t-113 -252.5zM573 1456l17 90l352 -268l-12 -76z" />
<glyph unicode="&#xe9;" horiz-adv-x="1280" d="M109 557q31 174 124 304t226.5 197.5t290.5 67.5q121 0 214 -41t145 -110t71 -157t2 -185q-11 -68 -25 -111h-960q-33 -221 74.5 -340t291.5 -119q162 0 288 82t179 220h96q-65 -170 -218 -275.5t-359 -105.5q-238 0 -362 155.5t-78 417.5zM209 594h874q23 117 6 202.5 t-70 141.5t-126 83.5t-160 27.5q-117 0 -222.5 -48.5t-188.5 -154t-113 -252.5zM528 1202l13 76l450 268l-16 -90z" />
<glyph unicode="&#xea;" horiz-adv-x="1280" d="M109 557q31 174 124 304t226.5 197.5t290.5 67.5q121 0 214 -41t145 -110t71 -157t2 -185q-11 -68 -25 -111h-960q-33 -221 74.5 -340t291.5 -119q162 0 288 82t179 220h96q-65 -170 -218 -275.5t-359 -105.5q-238 0 -362 155.5t-78 417.5zM209 594h874q23 117 6 202.5 t-70 141.5t-126 83.5t-160 27.5q-117 0 -222.5 -48.5t-188.5 -154t-113 -252.5zM500 1257l12 78l295 168l231 -168l-12 -78l-233 168z" />
<glyph unicode="&#xeb;" horiz-adv-x="1280" d="M109 557q31 174 124 304t226.5 197.5t290.5 67.5q121 0 214 -41t145 -110t71 -157t2 -185q-11 -68 -25 -111h-960q-33 -221 74.5 -340t291.5 -119q162 0 288 82t179 220h96q-65 -170 -218 -275.5t-359 -105.5q-238 0 -362 155.5t-78 417.5zM209 594h874q23 117 6 202.5 t-70 141.5t-126 83.5t-160 27.5q-117 0 -222.5 -48.5t-188.5 -154t-113 -252.5zM555 1346q0 35 27.5 62.5t64.5 27.5q27 0 44.5 -18.5t17.5 -45.5q0 -36 -27 -64t-61 -28q-29 0 -47.5 19t-18.5 47zM850 1346q0 35 27.5 62.5t64.5 27.5q27 0 45.5 -18.5t18.5 -45.5 q0 -36 -28.5 -64t-62.5 -28q-29 0 -47 19t-18 47z" />
<glyph unicode="&#xec;" horiz-adv-x="430" d="M68 0l198 1112h92l-198 -1112h-92zM147 1456l17 90l352 -268l-12 -76z" />
<glyph unicode="&#xed;" horiz-adv-x="430" d="M68 0l198 1112h92l-198 -1112h-92zM102 1202l13 76l450 268l-16 -90z" />
<glyph unicode="&#xee;" horiz-adv-x="430" d="M68 0l198 1112h92l-198 -1112h-92zM74 1257l12 78l295 168l231 -168l-12 -78l-233 168z" />
<glyph unicode="&#xef;" horiz-adv-x="430" d="M68 0l198 1112h92l-198 -1112h-92zM131 1346q0 35 27.5 62.5t64.5 27.5q27 0 44.5 -18.5t17.5 -45.5q0 -36 -27 -64t-61 -28q-29 0 -47.5 19t-18.5 47zM426 1346q0 35 27.5 62.5t64.5 27.5q27 0 45.5 -18.5t18.5 -45.5q0 -36 -28 -64t-62 -28q-29 0 -47.5 19t-18.5 47z " />
<glyph unicode="&#xf0;" horiz-adv-x="1316" d="M113 580q44 250 221 402.5t420 152.5q160 0 267 -83.5t132 -250.5q-2 162 -45.5 291t-146.5 256l-320 -107l10 59l271 91q-49 57 -123 125h96q50 -45 100 -101l310 105l-11 -62l-260 -86q132 -162 177 -342.5t8 -394.5q-57 -317 -236.5 -484t-427.5 -167q-250 0 -370 164 t-72 432zM207 580q-43 -242 58.5 -379.5t301.5 -137.5q196 0 349.5 132.5t193.5 361.5q41 233 -66 365.5t-299 132.5q-199 0 -349 -126t-189 -349z" />
<glyph unicode="&#xf1;" horiz-adv-x="1275" d="M68 0l198 1112h92l-41 -233q69 124 190 190t263 66q95 0 169.5 -28.5t127 -88t69.5 -151t-3 -216.5l-115 -651h-90l114 645q35 199 -46.5 304.5t-254.5 105.5q-172 0 -297.5 -107t-171.5 -315l-112 -633h-92zM492 1239q23 77 71 120.5t109 43.5q29 0 53 -10.5t40.5 -25 t32.5 -29t37 -25t46 -10.5q34 0 63.5 24.5t42.5 69.5h62q-20 -73 -70.5 -117.5t-112.5 -44.5q-30 0 -55 10.5t-42 25t-33.5 29t-36.5 25t-44 10.5q-73 0 -102 -96h-61z" />
<glyph unicode="&#xf2;" horiz-adv-x="1320" d="M98 432q0 189 84 347.5t236.5 252.5t339.5 94q207 0 334 -120t127 -328q0 -141 -50 -269t-136.5 -221.5t-210 -148.5t-263.5 -55q-208 0 -334.5 120.5t-126.5 327.5zM193 438q0 -93 30 -166t82.5 -118t120 -68t145.5 -23q160 0 288 85t196.5 224t68.5 302q0 93 -30.5 166 t-83.5 118t-121 68t-146 23q-121 0 -225.5 -50t-174.5 -134t-110 -195t-40 -232zM592 1473l16 90l353 -269l-13 -75z" />
<glyph unicode="&#xf3;" horiz-adv-x="1320" d="M98 432q0 189 84 347.5t236.5 252.5t339.5 94q207 0 334 -120t127 -328q0 -141 -50 -269t-136.5 -221.5t-210 -148.5t-263.5 -55q-208 0 -334.5 120.5t-126.5 327.5zM193 438q0 -93 30 -166t82.5 -118t120 -68t145.5 -23q160 0 288 85t196.5 224t68.5 302q0 93 -30.5 166 t-83.5 118t-121 68t-146 23q-121 0 -225.5 -50t-174.5 -134t-110 -195t-40 -232zM547 1219l12 75l451 269l-17 -90z" />
<glyph unicode="&#xf4;" horiz-adv-x="1320" d="M98 432q0 189 84 347.5t236.5 252.5t339.5 94q207 0 334 -120t127 -328q0 -141 -50 -269t-136.5 -221.5t-210 -148.5t-263.5 -55q-208 0 -334.5 120.5t-126.5 327.5zM193 438q0 -93 30 -166t82.5 -118t120 -68t145.5 -23q160 0 288 85t196.5 224t68.5 302q0 93 -30.5 166 t-83.5 118t-121 68t-146 23q-121 0 -225.5 -50t-174.5 -134t-110 -195t-40 -232zM518 1274l12 78l295 168l232 -168l-13 -78l-233 168z" />
<glyph unicode="&#xf5;" horiz-adv-x="1320" d="M98 432q0 189 84 347.5t236.5 252.5t339.5 94q207 0 334 -120t127 -328q0 -141 -50 -269t-136.5 -221.5t-210 -148.5t-263.5 -55q-208 0 -334.5 120.5t-126.5 327.5zM193 438q0 -93 30 -166t82.5 -118t120 -68t145.5 -23q160 0 288 85t196.5 224t68.5 302q0 93 -30.5 166 t-83.5 118t-121 68t-146 23q-121 0 -225.5 -50t-174.5 -134t-110 -195t-40 -232zM547 1255q23 77 71 120.5t109 43.5q29 0 53 -10.5t40.5 -25t32.5 -29t37 -25t46 -10.5q34 0 63.5 24.5t42.5 69.5h62q-20 -73 -70 -117.5t-112 -44.5q-37 0 -67 16t-47 34.5t-43 34.5t-54 16 q-74 0 -103 -97h-61z" />
<glyph unicode="&#xf6;" horiz-adv-x="1320" d="M98 432q0 189 84 347.5t236.5 252.5t339.5 94q207 0 334 -120t127 -328q0 -141 -50 -269t-136.5 -221.5t-210 -148.5t-263.5 -55q-208 0 -334.5 120.5t-126.5 327.5zM193 438q0 -93 30 -166t82.5 -118t120 -68t145.5 -23q160 0 288 85t196.5 224t68.5 302q0 93 -30.5 166 t-83.5 118t-121 68t-146 23q-121 0 -225.5 -50t-174.5 -134t-110 -195t-40 -232zM575 1362q0 35 28 62.5t65 27.5q27 0 44 -18t17 -45q0 -37 -27 -65t-61 -28q-29 0 -47.5 19t-18.5 47zM870 1362q0 35 28 62.5t65 27.5q27 0 45 -18t18 -45q0 -36 -28 -64.5t-62 -28.5 q-29 0 -47.5 19t-18.5 47z" />
<glyph unicode="&#xf7;" horiz-adv-x="1255" d="M137 727l15 82h1044l-14 -82h-1045zM504 332q6 35 33 57.5t61 22.5q33 0 51.5 -22.5t12.5 -57.5t-33.5 -57.5t-61.5 -22.5q-33 0 -51 22.5t-12 57.5zM639 1210q6 35 33 57.5t61 22.5q33 0 51.5 -22.5t12.5 -57.5t-33.5 -57.5t-61.5 -22.5q-33 0 -51 22.5t-12 57.5z" />
<glyph unicode="&#xf8;" horiz-adv-x="1320" d="M18 0l164 152q-84 117 -84 280q0 189 84 347.5t236.5 252.5t339.5 94q218 0 344 -129l125 115h76l-168 -156q84 -114 84 -278q0 -141 -50 -269t-136.5 -221.5t-210 -148.5t-263.5 -55q-219 0 -342 129l-123 -113h-76zM193 438q0 -132 59 -223l782 719q-106 115 -291 115 q-121 0 -225.5 -50t-174.5 -134t-110 -195t-40 -232zM285 176q104 -113 286 -113q160 0 288 85t196.5 224t68.5 302q0 131 -59 219z" />
<glyph unicode="&#xf9;" horiz-adv-x="1275" d="M137.5 248q-17.5 91 1.5 217l117 647h90l-115 -641q-34 -199 47.5 -304.5t253.5 -105.5q181 0 309 115.5t165 339.5v-6l106 602h92l-196 -1112h-93l43 240q-68 -125 -189.5 -191.5t-262.5 -66.5q-95 0 -170 28t-128 87.5t-70.5 150.5zM573 1456l17 90l352 -268l-12 -76z " />
<glyph unicode="&#xfa;" horiz-adv-x="1275" d="M137.5 248q-17.5 91 1.5 217l117 647h90l-115 -641q-34 -199 47.5 -304.5t253.5 -105.5q181 0 309 115.5t165 339.5v-6l106 602h92l-196 -1112h-93l43 240q-68 -125 -189.5 -191.5t-262.5 -66.5q-95 0 -170 28t-128 87.5t-70.5 150.5zM528 1202l13 76l450 268l-16 -90z " />
<glyph unicode="&#xfb;" horiz-adv-x="1275" d="M137.5 248q-17.5 91 1.5 217l117 647h90l-115 -641q-34 -199 47.5 -304.5t253.5 -105.5q181 0 309 115.5t165 339.5v-6l106 602h92l-196 -1112h-93l43 240q-68 -125 -189.5 -191.5t-262.5 -66.5q-95 0 -170 28t-128 87.5t-70.5 150.5zM498 1257l12 78l295 168l231 -168 l-12 -78l-233 168z" />
<glyph unicode="&#xfc;" horiz-adv-x="1275" d="M137.5 248q-17.5 91 1.5 217l117 647h90l-115 -641q-34 -199 47.5 -304.5t253.5 -105.5q181 0 309 115.5t165 339.5v-6l106 602h92l-196 -1112h-93l43 240q-68 -125 -189.5 -191.5t-262.5 -66.5q-95 0 -170 28t-128 87.5t-70.5 150.5zM555 1346q0 35 27.5 62.5t64.5 27.5 q27 0 44.5 -18.5t17.5 -45.5q0 -36 -27 -64t-61 -28q-29 0 -47.5 19t-18.5 47zM850 1346q0 35 27.5 62.5t64.5 27.5q27 0 45.5 -18.5t18.5 -45.5q0 -36 -28.5 -64t-62.5 -28q-29 0 -47 19t-18 47z" />
<glyph unicode="&#xfd;" horiz-adv-x="1073" d="M98 -522l301 524l-266 1110h100l240 -997l563 997h99l-936 -1634h-101zM426 1202l12 76l451 268l-17 -90z" />
<glyph unicode="&#xfe;" horiz-adv-x="1378" d="M-23 -524l359 2040h92l-127 -719q73 148 212.5 238.5t315.5 90.5q238 0 360 -154t77 -415q-45 -259 -223 -416t-414 -157q-176 0 -283.5 91.5t-130.5 241.5l-147 -841h-91zM258 557q-39 -222 67 -356.5t304 -134.5q204 0 353.5 132t188.5 359q41 227 -61.5 358.5 t-306.5 131.5q-197 0 -351.5 -135.5t-193.5 -354.5z" />
<glyph unicode="&#xff;" horiz-adv-x="1073" d="M98 -522l301 524l-266 1110h100l240 -997l563 997h99l-936 -1634h-101zM455 1346q0 35 27.5 62.5t64.5 27.5q27 0 44 -18.5t17 -45.5q0 -36 -27 -64t-61 -28q-29 0 -47 19t-18 47zM750 1346q0 35 27.5 62.5t64.5 27.5q27 0 45 -18.5t18 -45.5q0 -36 -28 -64t-62 -28 q-29 0 -47 19t-18 47z" />
<glyph unicode="&#x100;" horiz-adv-x="1284" d="M-37 0l776 1405h103l278 -1405h-100l-72 369h-682l-203 -369h-100zM307 444h627l-164 842zM500 1632l12 72h664l-13 -72h-663z" />
<glyph unicode="&#x101;" horiz-adv-x="1378" d="M109 557q45 260 222.5 414.5t416.5 154.5q175 0 282 -85.5t133 -219.5l51 291h93l-199 -1112h-90l51 293q-71 -135 -210.5 -222t-315.5 -87q-235 0 -357 157t-77 416zM203 557q-39 -227 62.5 -359t305.5 -132q199 0 352.5 134.5t192.5 356.5q39 219 -67 354.5t-304 135.5 q-204 0 -353.5 -131.5t-188.5 -358.5zM500 1337l12 72h664l-13 -72h-663z" />
<glyph unicode="&#x102;" horiz-adv-x="1284" d="M-37 0l776 1405h103l278 -1405h-100l-72 369h-682l-203 -369h-100zM307 444h627l-164 842zM598 1784l4 18h66q-14 -84 26.5 -129t134.5 -45q96 0 154 45t72 129h65l-2 -18q-16 -96 -95 -164t-206 -68q-125 0 -179.5 68t-39.5 164z" />
<glyph unicode="&#x103;" horiz-adv-x="1378" d="M109 557q45 260 222.5 414.5t416.5 154.5q175 0 282 -85.5t133 -219.5l51 291h93l-199 -1112h-90l51 293q-71 -135 -210.5 -222t-315.5 -87q-235 0 -357 157t-77 416zM203 557q-39 -227 62.5 -359t305.5 -132q199 0 352.5 134.5t192.5 356.5q39 219 -67 354.5t-304 135.5 q-204 0 -353.5 -131.5t-188.5 -358.5zM596 1489l4 18h66q-14 -84 26.5 -129t134.5 -45q96 0 154 45t72 129h65l-2 -18q-16 -96 -95 -164t-206 -68q-125 0 -179.5 68t-39.5 164z" />
<glyph unicode="&#x104;" horiz-adv-x="1284" d="M-37 0l776 1405h103l278 -1405l-145 -63q-149 -63 -166 -160q-9 -54 22.5 -81.5t92.5 -27.5q54 0 137 27l-12 -70q-76 -26 -144 -26q-90 0 -141 43t-37 129q28 146 238 235l49 21l-66 342h-682l-203 -369h-100zM307 444h627l-164 842z" />
<glyph unicode="&#x105;" horiz-adv-x="1378" d="M109 557q45 260 222.5 414.5t416.5 154.5q175 0 282 -85.5t133 -219.5l51 291h93l-199 -1108l2 -4l-145 -63q-147 -62 -164 -160q-10 -53 21 -81t91 -28q59 0 138 27l-13 -70q-76 -26 -143 -26q-90 0 -141 43t-35 127q23 139 235 229l68 29l47 266q-71 -135 -210.5 -222 t-315.5 -87q-235 0 -357 157t-77 416zM203 557q-39 -227 62.5 -359t305.5 -132q199 0 352.5 134.5t192.5 356.5q39 219 -67 354.5t-304 135.5q-204 0 -353.5 -131.5t-188.5 -358.5z" />
<glyph unicode="&#x106;" horiz-adv-x="1576" d="M137 422q-30 134 0 295q38 213 157 381t291 261t367 93q245 0 393.5 -115t190.5 -321h-106q-35 162 -159.5 257t-332.5 95q-166 0 -313 -77t-253 -226.5t-141 -347.5q-27 -150 -1.5 -269.5t90.5 -203.5t165.5 -129t223.5 -45q208 0 365.5 95t250.5 257h105 q-113 -206 -302 -321t-434 -115q-146 0 -263.5 54t-190.5 151t-103 231zM768 1497l12 76l451 268l-17 -90z" />
<glyph unicode="&#x107;" horiz-adv-x="1271" d="M109 557q31 173 124 303.5t226 198t289 67.5q210 0 325 -104t117 -281h-96q-1 142 -99.5 225t-261.5 83q-122 0 -229 -52t-190 -165.5t-111 -274.5q-20 -126 -2.5 -219t69.5 -154t125.5 -91t163.5 -30q164 0 289.5 82t179.5 226h98q-66 -175 -219.5 -281t-361.5 -106 q-237 0 -359.5 155t-76.5 418zM528 1202l13 76l450 268l-16 -90z" />
<glyph unicode="&#x10a;" horiz-adv-x="1576" d="M137 422q-30 134 0 295q38 213 157 381t291 261t367 93q245 0 393.5 -115t190.5 -321h-106q-35 162 -159.5 257t-332.5 95q-166 0 -313 -77t-253 -226.5t-141 -347.5q-27 -150 -1.5 -269.5t90.5 -203.5t165.5 -129t223.5 -45q208 0 365.5 95t250.5 257h105 q-113 -206 -302 -321t-434 -115q-146 0 -263.5 54t-190.5 151t-103 231zM936 1618q6 32 33.5 55t58.5 23q32 0 51 -23t13 -55t-33 -55t-58 -23q-32 0 -51.5 23t-13.5 55z" />
<glyph unicode="&#x10b;" horiz-adv-x="1271" d="M109 557q31 173 124 303.5t226 198t289 67.5q210 0 325 -104t117 -281h-96q-1 142 -99.5 225t-261.5 83q-122 0 -229 -52t-190 -165.5t-111 -274.5q-20 -126 -2.5 -219t69.5 -154t125.5 -91t163.5 -30q164 0 289.5 82t179.5 226h98q-66 -175 -219.5 -281t-361.5 -106 q-237 0 -359.5 155t-76.5 418zM694 1325q6 32 33.5 55t58.5 23q32 0 51 -23t13 -55t-32.5 -55t-57.5 -23q-32 0 -52 23t-14 55z" />
<glyph unicode="&#x10c;" horiz-adv-x="1576" d="M137 422q-30 134 0 295q38 213 157 381t291 261t367 93q245 0 393.5 -115t190.5 -321h-106q-35 162 -159.5 257t-332.5 95q-166 0 -313 -77t-253 -226.5t-141 -347.5q-27 -150 -1.5 -269.5t90.5 -203.5t165.5 -129t223.5 -45q208 0 365.5 95t250.5 257h105 q-113 -206 -302 -321t-434 -115q-146 0 -263.5 54t-190.5 151t-103 231zM766 1714l14 78l236 -168l293 168l-15 -78l-293 -168z" />
<glyph unicode="&#x10d;" horiz-adv-x="1271" d="M109 557q31 173 124 303.5t226 198t289 67.5q210 0 325 -104t117 -281h-96q-1 142 -99.5 225t-261.5 83q-122 0 -229 -52t-190 -165.5t-111 -274.5q-20 -126 -2.5 -219t69.5 -154t125.5 -91t163.5 -30q164 0 289.5 82t179.5 226h98q-66 -175 -219.5 -281t-361.5 -106 q-237 0 -359.5 155t-76.5 418zM524 1419l15 78l235 -168l293 168l-14 -78l-293 -168z" />
<glyph unicode="&#x10e;" horiz-adv-x="1441" d="M68 0l256 1438h401q365 0 529 -190.5t102 -530.5q-59 -340 -289.5 -528.5t-597.5 -188.5h-401zM174 74h311q325 0 525 170.5t254 472.5q54 304 -86 473.5t-467 169.5h-310zM641 1714l14 78l236 -168l293 168l-15 -78l-292 -168z" />
<glyph unicode="&#x10f;" horiz-adv-x="1433" d="M109 557q45 260 222.5 414.5t416.5 154.5q169 0 278.5 -84.5t136.5 -220.5l123 695h90l-268 -1516h-90l53 295q-73 -137 -211.5 -224t-314.5 -87q-236 0 -358.5 157t-77.5 416zM203 557q-39 -227 62.5 -359t305.5 -132q199 0 352.5 134.5t192.5 356.5q39 219 -67 354.5 t-304 135.5q-204 0 -353.5 -131.5t-188.5 -358.5zM1419 1174l11 57q52 0 77.5 23.5t34.5 72.5l10 55h-86l23 134h141q-2 -75 -14 -158q-18 -100 -67 -142t-130 -42z" />
<glyph unicode="&#x110;" horiz-adv-x="1507" d="M39 676l16 84h215l119 678h402q366 0 529.5 -190t102.5 -531q-60 -340 -290.5 -528.5t-595.5 -188.5h-402l119 676h-215zM242 74h309q326 0 525 170t253 473q54 304 -86 473.5t-467 169.5h-309l-105 -600h447l-14 -84h-449z" />
<glyph unicode="&#x111;" horiz-adv-x="1368" d="M109 557q45 260 222.5 414.5t416.5 154.5q169 0 278.5 -84.5t136.5 -220.5l84 477h-352l10 64h355l26 154h90l-26 -154h135l-12 -64h-136l-229 -1298h-90l53 295q-73 -137 -211.5 -224t-314.5 -87q-236 0 -358.5 157t-77.5 416zM203 557q-39 -227 62.5 -359t305.5 -132 q199 0 352.5 134.5t192.5 356.5q39 219 -67 354.5t-304 135.5q-204 0 -353.5 -131.5t-188.5 -358.5z" />
<glyph unicode="&#x112;" horiz-adv-x="1005" d="M68 0l256 1438h725l-15 -76h-633l-106 -604h573l-14 -74h-571l-109 -608h635l-14 -76h-727zM350 1632l12 72h664l-12 -72h-664z" />
<glyph unicode="&#x113;" horiz-adv-x="1280" d="M109 557q31 174 124 304t226.5 197.5t290.5 67.5q121 0 214 -41t145 -110t71 -157t2 -185q-11 -68 -25 -111h-960q-33 -221 74.5 -340t291.5 -119q162 0 288 82t179 220h96q-65 -170 -218 -275.5t-359 -105.5q-238 0 -362 155.5t-78 417.5zM209 594h874q23 117 6 202.5 t-70 141.5t-126 83.5t-160 27.5q-117 0 -222.5 -48.5t-188.5 -154t-113 -252.5zM444 1337l13 72h663l-12 -72h-664z" />
<glyph unicode="&#x114;" horiz-adv-x="1005" d="M68 0l256 1438h725l-15 -76h-633l-106 -604h573l-14 -74h-571l-109 -608h635l-14 -76h-727zM446 1784l5 18h65q-14 -84 27 -129t135 -45q96 0 153.5 45t71.5 129h66l-2 -18q-16 -96 -95 -164t-206 -68q-125 0 -180 68t-40 164z" />
<glyph unicode="&#x115;" horiz-adv-x="1280" d="M109 557q31 174 124 304t226.5 197.5t290.5 67.5q121 0 214 -41t145 -110t71 -157t2 -185q-11 -68 -25 -111h-960q-33 -221 74.5 -340t291.5 -119q162 0 288 82t179 220h96q-65 -170 -218 -275.5t-359 -105.5q-238 0 -362 155.5t-78 417.5zM209 594h874q23 117 6 202.5 t-70 141.5t-126 83.5t-160 27.5q-117 0 -222.5 -48.5t-188.5 -154t-113 -252.5zM543 1489l4 18h65q-14 -84 27 -129t135 -45q96 0 153.5 45t71.5 129h66l-2 -18q-16 -96 -95 -164t-206 -68q-125 0 -179.5 68t-39.5 164z" />
<glyph unicode="&#x116;" horiz-adv-x="1005" d="M68 0l256 1438h725l-15 -76h-633l-106 -604h573l-14 -74h-571l-109 -608h635l-14 -76h-727zM600 1618q6 32 33.5 55t58.5 23q32 0 51 -23t13 -55t-32.5 -55t-57.5 -23q-32 0 -52 23t-14 55z" />
<glyph unicode="&#x117;" horiz-adv-x="1280" d="M109 557q31 174 124 304t226.5 197.5t290.5 67.5q121 0 214 -41t145 -110t71 -157t2 -185q-11 -68 -25 -111h-960q-33 -221 74.5 -340t291.5 -119q162 0 288 82t179 220h96q-65 -170 -218 -275.5t-359 -105.5q-238 0 -362 155.5t-78 417.5zM209 594h874q23 117 6 202.5 t-70 141.5t-126 83.5t-160 27.5q-117 0 -222.5 -48.5t-188.5 -154t-113 -252.5zM696 1325q6 32 33.5 55t58.5 23q32 0 51 -23t13 -55t-32.5 -55t-57.5 -23q-32 0 -52 23t-14 55z" />
<glyph unicode="&#x118;" horiz-adv-x="1005" d="M68 0l256 1438h725l-15 -76h-633l-106 -604h573l-14 -74h-571l-109 -608h635l-14 -76l-146 -63q-147 -62 -164 -160q-10 -53 21.5 -81t91.5 -28q58 0 137 27l-12 -70q-76 -26 -143 -26q-90 0 -141.5 43t-35.5 127q23 139 236 229l4 2h-575z" />
<glyph unicode="&#x119;" horiz-adv-x="1280" d="M109 557q31 174 124 304t226.5 197.5t290.5 67.5q121 0 214 -41t145 -110t71 -157t2 -185q-11 -68 -25 -111h-960q-33 -221 74.5 -340t291.5 -119q162 0 288 82t179 220h96q-48 -128 -149.5 -222t-239.5 -133l-106 -47q-147 -62 -164 -160q-10 -53 21.5 -80.5t91.5 -27.5 q61 0 137 26l-12 -69q-79 -27 -144 -27q-90 0 -141 43t-35 127q19 113 152 189q-232 5 -353 159.5t-75 413.5zM209 594h874q23 117 6 202.5t-70 141.5t-126 83.5t-160 27.5q-117 0 -222.5 -48.5t-188.5 -154t-113 -252.5z" />
<glyph unicode="&#x11a;" horiz-adv-x="1005" d="M68 0l256 1438h725l-15 -76h-633l-106 -604h573l-14 -74h-571l-109 -608h635l-14 -76h-727zM430 1714l14 78l236 -168l293 168l-15 -78l-292 -168z" />
<glyph unicode="&#x11b;" horiz-adv-x="1280" d="M109 557q31 174 124 304t226.5 197.5t290.5 67.5q121 0 214 -41t145 -110t71 -157t2 -185q-11 -68 -25 -111h-960q-33 -221 74.5 -340t291.5 -119q162 0 288 82t179 220h96q-65 -170 -218 -275.5t-359 -105.5q-238 0 -362 155.5t-78 417.5zM209 594h874q23 117 6 202.5 t-70 141.5t-126 83.5t-160 27.5q-117 0 -222.5 -48.5t-188.5 -154t-113 -252.5zM526 1419l15 78l235 -168l293 168l-14 -78l-293 -168z" />
<glyph unicode="&#x11e;" horiz-adv-x="1611" d="M137 717q37 212 157.5 380t296 260.5t374.5 92.5q232 0 380.5 -116t190.5 -320h-106q-35 161 -161 257.5t-319 96.5q-127 0 -245.5 -45.5t-214.5 -128.5t-164.5 -206t-94.5 -271q-27 -150 -0.5 -270.5t92.5 -204.5t169 -129t229 -45q164 0 309 72t250 210t145 322h-641 l15 76h735l-12 -62q-41 -200 -158.5 -359.5t-290 -250t-366.5 -90.5q-199 0 -342 92.5t-204 259.5t-24 379zM782 1784l4 18h66q-14 -84 27 -129t135 -45q96 0 153.5 45t71.5 129h66l-2 -18q-16 -96 -95.5 -164t-206.5 -68q-125 0 -179.5 68t-39.5 164z" />
<glyph unicode="&#x11f;" horiz-adv-x="1378" d="M49 -174h92q15 -133 113.5 -212t267.5 -79q179 0 317.5 117t172.5 313l57 326q-72 -134 -210.5 -220.5t-313.5 -86.5q-236 0 -358.5 157t-77.5 416q45 260 222.5 414.5t416.5 154.5q174 0 282 -85t133 -218l51 289h93l-203 -1147q-42 -231 -211 -370.5t-385 -139.5 q-208 0 -328 100t-131 271zM203 557q-39 -227 62.5 -359t305.5 -132q199 0 352.5 134.5t192.5 356.5q39 219 -67 354.5t-304 135.5q-204 0 -353.5 -131.5t-188.5 -358.5zM596 1489l4 18h66q-14 -84 26.5 -129t134.5 -45q96 0 154 45t72 129h65l-2 -18q-16 -96 -95 -164 t-206 -68q-125 0 -179.5 68t-39.5 164z" />
<glyph unicode="&#x120;" horiz-adv-x="1611" d="M137 717q37 212 157.5 380t296 260.5t374.5 92.5q232 0 380.5 -116t190.5 -320h-106q-35 161 -161 257.5t-319 96.5q-127 0 -245.5 -45.5t-214.5 -128.5t-164.5 -206t-94.5 -271q-27 -150 -0.5 -270.5t92.5 -204.5t169 -129t229 -45q164 0 309 72t250 210t145 322h-641 l15 76h735l-12 -62q-41 -200 -158.5 -359.5t-290 -250t-366.5 -90.5q-199 0 -342 92.5t-204 259.5t-24 379zM936 1618q6 32 33.5 55t58.5 23q32 0 51 -23t13 -55t-33 -55t-58 -23q-32 0 -51.5 23t-13.5 55z" />
<glyph unicode="&#x121;" horiz-adv-x="1378" d="M49 -174h92q15 -133 113.5 -212t267.5 -79q179 0 317.5 117t172.5 313l57 326q-72 -134 -210.5 -220.5t-313.5 -86.5q-236 0 -358.5 157t-77.5 416q45 260 222.5 414.5t416.5 154.5q174 0 282 -85t133 -218l51 289h93l-203 -1147q-42 -231 -211 -370.5t-385 -139.5 q-208 0 -328 100t-131 271zM203 557q-39 -227 62.5 -359t305.5 -132q199 0 352.5 134.5t192.5 356.5q39 219 -67 354.5t-304 135.5q-204 0 -353.5 -131.5t-188.5 -358.5zM750 1325q6 32 33.5 55t58.5 23q32 0 50.5 -23t12.5 -55t-32.5 -55t-57.5 -23q-32 0 -51.5 23 t-13.5 55z" />
<glyph unicode="&#x122;" horiz-adv-x="1611" d="M137 717q37 212 157.5 380t296 260.5t374.5 92.5q232 0 380.5 -116t190.5 -320h-106q-35 161 -161 257.5t-319 96.5q-127 0 -245.5 -45.5t-214.5 -128.5t-164.5 -206t-94.5 -271q-27 -150 -0.5 -270.5t92.5 -204.5t169 -129t229 -45q164 0 309 72t250 210t145 322h-641 l15 76h735l-12 -62q-41 -200 -158.5 -359.5t-290 -250t-366.5 -90.5q-199 0 -342 92.5t-204 259.5t-24 379zM559 -412l10 56q49 0 75.5 27.5t35.5 82.5l4 23h-76l21 108h131q0 -53 -6 -100q-19 -108 -69 -152.5t-126 -44.5z" />
<glyph unicode="&#x123;" horiz-adv-x="1378" d="M49 -174h92q15 -133 113.5 -212t267.5 -79q179 0 317.5 117t172.5 313l57 326q-72 -134 -210.5 -220.5t-313.5 -86.5q-236 0 -358.5 157t-77.5 416q45 260 222.5 414.5t416.5 154.5q174 0 282 -85t133 -218l51 289h93l-203 -1147q-42 -231 -211 -370.5t-385 -139.5 q-208 0 -328 100t-131 271zM203 557q-39 -227 62.5 -359t305.5 -132q199 0 352.5 134.5t192.5 356.5q39 219 -67 354.5t-304 135.5q-204 0 -353.5 -131.5t-188.5 -358.5zM715 1217q2 73 14 157q18 100 67 143.5t128 43.5l-11 -58q-52 0 -76 -24t-34 -74l-10 -55h86l-23 -133 h-141z" />
<glyph unicode="&#x128;" horiz-adv-x="430" d="M68 0l256 1438h92l-256 -1438h-92zM152 1534q23 77 71 120.5t109 43.5q35 0 64 -16t45.5 -34.5t42.5 -34.5t57 -16q34 0 63.5 25t42.5 70h62q-20 -73 -70.5 -117.5t-112.5 -44.5q-30 0 -55 10.5t-42 25t-33.5 29t-36.5 25t-44 10.5q-73 0 -102 -96h-61z" />
<glyph unicode="&#x129;" horiz-adv-x="430" d="M68 0l198 1112h92l-198 -1112h-92zM100 1239q23 77 71.5 120.5t109.5 43.5q35 0 64 -15.5t45.5 -34.5t42 -34.5t56.5 -15.5q34 0 64 24.5t43 69.5h61q-20 -73 -70 -117.5t-112 -44.5q-30 0 -55 10.5t-42 25t-33.5 29t-36.5 25t-44 10.5q-73 0 -102 -96h-62z" />
<glyph unicode="&#x12a;" horiz-adv-x="430" d="M68 0l256 1438h92l-256 -1438h-92zM72 1632l12 72h664l-13 -72h-663z" />
<glyph unicode="&#x12b;" horiz-adv-x="430" d="M18 1337l13 72h663l-12 -72h-664zM68 0l198 1112h92l-198 -1112h-92z" />
<glyph unicode="&#x12c;" horiz-adv-x="430" d="M68 0l256 1438h92l-256 -1438h-92zM170 1784l4 18h66q-14 -84 26.5 -129t134.5 -45q96 0 154 45t72 129h65l-2 -18q-16 -96 -95 -164t-206 -68q-125 0 -179.5 68t-39.5 164z" />
<glyph unicode="&#x12d;" horiz-adv-x="430" d="M68 0l198 1112h92l-198 -1112h-92zM117 1489l4 18h65q-14 -84 27 -129t135 -45q96 0 153.5 45t71.5 129h66l-2 -18q-16 -96 -95 -164t-206 -68q-125 0 -179.5 68t-39.5 164z" />
<glyph unicode="&#x12e;" horiz-adv-x="430" d="M-229 -231q23 139 235 229l66 29l252 1411h92l-256 -1434l2 -4l-146 -63q-146 -62 -163 -160q-10 -53 21 -81t91 -28q58 0 137 27l-12 -70q-76 -26 -143 -26q-90 0 -141 43t-35 127z" />
<glyph unicode="&#x12f;" horiz-adv-x="430" d="M-229 -231q23 139 235 229l66 29l194 1085h92l-198 -1108l2 -4l-146 -63q-146 -62 -163 -160q-10 -53 21 -81t91 -28q58 0 137 27l-12 -70q-76 -26 -143 -26q-90 0 -141 43t-35 127zM291 1440q6 35 32.5 57.5t59.5 22.5t52.5 -22.5t13.5 -57.5q-6 -36 -33.5 -58 t-61.5 -22q-33 0 -51 22t-12 58z" />
<glyph unicode="&#x130;" horiz-adv-x="430" d="M68 0l256 1438h92l-256 -1438h-92zM322 1618q6 32 33.5 55t58.5 23q32 0 50.5 -23t12.5 -55t-32.5 -55t-57.5 -23q-32 0 -51.5 23t-13.5 55z" />
<glyph unicode="&#x131;" horiz-adv-x="430" d="M68 0l198 1112h92l-198 -1112h-92z" />
<glyph unicode="&#x136;" horiz-adv-x="1087" d="M68 0l256 1438h92l-121 -682l782 682h117l-827 -721l575 -717h-121l-540 674l-121 -674h-92zM281 -412l12 56q48 0 73.5 27.5t34.5 82.5l5 23h-76l18 108h133q2 -36 -6 -100q-19 -108 -68.5 -152.5t-125.5 -44.5z" />
<glyph unicode="&#x137;" horiz-adv-x="894" d="M68 0l268 1516h92l-160 -908l566 504h129l-637 -553l446 -559h-127l-395 510l-90 -510h-92zM199 -412l12 56q48 0 73.5 27.5t34.5 82.5l5 23h-76l20 108h133q0 -38 -8 -100q-19 -108 -68.5 -152.5t-125.5 -44.5z" />
<glyph unicode="&#x139;" horiz-adv-x="835" d="M68 0l256 1438h92l-242 -1364h535l-15 -74h-626zM365 1497l12 76l450 268l-16 -90z" />
<glyph unicode="&#x13a;" horiz-adv-x="430" d="M68 0l268 1516h92l-268 -1516h-92zM174 1606l12 75l451 269l-16 -90z" />
<glyph unicode="&#x13b;" horiz-adv-x="835" d="M68 0l256 1438h92l-242 -1364h535l-15 -74h-626zM227 -412l13 56q48 0 73.5 27.5t34.5 82.5l4 23h-76l21 108h133q0 -53 -6 -100q-21 -108 -70.5 -152.5t-126.5 -44.5z" />
<glyph unicode="&#x13c;" horiz-adv-x="430" d="M-45 -412l10 56q49 0 75.5 27.5t35.5 82.5l4 23h-76l19 108h133q0 -53 -6 -100q-19 -108 -69 -152.5t-126 -44.5zM68 0l268 1516h92l-268 -1516h-92z" />
<glyph unicode="&#x13d;" horiz-adv-x="845" d="M68 0l256 1438h92l-242 -1364h535l-15 -74h-626zM596 1094l10 57q51 0 77 24.5t34 73.5l10 56h-86l25 133h139q-3 -99 -14 -158q-18 -101 -66.5 -143.5t-128.5 -42.5z" />
<glyph unicode="&#x13e;" horiz-adv-x="518" d="M68 0l268 1516h92l-268 -1516h-92zM487 1174l11 57q51 0 76.5 23.5t33.5 72.5l13 55h-86l22 134h139q0 -83 -14 -158q-16 -99 -65.5 -141.5t-129.5 -42.5z" />
<glyph unicode="&#x13f;" horiz-adv-x="835" d="M68 0l256 1438h92l-242 -1364h535l-15 -74h-626zM532 1618q6 32 34 55t59 23q32 0 50.5 -23t12.5 -55t-32.5 -55t-57.5 -23q-32 0 -52 23t-14 55z" />
<glyph unicode="&#x140;" horiz-adv-x="430" d="M68 0l268 1516h92l-268 -1516h-92zM338 1704q4 32 31.5 55t60.5 23q31 0 49.5 -23t14.5 -55q-6 -31 -34 -54.5t-59 -23.5q-32 0 -50.5 23.5t-12.5 54.5z" />
<glyph unicode="&#x141;" horiz-adv-x="866" d="M29 612l14 90l199 80l116 656h95l-109 -615l313 125l-16 -90l-313 -125l-117 -659h534l-14 -74h-627l123 692z" />
<glyph unicode="&#x142;" horiz-adv-x="458" d="M57 776l15 86l180 82l100 572h92l-92 -527l176 82l-14 -86l-178 -82l-160 -903h-92l152 858z" />
<glyph unicode="&#x143;" horiz-adv-x="1366" d="M68 0l254 1436h92l618 -1282l225 1282h93l-254 -1436h-92l-617 1286l-227 -1286h-92zM623 1497l12 76l450 268l-16 -90z" />
<glyph unicode="&#x144;" horiz-adv-x="1275" d="M68 0l198 1112h92l-41 -233q69 124 190 190t263 66q95 0 169.5 -28.5t127 -88t69.5 -151t-3 -216.5l-115 -651h-90l114 645q35 199 -46.5 304.5t-254.5 105.5q-172 0 -297.5 -107t-171.5 -315l-112 -633h-92zM492 1202l12 76l450 268l-16 -90z" />
<glyph unicode="&#x145;" horiz-adv-x="1366" d="M68 0l254 1436h92l618 -1282l225 1282h93l-254 -1436h-92l-617 1286l-227 -1286h-92zM426 -412l10 56q48 0 74 27.5t37 82.5l2 23h-76l21 108h133q0 -53 -6 -100q-21 -108 -70 -152.5t-125 -44.5z" />
<glyph unicode="&#x146;" horiz-adv-x="1275" d="M68 0l198 1112h92l-41 -233q69 124 190 190t263 66q95 0 169.5 -28.5t127 -88t69.5 -151t-3 -216.5l-115 -651h-90l114 645q35 199 -46.5 304.5t-254.5 105.5q-172 0 -297.5 -107t-171.5 -315l-112 -633h-92zM391 -412l10 56q48 0 74 27.5t37 82.5l2 23h-76l21 108h133 q0 -53 -6 -100q-21 -108 -70 -152.5t-125 -44.5z" />
<glyph unicode="&#x147;" horiz-adv-x="1366" d="M68 0l254 1436h92l618 -1282l225 1282h93l-254 -1436h-92l-617 1286l-227 -1286h-92zM621 1714l14 78l235 -168l293 168l-14 -78l-293 -168z" />
<glyph unicode="&#x148;" horiz-adv-x="1275" d="M68 0l198 1112h92l-41 -233q69 124 190 190t263 66q95 0 169.5 -28.5t127 -88t69.5 -151t-3 -216.5l-115 -651h-90l114 645q35 199 -46.5 304.5t-254.5 105.5q-172 0 -297.5 -107t-171.5 -315l-112 -633h-92zM489 1419l15 78l235 -168l293 168l-14 -78l-293 -168z" />
<glyph unicode="&#x14c;" horiz-adv-x="1617" d="M127 567q0 238 109 440.5t302 322.5t425 120q265 0 423 -160.5t158 -421.5q0 -179 -64.5 -341.5t-174.5 -282t-266 -190t-330 -70.5q-264 0 -423 160.5t-159 422.5zM221 573q0 -233 138 -369t362 -136q155 0 291 64.5t231 173t150 254t55 304.5q0 233 -137 368.5 t-363 135.5q-156 0 -293 -65.5t-231 -174.5t-148.5 -254t-54.5 -301zM680 1636l12 72h664l-13 -72h-663z" />
<glyph unicode="&#x14d;" horiz-adv-x="1320" d="M98 432q0 189 84 347.5t236.5 252.5t339.5 94q207 0 334 -120t127 -328q0 -141 -50 -269t-136.5 -221.5t-210 -148.5t-263.5 -55q-208 0 -334.5 120.5t-126.5 327.5zM193 438q0 -93 30 -166t82.5 -118t120 -68t145.5 -23q160 0 288 85t196.5 224t68.5 302q0 93 -30.5 166 t-83.5 118t-121 68t-146 23q-121 0 -225.5 -50t-174.5 -134t-110 -195t-40 -232zM465 1354l12 71h664l-13 -71h-663z" />
<glyph unicode="&#x14e;" horiz-adv-x="1617" d="M127 567q0 238 109 440.5t302 322.5t425 120q265 0 423 -160.5t158 -421.5q0 -179 -64.5 -341.5t-174.5 -282t-266 -190t-330 -70.5q-264 0 -423 160.5t-159 422.5zM221 573q0 -233 138 -369t362 -136q155 0 291 64.5t231 173t150 254t55 304.5q0 233 -137 368.5 t-363 135.5q-156 0 -293 -65.5t-231 -174.5t-148.5 -254t-54.5 -301zM778 1788l4 18h66q-14 -84 27 -129t135 -45q96 0 153.5 45t71.5 129h65l-2 -18q-16 -96 -95 -164t-206 -68q-125 0 -179.5 68t-39.5 164z" />
<glyph unicode="&#x14f;" horiz-adv-x="1320" d="M98 432q0 189 84 347.5t236.5 252.5t339.5 94q207 0 334 -120t127 -328q0 -141 -50 -269t-136.5 -221.5t-210 -148.5t-263.5 -55q-208 0 -334.5 120.5t-126.5 327.5zM193 438q0 -93 30 -166t82.5 -118t120 -68t145.5 -23q160 0 288 85t196.5 224t68.5 302q0 93 -30.5 166 t-83.5 118t-121 68t-146 23q-121 0 -225.5 -50t-174.5 -134t-110 -195t-40 -232zM563 1505l4 19h66q-14 -84 27 -129t135 -45q96 0 153.5 45t71.5 129h65l-2 -19q-16 -96 -95 -163.5t-206 -67.5q-125 0 -179.5 67.5t-39.5 163.5z" />
<glyph unicode="&#x150;" horiz-adv-x="1617" d="M127 567q0 238 109 440.5t302 322.5t425 120q265 0 423 -160.5t158 -421.5q0 -179 -64.5 -341.5t-174.5 -282t-266 -190t-330 -70.5q-264 0 -423 160.5t-159 422.5zM221 573q0 -233 138 -369t362 -136q155 0 291 64.5t231 173t150 254t55 304.5q0 233 -137 368.5 t-363 135.5q-156 0 -293 -65.5t-231 -174.5t-148.5 -254t-54.5 -301zM815 1530l172 250h88l-190 -250h-70zM1073 1530l189 250h86l-205 -250h-70z" />
<glyph unicode="&#x151;" horiz-adv-x="1320" d="M98 432q0 189 84 347.5t236.5 252.5t339.5 94q207 0 334 -120t127 -328q0 -141 -50 -269t-136.5 -221.5t-210 -148.5t-263.5 -55q-208 0 -334.5 120.5t-126.5 327.5zM193 438q0 -93 30 -166t82.5 -118t120 -68t145.5 -23q160 0 288 85t196.5 224t68.5 302q0 93 -30.5 166 t-83.5 118t-121 68t-146 23q-121 0 -225.5 -50t-174.5 -134t-110 -195t-40 -232zM598 1247l172 250h88l-190 -250h-70zM856 1247l188 250h86l-204 -250h-70z" />
<glyph unicode="&#x152;" horiz-adv-x="2250" d="M137 717q37 212 158 380t295.5 260.5t370.5 92.5q219 0 363 -117.5t169 -316.5l76 422h727l-17 -76h-632l-107 -604h574l-15 -76h-571l-107 -606h633l-14 -76h-727l76 422q-95 -200 -282 -319t-405 -119q-197 0 -339 93t-202.5 261t-23.5 379zM231.5 446.5 q25.5 -120.5 92 -204.5t169 -129t228.5 -45q169 0 319.5 77.5t257.5 226.5t142 345q27 151 1 271.5t-92.5 205t-169 129.5t-229.5 45q-126 0 -244.5 -45.5t-214 -128.5t-164 -206t-94.5 -271q-27 -150 -1.5 -270.5z" />
<glyph unicode="&#x153;" horiz-adv-x="2285" d="M109 557q31 173 127 303.5t232 198t292 67.5q178 0 295 -92t143 -258q81 166 229 258t328 92q121 0 214 -41t145 -110t71 -157t2 -185q-14 -67 -28 -111h-957q-18 -113 3.5 -202.5t74 -144.5t125 -83.5t160.5 -28.5q163 0 288.5 81.5t178.5 220.5h98 q-65 -170 -218.5 -275.5t-361.5 -105.5q-178 0 -292.5 93t-137.5 259q-84 -166 -234.5 -259t-330.5 -93q-239 0 -365.5 155.5t-80.5 417.5zM202.5 337q19.5 -93 74 -154t128.5 -90.5t164 -29.5t175.5 30.5t161 89t131 155.5t77.5 219q21 122 0 218t-75.5 154.5t-129 89 t-164.5 30.5t-175.5 -30.5t-160.5 -89t-130 -154.5t-76 -218q-20 -127 -0.5 -220zM1214 592h873q23 117 6 203t-70 142.5t-125 84t-159 27.5t-169.5 -28.5t-154 -83.5t-125 -144t-76.5 -201z" />
<glyph unicode="&#x154;" horiz-adv-x="1148" d="M68 0l256 1438h395q160 0 259.5 -54t133 -145t12.5 -213q-30 -165 -142 -272t-296 -133l268 -621h-110l-260 612h-9h-305l-110 -612h-92zM283 690h307q190 0 300 91.5t138 244.5q61 332 -323 332h-304zM557 1497l12 76l451 268l-16 -90z" />
<glyph unicode="&#x155;" horiz-adv-x="716" d="M68 0l198 1112h92l-43 -240q66 127 181.5 195t275.5 68l-18 -97h-29q-77 0 -145.5 -20t-131.5 -64t-109 -124t-65 -189l-114 -641h-92zM319 1202l13 76l450 268l-16 -90z" />
<glyph unicode="&#x156;" horiz-adv-x="1148" d="M68 0l256 1438h395q160 0 259.5 -54t133 -145t12.5 -213q-30 -165 -142 -272t-296 -133l268 -621h-110l-260 612h-9h-305l-110 -612h-92zM283 690h307q190 0 300 91.5t138 244.5q61 332 -323 332h-304zM311 -412l11 56q48 0 73.5 27.5t36.5 82.5l2 23h-76l21 108h133 q0 -53 -6 -100q-21 -108 -70 -152.5t-125 -44.5z" />
<glyph unicode="&#x157;" horiz-adv-x="716" d="M-45 -412l10 56q92 0 111 110l2 23h-76l21 108h133q0 -53 -6 -100q-21 -108 -70 -152.5t-125 -44.5zM68 0l198 1112h92l-43 -240q66 127 181.5 195t275.5 68l-18 -97h-29q-77 0 -145.5 -20t-131.5 -64t-109 -124t-65 -189l-114 -641h-92z" />
<glyph unicode="&#x158;" horiz-adv-x="1148" d="M68 0l256 1438h395q160 0 259.5 -54t133 -145t12.5 -213q-30 -165 -142 -272t-296 -133l268 -621h-110l-260 612h-9h-305l-110 -612h-92zM283 690h307q190 0 300 91.5t138 244.5q61 332 -323 332h-304zM555 1714l14 78l236 -168l293 168l-15 -78l-292 -168z" />
<glyph unicode="&#x159;" horiz-adv-x="716" d="M68 0l198 1112h92l-43 -240q66 127 181.5 195t275.5 68l-18 -97h-29q-77 0 -145.5 -20t-131.5 -64t-109 -124t-65 -189l-114 -641h-92zM317 1419l15 78l235 -168l293 168l-14 -78l-293 -168z" />
<glyph unicode="&#x15a;" horiz-adv-x="1120" d="M80 354h92q-3 -38 4.5 -76t30.5 -77.5t59.5 -69.5t97 -49t138.5 -19q152 0 250.5 74t115.5 199q11 74 -7.5 131.5t-58 95.5t-93.5 68t-115.5 54t-123.5 48t-116.5 56t-94.5 72.5t-59.5 103t-9.5 141.5q15 150 141 248t324 98q192 0 299 -97t101 -229h-94q2 41 -16.5 83 t-54.5 79.5t-99.5 61.5t-143.5 24q-146 0 -245.5 -68.5t-116.5 -189.5q-10 -68 9.5 -121t59.5 -88t95 -63.5t116.5 -52.5t123.5 -49t116 -59.5t93.5 -78.5t57.5 -111t7 -151q-18 -152 -143 -254t-326 -102q-207 0 -316.5 105t-97.5 263zM506 1497l12 76l451 268l-17 -90z " />
<glyph unicode="&#x15b;" horiz-adv-x="1017" d="M55 299h92q-9 -109 63 -173.5t214 -64.5q145 0 231 65t86 167q0 45 -20 80.5t-53.5 59t-77.5 42.5t-92 35.5t-96.5 34.5t-92.5 42t-77.5 55t-53.5 77.5t-20 105.5q0 133 112 217t281 84q109 0 194.5 -39.5t130 -115t31.5 -172.5h-90q15 114 -65 183t-209 69 q-126 0 -209.5 -61t-83.5 -163q0 -48 20 -85.5t54 -62t77.5 -44.5t92 -37t97 -34.5t92 -41t77.5 -53t54 -74t20 -100.5q0 -143 -116 -227t-300 -84q-172 0 -273.5 81.5t-89.5 233.5zM399 1202l13 76l450 268l-16 -90z" />
<glyph unicode="&#x15e;" horiz-adv-x="1120" d="M80 354h92q-3 -38 4.5 -76t30.5 -77.5t59.5 -69.5t97 -49t138.5 -19q152 0 250.5 74t115.5 199q11 74 -7.5 131.5t-58 95.5t-93.5 68t-115.5 54t-123.5 48t-116.5 56t-94.5 72.5t-59.5 103t-9.5 141.5q15 150 141 248t324 98q192 0 299 -97t101 -229h-94q2 41 -16.5 83 t-54.5 79.5t-99.5 61.5t-143.5 24q-146 0 -245.5 -68.5t-116.5 -189.5q-10 -68 9.5 -121t59.5 -88t95 -63.5t116.5 -52.5t123.5 -49t116 -59.5t93.5 -78.5t57.5 -111t7 -151q-18 -151 -141.5 -253.5t-315.5 -102.5l-27 -146q124 6 183.5 -40t44.5 -136q-14 -85 -84 -136.5 t-177 -51.5h-167l12 69h149q88 0 132 30t55 89q10 53 -24.5 83t-121.5 30h-84l37 211q-179 17 -272 118.5t-82 247.5z" />
<glyph unicode="&#x15f;" horiz-adv-x="1017" d="M55 299h92q-9 -109 63 -173.5t214 -64.5q145 0 231 65t86 167q0 45 -20 80.5t-53.5 59t-77.5 42.5t-92 35.5t-96.5 34.5t-92.5 42t-77.5 55t-53.5 77.5t-20 105.5q0 133 112 217t281 84q109 0 194.5 -39.5t130 -115t31.5 -172.5h-90q15 114 -65 183t-209 69 q-126 0 -209.5 -61t-83.5 -163q0 -48 20 -85.5t54 -62t77.5 -44.5t92 -37t97 -34.5t92 -41t77.5 -53t54 -74t20 -100.5q0 -136 -105.5 -219t-277.5 -92l-25 -144q124 6 183 -40t44 -136q-14 -85 -84 -136.5t-176 -51.5h-168l13 69h149q88 0 131.5 30t54.5 89q10 53 -24.5 83 t-120.5 30h-84l37 209q-158 8 -248 89t-78 224z" />
<glyph unicode="&#x160;" horiz-adv-x="1120" d="M80 354h92q-3 -38 4.5 -76t30.5 -77.5t59.5 -69.5t97 -49t138.5 -19q152 0 250.5 74t115.5 199q11 74 -7.5 131.5t-58 95.5t-93.5 68t-115.5 54t-123.5 48t-116.5 56t-94.5 72.5t-59.5 103t-9.5 141.5q15 150 141 248t324 98q192 0 299 -97t101 -229h-94q2 41 -16.5 83 t-54.5 79.5t-99.5 61.5t-143.5 24q-146 0 -245.5 -68.5t-116.5 -189.5q-10 -68 9.5 -121t59.5 -88t95 -63.5t116.5 -52.5t123.5 -49t116 -59.5t93.5 -78.5t57.5 -111t7 -151q-18 -152 -143 -254t-326 -102q-207 0 -316.5 105t-97.5 263zM504 1714l14 78l236 -168l293 168 l-15 -78l-293 -168z" />
<glyph unicode="&#x161;" horiz-adv-x="1017" d="M55 299h92q-9 -109 63 -173.5t214 -64.5q145 0 231 65t86 167q0 45 -20 80.5t-53.5 59t-77.5 42.5t-92 35.5t-96.5 34.5t-92.5 42t-77.5 55t-53.5 77.5t-20 105.5q0 133 112 217t281 84q109 0 194.5 -39.5t130 -115t31.5 -172.5h-90q15 114 -65 183t-209 69 q-126 0 -209.5 -61t-83.5 -163q0 -48 20 -85.5t54 -62t77.5 -44.5t92 -37t97 -34.5t92 -41t77.5 -53t54 -74t20 -100.5q0 -143 -116 -227t-300 -84q-172 0 -273.5 81.5t-89.5 233.5zM397 1419l15 78l235 -168l293 168l-14 -78l-293 -168z" />
<glyph unicode="&#x162;" horiz-adv-x="1013" d="M190 1362l15 76h911l-14 -76h-410l-239 -1362h-9l-28 -160q124 6 183 -40t44 -136q-14 -85 -84 -136.5t-176 -51.5h-168l12 69h150q88 0 131.5 30t54.5 89q10 53 -24.5 83t-120.5 30h-84l39 223h-13l240 1362h-410z" />
<glyph unicode="&#x163;" horiz-adv-x="710" d="M127 1032l14 80h168l49 283h95l-50 -283h328l-14 -80h-328l-131 -735q-23 -124 15 -169.5t153 -45.5h123l-14 -82h-140h-35l-28 -160q124 6 184 -40.5t45 -135.5q-15 -86 -85.5 -137t-176.5 -51h-166l12 69h150q165 0 184 119q10 53 -24 83t-119 30h-86l41 233 q-86 22 -117 90t-10 197l131 735h-168z" />
<glyph unicode="&#x164;" horiz-adv-x="1013" d="M190 1362l15 76h911l-14 -76h-410l-239 -1362h-93l240 1362h-410zM444 1714l15 78l235 -168l293 168l-14 -78l-293 -168z" />
<glyph unicode="&#x165;" horiz-adv-x="712" d="M127 1032l14 80h168l49 283h95l-50 -283h328l-14 -80h-328l-131 -735q-23 -124 15 -169.5t153 -45.5h123l-14 -82h-140q-146 0 -202 68t-29 229l131 735h-168zM563 1212l8 58q52 0 77.5 21t33.5 65l10 51h-86l23 133h141q-3 -95 -14 -154q-16 -95 -64.5 -134.5 t-128.5 -39.5z" />
<glyph unicode="&#x168;" horiz-adv-x="1320" d="M150.5 290q-17.5 105 5.5 251l159 897h93l-160 -897q-42 -245 47.5 -359t279.5 -114q189 0 317.5 114t170.5 359l160 897h92l-160 -897q-25 -142 -80.5 -250t-134.5 -174t-174 -98.5t-205 -32.5t-194 32t-141.5 99.5t-75 172.5zM598 1534q23 77 71 120.5t109 43.5 q35 0 64 -16t45.5 -34.5t42.5 -34.5t57 -16q34 0 64 25t43 70h61q-20 -73 -70 -117.5t-112 -44.5q-30 0 -55 10.5t-42 25t-33.5 29t-36.5 25t-44 10.5q-74 0 -103 -96h-61z" />
<glyph unicode="&#x169;" horiz-adv-x="1275" d="M137.5 248q-17.5 91 1.5 217l117 647h90l-115 -641q-34 -199 47.5 -304.5t253.5 -105.5q181 0 309 115.5t165 339.5v-6l106 602h92l-196 -1112h-93l43 240q-68 -125 -189.5 -191.5t-262.5 -66.5q-95 0 -170 28t-128 87.5t-70.5 150.5zM526 1239q23 77 71.5 120.5 t109.5 43.5q35 0 64 -15.5t45.5 -34.5t42 -34.5t56.5 -15.5q34 0 64 24.5t43 69.5h61q-20 -73 -70 -117.5t-112 -44.5q-30 0 -55 10.5t-42 25t-33.5 29t-36.5 25t-44 10.5q-73 0 -102 -96h-62z" />
<glyph unicode="&#x16a;" horiz-adv-x="1320" d="M150.5 290q-17.5 105 5.5 251l159 897h93l-160 -897q-42 -245 47.5 -359t279.5 -114q189 0 317.5 114t170.5 359l160 897h92l-160 -897q-25 -142 -80.5 -250t-134.5 -174t-174 -98.5t-205 -32.5t-194 32t-141.5 99.5t-75 172.5zM516 1632l12 72h664l-12 -72h-664z" />
<glyph unicode="&#x16b;" horiz-adv-x="1275" d="M137.5 248q-17.5 91 1.5 217l117 647h90l-115 -641q-34 -199 47.5 -304.5t253.5 -105.5q181 0 309 115.5t165 339.5v-6l106 602h92l-196 -1112h-93l43 240q-68 -125 -189.5 -191.5t-262.5 -66.5q-95 0 -170 28t-128 87.5t-70.5 150.5zM444 1337l13 72h663l-12 -72h-664z " />
<glyph unicode="&#x16c;" horiz-adv-x="1320" d="M150.5 290q-17.5 105 5.5 251l159 897h93l-160 -897q-42 -245 47.5 -359t279.5 -114q189 0 317.5 114t170.5 359l160 897h92l-160 -897q-25 -142 -80.5 -250t-134.5 -174t-174 -98.5t-205 -32.5t-194 32t-141.5 99.5t-75 172.5zM614 1784l4 18h66q-14 -84 27 -129 t135 -45q96 0 153.5 45t71.5 129h66l-2 -18q-16 -96 -95 -164t-206 -68q-125 0 -180 68t-40 164z" />
<glyph unicode="&#x16d;" horiz-adv-x="1275" d="M137.5 248q-17.5 91 1.5 217l117 647h90l-115 -641q-34 -199 47.5 -304.5t253.5 -105.5q181 0 309 115.5t165 339.5v-6l106 602h92l-196 -1112h-93l43 240q-68 -125 -189.5 -191.5t-262.5 -66.5q-95 0 -170 28t-128 87.5t-70.5 150.5zM543 1489l4 18h65q-14 -84 27 -129 t135 -45q96 0 153.5 45t71.5 129h66l-2 -18q-16 -96 -95 -164t-206 -68q-125 0 -179.5 68t-39.5 164z" />
<glyph unicode="&#x16e;" horiz-adv-x="1320" d="M150.5 290q-17.5 105 5.5 251l159 897h93l-160 -897q-42 -245 47.5 -359t279.5 -114q189 0 317.5 114t170.5 359l160 897h92l-160 -897q-25 -142 -80.5 -250t-134.5 -174t-174 -98.5t-205 -32.5t-194 32t-141.5 99.5t-75 172.5zM672 1743q17 90 82 143t147 53 q84 0 130.5 -53t29.5 -143q-15 -88 -80.5 -141.5t-149.5 -53.5q-81 0 -127.5 53.5t-31.5 141.5zM733 1745q-10 -62 21 -99.5t88 -37.5q58 0 102.5 37.5t54.5 99.5q12 62 -19 98.5t-91 36.5q-57 0 -100.5 -36.5t-55.5 -98.5z" />
<glyph unicode="&#x16f;" horiz-adv-x="1275" d="M137.5 248q-17.5 91 1.5 217l117 647h90l-115 -641q-34 -199 47.5 -304.5t253.5 -105.5q181 0 309 115.5t165 339.5v-6l106 602h92l-196 -1112h-93l43 240q-68 -125 -189.5 -191.5t-262.5 -66.5q-95 0 -170 28t-128 87.5t-70.5 150.5zM600 1448q17 90 82 143.5t147 53.5 q84 0 130.5 -53.5t29.5 -143.5q-15 -89 -80 -142t-149 -53q-81 0 -128 53.5t-32 141.5zM662 1450q-10 -62 20.5 -99.5t87.5 -37.5q58 0 103 37.5t55 99.5q12 62 -19.5 98.5t-91.5 36.5q-57 0 -100 -36.5t-55 -98.5z" />
<glyph unicode="&#x170;" horiz-adv-x="1320" d="M150.5 290q-17.5 105 5.5 251l159 897h93l-160 -897q-42 -245 47.5 -359t279.5 -114q189 0 317.5 114t170.5 359l160 897h92l-160 -897q-25 -142 -80.5 -250t-134.5 -174t-174 -98.5t-205 -32.5t-194 32t-141.5 99.5t-75 172.5zM651 1526l172 250h88l-190 -250h-70z M909 1526l189 250h86l-205 -250h-70z" />
<glyph unicode="&#x171;" horiz-adv-x="1275" d="M137.5 248q-17.5 91 1.5 217l117 647h90l-115 -641q-34 -199 47.5 -304.5t253.5 -105.5q181 0 309 115.5t165 339.5v-6l106 602h92l-196 -1112h-93l43 240q-68 -125 -189.5 -191.5t-262.5 -66.5q-95 0 -170 28t-128 87.5t-70.5 150.5zM580 1231l172 250h88l-191 -250h-69 zM838 1231l188 250h86l-205 -250h-69z" />
<glyph unicode="&#x172;" horiz-adv-x="1320" d="M156 541l159 897h93l-160 -897q-42 -245 47.5 -359t279.5 -114q189 0 317.5 114t170.5 359l160 897h92l-160 -897q-41 -237 -163 -372.5t-300 -170.5l-141 -61q-147 -62 -164 -160q-10 -53 21.5 -81t91.5 -28q58 0 137 27l-12 -70q-76 -26 -144 -26q-90 0 -141 43 t-35 127q23 132 211 219q-206 13 -305.5 150.5t-54.5 402.5z" />
<glyph unicode="&#x173;" horiz-adv-x="1275" d="M137.5 248q-17.5 91 1.5 217l117 647h90l-115 -641q-34 -199 47.5 -304.5t253.5 -105.5q181 0 309 115.5t165 339.5v-6l106 602h92l-196 -1112l-146 -63q-147 -62 -164 -160q-10 -53 21.5 -81t91.5 -28q58 0 137 27l-12 -70q-76 -26 -143 -26q-90 0 -141.5 43t-35.5 127 q23 139 236 229l68 29l38 213q-68 -125 -189.5 -191.5t-262.5 -66.5q-95 0 -170 28t-128 87.5t-70.5 150.5z" />
<glyph unicode="&#x174;" horiz-adv-x="1902" d="M217 1438h102l113 -1303l623 1303h106l156 -1303l575 1303h103l-652 -1438h-100l-166 1292l-622 -1292h-101zM809 1585l12 78l295 168l232 -168l-13 -78l-233 168z" />
<glyph unicode="&#x175;" horiz-adv-x="1656" d="M133 1112h96l123 -995l531 995h90l176 -995l475 995h94l-547 -1112h-88l-180 987l-530 -987h-88zM688 1257l12 78l295 168l232 -168l-13 -78l-233 168z" />
<glyph unicode="&#x176;" horiz-adv-x="1107" d="M207 1438h106l260 -768l531 768h106l-606 -856l-102 -582h-92l102 582zM467 1552l12 78l295 168l232 -168l-13 -78l-233 168z" />
<glyph unicode="&#x177;" horiz-adv-x="1073" d="M98 -522l301 524l-266 1110h100l240 -997l563 997h99l-936 -1634h-101zM397 1257l13 78l295 168l231 -168l-12 -78l-234 168z" />
<glyph unicode="&#x178;" horiz-adv-x="1107" d="M207 1438h106l260 -768l531 768h106l-606 -856l-102 -582h-92l102 582zM524 1640q0 36 28 63.5t64 27.5q27 0 44.5 -18.5t17.5 -45.5q0 -36 -27 -64t-61 -28q-29 0 -47.5 18.5t-18.5 46.5zM819 1640q0 36 27.5 63.5t64.5 27.5q27 0 45.5 -18.5t18.5 -45.5q0 -36 -28 -64 t-62 -28q-29 0 -47.5 18.5t-18.5 46.5z" />
<glyph unicode="&#x179;" horiz-adv-x="1036" d="M-20 0l14 78l981 1276h-737l16 84h842l-15 -80l-979 -1276h770l-16 -82h-876zM459 1497l12 76l451 268l-17 -90z" />
<glyph unicode="&#x17a;" horiz-adv-x="868" d="M-31 0l15 78l778 956h-596l14 78h701l-15 -78l-778 -956h625l-15 -78h-729zM324 1202l12 76l450 268l-16 -90z" />
<glyph unicode="&#x17b;" horiz-adv-x="1036" d="M-20 0l14 78l981 1276h-737l16 84h842l-15 -80l-979 -1276h770l-16 -82h-876zM627 1618q6 32 33.5 55t58.5 23q32 0 50.5 -23t12.5 -55t-32.5 -55t-57.5 -23q-32 0 -51.5 23t-13.5 55z" />
<glyph unicode="&#x17c;" horiz-adv-x="868" d="M-31 0l15 78l778 956h-596l14 78h701l-15 -78l-778 -956h625l-15 -78h-729zM492 1325q6 32 33.5 55t58.5 23q32 0 50.5 -23t12.5 -55t-32.5 -55t-57.5 -23q-32 0 -51.5 23t-13.5 55z" />
<glyph unicode="&#x17d;" horiz-adv-x="1036" d="M-20 0l14 78l981 1276h-737l16 84h842l-15 -80l-979 -1276h770l-16 -82h-876zM457 1714l14 78l236 -168l292 168l-14 -78l-293 -168z" />
<glyph unicode="&#x17e;" horiz-adv-x="868" d="M-31 0l15 78l778 956h-596l14 78h701l-15 -78l-778 -956h625l-15 -78h-729zM322 1419l14 78l235 -168l293 168l-14 -78l-293 -168z" />
<glyph unicode="&#x18f;" horiz-adv-x="1556" d="M113 506q0 109 37 246h1226q0 6 1 18t1 18l6 54q9 240 -124 383t-355 143q-196 0 -365 -109t-251 -296h-103q94 224 291.5 355.5t442.5 131.5q256 0 411.5 -159t155.5 -414q0 -179 -61 -342t-168.5 -285t-264 -194t-336.5 -72q-247 0 -395.5 142t-148.5 380zM227 668 q-60 -271 63 -435.5t380 -164.5q129 0 248 46.5t209 126.5t153 190.5t86 236.5h-1139z" />
<glyph unicode="&#x192;" horiz-adv-x="677" d="M-225 -324l22 80h49q78 0 120 32.5t67 125.5l319 1120h-168l21 78h170l35 125q45 164 156.5 239.5t293.5 75.5l-20 -77q-141 0 -224 -57.5t-116 -180.5l-35 -125h289l-21 -78h-291l-317 -1120q-34 -122 -101 -180t-192 -58h-57z" />
<glyph unicode="&#x1fc;" horiz-adv-x="1759" d="M-80 0l1116 1438h766l-14 -76h-633l-106 -604h573l-14 -74h-572l-106 -608h633l-15 -76h-725l66 369h-582l-284 -369h-103zM367 444h534l158 895zM1038 1528l13 76l450 268l-16 -90z" />
<glyph unicode="&#x1fd;" horiz-adv-x="2299" d="M109 557q45 260 223 414.5t418 154.5q173 0 279.5 -86t131.5 -233l53 305h89l-54 -305q79 156 219 237.5t304 81.5q121 0 213 -41t143 -110.5t70 -157.5t2 -184q-12 -58 -29 -111h-969q-16 -113 8 -203t78 -144.5t127 -83t158 -28.5q167 0 294.5 82t178.5 220h98 q-65 -170 -217 -275.5t-356 -105.5q-166 0 -279 85t-133 240l-53 -309h-88l55 307q-75 -144 -215 -233.5t-313 -89.5q-236 0 -358.5 157t-77.5 416zM203 557q-39 -227 62.5 -359t305.5 -132q199 0 352.5 134.5t192.5 356.5q39 219 -67 354.5t-304 135.5 q-204 0 -353.5 -131.5t-188.5 -358.5zM1217 594h884q23 116 5.5 201.5t-70.5 142t-126 84t-161 27.5t-171 -28.5t-155.5 -83t-127 -143.5t-78.5 -200zM1227 1202l12 76l451 268l-17 -90z" />
<glyph unicode="&#x218;" horiz-adv-x="1134" d="M80 354h92q-3 -38 4.5 -76t30.5 -77.5t59.5 -69.5t97 -49t138.5 -19q152 0 250.5 74t115.5 199q11 74 -7.5 131.5t-58 95.5t-93.5 68t-115.5 54t-123.5 48t-116.5 56t-94.5 72.5t-59.5 103t-9.5 141.5q15 150 141 248t324 98q192 0 299 -97t101 -229h-94q2 41 -16.5 83 t-54.5 79.5t-99.5 61.5t-143.5 24q-146 0 -245.5 -68.5t-116.5 -189.5q-10 -68 9.5 -121t59.5 -88t95 -63.5t116.5 -52.5t123.5 -49t116 -59.5t93.5 -78.5t57.5 -111t7 -151q-18 -152 -143 -254t-326 -102q-207 0 -316.5 105t-97.5 263zM348 -412l10 56q49 0 75.5 27.5 t35.5 82.5l4 23h-76l19 108h133q2 -36 -6 -100q-19 -108 -69 -152.5t-126 -44.5z" />
<glyph unicode="&#x219;" horiz-adv-x="1017" d="M55 299h92q-9 -109 63 -173.5t214 -64.5q145 0 231 65t86 167q0 45 -20 80.5t-53.5 59t-77.5 42.5t-92 35.5t-96.5 34.5t-92.5 42t-77.5 55t-53.5 77.5t-20 105.5q0 133 112 217t281 84q109 0 194.5 -39.5t130 -115t31.5 -172.5h-90q15 114 -65 183t-209 69 q-126 0 -209.5 -61t-83.5 -163q0 -48 20 -85.5t54 -62t77.5 -44.5t92 -37t97 -34.5t92 -41t77.5 -53t54 -74t20 -100.5q0 -143 -116 -227t-300 -84q-172 0 -273.5 81.5t-89.5 233.5zM285 -412l10 56q48 0 74 27.5t37 82.5l2 23h-76l20 108h133q0 -53 -6 -100 q-21 -108 -69.5 -152.5t-124.5 -44.5z" />
<glyph unicode="&#x21a;" horiz-adv-x="1013" d="M190 1362l15 76h911l-14 -76h-410l-239 -1362h-93l240 1362h-410zM248 -412l10 56q48 0 74 27.5t37 82.5l2 23h-76l20 108h134q0 -46 -7 -100q-21 -108 -69.5 -152.5t-124.5 -44.5z" />
<glyph unicode="&#x21b;" horiz-adv-x="710" d="M127 1032l14 80h168l49 283h95l-50 -283h328l-14 -80h-328l-131 -735q-23 -124 15 -169.5t153 -45.5h123l-14 -82h-140q-146 0 -202 68t-29 229l131 735h-168zM150 -412l10 56q49 0 75 27.5t35 82.5l4 23h-75l20 108h131q2 -36 -6 -100q-19 -108 -68.5 -152.5 t-125.5 -44.5z" />
<glyph unicode="&#x259;" horiz-adv-x="1280" d="M98 479q11 68 25 111h960q33 221 -74.5 340t-291.5 119q-162 0 -288 -81.5t-179 -219.5h-96q65 170 218 275t359 105q238 0 362 -155.5t78 -417.5q-31 -174 -124 -304t-226.5 -197.5t-290.5 -67.5q-121 0 -214 41t-145 110t-71 157t-2 185zM191 315.5q17 -85.5 70 -141.5 t126 -83.5t160 -27.5q117 0 222.5 48.5t188.5 154t113 252.5h-874q-23 -117 -6 -202.5z" />
<glyph unicode="&#x2bc;" horiz-adv-x="352" d="M154 1018l188 420h117l-234 -420h-71z" />
<glyph unicode="&#x2c6;" horiz-adv-x="657" d="M188 1257l13 78l295 168l231 -168l-12 -78l-234 168z" />
<glyph unicode="&#x2c7;" horiz-adv-x="657" d="M215 1419l14 78l236 -168l293 168l-15 -78l-292 -168z" />
<glyph unicode="&#x2c9;" horiz-adv-x="794" d="M203 1337l12 72h664l-13 -72h-663z" />
<glyph unicode="&#x2d8;" horiz-adv-x="649" d="M227 1489l4 18h66q-14 -84 27 -129t135 -45q96 0 153.5 45t71.5 129h66l-2 -18q-16 -96 -95.5 -164t-206.5 -68q-125 0 -179.5 68t-39.5 164z" />
<glyph unicode="&#x2d9;" horiz-adv-x="307" d="M215 1358q6 32 33.5 55t58.5 23q32 0 51 -23t13 -55t-32.5 -55t-57.5 -23q-32 0 -52 23t-14 55z" />
<glyph unicode="&#x2da;" horiz-adv-x="520" d="M221 1448q17 90 82.5 143.5t147.5 53.5q84 0 130 -53.5t29 -143.5q-15 -89 -80 -142t-149 -53q-81 0 -128 53.5t-32 141.5zM283 1450q-10 -62 20.5 -99.5t87.5 -37.5q58 0 103 37.5t55 99.5q12 62 -19.5 98.5t-91.5 36.5q-57 0 -100 -36.5t-55 -98.5z" />
<glyph unicode="&#x2db;" horiz-adv-x="522" d="M-57 -231q23 139 235 229l135 57l21 -55l-146 -63q-146 -62 -163 -160q-10 -53 21 -81t91 -28q58 0 137 27l-12 -70q-76 -26 -143 -26q-90 0 -141 43t-35 127z" />
<glyph unicode="&#x2dc;" horiz-adv-x="659" d="M184 1239q23 77 71.5 120.5t109.5 43.5q35 0 64 -15.5t45.5 -34.5t42 -34.5t56.5 -15.5q34 0 64 24.5t43 69.5h61q-20 -73 -70 -117.5t-112 -44.5q-30 0 -55 10.5t-42 25t-33.5 29t-36.5 25t-44 10.5q-73 0 -102 -96h-62z" />
<glyph unicode="&#x2dd;" horiz-adv-x="620" d="M182 1231l172 250h88l-190 -250h-70zM440 1231l189 250h86l-205 -250h-70z" />
<glyph unicode="&#x3c0;" horiz-adv-x="1468" d="M186 0l183 1036h-172l14 76h1237l-14 -76h-172l-185 -1036h-90l182 1036h-708l-182 -1036h-93z" />
<glyph unicode="&#x901;" horiz-adv-x="0" d="M-442 2003h69q-7 -46 3.5 -89.5t39 -81t84 -60.5t131.5 -23t140.5 23t107 60.5t69 81.5t34.5 89h69q-11 -60 -42.5 -115.5t-81.5 -102t-127 -74.5t-169 -28t-162 28t-108 74.5t-53 102.5t-4 115zM-119 2066q5 28 25.5 46t48.5 18t42.5 -18t8.5 -46q-5 -26 -25.5 -43.5 t-48.5 -17.5q-27 0 -41.5 17t-9.5 44z" />
<glyph unicode="&#x902;" horiz-adv-x="0" d="M-172 1808q4 31 28.5 51.5t55.5 20.5q32 0 49 -20.5t12 -51.5q-4 -30 -28.5 -50.5t-55.5 -20.5t-48 20t-13 51z" />
<glyph unicode="&#x903;" horiz-adv-x="417" d="M80 397q6 31 30 51.5t56 20.5q31 0 48 -20.5t11 -51.5q-4 -30 -28.5 -50.5t-55.5 -20.5q-32 0 -49 20t-12 51zM193 1036q5 31 29.5 51.5t56.5 20.5q31 0 47.5 -20.5t11.5 -51.5q-6 -32 -29.5 -52.5t-54.5 -20.5q-32 0 -49.5 20.5t-11.5 52.5z" />
<glyph unicode="&#x905;" horiz-adv-x="1679" d="M121 508h80q-26 -147 57.5 -239.5t237.5 -92.5t261 89t132 233q9 37 6 74.5t-12 73t-32.5 66.5t-56 53.5t-82 36t-110.5 13.5h-74l13 72h73q154 0 251 83t116 193q24 138 -53 218.5t-211 80.5q-141 0 -250.5 -79.5t-130.5 -211.5h-80q30 167 163 265t312 98 q170 0 263.5 -98t66.5 -260q-23 -123 -107 -210t-221 -112v-2q57 -8 105 -35h526l123 699h391l-12 -72h-310l-256 -1444h-81l131 748l-435 2q77 -103 52 -256q-31 -177 -162.5 -284.5t-317.5 -107.5q-189 0 -293.5 113t-72.5 293z" />
<glyph unicode="&#x906;" horiz-adv-x="2248" d="M121 508h80q-26 -147 57.5 -239.5t237.5 -92.5t261 89t132 233q9 37 6 74.5t-12 73t-32.5 66.5t-56 53.5t-82 36t-110.5 13.5h-74l13 72h73q154 0 251 83t116 193q24 138 -53 218.5t-211 80.5q-141 0 -250.5 -79.5t-130.5 -211.5h-80q30 167 163 265t312 98 q170 0 263.5 -98t66.5 -260q-23 -123 -107 -210t-221 -112v-2q57 -8 105 -35h526l123 699h960l-12 -72h-309l-254 -1444h-84l254 1444h-486l-256 -1444h-81l131 748l-435 2q77 -103 52 -256q-31 -177 -162.5 -284.5t-317.5 -107.5q-189 0 -293.5 113t-72.5 293z" />
<glyph unicode="&#x907;" horiz-adv-x="1193" d="M43 1444l10 72h1377l-13 -72h-336l-55 -301h2l-12 -66h-352q-60 0 -112 -9t-105.5 -31t-90 -67t-47.5 -110q-20 -109 50 -160t192 -51h92q65 0 120.5 -10.5t107.5 -35t83.5 -64t47 -98t-0.5 -136.5q-27 -143 -137.5 -235.5t-294.5 -92.5q-76 1 -138.5 19t-101.5 45 t-66.5 60.5t-40 62t-15.5 53.5l-64 -364h-77l90 520h73q-8 -145 77.5 -236.5t258.5 -91.5q150 0 243.5 76t113.5 188q11 63 -1 112.5t-40 80t-71.5 50t-90.5 27t-101 7.5h-98q-70 0 -127.5 16.5t-100 49.5t-60.5 87.5t-5 124.5q13 78 55.5 134.5t103.5 87t126 44t137 13.5 h297l55 301h-958z" />
<glyph unicode="&#x908;" horiz-adv-x="1189" d="M43 1444l10 72h961l28 163q31 175 125 271t244 96q134 0 197.5 -84.5t38.5 -218.5h-74q18 101 -29 165t-145 64q-114 0 -185 -74.5t-94 -220.5l-26 -161h336l-11 -72h-336l-61 -340h-2l-4 -27h-352q-60 0 -112 -9t-105.5 -31t-90 -67t-47.5 -110q-20 -109 50 -160 t192 -51h92q65 0 120.5 -10.5t107.5 -35t83.5 -64t47 -98t-0.5 -136.5q-27 -143 -137.5 -235.5t-294.5 -92.5q-76 1 -138.5 19t-101.5 45t-66.5 60.5t-40 62t-15.5 53.5l-64 -364h-77l90 520h73q-8 -145 77.5 -236.5t258.5 -91.5q150 0 243.5 76t113.5 188q11 63 -1 112.5 t-40 80t-71.5 50t-90.5 27t-101 7.5h-98q-70 0 -127.5 16.5t-100 49.5t-60.5 87.5t-5 124.5q13 78 55.5 134.5t103.5 87t126 44t137 13.5h297l55 301h-958z" />
<glyph unicode="&#x909;" horiz-adv-x="1189" d="M55 1444l13 72h1321l-15 -72h-289l-45 -264q-23 -125 -108.5 -212.5t-196.5 -105.5l-2 -2q142 -27 207.5 -143.5t38.5 -272.5q-34 -195 -174.5 -317.5t-343.5 -122.5q-205 0 -318.5 128t-79.5 319h80q-28 -157 67.5 -264t262.5 -107q164 0 281 103t147 266q9 43 6 86.5 t-12.5 85t-35 77.5t-60.5 63t-89 42.5t-120 15.5h-78l12 76h72q154 0 248.5 83.5t116.5 209.5l45 256h-951z" />
<glyph unicode="&#x90a;" horiz-adv-x="1785" d="M55 1444l13 72h1917l-13 -72h-887l-45 -264q-23 -125 -108.5 -212.5t-196.5 -105.5v-2h457q98 0 176.5 -22t137 -68t82 -126t5.5 -187q-18 -103 -64 -180.5t-110.5 -122.5t-138 -66.5t-156.5 -21.5q-1 0 -82 6l13 65q54 -4 71 -4q69 0 129.5 17.5t113.5 54.5t90.5 101.5 t53.5 152.5q16 90 -3.5 156t-69 103.5t-113.5 55t-145 17.5h-305q67 -58 93 -150.5t7 -200.5q-33 -192 -173 -314t-343 -122q-205 0 -318.5 128t-79.5 319h80q-28 -157 67.5 -264t262.5 -107q164 0 281 103t147 266q9 43 6 86.5t-12.5 85t-35 77.5t-60.5 63t-89 42.5 t-120 15.5h-78l12 76h72q154 0 248.5 83.5t116.5 209.5l45 256h-951z" />
<glyph unicode="&#x90b;" horiz-adv-x="2056" d="M55 1444l13 72h2187l-14 -72h-996l-98 -563h407q175 0 220 141l32 184h76l-129 -729h-29q-130 0 -216.5 -73.5t-106.5 -184.5q-22 -128 44 -190t185 -62q47 0 121 19l-14 -70q-49 -18 -127 -18q-149 0 -233.5 81t-55.5 236q24 131 123 219.5t246 100.5l59 344 q-84 -68 -217 -68h-397l-144 -811h-78l123 698l-786 -698h-98l2 10l897 781q9 146 -78.5 240.5t-245.5 94.5q-186 0 -324.5 -118.5t-173.5 -319.5h-84q42 232 203 371t373 139q145 0 236.5 -65.5t123.5 -178.5l86 490h-1112z" />
<glyph unicode="&#x90c;" horiz-adv-x="1837" d="M53 1444l13 72h1968l-15 -72h-569l-55 -309q157 -17 226 -141t38 -314q-19 -116 -70 -205h-16q-135 0 -222.5 -73t-107.5 -185q-23 -128 44 -190t186 -62q55 0 120 21l-12 -70q-62 -20 -129 -20q-71 0 -129 19t-100 57t-59 100.5t-3 142.5q24 129 124.5 218.5t244.5 98.5 q34 76 45 148q31 166 -31 273.5t-211 107.5q-161 0 -269 -121.5t-136 -329.5l-4 -24h-72l2 24q58 451 -227 451q-159 0 -263 -106t-133 -275q-33 -187 46.5 -301.5t265.5 -114.5q15 0 65 4l-14 -75q-37 -3 -70 -3q-113 0 -196 37.5t-126.5 103t-59.5 155t5 194.5 q36 207 163 332t315 125q64 0 116 -20.5t84.5 -53.5t54 -77t30.5 -89.5t8 -93.5h4q22 59 53.5 111.5t78 102t113.5 81t146 37.5l55 309h-1315z" />
<glyph unicode="&#x90d;" horiz-adv-x="1333" d="M4 1444l12 72h1465l-13 -72h-258l-49 -281q-40 -228 -147.5 -323t-311.5 -78l13 74q163 -12 247.5 65t116.5 264l49 279h-743l-156 -879q-40 -210 47 -331t287 -121q177 0 286 103t142 294h80q-37 -224 -170 -347.5t-348 -123.5q-242 0 -346 142.5t-60 383.5l154 879 h-297zM476.5 1964.5q-3.5 45.5 2.5 91.5h74q-8 -46 2.5 -89t38.5 -80.5t83.5 -60t131.5 -22.5q145 0 236 76.5t108 175.5h72q-10 -59 -41.5 -114.5t-83.5 -102t-130.5 -74.5t-172.5 -28q-76 0 -136.5 18.5t-96.5 50t-60 72.5t-27.5 86.5z" />
<glyph unicode="&#x90f;" horiz-adv-x="1331" d="M53 1444l13 72h1464l-12 -72h-258l-50 -281q-40 -228 -147 -323t-311 -78l12 74q163 -12 247.5 65t116.5 264l50 279h-744l-155 -879q-40 -210 46.5 -331t286.5 -121q177 0 286 103t142 294h80q-37 -224 -170 -347.5t-348 -123.5q-242 0 -345.5 142.5t-59.5 383.5 l153 879h-297z" />
<glyph unicode="&#x910;" horiz-adv-x="1331" d="M53 1444l13 72h1120q-43 95 -78.5 160.5t-71.5 111t-65.5 70.5t-72 38.5t-78.5 17t-95 3.5h-72l13 70h71q59 0 96 -3t80.5 -12.5t74 -29.5t66 -53t67.5 -84.5t68.5 -122t78.5 -166.5h262l-12 -72h-258l-50 -281q-40 -228 -147 -323t-311 -78l12 74q163 -12 247.5 65 t116.5 264l50 279h-744l-155 -879q-40 -210 46.5 -331t286.5 -121q177 0 286 103t142 294h80q-37 -224 -170 -347.5t-348 -123.5q-242 0 -345.5 142.5t-59.5 383.5l153 879h-297z" />
<glyph unicode="&#x911;" horiz-adv-x="2248" d="M121 508h80q-26 -147 57.5 -239.5t237.5 -92.5t261 89t132 233q9 37 6 74.5t-12 73t-32.5 66.5t-56 53.5t-82 36t-110.5 13.5h-74l13 72h73q154 0 251 83t116 193q24 138 -53 218.5t-211 80.5q-141 0 -250.5 -79.5t-130.5 -211.5h-80q30 167 163 265t312 98 q170 0 263.5 -98t66.5 -260q-23 -123 -107 -210t-221 -112v-2q57 -8 105 -35h526l123 699h960l-12 -72h-309l-254 -1444h-84l254 1444h-486l-256 -1444h-81l131 748l-435 2q77 -103 52 -256q-31 -177 -162.5 -284.5t-317.5 -107.5q-189 0 -293.5 113t-72.5 293z M1698.5 1964.5q-4.5 45.5 1.5 91.5h74q-8 -46 2 -89t38 -80.5t84 -60t132 -22.5q145 0 236 76.5t108 175.5h73q-11 -60 -41.5 -114.5t-80.5 -101.5t-127 -75t-170 -28q-76 0 -137.5 18.5t-99 50t-63 72.5t-30 86.5z" />
<glyph unicode="&#x913;" horiz-adv-x="2248" d="M121 508h80q-26 -147 57.5 -239.5t237.5 -92.5t261 89t132 233q9 37 6 74.5t-12 73t-32.5 66.5t-56 53.5t-82 36t-110.5 13.5h-74l13 72h73q154 0 251 83t116 193q24 138 -53 218.5t-211 80.5q-141 0 -250.5 -79.5t-130.5 -211.5h-80q30 167 163 265t312 98 q170 0 263.5 -98t66.5 -260q-23 -123 -107 -210t-221 -112v-2q57 -8 105 -35h526l123 699h719q-45 96 -80.5 161t-71.5 110.5t-65.5 70.5t-71 38.5t-77.5 17t-95 3.5h-74l12 70h72q52 0 85.5 -2t73 -9t66 -20.5t59 -37t58.5 -57.5t57.5 -83.5t63 -113t68.5 -148.5h161 l-12 -72h-309l-254 -1444h-84l254 1444h-486l-256 -1444h-81l131 748l-435 2q77 -103 52 -256q-31 -177 -162.5 -284.5t-317.5 -107.5q-189 0 -293.5 113t-72.5 293z" />
<glyph unicode="&#x914;" horiz-adv-x="2248" d="M121 508h80q-26 -147 57.5 -239.5t237.5 -92.5t261 89t132 233q9 37 6 74.5t-12 73t-32.5 66.5t-56 53.5t-82 36t-110.5 13.5h-74l13 72h73q154 0 251 83t116 193q24 138 -53 218.5t-211 80.5q-141 0 -250.5 -79.5t-130.5 -211.5h-80q30 167 163 265t312 98 q170 0 263.5 -98t66.5 -260q-23 -123 -107 -210t-221 -112v-2q57 -8 105 -35h526l123 699h725q-64 65 -113 105.5t-89.5 65.5t-90 36.5t-91.5 14.5t-116 3h-74l11 59h73q74 0 113.5 -2.5t90 -12.5t88 -31.5t85 -59.5t103.5 -97q-25 70 -48.5 125t-44.5 98.5t-44 76t-42 55.5 t-44 38.5t-45.5 24.5t-51 13.5t-55 6t-62.5 1.5h-73l8 61h74q42 0 68.5 -1t59.5 -6t55 -13.5t49 -24t46.5 -37.5t43.5 -54t44.5 -73.5t45.5 -97t49.5 -123t52.5 -151.5h159l-12 -72h-309l-254 -1444h-84l254 1444h-486l-256 -1444h-81l131 748l-435 2q77 -103 52 -256 q-31 -177 -162.5 -284.5t-317.5 -107.5q-189 0 -293.5 113t-72.5 293z" />
<glyph unicode="&#x915;" horiz-adv-x="2072" d="M55 1444l13 72h2203l-14 -72h-1051l-92 -526q64 117 172.5 188.5t257.5 71.5q185 0 289.5 -128.5t67.5 -336.5q-39 -219 -181.5 -345t-333.5 -126q-58 0 -116 12l12 70q53 -11 102 -11q156 0 279 108t156 294q30 177 -57 284t-242 107q-92 0 -170 -33.5t-131 -89 t-87.5 -120t-50.5 -134.5l-129 -729h-78l87 496q-63 -113 -176 -184.5t-263 -71.5q-194 0 -299.5 129t-66.5 346q25 140 102.5 246.5t187 161.5t234.5 55q152 0 240.5 -72.5t113.5 -187.5l92 526h-1071zM240 715q-33 -188 55 -296t252 -108q96 0 178 35.5t135 93t87 121.5 t48 129l6 41q9 69 -3 132.5t-45.5 119.5t-101.5 89.5t-163 33.5q-159 0 -288 -107t-160 -284z" />
<glyph unicode="&#x916;" horiz-adv-x="1880" d="M55 1444l13 72h2011l-15 -72h-309l-254 -1444h-82l94 530q-58 -98 -157.5 -159.5t-229.5 -61.5q-32 0 -86 8q-80 -139 -212 -229t-298 -90q-214 0 -320.5 123.5t-70.5 337.5l64 352h82q303 0 360 332l53 301h-643zM221 453q-31 -173 57 -277t269 -104q135 0 248.5 76.5 t177.5 191.5q-104 46 -154 150.5t-26 248.5q32 185 164 295.5t305 108.5q137 0 216 -61.5t103 -159.5l92 522h-893l-53 -309q-69 -390 -430 -390h-25zM866 733q-28 -165 54.5 -260.5t230.5 -95.5q69 0 129.5 21.5t104.5 56.5t78.5 81t54.5 93.5t28 95.5q9 40 6 81.5 t-12 80.5t-32 73t-55 59.5t-80.5 40.5t-108.5 15q-144 0 -257 -92.5t-141 -249.5z" />
<glyph unicode="&#x917;" horiz-adv-x="1443" d="M55 1444l13 72h1574l-12 -72h-311l-252 -1444h-84l254 1444h-426l-106 -606q-24 -138 -108 -226t-230 -88q-141 0 -203 88t-39 219l12 62h82l-12 -64q-10 -42 -4.5 -83.5t21.5 -74.5t54.5 -54t94.5 -21q111 0 171 69t77 171l106 608h-672z" />
<glyph unicode="&#x918;" horiz-adv-x="1468" d="M55 1444l13 72h1599l-12 -72h-309l-254 -1444h-82l92 522q-84 -135 -227.5 -214t-311.5 -79q-207 0 -319.5 98t-81.5 277q25 136 127.5 222t232.5 100v4q-115 15 -174 93.5t-33 229.5l35 191h-295zM246 610q-18 -102 23 -173t123.5 -103.5t197.5 -32.5q198 0 356 124 t193 316l123 703h-828l-35 -189q-25 -145 42.5 -218.5t240.5 -73.5h106l-12 -70h-110q-186 0 -291.5 -78.5t-128.5 -204.5z" />
<glyph unicode="&#x919;" horiz-adv-x="1302" d="M57 1444l13 72h1431l-12 -72h-416l-59 -328l-6 -39h-353q-310 0 -352 -215q-10 -58 5.5 -100.5t51 -66.5t81.5 -35t102 -11h90q64 0 121.5 -11t107.5 -37t83.5 -64t47 -96.5t0.5 -131.5q-28 -148 -150 -240t-321 -92q-228 0 -339 113t-81 283h82q-25 -143 62.5 -235.5 t283.5 -92.5q158 0 260 75.5t123 190.5q13 77 -7.5 133t-67.5 85.5t-103 43t-125 13.5h-88q-67 0 -125 16t-103 48t-65.5 87t-7.5 127q11 63 41.5 112t71 79.5t92.5 50.5t103.5 27.5t107.5 7.5h299l55 303h-934zM1124 834q4 30 27.5 49.5t54.5 19.5t47 -19t11 -50 q-6 -29 -29.5 -48.5t-52.5 -19.5q-31 0 -47.5 19.5t-10.5 48.5z" />
<glyph unicode="&#x91a;" horiz-adv-x="1482" d="M55 1444l13 72h1613l-14 -72h-307l-254 -1444h-84l84 481q-72 -115 -195.5 -185.5t-263.5 -70.5q-186 0 -294 114.5t-74 305.5q23 133 106 233t209 150h-447l13 70h737l-14 -70h-64q-180 0 -305.5 -106t-155.5 -267q-15 -84 3.5 -153t63 -113t108.5 -68t141 -24 q170 0 303.5 114.5t165.5 272.5l133 760h-1221z" />
<glyph unicode="&#x91b;" horiz-adv-x="1658" d="M51 1444l10 72h1797l-11 -72h-485l-53 -305q134 -13 205.5 -120.5t39.5 -299.5q-36 -202 -161 -352t-308.5 -227t-402.5 -77q-136 0 -248.5 30t-190 86t-111.5 142t-15 193q18 102 75.5 178.5t135 117t168.5 50.5v4q-113 15 -172.5 94.5t-32.5 229.5l47 256h-287z M199 516q-16 -92 14.5 -165t99 -119.5t165.5 -70.5t216 -24q193 0 359 69.5t279.5 203t144.5 309.5q31 172 -37.5 264t-182.5 92q-48 0 -95 -14.5t-92.5 -45.5t-80 -88t-47.5 -132q-17 -87 2 -209h-74q-18 113 0 215q29 161 130.5 244.5t230.5 93.5l53 305h-864l-45 -252 q-25 -146 40 -219.5t238 -73.5h47l-10 -72h-47q-191 0 -305 -87.5t-139 -223.5z" />
<glyph unicode="&#x91c;" horiz-adv-x="1697" d="M55 1444l13 72h1828l-12 -72h-309l-254 -1444h-84l170 963h-475l-49 -273q-32 -173 -146.5 -279.5t-283.5 -105.5q-103 1 -174.5 51.5t-99.5 138t-9 197.5l61 344h82l-59 -346q-25 -138 32.5 -224.5t180.5 -86.5q127 0 218 86.5t116 224.5l61 346h559l72 408h-1438z" />
<glyph unicode="&#x91d;" horiz-adv-x="1728" d="M70 1444l12 72h1845l-12 -72h-309l-256 -1444h-82l104 584l-498 2q74 -38 109 -110t16 -173q-25 -134 -131 -220.5t-284 -86.5q-73 0 -135 17.5t-100 42t-66.5 56t-41.5 55.5t-18 44l-65 -361h-80l92 502h74q-3 -124 81 -207.5t255 -83.5q149 0 236 70.5t106 177.5 q23 130 -54.5 203.5t-246.5 73.5h-99q-71 0 -129 16.5t-100.5 49t-60.5 87t-5 125.5q13 78 55.5 135t103.5 87t126 43.5t137 13.5h297l55 301h-931zM309 860q-20 -109 50 -160t192 -51h831l142 795h-443l-55 -301h2l-12 -66h-352q-45 0 -86 -5t-87.5 -19.5t-82 -37.5 t-63 -63t-36.5 -92z" />
<glyph unicode="&#x91e;" horiz-adv-x="1628" d="M55 1444l13 72h1759l-12 -72h-312l-252 -1444h-84l119 672h-248q-20 -90 -64.5 -169.5t-109.5 -142t-156.5 -99t-197.5 -36.5q-98 0 -173 29t-119 78t-66.5 105t-24.5 118h80q4 -48 22.5 -91.5t54 -81.5t95.5 -60.5t139 -22.5q92 0 171.5 32.5t135 89t92 129t50.5 155.5 q19 108 -5 196.5t-101 145.5t-199 57q-80 0 -149.5 -23.5t-118.5 -62.5t-82.5 -82t-53.5 -90h-80q22 64 63.5 121.5t102 105.5t146 76.5t184.5 28.5q105 0 184.5 -35.5t123 -97t61.5 -138t8 -162.5h247l123 699h-1366z" />
<glyph unicode="&#x91f;" horiz-adv-x="1327" d="M45 1444l14 72h1467l-13 -72h-481l-65 -357h-162q-109 0 -205.5 -28.5t-176.5 -83.5t-135 -144.5t-75 -203.5q-35 -191 74.5 -315t308.5 -124t341.5 127t176.5 328h80q-40 -237 -204.5 -382.5t-405.5 -145.5q-113 0 -207 38.5t-155.5 105.5t-87 164t-5.5 208 q24 133 87 235t154.5 165.5t203 95.5t239.5 32h86l51 285h-905z" />
<glyph unicode="&#x920;" horiz-adv-x="1380" d="M45 1444l12 72h1522l-12 -72h-721l-55 -307q136 -9 236 -76.5t145.5 -184t19.5 -258.5q-41 -223 -215 -362t-404 -139q-225 0 -353 147.5t-89 372.5q39 216 200.5 352.5t377.5 147.5l55 307h-719zM215 635q-35 -190 71 -317.5t298 -127.5q190 0 340.5 121.5t185.5 309.5 q34 192 -71 318t-300 126q-191 0 -341 -120t-183 -310z" />
<glyph unicode="&#x921;" horiz-adv-x="1187" d="M57 1444l13 72h1316l-12 -72h-317l-66 -367h-336q-310 0 -352 -215q-10 -58 5.5 -100.5t51 -66.5t81.5 -35t102 -11h90q64 0 121.5 -11t107.5 -37t83.5 -64t47 -96.5t0.5 -131.5q-28 -148 -150 -240t-321 -92q-228 0 -339 113t-81 283h82q-25 -143 62.5 -235.5 t283.5 -92.5q158 0 260 75.5t123 190.5q13 77 -7.5 133t-67.5 85.5t-103 43t-125 13.5h-88q-67 0 -125 16t-103 48t-65.5 87t-7.5 127q11 63 41.5 112t71 79.5t92.5 50.5t103.5 27.5t107.5 7.5h285l55 303h-920z" />
<glyph unicode="&#x922;" horiz-adv-x="1292" d="M51 1444l12 72h1428l-12 -72h-404l-61 -346h-168q-115 0 -218 -31.5t-188.5 -92.5t-145 -158.5t-81.5 -221.5q-38 -217 81 -354.5t343 -137.5q170 0 295 91.5t151 232.5q20 116 -39.5 191t-173.5 75q-102 0 -179.5 -62t-92.5 -165q-4 -24 -4 -43h-66q0 21 4 53 q23 130 121 206.5t232 76.5q140 0 218.5 -94t53.5 -238q-31 -173 -176.5 -281t-353.5 -108q-166 0 -288.5 70t-178.5 198.5t-27 292.5q25 141 91.5 251t162 177.5t210.5 102t243 34.5h106l49 281h-944z" />
<glyph unicode="&#x923;" horiz-adv-x="1705" d="M55 1444l13 72h1837l-15 -72h-309l-254 -1444h-82l254 1444h-473l-113 -639q-30 -172 -138 -277.5t-271 -105.5q-165 0 -247 107t-50 276l112 639h-264zM287 799q-24 -135 35.5 -220t183.5 -85q127 0 214 84.5t111 220.5l113 645h-543z" />
<glyph unicode="&#x924;" horiz-adv-x="1404" d="M55 1444l13 72h1536l-15 -72h-309l-254 -1444h-82l168 952h-326q-237 0 -390.5 -109.5t-192.5 -328.5q-37 -211 62 -325.5t319 -114.5h47l-13 -70h-51q-243 0 -366.5 134.5t-81.5 377.5q46 256 225 383t451 127h329l74 418h-1143z" />
<glyph unicode="&#x925;" horiz-adv-x="1533" d="M188 766q5 23 21 86h213q56 0 106.5 5.5t105.5 19t101.5 38t86 59.5t67.5 87.5t39 118.5q22 121 -38.5 200.5t-189.5 79.5q-159 0 -252.5 -109.5t-91.5 -279.5h-77q2 202 119.5 332.5t310.5 130.5q163 0 245 -101.5t54 -254.5q-19 -107 -73.5 -185t-134.5 -122 t-170.5 -64.5t-195.5 -20.5h-160q-47 -225 61 -358t339 -133q123 0 235 54t190.5 154t100.5 226l139 787h394l-13 -72h-309l-256 -1444h-82l92 516q-54 -113 -193 -203t-319 -90q-253 0 -381 149t-84 394z" />
<glyph unicode="&#x926;" horiz-adv-x="1245" d="M55 1444l13 72h1376l-12 -72h-330l-60 -334h-266q-96 0 -183.5 -24.5t-160.5 -72.5t-123.5 -125.5t-68.5 -176.5q-31 -178 58.5 -289t264.5 -111q48 0 98 11.5t101 37.5t93.5 63t74 94t43.5 126h76l-115 -655h-82l80 456q-55 -91 -162 -146.5t-233 -55.5q-201 0 -309 131 t-72 340q21 121 80.5 213t145 147.5t186.5 83t214 27.5h191l45 260h-963z" />
<glyph unicode="&#x927;" horiz-adv-x="1433" d="M166 578q25 131 114 205.5t197 86.5v7q-110 22 -172.5 107t-36.5 226q24 142 129 233t254 91q162 0 233 -102.5t25 -270.5h-69q38 139 -15.5 220t-181.5 81q-114 0 -198.5 -75t-102.5 -185q-25 -133 48.5 -212t234.5 -79h120l-12 -69h-110q-160 0 -256.5 -72.5 t-116.5 -185.5q-22 -136 68 -211.5t245 -75.5q197 0 353.5 127.5t191.5 325.5l123 694l10 72h393l-12 -72h-309l-254 -1444h-84l92 520q-80 -136 -220.5 -215.5t-309.5 -79.5q-117 0 -207.5 40.5t-137 122t-26.5 190.5z" />
<glyph unicode="&#x928;" horiz-adv-x="1576" d="M55 1444l13 72h1708l-13 -72h-309l-254 -1444h-82l172 971h-508q68 -42 101 -122.5t14 -184.5q-28 -163 -151.5 -265t-288.5 -102q-171 0 -264 105.5t-64 267.5q29 171 157 271.5t312 100.5h705l69 402h-1317zM207 666q-25 -131 48 -214t214 -83q132 0 232.5 86.5 t125.5 214.5q25 131 -47.5 215t-206.5 84q-139 0 -240 -83.5t-126 -219.5z" />
<glyph unicode="&#x92a;" horiz-adv-x="1314" d="M55 1444l13 72h1445l-12 -72h-311l-252 -1444h-84l117 662q-63 -100 -165 -156.5t-231 -56.5q-206 0 -298 132t-52 361l90 502h-260zM307 942q-34 -199 39.5 -310.5t249.5 -111.5q155 0 264 93t144 235l104 596h-711z" />
<glyph unicode="&#x92b;" horiz-adv-x="2019" d="M55 1444l13 72h2150l-14 -72h-1053l-94 -533q64 118 176 192.5t264 74.5q90 0 163 -32.5t121.5 -91.5t67 -146t0.5 -191q-39 -220 -182.5 -347.5t-331.5 -127.5q-70 0 -121 14l13 68q57 -11 106 -11q158 0 278.5 107.5t153.5 294.5q31 177 -56 284t-243 107 q-97 0 -178 -37t-134.5 -98t-87 -131t-46.5 -144l-123 -696h-82l117 666q-62 -101 -160.5 -159t-222.5 -58q-199 0 -281.5 130t-42.5 361l90 504h-260zM307 940q-35 -201 30.5 -310.5t237.5 -109.5q155 0 261.5 105t134.5 260l98 559h-672z" />
<glyph unicode="&#x92c;" horiz-adv-x="1413" d="M55 1444l13 72h1544l-15 -72h-309l-254 -1444h-80l88 496q-68 -119 -190.5 -195t-282.5 -76q-101 0 -185.5 34t-142 95.5t-81 153.5t-4.5 201q25 148 108.5 260t203 169.5t257.5 57.5q164 0 263.5 -78t127.5 -200l92 526h-1153zM229 707q-16 -96 4.5 -175.5t70.5 -131.5 t123 -80.5t161 -28.5q183 0 315 112l-526 588q-119 -116 -148 -284zM414 1024l526 -586q57 58 93.5 130.5t47.5 142.5q11 50 7 100.5t-17 97.5t-43 88.5t-69.5 72t-98.5 48t-129 17.5q-178 0 -317 -111z" />
<glyph unicode="&#x92d;" horiz-adv-x="1556" d="M150 586q27 153 141.5 242.5t273.5 89.5h230l39 215q27 156 -15.5 241.5t-161.5 85.5q-102 0 -177.5 -70t-98.5 -192q-6 -40 -6 -86h-82q0 44 6 88q26 153 125.5 243.5t239.5 90.5q159 0 219.5 -108.5t27.5 -301.5l-37 -206h383l105 598h393l-10 -72h-309l-256 -1444h-84 l149 848h-383l-35 -195q-33 -196 -135 -297.5t-258 -101.5q-152 0 -231 91.5t-53 240.5zM227 586q-21 -117 40 -188.5t173 -71.5q118 0 200 84.5t108 238.5l34 199h-225q-126 0 -217 -71.5t-113 -190.5z" />
<glyph unicode="&#x92e;" horiz-adv-x="1542" d="M55 1444l13 72h1673l-12 -72h-310l-254 -1444h-84l150 848h-440l-35 -195q-33 -196 -135.5 -297.5t-258.5 -101.5q-151 0 -230.5 92.5t-53.5 239.5q26 153 141 242.5t275 89.5h231l92 526h-762zM156 586q-21 -117 40 -188.5t173 -71.5q119 0 199.5 84t109.5 239l35 199 h-230q-125 0 -215 -71.5t-112 -190.5zM803 918h440l92 526h-440z" />
<glyph unicode="&#x92f;" horiz-adv-x="1486" d="M55 1444l13 72h1618l-13 -72h-311l-252 -1444h-84l92 524q-70 -112 -198 -186t-299 -74q-251 0 -373.5 158t-75.5 420q2 15 18 80h35q90 0 161 16t135.5 53.5t108.5 109.5t62 175l29 168h-666zM252 836q-43 -232 63.5 -366t327.5 -134q190 0 337 117.5t179 306.5v-6 l121 690h-477l-31 -178q-20 -111 -66 -190t-115 -124t-150 -65.5t-183 -20.5q-3 -18 -6 -30z" />
<glyph unicode="&#x930;" horiz-adv-x="1103" d="M57 1444l13 72h1233l-15 -72h-284l-41 -246q-41 -227 -177.5 -342t-353.5 -115h-158l-57 -325q-31 -162 33.5 -261.5t212.5 -99.5q135 0 225 90t117 242l6 29h80q-4 -20 -4 -27q-31 -189 -143.5 -298t-284.5 -109q-188 0 -275.5 121.5t-48.5 318.5l68 389h221 q186 0 303 96.5t152 290.5l41 246h-863z" />
<glyph unicode="&#x931;" horiz-adv-x="1103" d="M23 -193q5 31 29.5 51.5t56.5 20.5q29 0 46 -20.5t13 -51.5q-4 -30 -28.5 -50.5t-55.5 -20.5t-48 20t-13 51zM57 1444l13 72h1233l-15 -72h-284l-41 -246q-41 -227 -177.5 -342t-353.5 -115h-158l-57 -325q-31 -162 33.5 -261.5t212.5 -99.5q135 0 225 90t117 242l6 29 h80q-4 -20 -4 -27q-31 -189 -143.5 -298t-284.5 -109q-188 0 -275.5 121.5t-48.5 318.5l68 389h221q186 0 303 96.5t152 290.5l41 246h-863z" />
<glyph unicode="&#x932;" horiz-adv-x="1822" d="M39 1444l12 72h1970l-12 -72h-567l-56 -311q155 -18 224.5 -145t36.5 -312q-38 -219 -180 -354t-365 -134q-16 0 -74 5l12 73q40 -4 62 -4q187 0 308 115.5t153 300.5q29 167 -32.5 275t-211.5 108q-158 0 -263 -121.5t-143 -331.5l-4 -22h-71l2 22q39 207 -20.5 330 t-213.5 123q-158 0 -259 -106t-130 -277q-34 -185 45.5 -300.5t267.5 -115.5q16 0 62 4l-14 -73q-50 -5 -60 -5q-113 0 -197.5 38t-130 104.5t-62.5 156t5 193.5q36 208 161 331.5t312 123.5q67 0 120 -20.5t86.5 -53t56 -77t31.5 -90t9 -93.5h4q22 59 53.5 111.5 t78.5 102.5t114 81.5t146 36.5l55 311h-1321z" />
<glyph unicode="&#x933;" horiz-adv-x="2066" d="M35 1444l12 72h2218l-14 -72h-627l-51 -289q172 -19 261 -143t56 -316q-34 -197 -183.5 -323.5t-346.5 -126.5q-165 0 -264 90t-107 223h-6q-54 -133 -182 -223t-293 -90q-198 0 -305 126.5t-72 323.5q36 208 185.5 335.5t345.5 127.5q88 0 157.5 -25.5t113 -70t69 -98 t34.5 -115.5h4q60 128 175.5 215.5t277.5 93.5l51 285h-1509zM213 696q-30 -167 58.5 -273t252.5 -106q167 0 290 106.5t153 272.5q31 173 -54 282t-254 109q-165 0 -290.5 -107.5t-155.5 -283.5zM1055 696q-31 -165 54 -272t253 -107q164 0 290.5 106t155.5 273 q30 177 -56.5 284t-252.5 107q-169 0 -291 -109t-153 -282z" />
<glyph unicode="&#x935;" horiz-adv-x="1390" d="M55 1444l13 72h1521l-14 -72h-309l-254 -1444h-80l86 496q-68 -116 -187.5 -188t-277.5 -72q-209 0 -322 131t-73 354q36 211 191 338t356 127q163 0 260 -72.5t129 -189.5l90 520h-1129zM238 715q-33 -190 62.5 -300t272.5 -110q105 0 193.5 37.5t146 98t93.5 128.5 t49 138q8 59 6.5 116.5t-26 110.5t-63 93.5t-105.5 64.5t-152 24q-171 0 -307.5 -109.5t-169.5 -291.5z" />
<glyph unicode="&#x936;" horiz-adv-x="1617" d="M152 428l59 338h309q182 0 316.5 93t164.5 263q27 155 -46.5 246.5t-213.5 91.5q-172 0 -277.5 -123.5t-105.5 -312.5h-84q3 225 135 367.5t339 142.5q178 0 273.5 -117t59.5 -307q-25 -134 -105 -229.5t-195 -141t-255 -45.5h-243l-47 -272q-30 -166 33.5 -266.5 t219.5 -100.5q142 0 241 98t124 263h82q-19 -126 -74 -222t-152 -154t-223 -58q-197 0 -284 121t-51 325zM1157 0l266 1516h394l-13 -72h-309l-254 -1444h-84z" />
<glyph unicode="&#x937;" horiz-adv-x="1318" d="M55 1444l13 72h1450l-13 -72h-309l-254 -1444h-82l117 662q-64 -102 -165.5 -160t-231.5 -58q-199 0 -297.5 135t-57.5 363l90 502h-260zM305 942q-35 -197 46.5 -310.5t252.5 -113.5q123 0 220.5 65.5t148.5 172.5l-592 614zM397 1444l602 -625q16 60 17 68l98 557h-717 z" />
<glyph unicode="&#x938;" horiz-adv-x="1667" d="M55 1444l13 72h1798l-13 -72h-311l-252 -1444h-84l137 774h-1067l-61 -356q-29 -165 35.5 -264t216.5 -99q142 0 231 98.5t113 258.5h80q-28 -192 -139 -311t-291 -119q-188 0 -275 122t-53 320l74 416h213q180 0 299 104.5t153 284.5l39 215h-856zM684 844h672l104 600 h-469l-39 -215q-26 -147 -98 -242.5t-170 -142.5z" />
<glyph unicode="&#x939;" horiz-adv-x="1220" d="M74 1444l12 72h1333l-12 -72h-305l-53 -295l-13 -66h-385q-56 0 -104.5 -10.5t-92 -33t-73 -63t-39.5 -95.5q-14 -85 31.5 -139.5t134.5 -77.5q58 12 125 12q97 0 172.5 -28.5t119 -75.5t66.5 -99.5t25 -107.5h-82q-3 42 -22 82.5t-54.5 77t-97 59t-139.5 22.5 q-89 0 -166.5 -30.5t-133 -82.5t-92 -118t-49.5 -139q-19 -102 7.5 -183.5t104.5 -132.5t200 -51q144 0 248.5 72t148.5 168h80q-22 -57 -63 -110.5t-100 -99.5t-142.5 -74t-178.5 -28q-145 0 -241 62t-130.5 161t-13.5 220q24 132 107.5 237.5t210.5 157.5 q-76 30 -124 94.5t-30 163.5q24 130 127 193t252 63h326l53 295h-948z" />
<glyph unicode="&#x93c;" horiz-adv-x="0" d="M-899 -94q4 31 29 51t57 20q29 0 46 -20t13 -51t-28.5 -51.5t-55.5 -20.5t-48.5 20.5t-12.5 51.5z" />
<glyph unicode="&#x93d;" horiz-adv-x="1155" d="M70 143l12 74h493q92 0 149.5 45.5t66.5 114.5q9 53 -12.5 108t-62.5 105t-92.5 101.5t-102.5 105.5t-91.5 109t-60 120t-7.5 131q14 80 64.5 131t115 69.5t146.5 18.5h387l-12 -71h-369q-43 0 -80.5 -7t-74 -24t-62 -49.5t-33.5 -77.5q-9 -55 12 -111.5t62 -107 t92.5 -102.5t102.5 -106t91 -108t60 -118t8 -127q-13 -95 -87.5 -159.5t-209.5 -64.5h-505z" />
<glyph unicode="&#x93e;" d="M55 1444l13 72h702l-12 -72h-309l-254 -1444h-84l254 1444h-310z" />
<glyph unicode="&#x93f;" d="M55 1444l13 72h309v4q18 113 78 199.5t141.5 138.5t189 84.5t209.5 44.5t215 12q109 0 208.5 -14.5t192.5 -49.5t156.5 -87.5t94 -135.5t12.5 -186l-6 -35h-84l6 35q16 93 -14 165t-89.5 115.5t-145 71.5t-169.5 38.5t-174 10.5q-676 0 -739 -407v-4h311l-12 -72h-309 l-256 -1444h-84l256 1444h-310z" />
<glyph unicode="&#x940;" horiz-adv-x="569" d="M-199 1493l21 111q15 84 45 153t77 124.5t117 86.5t158 31q89 0 149 -31t86 -84.5t32.5 -125.5t-11.5 -154l-16 -88h309l-10 -72h-309l-256 -1444h-82l254 1444h-310l11 72h313l16 92q14 62 10 119.5t-22 101.5t-63 71t-113 27q-239 0 -303 -319l-23 -115h-80z" />
<glyph unicode="&#x941;" horiz-adv-x="0" d="M-986.5 -345q-18.5 76 1.5 181h76q-18 -87 -4.5 -150t57 -104t105.5 -60.5t141 -19.5q141 0 236.5 66.5t115.5 187.5q16 87 -29.5 152t-140.5 65h-37l12 70h37q126 0 190 -86t44 -205q-26 -152 -141.5 -235.5t-294.5 -83.5q-92 0 -167 23.5t-129 73t-72.5 125.5z" />
<glyph unicode="&#x942;" horiz-adv-x="0" d="M-819 -266q23 141 131.5 224t269.5 83q216 0 328 -147.5t61 -395.5q-1 -6 -4 -20.5t-4 -20.5h-72l11 58q42 210 -51 334t-271 124q-131 0 -221 -66.5t-107 -174.5q-18 -100 41.5 -162t165.5 -62q28 0 68 7l-10 -68q-20 -4 -66 -4q-131 0 -212.5 80t-57.5 211z" />
<glyph unicode="&#x943;" horiz-adv-x="0" d="M-819 -266q24 138 133 222.5t276 84.5h39l-10 -64h-37q-131 0 -217 -67t-104 -176q-11 -62 4.5 -114t50 -85.5t82 -51.5t100.5 -18q72 0 146 21l-15 -68q-64 -22 -151 -22q-65 0 -124 23t-103 64.5t-63.5 107t-6.5 143.5z" />
<glyph unicode="&#x944;" horiz-adv-x="0" d="M-870 -623q16 86 76 140t137 69v6q-78 20 -115.5 73t-20.5 140q15 82 67 137t116 77t137 22h102l-10 -55h-82q-92 0 -162.5 -44t-87.5 -139q-16 -92 40 -136t159 -44h84l-12 -65h-90q-96 0 -168 -42t-88 -134q-18 -91 41.5 -139t162.5 -48q106 0 201 31l-12 -66 q-89 -34 -211 -34q-131 0 -209 65t-55 186z" />
<glyph unicode="&#x945;" horiz-adv-x="0" d="M-442 2003h73q-8 -46 2 -89t38 -80.5t84 -60t132 -22.5q145 0 236 76.5t108 175.5h74q-11 -60 -42 -114.5t-80.5 -102t-127 -75.5t-170.5 -28q-94 0 -164.5 28.5t-108 75t-51 102t-3.5 114.5z" />
<glyph unicode="&#x947;" horiz-adv-x="0" d="M-727 1917l12 70h72q46 0 76.5 -1.5t66 -6.5t60.5 -15.5t54 -27t52.5 -42t51 -60t53.5 -82.5t55.5 -107.5t62.5 -135.5h-79q-45 97 -80.5 163t-72 112.5t-66 72t-71 39.5t-77.5 17.5t-96 3.5h-74z" />
<glyph unicode="&#x948;" horiz-adv-x="0" d="M-766 1741l10 59h74q62 0 96 -1.5t78.5 -7.5t74 -18.5t68.5 -35.5t77 -57t85 -83q-29 79 -54 139t-50.5 106t-47.5 77.5t-49 53.5t-49.5 34.5t-55.5 19t-60 8t-70 1.5h-74l8 61h74q46 0 75.5 -1.5t65 -7.5t59.5 -18.5t52.5 -32.5t51 -51.5t48.5 -74t51 -101.5t53 -132.5 t60 -168.5h-71q-65 67 -115 108.5t-91 67.5t-90.5 37.5t-92.5 15t-117 3.5h-74z" />
<glyph unicode="&#x949;" d="M55 1444l13 72h702l-12 -72h-309l-254 -1444h-84l254 1444h-310zM131 2003h74q-8 -46 2 -89t38 -80.5t84 -60t132 -22.5q145 0 236 76.5t108 175.5h74q-11 -60 -42 -114.5t-80.5 -102t-127 -75.5t-170.5 -28q-94 0 -165 28.5t-108 75t-51 102t-4 114.5z" />
<glyph unicode="&#x94b;" d="M-158 1917l15 70h71q52 0 85 -2t72.5 -9t66 -20.5t59 -37t58.5 -57.5t57.5 -83.5t62.5 -113.5t68 -148h313l-12 -72h-309l-256 -1444h-82l254 1444h-310l13 72h309q-44 95 -79.5 160.5t-71.5 111t-65.5 70.5t-71.5 38.5t-78 17t-95 3.5h-74z" />
<glyph unicode="&#x94c;" d="M-244 1741l13 59h71q62 0 96 -1.5t78.5 -7.5t74 -18.5t68.5 -35.5t77 -57t85 -83q-29 79 -54 139t-50.5 106t-47.5 77.5t-49 53.5t-49.5 34.5t-55.5 19t-60 8t-70 1.5h-73l8 61h73q42 0 68.5 -1t59.5 -6t55 -13.5t49 -24t47 -37.5t44.5 -54t45 -73.5t45.5 -97t49.5 -123 t53.5 -151.5h311l-12 -72h-312l-252 -1444h-84l254 1444h-309l12 72h314q-64 65 -113 105.5t-89.5 65.5t-90 36.5t-91.5 14.5t-116 3h-74z" />
<glyph unicode="&#x94d;" horiz-adv-x="0" d="M-475 -131h84l174 -381h-86z" />
<glyph unicode="&#x950;" horiz-adv-x="2144" d="M76 434h80q-28 -147 56 -240.5t239 -93.5q150 0 259.5 94.5t137.5 247.5q6 46 4.5 91.5t-22 87.5t-53 74t-89 51.5t-129.5 19.5h-74l15 74h73q79 0 146 26t112 69t73 94t38 104q25 147 -52.5 232t-213.5 85q-138 0 -244.5 -79t-130.5 -210h-80q30 166 161 263.5t308 97.5 q173 0 268 -103t66 -272q-24 -131 -109 -223t-221 -117v-4q55 -8 103 -35h127q253 0 301 262q15 85 45.5 152t80.5 119.5t125.5 81t172.5 28.5q102 0 169 -37t96.5 -104t34 -160.5t-17.5 -206.5l-53 -297q-47 -275 -187.5 -410t-410.5 -135q-69 0 -195 21l15 72 q108 -19 184 -19q122 0 212.5 31.5t149.5 95t94.5 147.5t55.5 199l55 301q21 131 13 226t-65 148.5t-163 53.5q-147 0 -227 -84.5t-106 -224.5q-31 -176 -127 -253t-256 -77h-46q77 -106 52 -262q-34 -185 -167 -297t-319 -112q-191 0 -293.5 113t-70.5 294zM973 1866h69 q-8 -46 3.5 -89.5t41.5 -81t88.5 -60.5t137.5 -23q78 0 140.5 22.5t102 61t63 81t32.5 89.5h69q-10 -61 -38.5 -115.5t-76.5 -101.5t-124 -75t-170 -28q-97 0 -170 28.5t-111.5 75t-53 102t-3.5 114.5zM1294 1931q5 26 25.5 44t48.5 18q26 0 41 -18t10 -44q-3 -27 -23 -44 t-48 -17q-27 0 -42 17t-12 44z" />
<glyph unicode="&#x958;" horiz-adv-x="2072" d="M55 1444l13 72h2203l-14 -72h-1051l-92 -526q64 117 172.5 188.5t257.5 71.5q185 0 289.5 -128.5t67.5 -336.5q-39 -219 -181.5 -345t-333.5 -126q-58 0 -116 12l12 70q53 -11 102 -11q156 0 279 108t156 294q30 177 -57 284t-242 107q-92 0 -170 -33.5t-131 -89 t-87.5 -120t-50.5 -134.5l-129 -729h-78l87 496q-63 -113 -176 -184.5t-263 -71.5q-194 0 -299.5 129t-66.5 346q25 140 102.5 246.5t187 161.5t234.5 55q152 0 240.5 -72.5t113.5 -187.5l92 526h-1071zM240 715q-33 -188 55 -296t252 -108q96 0 178 35.5t135 93t87 121.5 t48 129l6 41q9 69 -3 132.5t-45.5 119.5t-101.5 89.5t-163 33.5q-159 0 -288 -107t-160 -284zM377 -25q5 31 29.5 51.5t56.5 20.5q29 0 46 -20.5t13 -51.5q-4 -30 -28.5 -50.5t-55.5 -20.5t-48 20t-13 51z" />
<glyph unicode="&#x959;" horiz-adv-x="1880" d="M55 1444l13 72h2011l-15 -72h-309l-254 -1444h-82l94 530q-58 -98 -157.5 -159.5t-229.5 -61.5q-32 0 -86 8q-80 -139 -212 -229t-298 -90q-214 0 -320.5 123.5t-70.5 337.5l64 352h82q303 0 360 332l53 301h-643zM221 453q-31 -173 57 -277t269 -104q135 0 248.5 76.5 t177.5 191.5q-104 46 -154 150.5t-26 248.5q32 185 164 295.5t305 108.5q137 0 216 -61.5t103 -159.5l92 522h-893l-53 -309q-69 -390 -430 -390h-25zM383 -264q4 31 29 51t57 20q29 0 46 -20t13 -51t-28.5 -51.5t-55.5 -20.5t-48.5 20.5t-12.5 51.5zM866 733 q-28 -165 54.5 -260.5t230.5 -95.5q69 0 129.5 21.5t104.5 56.5t78.5 81t54.5 93.5t28 95.5q9 40 6 81.5t-12 80.5t-32 73t-55 59.5t-80.5 40.5t-108.5 15q-144 0 -257 -92.5t-141 -249.5z" />
<glyph unicode="&#x95a;" horiz-adv-x="1443" d="M55 1444l13 72h1574l-12 -72h-311l-252 -1444h-84l254 1444h-426l-106 -606q-24 -138 -108 -226t-230 -88q-141 0 -203 88t-39 219l12 62h82l-12 -64q-10 -42 -4.5 -83.5t21.5 -74.5t54.5 -54t94.5 -21q111 0 171 69t77 171l106 608h-672zM252 250q5 31 29.5 51.5 t56.5 20.5q29 0 46 -20.5t13 -51.5t-28.5 -51.5t-55.5 -20.5t-48.5 20.5t-12.5 51.5z" />
<glyph unicode="&#x95b;" horiz-adv-x="1697" d="M55 1444l13 72h1828l-12 -72h-309l-254 -1444h-84l170 963h-475l-49 -273q-32 -173 -146.5 -279.5t-283.5 -105.5q-103 1 -174.5 51.5t-99.5 138t-9 197.5l61 344h82l-59 -346q-25 -138 32.5 -224.5t180.5 -86.5q127 0 218 86.5t116 224.5l61 346h559l72 408h-1438z M344 43q5 31 29.5 51.5t56.5 20.5q29 0 46 -20.5t13 -51.5t-28 -51.5t-55 -20.5t-48.5 20.5t-13.5 51.5z" />
<glyph unicode="&#x95c;" horiz-adv-x="1187" d="M57 1444l13 72h1316l-12 -72h-317l-66 -367h-336q-310 0 -352 -215q-10 -58 5.5 -100.5t51 -66.5t81.5 -35t102 -11h90q64 0 121.5 -11t107.5 -37t83.5 -64t47 -96.5t0.5 -131.5q-28 -148 -150 -240t-321 -92q-228 0 -339 113t-81 283h82q-25 -143 62.5 -235.5 t283.5 -92.5q158 0 260 75.5t123 190.5q13 77 -7.5 133t-67.5 85.5t-103 43t-125 13.5h-88q-67 0 -125 16t-103 48t-65.5 87t-7.5 127q11 63 41.5 112t71 79.5t92.5 50.5t103.5 27.5t107.5 7.5h285l55 303h-920zM387 -285q5 31 29.5 51.5t56.5 20.5q29 0 46 -20.5t13 -51.5 t-28 -51t-55 -20t-48.5 20t-13.5 51z" />
<glyph unicode="&#x95d;" horiz-adv-x="1292" d="M51 1444l12 72h1428l-12 -72h-404l-61 -346h-168q-115 0 -218 -31.5t-188.5 -92.5t-145 -158.5t-81.5 -221.5q-38 -217 81 -354.5t343 -137.5q170 0 295 91.5t151 232.5q20 116 -39.5 191t-173.5 75q-102 0 -179.5 -62t-92.5 -165q-4 -24 -4 -43h-66q0 21 4 53 q23 130 121 206.5t232 76.5q140 0 218.5 -94t53.5 -238q-31 -173 -176.5 -281t-353.5 -108q-166 0 -288.5 70t-178.5 198.5t-27 292.5q25 141 91.5 251t162 177.5t210.5 102t243 34.5h106l49 281h-944zM449 -225q4 31 29 51t57 20q29 0 46 -20t13 -51t-28.5 -51.5 t-55.5 -20.5t-48.5 20.5t-12.5 51.5z" />
<glyph unicode="&#x95e;" horiz-adv-x="2019" d="M55 1444l13 72h2150l-14 -72h-1053l-94 -533q64 118 176 192.5t264 74.5q90 0 163 -32.5t121.5 -91.5t67 -146t0.5 -191q-39 -220 -182.5 -347.5t-331.5 -127.5q-70 0 -121 14l13 68q57 -11 106 -11q158 0 278.5 107.5t153.5 294.5q31 177 -56 284t-243 107 q-97 0 -178 -37t-134.5 -98t-87 -131t-46.5 -144l-123 -696h-82l117 666q-62 -101 -160.5 -159t-222.5 -58q-199 0 -281.5 130t-42.5 361l90 504h-260zM307 940q-35 -201 30.5 -310.5t237.5 -109.5q155 0 261.5 105t134.5 260l98 559h-672zM397 188q5 31 29.5 51.5 t56.5 20.5q29 0 46.5 -20.5t13.5 -51.5q-4 -30 -28.5 -50.5t-55.5 -20.5t-48.5 20t-13.5 51z" />
<glyph unicode="&#x960;" horiz-adv-x="2056" d="M55 1444l13 72h2187l-12 -72h-998l-98 -563h405q187 0 226 161l12 66l6 43l10 55h76l-129 -731h-86q-60 0 -109.5 -15.5t-90 -58t-52.5 -108.5q-16 -90 40.5 -134t160.5 -44h82l-12 -68h-93q-60 0 -110 -15.5t-91 -58t-53 -108.5q-16 -93 41 -136.5t162 -43.5 q107 0 201 32l-12 -65q-87 -35 -209 -35q-63 0 -115 14t-90.5 42t-54.5 76t-5 110q16 89 76 147t137 72l3 4q-77 20 -114.5 74t-23.5 141q11 62 43 109t77.5 73.5t95.5 39.5t104 13h35l59 349q-82 -70 -219 -70h-395l-144 -811h-80l125 698l-786 -698h-100l2 10l899 781 q9 146 -79 240.5t-245 94.5q-188 0 -326.5 -118.5t-173.5 -319.5h-84q42 232 203 371t373 139q145 0 237 -66t125 -180l86 492h-1112z" />
<glyph unicode="&#x961;" horiz-adv-x="1853" d="M68 1444l12 72h1970l-12 -72h-586l-57 -309q157 -17 226 -141t38 -314q-17 -105 -68 -205h-86q-60 0 -109.5 -15.5t-90 -58t-52.5 -108.5q-16 -90 41 -134t160 -44h82l-12 -68h-92q-60 0 -110 -15.5t-91 -58t-53 -108.5q-16 -93 41 -136.5t161 -43.5q107 0 201 32 l-10 -65q-91 -35 -211 -35q-64 0 -115.5 14t-89.5 42.5t-54 76.5t-5 111q16 88 77 145.5t136 71.5l2 4q-77 20 -114 74t-23 141q12 62 44 109t77 73.5t94.5 39.5t103.5 13h37q35 81 45 148q31 166 -31 273.5t-211 107.5q-161 0 -270 -121.5t-135 -329.5l-4 -24h-72l2 24 q58 451 -227 451q-159 0 -263 -106t-133 -275q-33 -187 46.5 -301.5t265.5 -114.5q15 0 65 4l-14 -75q-37 -3 -70 -3q-113 0 -196 37.5t-126.5 103t-59.5 155t5 194.5q36 207 163 332t315 125q64 0 116 -20.5t84.5 -53.5t54 -77t30.5 -89.5t8 -93.5h4q22 60 53.5 112 t78.5 102t114 81.5t147 36.5l55 309h-1302z" />
<glyph unicode="&#x962;" horiz-adv-x="0" d="M-1026 -373q28 151 122 241.5t228 90.5q59 0 102 -21.5t65.5 -57.5t32.5 -76t9 -85h4q17 45 41.5 84.5t61 76t89.5 58t115 21.5q129 0 185.5 -91.5t31.5 -240.5q-12 -75 -47 -143h-12q-96 0 -160.5 -51.5t-77.5 -128.5q-16 -89 33.5 -133.5t132.5 -44.5q48 0 88 14 l-12 -62q-38 -10 -92 -10q-110 0 -173 58.5t-44 171.5q15 95 87.5 159.5t178.5 73.5q19 43 29 96q21 120 -20.5 194.5t-147.5 74.5q-110 0 -181 -84.5t-100 -231.5l-4 -16h-61l4 16q28 145 -14 230.5t-148 85.5q-110 0 -181.5 -74.5t-92.5 -194.5q-24 -127 32.5 -206.5 t186.5 -79.5q33 0 45 4l-12 -64q-12 -2 -50 -2q-160 0 -230 97t-44 251z" />
<glyph unicode="&#x963;" horiz-adv-x="0" d="M-1024 -373q26 151 120 241.5t228 90.5q59 0 102 -21.5t65.5 -57.5t32.5 -76t9 -85h4q17 45 41.5 84.5t61 76t89.5 58t115 21.5q129 0 185.5 -91.5t31.5 -240.5q-12 -75 -47 -143h-63q-64 0 -113 -31t-59 -96q-11 -65 27.5 -96t109.5 -31h57l-8 -57h-59q-162 0 -185 -127 q-10 -62 30.5 -92.5t113.5 -30.5q77 0 141 22l-8 -55q-63 -23 -150 -23q-96 0 -151 44t-39 131q11 65 54 105.5t98 51.5v2q-54 14 -80.5 54.5t-16.5 103.5q16 86 81.5 129t148.5 43h22q18 47 27 96q21 120 -20.5 194.5t-147.5 74.5q-110 0 -181 -84.5t-100 -231.5l-2 -16 h-63l4 16q28 145 -14 230.5t-148 85.5q-110 0 -181.5 -74.5t-92.5 -194.5q-24 -127 32.5 -206.5t186.5 -79.5q33 0 45 4l-12 -64q-12 -2 -50 -2q-160 0 -229.5 97t-42.5 251z" />
<glyph unicode="&#x964;" horiz-adv-x="503" d="M199 0l266 1520h82l-266 -1520h-82z" />
<glyph unicode="&#x965;" horiz-adv-x="862" d="M199 0l266 1520h82l-266 -1520h-82zM555 0l266 1520h84l-266 -1520h-84z" />
<glyph unicode="&#x966;" horiz-adv-x="1232" d="M137.5 353q-4.5 87 3 177t27.5 201q24 134 54 237.5t78.5 200t112 159.5t156 100.5t207.5 37.5q96 0 166.5 -25t114 -73.5t68 -112t29 -149.5t-2.5 -175.5t-27 -199.5q-24 -134 -54 -239t-79.5 -202.5t-113.5 -161t-156 -101t-207 -37.5q-96 0 -167 25t-114 74.5t-67 113 t-28.5 150.5zM224.5 440.5q-1.5 -69.5 7.5 -122.5t30 -100.5t55.5 -78t87.5 -48t123 -17.5t129.5 17.5t105 48t83.5 78t65 100.5t50.5 123t39.5 137.5t31 152.5q15 84 23.5 151.5t10 136.5t-7.5 121.5t-30 99.5t-55.5 77t-87.5 47.5t-123 17.5q-98 0 -175 -34t-129 -89 t-92 -142t-63.5 -177t-44.5 -209q-15 -84 -23.5 -152.5t-10 -138z" />
<glyph unicode="&#x967;" horiz-adv-x="530" d="M156 0l241 1362h-211l17 84h303l-256 -1446h-94z" />
<glyph unicode="&#x968;" horiz-adv-x="1167" d="M4 6l10 62q206 128 370 247t303.5 245t224.5 251.5t106 241.5q8 53 8 102.5t-18.5 92t-49.5 74t-86.5 49.5t-130.5 18q-177 0 -291.5 -109t-158.5 -287h-90q54 224 202 349.5t353 125.5q89 0 160.5 -24.5t122 -73t70.5 -129t1 -184.5q-20 -109 -91.5 -227t-168 -219.5 t-220.5 -203.5t-235.5 -178.5t-226.5 -144.5h817l-14 -78h-967z" />
<glyph unicode="&#x969;" horiz-adv-x="1187" d="M78 412h90q-2 -153 88.5 -247.5t263.5 -94.5q175 0 282 88t132 227q30 168 -83.5 252t-350.5 84h-39l14 80h43q463 3 514 303q24 131 -48.5 211t-229.5 80q-154 0 -275 -81t-168 -239h-92q51 187 197 293.5t354 106.5q197 0 289 -102.5t65 -262.5q-24 -131 -120.5 -226 t-264.5 -114v-12q154 -24 232.5 -121t50.5 -258q-15 -82 -54.5 -152t-102.5 -124t-155 -84.5t-204 -30.5q-206 0 -320.5 111t-107.5 313z" />
<glyph unicode="&#x96a;" horiz-adv-x="1214" d="M20 369l13 71l958 1010h107l-178 -1001h233l-14 -80h-234l-65 -369h-90l65 369h-795zM143 449h688l158 890z" />
<glyph unicode="&#x96b;" horiz-adv-x="1239" d="M115 395h90q4 -157 96 -240t248 -83q197 0 318 115.5t155 304.5q31 184 -52 288.5t-272 104.5q-130 0 -241 -57.5t-183 -157.5h-86l140 786h874l-14 -82h-787l-104 -588q69 79 185.5 129t240.5 50q84 0 151.5 -18.5t111.5 -51.5t75.5 -78t43.5 -97.5t15 -110t-10 -115.5 q-18 -103 -61.5 -191.5t-113 -159.5t-172.5 -112t-228 -41q-201 0 -313 109t-107 296z" />
<glyph unicode="&#x96c;" horiz-adv-x="1271" d="M144 489.5q5 100.5 28 227.5q32 179 84 315t129.5 237.5t188 154.5t249.5 53q190 0 280 -105.5t81 -281.5h-86q3 149 -68 229t-221 80q-110 0 -198 -40t-160.5 -126.5t-124 -230t-80.5 -343.5q57 142 197 225t307 83q220 0 321.5 -132.5t61.5 -365.5q-17 -96 -59 -180 t-109 -152t-167.5 -107.5t-222.5 -39.5q-129 0 -218 39t-135.5 103t-64.5 160.5t-13 197zM227 393.5q3 -53.5 15 -101.5t41 -89t69 -71t100 -47t134 -17q175 0 299 106.5t157 292.5q35 201 -49.5 310.5t-271.5 109.5q-61 0 -122.5 -14.5t-121 -45.5t-108.5 -75t-84.5 -108.5 t-48.5 -141.5q-12 -55 -9 -108.5z" />
<glyph unicode="&#x96d;" horiz-adv-x="1058" d="M180 1374l15 80h942l-15 -74l-817 -1380h-102l829 1374h-852z" />
<glyph unicode="&#x96e;" horiz-adv-x="1261" d="M84 379q26 149 129.5 247.5t261.5 131.5q-137 37 -192.5 127.5t-32.5 216.5q30 168 174.5 272.5t368.5 104.5q222 0 329.5 -104.5t77.5 -272.5q-23 -127 -110.5 -217.5t-237.5 -126.5q148 -33 218 -131.5t44 -247.5q-35 -197 -194 -311.5t-398 -114.5t-356 114.5 t-82 311.5zM174 381q-30 -165 69 -257.5t294 -92.5t325.5 92.5t159.5 257.5q30 170 -74 253t-291 83q-89 0 -167 -19t-144.5 -58t-111.5 -105t-60 -154zM338 1094q-25 -142 65.5 -222.5t268.5 -80.5q176 0 294 80.5t144 222.5q26 147 -65 226t-267 79t-294.5 -79 t-145.5 -226z" />
<glyph unicode="&#x96f;" horiz-adv-x="1269" d="M154 381h86q-3 -150 71 -231.5t226 -81.5q85 0 156 24t134 78t112 138.5t86.5 207.5t59.5 283q-56 -135 -191.5 -215t-297.5 -80q-221 0 -324.5 131t-62.5 362q17 97 59 181.5t109.5 151.5t167.5 106t221 39q90 0 160.5 -19.5t118 -53.5t79 -85.5t47 -111t18 -134.5 t-4.5 -151t-23 -166q-32 -183 -81.5 -319.5t-125.5 -239t-185 -155t-251 -52.5q-193 0 -283 107.5t-81 285.5zM297 997q-34 -197 51.5 -306t272.5 -109q105 0 203.5 41t175.5 130.5t98 211.5q9 67 7.5 129.5t-26 118t-64.5 96.5t-107.5 64.5t-153.5 23.5q-175 0 -299 -107.5 t-158 -292.5z" />
<glyph unicode="&#x970;" horiz-adv-x="1030" d="M182 729q26 142 135 233t256 91q145 0 222.5 -92t52.5 -236q-25 -140 -130 -229.5t-249 -89.5q-149 0 -230.5 91t-56.5 232zM244 729q-20 -117 43.5 -190.5t185.5 -73.5q118 0 204.5 72t108.5 188q20 119 -40.5 193.5t-178.5 74.5q-122 0 -212.5 -73.5t-110.5 -190.5z " />
<glyph unicode="&#x972;" horiz-adv-x="1679" d="M121 508h80q-26 -147 57.5 -239.5t237.5 -92.5t261 89t132 233q9 37 6 74.5t-12 73t-32.5 66.5t-56 53.5t-82 36t-110.5 13.5h-74l13 72h73q154 0 251 83t116 193q24 138 -53 218.5t-211 80.5q-141 0 -250.5 -79.5t-130.5 -211.5h-80q30 167 163 265t312 98 q170 0 263.5 -98t66.5 -260q-23 -123 -107 -210t-221 -112v-2q57 -8 105 -35h526l123 699h391l-12 -72h-310l-256 -1444h-81l131 748l-435 2q77 -103 52 -256q-31 -177 -162.5 -284.5t-317.5 -107.5q-189 0 -293.5 113t-72.5 293zM1432 2058h73q-8 -46 2 -89t38 -80.5 t84 -60t132 -22.5q145 0 236 76.5t108 175.5h74q-11 -60 -42 -114.5t-80.5 -101.5t-127 -75t-170.5 -28q-94 0 -164.5 28t-108 74.5t-51 102t-3.5 114.5z" />
<glyph unicode="&#x1e80;" horiz-adv-x="1902" d="M217 1438h102l113 -1303l623 1303h106l156 -1303l575 1303h103l-652 -1438h-100l-166 1292l-622 -1292h-101zM737 1782l17 90l352 -268l-12 -76z" />
<glyph unicode="&#x1e81;" horiz-adv-x="1656" d="M133 1112h96l123 -995l531 995h90l176 -995l475 995h94l-547 -1112h-88l-180 987l-530 -987h-88zM608 1456l17 90l352 -268l-12 -76z" />
<glyph unicode="&#x1e82;" horiz-adv-x="1902" d="M217 1438h102l113 -1303l623 1303h106l156 -1303l575 1303h103l-652 -1438h-100l-166 1292l-622 -1292h-101zM1028 1530l12 76l451 268l-16 -90z" />
<glyph unicode="&#x1e83;" horiz-adv-x="1656" d="M133 1112h96l123 -995l531 995h90l176 -995l475 995h94l-547 -1112h-88l-180 987l-530 -987h-88zM905 1202l13 76l450 268l-16 -90z" />
<glyph unicode="&#x1e84;" horiz-adv-x="1902" d="M217 1438h102l113 -1303l623 1303h106l156 -1303l575 1303h103l-652 -1438h-100l-166 1292l-622 -1292h-101zM864 1671q0 35 27.5 62.5t64.5 27.5q27 0 44.5 -18t17.5 -45q0 -36 -27 -64t-61 -28q-29 0 -47.5 18.5t-18.5 46.5zM1159 1671q0 35 27.5 62.5t64.5 27.5 q27 0 45.5 -18.5t18.5 -44.5q0 -36 -28 -64t-62 -28q-29 0 -47.5 18.5t-18.5 46.5z" />
<glyph unicode="&#x1e85;" horiz-adv-x="1656" d="M133 1112h96l123 -995l531 995h90l176 -995l475 995h94l-547 -1112h-88l-180 987l-530 -987h-88zM743 1346q0 35 28 62.5t65 27.5q27 0 44 -18.5t17 -45.5q0 -36 -27 -64t-61 -28q-29 0 -47.5 19t-18.5 47zM1038 1346q0 35 27.5 62.5t64.5 27.5q27 0 45.5 -18.5 t18.5 -45.5q0 -36 -28 -64t-62 -28q-29 0 -47.5 19t-18.5 47z" />
<glyph unicode="&#x1ebc;" horiz-adv-x="1005" d="M68 0l256 1438h725l-15 -76h-633l-106 -604h573l-14 -74h-571l-109 -608h635l-14 -76h-727zM430 1534q23 77 71 120.5t109 43.5q35 0 64 -16t45.5 -34.5t42.5 -34.5t57 -16q34 0 64 25t43 70h61q-20 -73 -70 -117.5t-112 -44.5q-30 0 -55 10.5t-42 25t-33.5 29t-36.5 25 t-44 10.5q-73 0 -102 -96h-62z" />
<glyph unicode="&#x1ebd;" horiz-adv-x="1280" d="M109 557q31 174 124 304t226.5 197.5t290.5 67.5q121 0 214 -41t145 -110t71 -157t2 -185q-11 -68 -25 -111h-960q-33 -221 74.5 -340t291.5 -119q162 0 288 82t179 220h96q-65 -170 -218 -275.5t-359 -105.5q-238 0 -362 155.5t-78 417.5zM209 594h874q23 117 6 202.5 t-70 141.5t-126 83.5t-160 27.5q-117 0 -222.5 -48.5t-188.5 -154t-113 -252.5zM526 1239q23 77 71.5 120.5t109.5 43.5q35 0 64 -15.5t45.5 -34.5t42 -34.5t56.5 -15.5q34 0 64 24.5t43 69.5h61q-20 -73 -70 -117.5t-112 -44.5q-30 0 -55 10.5t-42 25t-33.5 29t-36.5 25 t-44 10.5q-73 0 -102 -96h-62z" />
<glyph unicode="&#x1ef2;" horiz-adv-x="1107" d="M207 1438h106l260 -768l531 768h106l-606 -856l-102 -582h-92l102 582zM541 1751l16 90l352 -268l-12 -76z" />
<glyph unicode="&#x1ef3;" horiz-adv-x="1073" d="M98 -522l301 524l-266 1110h100l240 -997l563 997h99l-936 -1634h-101zM471 1456l16 90l353 -268l-13 -76z" />
<glyph unicode="&#x1ef8;" horiz-adv-x="1107" d="M207 1438h106l260 -768l531 768h106l-606 -856l-102 -582h-92l102 582zM494 1534q23 77 71 120.5t109 43.5q35 0 64 -16t45.5 -34.5t42.5 -34.5t57 -16q34 0 63.5 25t42.5 70h62q-20 -73 -70.5 -117.5t-112.5 -44.5q-30 0 -55 10.5t-42 25t-33.5 29t-36.5 25t-44 10.5 q-73 0 -102 -96h-61z" />
<glyph unicode="&#x1ef9;" horiz-adv-x="1073" d="M98 -522l301 524l-266 1110h100l240 -997l563 997h99l-936 -1634h-101zM424 1239q23 77 71 120.5t109 43.5q29 0 53 -10.5t40.5 -25t32.5 -29t37 -25t46 -10.5q34 0 64 24.5t43 69.5h61q-20 -73 -70 -117.5t-112 -44.5q-30 0 -55 10.5t-42 25t-33.5 29t-36.5 25t-44 10.5 q-74 0 -103 -96h-61z" />
<glyph unicode="&#x2000;" horiz-adv-x="1065" />
<glyph unicode="&#x2001;" horiz-adv-x="2130" />
<glyph unicode="&#x2002;" horiz-adv-x="1065" />
<glyph unicode="&#x2003;" horiz-adv-x="2130" />
<glyph unicode="&#x2004;" horiz-adv-x="710" />
<glyph unicode="&#x2005;" horiz-adv-x="532" />
<glyph unicode="&#x2006;" horiz-adv-x="355" />
<glyph unicode="&#x2007;" horiz-adv-x="355" />
<glyph unicode="&#x2008;" horiz-adv-x="266" />
<glyph unicode="&#x2009;" horiz-adv-x="426" />
<glyph unicode="&#x200a;" horiz-adv-x="118" />
<glyph unicode="&#x200c;" horiz-adv-x="0" d="M-47 -471v2132h96v-2132h-96z" />
<glyph unicode="&#x200d;" horiz-adv-x="0" d="M-262 1604l67 67l195 -194l197 194l65 -65l-196 -197l196 -195l-67 -67l-148 153v-1771h-96v1771l-141 -149l-68 68l190 190z" />
<glyph unicode="&#x2010;" horiz-adv-x="987" d="M25 729l14 80h770l-14 -80h-770z" />
<glyph unicode="&#x2011;" horiz-adv-x="987" d="M25 729l14 80h770l-14 -80h-770z" />
<glyph unicode="&#x2012;" horiz-adv-x="987" d="M25 729l14 80h770l-14 -80h-770z" />
<glyph unicode="&#x2013;" horiz-adv-x="1259" d="M137 729l15 80h1044l-14 -80h-1045z" />
<glyph unicode="&#x2014;" horiz-adv-x="1652" d="M137 729l15 80h1435l-14 -80h-1436z" />
<glyph unicode="&#x2018;" horiz-adv-x="352" d="M115 1018l233 420h72l-189 -420h-116z" />
<glyph unicode="&#x2019;" horiz-adv-x="352" d="M154 1018l188 420h117l-234 -420h-71z" />
<glyph unicode="&#x201a;" horiz-adv-x="317" d="M-186 -309l247 524h107l-283 -524h-71z" />
<glyph unicode="&#x201c;" horiz-adv-x="624" d="M115 1018l233 420h72l-189 -420h-116zM379 1018l233 420h72l-188 -420h-117z" />
<glyph unicode="&#x201d;" horiz-adv-x="610" d="M117 1018l188 420h117l-234 -420h-71zM381 1018l188 420h117l-233 -420h-72z" />
<glyph unicode="&#x201e;" horiz-adv-x="317" d="M-186 -309l247 524h107l-283 -524h-71z" />
<glyph unicode="&#x2020;" horiz-adv-x="962" d="M154 1034l14 78l373 -10l77 487h89l-95 -487l375 10l-14 -78l-371 8l-266 -1566h-90l284 1566z" />
<glyph unicode="&#x2021;" horiz-adv-x="964" d="M-35 -45l15 80l372 -12l180 1019l-376 -8l14 78l373 -10l75 487h89l-93 -487l375 10l-14 -78l-371 8l-180 -1019l377 12l-17 -80l-372 8l-76 -487h-90l94 487z" />
<glyph unicode="&#x2022;" horiz-adv-x="636" d="M121 682q15 92 90.5 156.5t165.5 64.5q92 0 144.5 -64.5t35.5 -156.5q-15 -91 -89.5 -154t-168.5 -63q-90 0 -142.5 63.5t-35.5 153.5z" />
<glyph unicode="&#x2026;" horiz-adv-x="954" d="M-12 74q6 35 33 57.5t61 22.5q33 0 51 -22.5t12 -57.5t-33 -57.5t-61 -22.5q-33 0 -51 22.5t-12 57.5zM315 74q6 35 33.5 57.5t61.5 22.5q33 0 51 -22.5t12 -57.5t-33 -57.5t-61 -22.5q-33 0 -51.5 22.5t-12.5 57.5zM643 74q6 35 33 57.5t61 22.5q33 0 51.5 -22.5 t12.5 -57.5t-33 -57.5t-61 -22.5q-33 0 -51.5 22.5t-12.5 57.5z" />
<glyph unicode="&#x202f;" horiz-adv-x="426" />
<glyph unicode="&#x2030;" horiz-adv-x="1824" d="M18 0l1108 1438h97l-1108 -1438h-97zM190 1176q22 122 113.5 200t210.5 78q118 0 181.5 -78t41.5 -200t-113 -199.5t-210 -77.5q-118 0 -182 77.5t-42 199.5zM268 1176q-17 -95 26.5 -154t131.5 -59q86 0 151 59t82 154q17 97 -26 155t-131 58q-87 0 -152 -58.5 t-82 -154.5zM506 260q22 123 112 201t209 78q118 0 183 -78.5t43 -200.5t-113 -200t-209 -78q-119 0 -183 78t-42 200zM584 260q-19 -96 25 -154.5t132 -58.5q87 0 151 58.5t83 154.5q15 97 -28.5 155t-131.5 58q-87 0 -150.5 -58.5t-80.5 -154.5zM1141 260 q22 122 112.5 200.5t208.5 78.5q119 0 184.5 -78.5t43.5 -200.5t-113.5 -200t-210.5 -78q-118 0 -182.5 78t-42.5 200zM1221 260q-19 -96 24.5 -154.5t130.5 -58.5q88 0 152.5 58.5t81.5 154.5t-27 154.5t-131 58.5q-88 0 -152 -58.5t-79 -154.5z" />
<glyph unicode="&#x2039;" horiz-adv-x="505" d="M98 604l275 359h100l-280 -359l155 -358h-100z" />
<glyph unicode="&#x203a;" horiz-adv-x="505" d="M47 246l279 358l-154 359h100l148 -359l-273 -358h-100z" />
<glyph unicode="&#x2044;" horiz-adv-x="630" d="M-254 0l1110 1438h96l-1108 -1438h-98z" />
<glyph unicode="&#x205f;" horiz-adv-x="532" />
<glyph unicode="&#x20a8;" horiz-adv-x="2113" d="M68 0l256 1438h397q121 0 208 -31t131.5 -86.5t61 -131.5t-1.5 -165q-32 -177 -153.5 -285t-325.5 -123l313 -616h-112l-307 614h-265l-110 -614h-92zM283 694h307q196 0 302 88t134 242q29 161 -45.5 247.5t-273.5 86.5h-306zM1149 330h94q-10 -117 65 -193t226 -76 q122 0 202.5 63t98.5 161q10 56 -6.5 97.5t-51.5 66t-83 42t-102.5 30t-109 26t-101.5 34.5t-81.5 50.5t-49.5 78.5t-3 115q23 134 138 217.5t280 83.5q171 0 260.5 -92t77.5 -252h-94q8 116 -56.5 192.5t-203.5 76.5q-126 0 -209.5 -62t-102.5 -162q-9 -55 7.5 -94.5 t52 -63t83.5 -40t102.5 -29.5t109 -26.5t102 -35.5t81.5 -53t48 -82.5t2 -119.5q-25 -131 -137 -215t-268 -84q-182 0 -281.5 92.5t-89.5 253.5z" />
<glyph unicode="&#x20ac;" horiz-adv-x="1695" d="M33 504l12 69h213q3 79 14 144q13 68 29 119h-209l10 69h224q99 249 306 398t458 149q244 0 391 -115t188 -321h-104q-35 162 -159.5 257t-330.5 95q-210 0 -386.5 -123t-266.5 -340h571l-10 -69h-588q-12 -37 -28 -119q-13 -80 -13 -144h582l-12 -69h-568 q22 -202 154.5 -318t333.5 -116q208 0 365.5 95t250.5 257h105q-113 -205 -302.5 -320.5t-433.5 -115.5q-242 0 -396 141.5t-173 376.5h-227z" />
<glyph unicode="&#x20b9;" horiz-adv-x="1351" d="M199 393l53 305q125 0 208.5 4t155.5 16.5t116 32.5t80 55t57 80t38 111h-708l12 72h711q2 9 5 26t5 25l43 246h-713l14 72h1115l-15 -72h-315l-43 -250q-1 -9 -4 -25t-4 -22h315l-12 -72h-322q-30 -112 -76 -182t-126.5 -112.5t-188 -58t-274.5 -15.5l-39 -230 q-30 -164 29.5 -254t213.5 -90q146 0 233.5 84.5t115.5 243.5h88q-36 -198 -153.5 -300.5t-297.5 -102.5q-193 0 -272.5 110t-44.5 303z" />
<glyph unicode="&#x20ba;" horiz-adv-x="1619" d="M80 414l12 73l391 103l47 268l-393 -104l13 71l393 107l90 508h94l-86 -484l440 119l-12 -74l-440 -116l-47 -271l436 115l-12 -74l-439 -114l-86 -488q74 -14 156 -14q632 0 768 768h92q-149 -854 -874 -854q-116 0 -246 31l94 532z" />
<glyph unicode="&#x20bd;" horiz-adv-x="1230" d="M66 301l14 78h168l43 252h-168l14 80h168l129 727h400q238 0 335.5 -109.5t63.5 -296.5q-33 -191 -171 -296t-372 -105h-307l-43 -252h520l-12 -78h-522l-54 -301h-92l53 301h-167zM397 711h308q380 0 434 321q29 159 -46 242.5t-274 83.5h-307z" />
<glyph unicode="&#x2113;" horiz-adv-x="430" d="M68 0l268 1516h92l-268 -1516h-92z" />
<glyph unicode="&#x2122;" horiz-adv-x="1476" d="M201 1374l12 68h479l-12 -68h-199l-116 -653h-78l116 653h-202zM672 721l129 721h92l168 -625l389 625h90l-129 -721h-76l105 586l-369 -586h-61l-158 584l-107 -584h-73z" />
<glyph unicode="&#x2126;" horiz-adv-x="1622" d="M29 0l16 76h371q-179 68 -256 243t-37 400q28 159 108.5 297t193 233t253.5 149t289 54t269.5 -54t200.5 -149t111 -233t4 -297q-40 -225 -179 -400t-341 -243h371l-14 -76h-568l15 84q233 30 405 200.5t217 430.5q26 145 -0.5 268t-95.5 207t-174.5 131t-235.5 47 q-268 0 -478 -183.5t-261 -469.5q-44 -260 68 -430.5t331 -200.5l-14 -84h-569z" />
<glyph unicode="&#x212e;" horiz-adv-x="1572" d="M129 672q28 156 97 291.5t171 237t241 160t298 58.5q158 0 279 -55t188.5 -147t92.5 -209.5t3 -245.5l-22 -123h-1143l-60 -332q67 -124 171 -184t272 -60q150 0 282.5 68.5t307.5 214.5l49 -63q-329 -297 -654 -297q-149 0 -268 45.5t-197 131t-107.5 216.5t-0.5 293z M352 741h905l66 373q-52 107 -154.5 166t-246.5 59q-147 0 -278.5 -62.5t-229.5 -189.5z" />
<glyph unicode="&#x2202;" horiz-adv-x="1116" d="M59 426q19 106 60 208.5t102.5 193t136.5 159t168.5 108.5t192.5 40q287 0 262 -336q19 96 27.5 177.5t6 156.5t-20.5 132t-50.5 99.5t-86.5 65t-126 22.5q-68 0 -174 -27l10 66q94 25 185 25q213 0 300.5 -164t28.5 -498q-70 -398 -274 -637.5t-459 -239.5 q-160 0 -243.5 114.5t-45.5 334.5zM154 426q-32 -182 30.5 -274.5t186.5 -92.5q134 0 254 87t199 227.5t108 304.5q34 191 -25 284t-200 93q-127 0 -243.5 -83.5t-197.5 -227t-112 -318.5z" />
<glyph unicode="&#x2206;" horiz-adv-x="1329" d="M-59 0l14 76l817 1329h80l350 -1329l-14 -76h-1247zM47 76h1063l-319 1224z" />
<glyph unicode="&#x220f;" horiz-adv-x="1503" d="M186 0l240 1362h-172l14 76h1274l-14 -76h-172l-242 -1362h-90l240 1362h-746l-239 -1362h-93z" />
<glyph unicode="&#x2211;" horiz-adv-x="841" d="M-45 -158l18 103l676 678l-438 682l18 100h754l-12 -74h-674l438 -667l-12 -76l-676 -670h674l-12 -76h-754z" />
<glyph unicode="&#x2212;" horiz-adv-x="987" d="M137 729l15 80h770l-15 -80h-770z" />
<glyph unicode="&#x2215;" horiz-adv-x="819" d="M-80 -330l961 2249h94l-963 -2249h-92z" />
<glyph unicode="&#x2219;" horiz-adv-x="303" d="M-10 723q6 35 33 57.5t61 22.5q33 0 51 -22.5t12 -57.5t-33 -57.5t-61 -22.5q-33 0 -51 22.5t-12 57.5z" />
<glyph unicode="&#x221a;" horiz-adv-x="1443" d="M-14 295l209 108l149 -376l1194 1710h74l-1282 -1829h-39l-156 395l-127 -63z" />
<glyph unicode="&#x221e;" horiz-adv-x="1296" d="M63 711q23 128 117 202t219 74q55 0 100 -18t80 -54t57.5 -69.5t51.5 -85.5q67 99 161 163.5t206 63.5q124 0 189 -73t42 -201q-24 -129 -118.5 -203t-219.5 -74q-56 0 -101.5 17t-81 51.5t-59 67.5t-51.5 83q-68 -96 -160 -158t-202 -61q-126 0 -190 73.5t-40 201.5z M145 711q-17 -92 27 -146.5t141 -54.5q162 0 312 203q-26 48 -45.5 78t-48 61.5t-63.5 47t-77 15.5q-98 0 -164.5 -55.5t-81.5 -148.5zM719 705q25 -46 45 -76t49.5 -60.5t65.5 -45.5t79 -15q97 0 163 56t83 149q15 92 -28 146t-140 54q-86 0 -168 -56t-149 -152z" />
<glyph unicode="&#x222b;" horiz-adv-x="499" d="M-223 -324l22 80h51q66 0 96 31.5t58 126.5l498 1714q31 114 95.5 168.5t170.5 54.5h49l-22 -79h-41q-61 0 -99.5 -31.5t-62.5 -112.5l-496 -1714q-36 -124 -94 -181t-170 -57h-55z" />
<glyph unicode="&#x2248;" horiz-adv-x="921" d="M78 500q39 107 104.5 165t153.5 58q48 0 91 -21.5t70.5 -47t66 -47t77.5 -21.5q51 0 95 38t65 97h76q-37 -106 -104.5 -163.5t-156.5 -57.5q-39 0 -73.5 14t-60.5 34t-51 39.5t-56 33.5t-64 14q-51 0 -93.5 -38t-65.5 -97h-74zM78 885q39 107 104.5 165t153.5 58 q48 0 91 -21.5t70.5 -47t66 -47t77.5 -21.5q51 0 95 38t65 97h76q-37 -106 -104.5 -163.5t-156.5 -57.5q-39 0 -73.5 14t-60.5 33.5t-51 39.5t-56 34t-64 14q-51 0 -93.5 -38t-65.5 -97h-74z" />
<glyph unicode="&#x2260;" horiz-adv-x="1257" d="M119 532l14 82h346l301 308h-590l15 84h657l211 215h82l-211 -215h277l-15 -84h-344l-303 -308h592l-14 -82h-658l-211 -215h-80l211 215h-280z" />
<glyph unicode="&#x2264;" horiz-adv-x="888" d="M66 297l12 74h667l-12 -74h-667zM156 848l614 401h123l-606 -401l467 -399h-125z" />
<glyph unicode="&#x2265;" horiz-adv-x="888" d="M61 297l13 74h667l-12 -74h-668zM96 449l606 399l-466 401h122l473 -401l-612 -399h-123z" />
<glyph unicode="&#x25ca;" horiz-adv-x="1120" d="M119 713l553 469l383 -469l-553 -469zM215 709l301 -369l442 377l-301 368z" />
<glyph unicode="&#x25cc;" horiz-adv-x="1333" d="M102 483q0 38 25 62t63 24q39 0 64 -24t25 -62t-25 -62t-64 -24q-38 0 -63 24t-25 62zM133 731q0 38 25 62t63 24t63 -24t25 -62t-25 -62t-63 -24t-63 24t-25 62zM195 252q0 38 25 62t63 24t63 -24t25 -62t-25 -62t-63 -24t-63 24t-25 62zM289 934q0 38 25 62t63 24 t63 -24t25 -62t-25 -62t-63 -24t-63 24t-25 62zM395 96q0 38 25 62t63 24t63 -24t25 -62t-25 -62t-63 -24t-63 24t-25 62zM528 1020q0 38 25 62t63 24q39 0 64 -24t25 -62t-25 -62t-64 -24q-38 0 -63 24t-25 62zM649 68q0 38 25 62t63 24t63 -24t25 -62t-25 -62t-63 -24 t-63 24t-25 62zM776 989q0 38 25 62t63 24t63 -24t25 -62t-25 -62t-63 -24t-63 24t-25 62zM885 162q0 38 25 62t63 24t63 -24t25 -62t-25 -62t-63 -24t-63 24t-25 62zM965 838q0 38 25 62t63 24t63 -24t25 -62t-25 -62t-63 -24t-63 24t-25 62zM1034 358q0 38 25 62t63 24 t63 -24t25 -62t-25 -62t-63 -24t-63 24t-25 62zM1055 604q0 38 25 62t63 24t63 -24t25 -62t-25 -62t-63 -24t-63 24t-25 62z" />
<glyph unicode="&#x25fc;" horiz-adv-x="1116" d="M0 0v1116h1116v-1116h-1116z" />
<glyph unicode="&#xfb01;" horiz-adv-x="1067" d="M111 0l180 1030h-162l14 82h162l14 78q32 175 135 259.5t304 84.5l-15 -82q-159 0 -232 -61.5t-97 -200.5l-15 -78h611l-197 -1112h-92l182 1030h-518l-182 -1030h-92zM946 1440q6 35 31.5 57.5t58.5 22.5t52.5 -22.5t13.5 -57.5q-6 -36 -32.5 -58t-59.5 -22t-52 22 t-12 58z" />
<glyph unicode="&#xfb02;" horiz-adv-x="1087" d="M111 0l180 1030h-166l14 82h166l14 78q32 175 135 259.5t304 84.5l-15 -82q-159 0 -232 -61.5t-97 -200.5l-15 -78h289l-14 -82h-289l-182 -1030h-92zM727 0l268 1516h92l-268 -1516h-92z" />
<glyph horiz-adv-x="1570" d="M106 389q8 48 26.5 90.5t42.5 76t58 65t67 55t76.5 48.5t80 43t83.5 41q32 15 48 23q-144 22 -229.5 118.5t-59.5 246.5q27 158 148.5 249t273.5 91t243.5 -92t63.5 -244q-19 -107 -80.5 -182.5t-159.5 -138.5h486l112 637h390l-13 -72h-311l-254 -1444h-80l144 813h-582 q-28 -14 -79.5 -38.5t-81.5 -39t-74.5 -39t-72.5 -44t-61.5 -48.5t-54 -57.5t-38 -66t-25.5 -79.5q-21 -116 40.5 -193t188.5 -77q131 0 223 83.5t113 207.5h73l-92 -524h-77l59 344q-12 -25 -37 -53.5t-65 -58.5t-100 -49.5t-128 -19.5q-154 0 -232 93t-53 235zM375 1190 q-24 -141 64 -222.5t247 -86.5q112 62 180.5 133.5t87.5 175.5q21 125 -50 198.5t-193 73.5q-119 0 -217 -73.5t-119 -198.5z" />
<glyph horiz-adv-x="1605" d="M45 111l96 544h78q-11 -153 80.5 -237t232.5 -84q149 0 256 94.5t134 239.5q30 170 -71 267t-288 97h-16l12 70h780l60 342h-1344l13 72h1736l-12 -72h-311l-252 -1444h-82l180 1032h-532q113 -44 167.5 -141.5t32.5 -239.5q-31 -174 -156 -281t-298 -106 q-143 0 -234 66.5t-112 158.5l-68 -378h-82z" />
<glyph horiz-adv-x="1556" d="M55 1444l13 72h1974l-12 -72h-824l-92 -526q64 117 172.5 188.5t257.5 71.5q185 0 289.5 -128t67.5 -335h-82q30 177 -57 284t-242 107q-92 0 -170 -33.5t-131 -89t-87.5 -120t-50.5 -134.5l-129 -729h-78l87 496q-63 -113 -176 -184.5t-263 -71.5q-194 0 -299.5 129 t-66.5 346q25 140 102.5 246.5t187 161.5t234.5 55q152 0 240.5 -72.5t113.5 -187.5l92 526h-1071zM240 715q-33 -188 55 -296t252 -108q96 0 178 35.5t135 93t87 121.5t48 129l6 41q9 69 -3 132.5t-45.5 119.5t-101.5 89.5t-163 33.5q-159 0 -288 -107t-160 -284z" />
<glyph horiz-adv-x="1386" d="M55 1444l13 72h1718l-14 -72h-992l-53 -309q-69 -390 -430 -390h-25l-51 -292q-31 -173 57 -277t269 -104q142 0 251 75.5t175 192.5q-109 45 -157.5 145.5t-24.5 239.5q34 192 170 305t329 113q194 0 292 -113t65 -305q-33 -191 -171.5 -303.5t-330.5 -112.5 q-51 0 -103 10q-74 -140 -202.5 -230.5t-294.5 -90.5q-219 0 -331.5 124.5t-74.5 336.5l64 352h82q49 0 91 8t86.5 30t79 57.5t62 96t41.5 140.5l53 301h-643zM866 725q-28 -157 51.5 -251.5t239.5 -94.5t273 94.5t141 251.5q28 160 -51.5 255t-239.5 95 q-159 0 -272.5 -95.5t-141.5 -254.5z" />
<glyph horiz-adv-x="948" d="M55 1444l13 72h1034l-12 -72h-279l-106 -606q-24 -138 -108 -226t-230 -88q-141 0 -203 88t-39 219l12 62h82l-12 -64q-10 -42 -4.5 -83.5t21.5 -74.5t54.5 -54t94.5 -21q111 0 171 69t77 171l106 608h-672z" />
<glyph horiz-adv-x="929" d="M55 1444l13 72h1278l-13 -72h-901l-33 -189q-27 -144 40.5 -218t242.5 -74h106l-12 -70h-110q-186 0 -291.5 -78.5t-128.5 -204.5q-18 -102 23 -173t123.5 -103.5t197.5 -32.5q132 0 249.5 55.5t197.5 157t102 229.5h71q-40 -223 -217 -368.5t-415 -145.5 q-221 0 -334.5 98t-81.5 279q25 136 127.5 221.5t230.5 98.5l2 4q-115 15 -174 93.5t-33 229.5l33 191h-293z" />
<glyph horiz-adv-x="1300" d="M57 1444l13 72h1431l-12 -72h-418l-55 -303h2l-12 -64h-351q-310 0 -352 -215q-10 -58 5.5 -100.5t51 -66.5t81.5 -35t102 -11h90q64 0 121.5 -11t107.5 -37t83.5 -64t47 -96.5t0.5 -131.5q-28 -148 -150 -240t-321 -92q-228 0 -339 113t-81 283h82q-25 -143 62.5 -235.5 t283.5 -92.5q158 0 260 75.5t123 190.5q13 77 -7.5 133t-67.5 85.5t-103 43t-125 13.5h-88q-67 0 -125 16t-103 48t-65.5 87t-7.5 127q11 63 41.5 112t71 79.5t92.5 50.5t103.5 27.5t107.5 7.5h297l55 303h-932zM438 -213h86l174 -379h-88zM1122 834q6 31 28.5 50t53.5 19 t47 -19t11 -50q-4 -29 -27.5 -48.5t-52.5 -19.5q-31 0 -48.5 19.5t-11.5 48.5z" />
<glyph horiz-adv-x="966" d="M55 1444l13 72h1290l-12 -72h-1291zM147 1028l13 70h737l-14 -70h-64q-180 0 -306.5 -106t-154.5 -267q-15 -84 3.5 -153t63 -113t108.5 -68t141 -24q172 0 306.5 117t162.5 280h69q-17 -126 -95 -234t-200 -172.5t-260 -64.5q-189 0 -301 114t-77 308q25 133 106.5 233 t206.5 150h-445z" />
<glyph horiz-adv-x="1658" d="M51 1444l10 72h1797l-11 -72h-1427l-45 -252q-25 -146 40 -219.5t238 -73.5h47l-10 -72h-47q-191 0 -305 -87.5t-139 -223.5q-16 -92 14.5 -165t99 -119.5t165.5 -70.5t216 -24q193 0 359 69.5t279.5 203t144.5 309.5q31 172 -37.5 264t-182.5 92q-48 0 -95 -14.5 t-92.5 -45.5t-80 -88t-47.5 -132q-17 -87 2 -209h-74q-18 113 0 215q16 90 58 158.5t99 106.5t118 56.5t125 18.5q71 0 129 -25t100.5 -77t57 -131.5t-2.5 -188.5q-36 -202 -161 -352t-308.5 -227t-402.5 -77q-136 0 -248.5 30t-190 86t-111.5 142t-15 193 q18 102 75.5 178.5t135 117t168.5 50.5v4q-113 15 -172.5 94.5t-32.5 229.5l47 256h-287z" />
<glyph horiz-adv-x="1138" d="M55 1444l13 72h1474l-14 -72h-1473zM170 692l61 344h82l-59 -346q-25 -138 32.5 -224.5t180.5 -86.5q127 0 218 86.5t116 224.5l61 346h594l-10 -73h-514l-49 -273q-32 -173 -146.5 -279.5t-283.5 -105.5q-103 1 -174.5 51.5t-99.5 138t-9 197.5z" />
<glyph horiz-adv-x="1163" d="M70 1444l12 72h1456l-14 -72h-443l-55 -301h2l-12 -66h-352q-45 0 -86 -5t-87.5 -19.5t-82 -37.5t-63 -63t-36.5 -92q-20 -109 50 -160t192 -51h831l-10 -65l-498 2q74 -38 109 -110t16 -173q-25 -134 -131 -220.5t-284 -86.5q-73 0 -135 17.5t-100 42t-66.5 56 t-41.5 55.5t-18 44l-65 -361h-80l92 502h74q-3 -124 81 -207.5t255 -83.5q149 0 236 70.5t106 177.5q23 130 -54.5 203.5t-246.5 73.5h-99q-71 0 -129 16.5t-100.5 49t-60.5 87t-5 125.5q13 78 55.5 135t103.5 87t126 43.5t137 13.5h297l55 301h-931z" />
<glyph horiz-adv-x="1142" d="M55 1444l13 72h1407l-13 -72h-1407zM127 555h80q4 -48 22.5 -91.5t54 -81.5t95.5 -60.5t139 -22.5q92 0 171.5 32.5t135 89t92 129t50.5 155.5q19 108 -5 196.5t-101 145.5t-199 57q-80 0 -149.5 -23.5t-118.5 -62.5t-82.5 -82t-53.5 -90h-80q22 64 63.5 121.5t102 105.5 t146 76.5t184.5 28.5q105 0 184.5 -35.5t123 -97t61.5 -138t8 -162.5h286l-12 -73h-287q-20 -90 -64.5 -169.5t-109.5 -142t-156.5 -99t-197.5 -36.5q-98 0 -173 29t-119 78t-66.5 105t-24.5 118z" />
<glyph horiz-adv-x="1327" d="M45 1444l14 72h1467l-13 -72h-481l-65 -357h-162q-109 0 -205.5 -28.5t-176.5 -83.5t-135 -144.5t-75 -203.5q-35 -191 74.5 -315t308.5 -124t341.5 127t176.5 328h80q-40 -237 -204.5 -382.5t-405.5 -145.5q-113 0 -207 38.5t-155.5 105.5t-87 164t-5.5 208 q24 133 87 235t154.5 165.5t203 95.5t239.5 32h86l51 285h-905zM502 -76h84l178 -379h-88z" />
<glyph horiz-adv-x="1380" d="M45 1444l12 72h1522l-12 -72h-721l-55 -307q136 -9 236 -76.5t145.5 -184t19.5 -258.5q-41 -223 -215 -362t-404 -139q-225 0 -353 147.5t-89 372.5q39 216 200.5 352.5t377.5 147.5l55 307h-719zM215 635q-35 -190 71 -317.5t298 -127.5q190 0 340.5 121.5t185.5 309.5 q34 192 -71 318t-300 126q-191 0 -341 -120t-183 -310zM500 -72h84l176 -381h-86z" />
<glyph horiz-adv-x="1187" d="M57 1444l13 72h1316l-12 -72h-317l-66 -367h-336q-310 0 -352 -215q-10 -58 5.5 -100.5t51 -66.5t81.5 -35t102 -11h90q64 0 121.5 -11t107.5 -37t83.5 -64t47 -96.5t0.5 -131.5q-28 -148 -150 -240t-321 -92q-228 0 -339 113t-81 283h82q-25 -143 62.5 -235.5 t283.5 -92.5q158 0 260 75.5t123 190.5q13 77 -7.5 133t-67.5 85.5t-103 43t-125 13.5h-88q-67 0 -125 16t-103 48t-65.5 87t-7.5 127q11 63 41.5 112t71 79.5t92.5 50.5t103.5 27.5t107.5 7.5h285l55 303h-920zM446 -213h84l175 -379h-87z" />
<glyph horiz-adv-x="1292" d="M51 1444l12 72h1428l-12 -72h-404l-61 -346h-168q-115 0 -218 -31.5t-188.5 -92.5t-145 -158.5t-81.5 -221.5q-38 -217 81 -354.5t343 -137.5q170 0 295 91.5t151 232.5q20 116 -39.5 191t-173.5 75q-102 0 -179.5 -62t-92.5 -165q-4 -24 -4 -43h-66q0 21 4 53 q23 130 121 206.5t232 76.5q140 0 218.5 -94t53.5 -238q-31 -173 -176.5 -281t-353.5 -108q-166 0 -288.5 70t-178.5 198.5t-27 292.5q25 141 91.5 251t162 177.5t210.5 102t243 34.5h106l49 281h-944zM518 -154h84l176 -381h-86z" />
<glyph horiz-adv-x="1165" d="M55 1444l13 72h1261l-12 -72h-291l-113 -639q-30 -172 -138 -277.5t-271 -105.5q-165 0 -247 107t-50 276l112 639h-264zM287 799q-24 -135 35.5 -220t183.5 -85q127 0 214 84.5t111 220.5l113 645h-543z" />
<glyph horiz-adv-x="813" d="M55 1444l13 72h1171l-14 -72h-1170zM119 516q46 256 225 383t451 127h356l-12 -74h-353q-237 0 -390.5 -109.5t-192.5 -328.5q-37 -211 62 -325.5t319 -114.5h47l-13 -70h-51q-243 0 -366.5 134.5t-81.5 377.5z" />
<glyph horiz-adv-x="980" d="M185.5 598q-14.5 116 25.5 254h213q68 0 128 7.5t125 29.5t113.5 57.5t86 95.5t51.5 138q22 121 -38 200.5t-188 79.5q-161 0 -254.5 -108.5t-91.5 -280.5h-77q2 203 120 333t316 130q159 0 239.5 -101.5t53.5 -254.5q-18 -106 -72.5 -184t-134 -122.5t-170 -65 t-195.5 -20.5h-162q-45 -229 64 -360t338 -131q118 0 229 51.5t191 147.5t102 215h72q-35 -212 -209.5 -349t-394.5 -137q-141 0 -246.5 46.5t-162.5 129.5t-71.5 199z" />
<glyph horiz-adv-x="1245" d="M55 1444l13 72h1376l-12 -72h-330l-60 -334h-266q-96 0 -183.5 -24.5t-160.5 -72.5t-123.5 -125.5t-68.5 -176.5q-31 -178 58.5 -289t264.5 -111q48 0 98 11.5t101 37.5t93.5 63t74 94t43.5 126h76l-115 -655h-82l80 456q-55 -91 -162 -146.5t-233 -55.5q-201 0 -309 131 t-72 340q21 121 80.5 213t145 147.5t186.5 83t214 27.5h191l45 260h-963zM819 -201h84l176 -381h-88z" />
<glyph horiz-adv-x="894" d="M166 575q25 132 114 208.5t197 86.5v7q-110 22 -172.5 107t-36.5 226q24 142 129 233t254 91q162 0 233 -102.5t25 -270.5h-69q38 139 -15.5 220t-181.5 81q-114 0 -198.5 -75t-102.5 -185q-25 -133 48.5 -212t234.5 -79h120l-12 -69h-110q-160 0 -256 -73.5t-117 -188.5 q-13 -72 6.5 -127t65 -88.5t107.5 -50.5t138 -17q206 0 353 107t176 278h73q-38 -205 -203.5 -332t-414.5 -127q-127 0 -220 38.5t-139 119.5t-26 194z" />
<glyph horiz-adv-x="1062" d="M55 1444l13 72h1396l-14 -72h-1395zM129 670q29 171 157 271.5t312 100.5h782l-12 -71h-584q67 -42 99.5 -123t13.5 -184q-28 -163 -151.5 -265t-288.5 -102q-171 0 -264 105.5t-64 267.5zM207 666q-25 -131 48 -214t214 -83q132 0 232.5 86.5t125.5 214.5 q25 131 -47.5 215t-206.5 84q-139 0 -240 -83.5t-126 -219.5z" />
<glyph horiz-adv-x="800" d="M55 1444l13 72h1124l-12 -72h-783l-90 -502q-34 -199 39.5 -310.5t249.5 -111.5q162 0 273.5 102.5t140.5 254.5h69q-33 -189 -164 -308.5t-327 -119.5q-211 0 -306.5 134t-54.5 365l88 496h-260z" />
<glyph horiz-adv-x="1554" d="M55 1444l13 72h1921l-13 -72h-825l-94 -533q64 118 176 192.5t264 74.5q185 0 286.5 -127t65.5 -336h-84q31 177 -56 284t-243 107q-97 0 -178 -37t-134.5 -98t-87 -131t-46.5 -144l-123 -696h-82l117 666q-62 -101 -160.5 -159t-222.5 -58q-199 0 -281.5 130t-42.5 361 l90 504h-260zM307 940q-35 -201 30.5 -310.5t237.5 -109.5q155 0 261.5 105t134.5 260l98 559h-672z" />
<glyph horiz-adv-x="899" d="M55 1444l13 72h1224l-14 -72h-1223zM152 707q39 222 202 356.5t379 134.5q83 0 152 -20.5t116 -56.5t82 -83.5t50.5 -102t21.5 -112t-6 -112.5q-23 -131 -98 -240t-199.5 -177.5t-273.5 -68.5q-103 0 -189.5 34t-145.5 95t-84 152.5t-7 200.5zM225 705q-16 -96 5 -176 t71.5 -131.5t123.5 -80t159 -28.5q183 0 315 112l-526 588q-119 -116 -148 -284zM410 1022l526 -586q115 115 143 273q11 50 6.5 101t-17.5 98.5t-43 89t-70 72t-98.5 48t-129.5 17.5q-180 0 -317 -113z" />
<glyph horiz-adv-x="1030" d="M150 586q27 153 141.5 242.5t273.5 89.5h230l39 215q27 156 -15.5 241.5t-161.5 85.5q-102 0 -177.5 -70t-98.5 -192q-6 -40 -6 -86h-82q0 44 6 88q26 153 125.5 243.5t239.5 90.5q159 0 219.5 -108.5t27.5 -301.5l-37 -206h400l-12 -70h-400l-35 -195 q-33 -196 -135 -297.5t-258 -101.5q-152 0 -231 91.5t-53 240.5zM227 586q-21 -117 40 -188.5t173 -71.5q118 0 200 84.5t108 238.5l34 199h-225q-126 0 -217 -71.5t-113 -190.5z" />
<glyph horiz-adv-x="1021" d="M55 1444l13 72h1304l-12 -72h-465l-92 -526h465l-13 -70h-464l-35 -195q-33 -196 -135.5 -297.5t-258.5 -101.5q-151 0 -230.5 92.5t-53.5 239.5q26 153 141 242.5t275 89.5h231l92 526h-762zM156 586q-21 -117 40 -188.5t173 -71.5q119 0 199.5 84t109.5 239l35 199 h-230q-125 0 -215 -71.5t-112 -190.5z" />
<glyph horiz-adv-x="950" d="M55 1444l13 72h1302l-12 -72h-555l-31 -178q-20 -111 -66 -190t-115 -124t-150 -65.5t-183 -20.5q-3 -18 -6 -30q-42 -234 65 -367t328 -133q188 0 335 116t179 300h76q-34 -213 -200 -351.5t-402 -138.5q-255 0 -381.5 158t-79.5 422q2 15 18 80h35q90 0 161 16 t135.5 53.5t108.5 109.5t62 175l29 168h-666z" />
<glyph horiz-adv-x="1101" d="M57 1444l13 72h1233l-15 -72h-284l-41 -246q-41 -227 -177.5 -342t-353.5 -115h-158l-57 -325q-31 -162 33.5 -261.5t212.5 -99.5q135 0 225 90t117 242l6 29h80q-4 -20 -4 -27q-31 -189 -143.5 -298t-284.5 -109q-188 0 -275.5 121.5t-48.5 318.5l68 389h221 q186 0 303 96.5t152 290.5l41 246h-863zM354 -213h84l176 -379h-88z" />
<glyph horiz-adv-x="1409" d="M39 1444l12 72h1743l-14 -72h-1741zM128 486.5q-17 89.5 5 193.5q36 208 161 331.5t312 123.5q67 0 120 -20.5t86.5 -53t56 -77t31.5 -90t9 -93.5h4q23 63 56.5 118t84.5 106t124.5 80.5t160.5 29.5q178 0 259.5 -129t48.5 -328h-84q29 167 -32.5 275t-211.5 108 q-158 0 -263 -121.5t-143 -331.5l-4 -22h-71l2 22q39 207 -20.5 330t-213.5 123q-158 0 -259 -106t-130 -277q-34 -185 45.5 -300.5t267.5 -115.5q16 0 62 4l-14 -73q-50 -5 -60 -5q-113 0 -197.5 38t-130 104.5t-62.5 156z" />
<glyph horiz-adv-x="870" d="M55 1444l13 72h1210l-12 -72h-1211zM156 719q38 212 197 339.5t372 127.5q84 0 153.5 -20.5t115.5 -56t80.5 -82.5t48.5 -100.5t19 -110.5t-7 -111q-11 -67 -39.5 -132t-77.5 -126.5t-112.5 -108t-150.5 -74.5t-186 -28q-217 0 -334.5 131t-78.5 352zM236 715 q-33 -190 64.5 -301t277.5 -111q104 0 192 38t145 99t92.5 130t47.5 139q11 47 7.5 96t-14.5 94t-39 84.5t-66 69t-95 46.5t-127 17q-175 0 -313.5 -109t-171.5 -292z" />
<glyph horiz-adv-x="1085" d="M152 428l59 338h309q182 0 316.5 93t164.5 263q27 153 -47 245.5t-213 92.5q-172 0 -277.5 -123.5t-105.5 -312.5h-84q3 225 135 367.5t339 142.5q180 0 274.5 -116.5t58.5 -307.5q-37 -200 -190 -308t-365 -108h-243l-47 -272q-30 -166 33.5 -266.5t219.5 -100.5 q142 0 241 98t124 263h82q-19 -126 -74 -222t-152 -154t-223 -58q-197 0 -284 121t-51 325z" />
<glyph horiz-adv-x="796" d="M55 1444l13 72h1120l-14 -72h-779l660 -678q-21 -58 -57.5 -112t-92 -102.5t-136.5 -78t-175 -29.5q-205 0 -307.5 135t-61.5 363l90 502h-260zM305 942q-35 -197 46 -310.5t245 -113.5q76 0 141 22t110 59.5t75.5 75.5t50.5 81l-592 614z" />
<glyph horiz-adv-x="1089" d="M55 1444l13 72h1366l-15 -72h-428l-39 -215q-26 -147 -98 -242.5t-170 -142.5h631l-12 -70h-1027l-61 -356q-29 -165 35.5 -264t216.5 -99q142 0 231 98.5t113 258.5h80q-28 -192 -139 -311t-291 -119q-188 0 -275 122t-53 320l74 416h213q180 0 299 104.5t153 284.5 l39 215h-856z" />
<glyph horiz-adv-x="1202" d="M74 1444l12 72h1333l-12 -72h-305l-53 -295l-13 -66h-385q-56 0 -104.5 -10.5t-92 -33t-73 -63t-39.5 -95.5q-14 -85 31.5 -139.5t134.5 -77.5q58 12 125 12q97 0 172.5 -28.5t119 -75.5t66.5 -99.5t25 -107.5h-82q-3 42 -22 82.5t-54.5 77t-97 59t-139.5 22.5 q-89 0 -166.5 -30.5t-133 -82.5t-92 -118t-49.5 -139q-19 -102 7.5 -183.5t104.5 -132.5t200 -51q144 0 248.5 72t148.5 168h80q-22 -57 -63 -110.5t-100 -99.5t-142.5 -74t-178.5 -28q-145 0 -241 62t-130.5 161t-13.5 220q24 132 107.5 237.5t210.5 157.5 q-76 30 -124 94.5t-30 163.5q24 130 127 193t252 63h326l53 295h-948zM397 -391h84l176 -381h-86z" />
<glyph horiz-adv-x="2066" d="M35 1444l12 72h2218l-14 -72h-2216zM131 696q36 208 185.5 335.5t345.5 127.5q88 0 157.5 -25.5t113 -70t69 -98t34.5 -115.5h4q62 132 184 220.5t292 88.5q197 0 303.5 -127.5t70.5 -335.5q-34 -197 -183.5 -323.5t-346.5 -126.5q-165 0 -264 90t-107 223h-6 q-54 -133 -182 -223t-293 -90q-198 0 -305 126.5t-72 323.5zM213 696q-30 -167 58.5 -273t252.5 -106q167 0 290 106.5t153 272.5q31 173 -54 282t-254 109q-165 0 -290.5 -107.5t-155.5 -283.5zM1055 696q-31 -165 54 -272t253 -107q164 0 290.5 106t155.5 273 q30 177 -56.5 284t-252.5 107q-169 0 -291 -109t-153 -282z" />
<glyph horiz-adv-x="1048" d="M106 389q8 48 26.5 90.5t42.5 76t58 65t67 55t76.5 48.5t80 43t83.5 41q32 15 48 23q-144 22 -229.5 118.5t-59.5 246.5q27 158 148.5 249t273.5 91t243.5 -92t63.5 -244q-19 -107 -80.5 -182.5t-159.5 -138.5h504l-12 -66h-600q-28 -14 -79.5 -38.5t-81.5 -39t-74.5 -39 t-72.5 -44t-61.5 -48.5t-54 -57.5t-38 -66t-25.5 -79.5q-21 -116 40.5 -193t188.5 -77q131 0 223 83.5t113 207.5h73l-92 -524h-77l59 344q-12 -25 -37 -53.5t-65 -58.5t-100 -49.5t-128 -19.5q-154 0 -232 93t-53 235zM375 1190q-24 -141 64 -222.5t247 -86.5 q112 62 180.5 133.5t87.5 175.5q21 125 -50 198.5t-193 73.5q-119 0 -217 -73.5t-119 -198.5z" />
<glyph horiz-adv-x="1081" d="M45 111l96 544h78q-11 -153 80.5 -237t232.5 -84q149 0 256 94.5t134 239.5q30 170 -71 267t-288 97h-16l12 70h932l-12 -70h-684q113 -44 167.5 -141.5t32.5 -239.5q-31 -174 -156 -281t-298 -106q-143 0 -234 66.5t-112 158.5l-68 -378h-82zM55 1444l13 72h1497 l-13 -72h-1497z" />
<glyph horiz-adv-x="1556" d="M55 1444l13 72h1974l-12 -72h-824l-92 -526q64 117 172.5 188.5t257.5 71.5q185 0 289.5 -128t67.5 -335h-82q30 177 -57 284t-242 107q-92 0 -170 -33.5t-131 -89t-87.5 -120t-50.5 -134.5l-129 -729h-78l87 496q-63 -113 -176 -184.5t-263 -71.5q-194 0 -299.5 129 t-66.5 346q25 140 102.5 246.5t187 161.5t234.5 55q152 0 240.5 -72.5t113.5 -187.5l92 526h-1071zM240 715q-33 -188 55 -296t252 -108q96 0 178 35.5t135 93t87 121.5t48 129l6 41q9 69 -3 132.5t-45.5 119.5t-101.5 89.5t-163 33.5q-159 0 -288 -107t-160 -284zM377 -25 q5 31 29.5 51.5t56.5 20.5q29 0 46 -20.5t13 -51.5q-4 -30 -28.5 -50.5t-55.5 -20.5t-48 20t-13 51z" />
<glyph horiz-adv-x="1386" d="M55 1444l13 72h1718l-14 -72h-992l-53 -309q-69 -390 -430 -390h-25l-51 -292q-31 -173 57 -277t269 -104q142 0 251 75.5t175 192.5q-109 45 -157.5 145.5t-24.5 239.5q34 192 170 305t329 113q194 0 292 -113t65 -305q-33 -191 -171.5 -303.5t-330.5 -112.5 q-51 0 -103 10q-74 -140 -202.5 -230.5t-294.5 -90.5q-219 0 -331.5 124.5t-74.5 336.5l64 352h82q49 0 91 8t86.5 30t79 57.5t62 96t41.5 140.5l53 301h-643zM383 -264q4 31 29 51t57 20q29 0 46 -20t13 -51t-28.5 -51.5t-55.5 -20.5t-48.5 20.5t-12.5 51.5zM866 725 q-28 -157 51.5 -251.5t239.5 -94.5t273 94.5t141 251.5q28 160 -51.5 255t-239.5 95q-159 0 -272.5 -95.5t-141.5 -254.5z" />
<glyph horiz-adv-x="948" d="M55 1444l13 72h1034l-12 -72h-279l-106 -606q-24 -138 -108 -226t-230 -88q-141 0 -203 88t-39 219l12 62h82l-12 -64q-10 -42 -4.5 -83.5t21.5 -74.5t54.5 -54t94.5 -21q111 0 171 69t77 171l106 608h-672zM252 250q5 31 29.5 51.5t56.5 20.5q29 0 46 -20.5t13 -51.5 t-28.5 -51.5t-55.5 -20.5t-48.5 20.5t-12.5 51.5z" />
<glyph horiz-adv-x="1138" d="M55 1444l13 72h1474l-14 -72h-1473zM170 692l61 344h82l-59 -346q-25 -138 32.5 -224.5t180.5 -86.5q127 0 218 86.5t116 224.5l61 346h594l-10 -73h-514l-49 -273q-32 -173 -146.5 -279.5t-283.5 -105.5q-103 1 -174.5 51.5t-99.5 138t-9 197.5zM344 43q5 31 29.5 51.5 t56.5 20.5q29 0 46 -20.5t13 -51.5t-28 -51.5t-55 -20.5t-48.5 20.5t-13.5 51.5z" />
<glyph horiz-adv-x="1554" d="M55 1444l13 72h1921l-13 -72h-825l-94 -533q64 118 176 192.5t264 74.5q185 0 286.5 -127t65.5 -336h-84q31 177 -56 284t-243 107q-97 0 -178 -37t-134.5 -98t-87 -131t-46.5 -144l-123 -696h-82l117 666q-62 -101 -160.5 -159t-222.5 -58q-199 0 -281.5 130t-42.5 361 l90 504h-260zM307 940q-35 -201 30.5 -310.5t237.5 -109.5q155 0 261.5 105t134.5 260l98 559h-672zM397 188q5 31 29.5 51.5t56.5 20.5q29 0 46.5 -20.5t13.5 -51.5q-4 -30 -28.5 -50.5t-55.5 -20.5t-48.5 20t-13.5 51z" />
<glyph horiz-adv-x="0" d="M-350 1495l31 184q31 175 125 271t243 96q135 0 199 -84.5t37 -218.5h-74q19 101 -28 165t-146 64q-224 0 -277 -295l-32 -182h-78z" />
<glyph horiz-adv-x="530" d="M-16 1444l12 72h723l-12 -72h-723zM68 1194h77q-12 -68 2.5 -122.5t47.5 -88.5t82 -57t101.5 -32t110.5 -9q62 0 148 14l14 -55q-71 -27 -184 -27q-68 0 -129.5 11.5t-118.5 40t-95 70.5t-54 107.5t-2 147.5z" />
<glyph horiz-adv-x="0" d="M-860 -199l432 367h111l299 -367h-86l-271 330l-385 -330h-100z" />
<glyph horiz-adv-x="2072" d="M55 1444l13 72h2203l-14 -72h-1051l-92 -526q64 117 172.5 188.5t257.5 71.5q185 0 289.5 -128.5t67.5 -336.5q-39 -219 -181.5 -345t-333.5 -126q-58 0 -116 12l12 70q53 -11 102 -11q156 0 279 108t156 294q30 177 -57 284t-242 107q-92 0 -170 -33.5t-131 -89 t-87.5 -120t-50.5 -134.5l-129 -729h-78l89 500q-52 -90 -134 -154l-559 -440h-98l442 346q-41 -8 -94 -8q-194 0 -298.5 127.5t-65.5 343.5q25 140 102.5 246.5t187 161.5t234.5 55q152 0 240.5 -72.5t113.5 -187.5l92 526h-1071zM240 715q-33 -188 54.5 -296t252.5 -108 q115 0 205 49l24 19l4 -2q86 53 141 139t74 174l6 35q8 43 4 88.5t-14.5 87.5t-36 79.5t-60.5 65.5t-88 44t-118 16q-159 0 -288 -107t-160 -284z" />
<glyph horiz-adv-x="1880" d="M55 1444l13 72h2011l-15 -72h-309l-254 -1444h-82l94 530q-58 -98 -157.5 -159.5t-229.5 -61.5q-32 0 -86 8q-73 -127 -184 -208l-516 -412h-98l2 6l385 305q-41 -8 -97 -8q-215 0 -322.5 123.5t-70.5 335.5l64 352h82q303 0 360 332l53 301h-643zM221 453 q-31 -173 57 -277t269 -104q135 0 248.5 76.5t177.5 191.5q-104 46 -154 150.5t-26 248.5q32 185 164 295.5t305 108.5q137 0 216 -61.5t103 -159.5l92 522h-893l-53 -309q-69 -390 -430 -390h-25zM866 733q-28 -165 54.5 -260.5t230.5 -95.5q69 0 129.5 21.5t104.5 56.5 t78.5 81t54.5 93.5t28 95.5q9 40 6 81.5t-12 80.5t-32 73t-55 59.5t-80.5 40.5t-108.5 15q-144 0 -257 -92.5t-141 -249.5z" />
<glyph horiz-adv-x="1443" d="M55 1444l13 72h1574l-12 -72h-311l-252 -1444h-82l105 588l-738 -629h-104l856 725l133 760h-426l-90 -514q-11 -66 -36 -120.5t-65 -99t-100.5 -69.5t-136.5 -25q-97 0 -158 46t-79.5 116t-2.5 154q2 10 5.5 26.5t5.5 26.5h82l-13 -63q-11 -42 -5.5 -83.5t21.5 -75 t54.5 -54.5t93.5 -21q59 0 105 20.5t74.5 56t45.5 75t25 86.5l90 518h-672z" />
<glyph horiz-adv-x="1468" d="M55 1444l13 72h1599l-12 -72h-309l-254 -1444h-82l92 522q-62 -100 -160 -170l-590 -467h-98l463 363q-78 -19 -154 -19q-205 0 -318.5 98.5t-82.5 276.5q25 136 127.5 222t232.5 100v4q-115 15 -174 93.5t-33 229.5l35 191h-295zM246 610q-18 -102 23 -173t123.5 -103.5 t197.5 -32.5q194 0 354 124.5t195 315.5l123 703h-828l-35 -189q-25 -145 44 -218.5t249 -73.5h96l-12 -70h-96q-191 0 -300 -78.5t-134 -204.5z" />
<glyph horiz-adv-x="1302" d="M31 -354l397 338q-182 23 -267.5 130t-58.5 259h82q-25 -143 62.5 -235.5t283.5 -92.5q158 0 260 75.5t123 190.5q13 77 -7.5 133t-67.5 85.5t-103 43t-125 13.5h-88q-67 0 -125 16t-103 48t-65.5 87t-7.5 127q11 63 41.5 112t71 79.5t92.5 50.5t103.5 27.5t107.5 7.5 h299l55 303h-934l13 72h1431l-12 -72h-416l-59 -328l-6 -39h-353q-310 0 -352 -215q-10 -58 5.5 -100.5t51 -66.5t81.5 -35t102 -11h90q64 0 121.5 -11t107.5 -37t83.5 -64t47 -96.5t0.5 -131.5q-24 -132 -126 -220.5t-269 -106.5l274 -336h-86l-270 329l-385 -329h-100z M1124 834q4 30 27.5 49.5t54.5 19.5t47 -19t11 -50q-6 -29 -29.5 -48.5t-52.5 -19.5q-31 0 -47.5 19.5t-10.5 48.5z" />
<glyph horiz-adv-x="1482" d="M55 1444l13 72h1613l-14 -72h-307l-254 -1444h-84l86 483q-60 -94 -154 -157l-528 -420h-96l422 332q-64 -11 -105 -11q-120 0 -211 49t-135.5 145.5t-21.5 223.5q23 133 106 233t209 150h-447l13 70h737l-14 -70h-64q-180 0 -306.5 -106t-154.5 -267q-15 -84 3.5 -153 t63 -113t108.5 -68t141 -24q126 0 237 68l17 12l2 -2q82 56 138 137.5t75 173.5l135 758h-1223z" />
<glyph horiz-adv-x="1658" d="M51 1444l10 72h1797l-11 -72h-485l-53 -305q134 -13 205.5 -120.5t39.5 -299.5q-49 -267 -244 -437.5t-476 -207.5l280 -342h-94l-268 331l-385 -331h-95l390 331q-178 3 -309 55t-196.5 154.5t-39.5 241.5q18 102 75.5 178.5t135 117t168.5 50.5v4q-113 15 -172.5 94.5 t-32.5 229.5l47 256h-287zM199 516q-16 -92 14.5 -165t99 -119.5t165.5 -70.5t216 -24q193 0 359 69.5t279.5 203t144.5 309.5q31 172 -37.5 264t-182.5 92q-48 0 -95 -14.5t-92.5 -45.5t-80 -88t-47.5 -132q-17 -87 2 -209h-74q-18 113 0 215q29 161 130.5 244.5 t230.5 93.5l53 305h-864l-45 -252q-25 -146 40 -219.5t238 -73.5h47l-10 -72h-47q-191 0 -305 -87.5t-139 -223.5z" />
<glyph horiz-adv-x="1697" d="M55 1444l13 72h1828l-12 -72h-309l-254 -1444h-80l100 580l-729 -631h-102l848 727l51 291h-481l-23 -133q-30 -171 -143 -278t-273 -107q-164 0 -244.5 107.5t-49.5 277.5l36 202h84l-36 -202q-25 -139 32 -225.5t181 -86.5q127 0 218 87t115 225l35 202h561l74 408 h-1440z" />
<glyph horiz-adv-x="1830" d="M70 1444l12 72h1948l-15 -72h-309l-254 -1444h-82l66 375l-510 -584h-92l622 694l2 23l15 76l-599 2q74 -38 109 -110t16 -173q-25 -134 -131 -220.5t-284 -86.5q-73 0 -135 17.5t-100 42t-66.5 56t-41.5 55.5t-18 44l-65 -361h-80l92 502h74q-3 -124 81 -207.5 t255 -83.5q149 0 236 70.5t106 177.5q23 130 -54.5 203.5t-246.5 73.5h-99q-71 0 -129 16.5t-100.5 49t-60.5 87t-5 125.5q13 78 55.5 135t103.5 87t126 43.5t137 13.5h297l55 301h-931zM309 860q-20 -109 50 -160t192 -51h932l141 795h-543l-55 -301h2l-12 -66h-352 q-45 0 -86 -5t-87.5 -19.5t-82 -37.5t-63 -63t-36.5 -92z" />
<glyph horiz-adv-x="1728" d="M57 1444l11 72h1859l-10 -72h-313l-252 -1444h-82l80 457l-701 -607h-94l811 699l29 164h-348q-19 -87 -61.5 -163.5t-106.5 -137.5t-155.5 -96t-199.5 -35q-98 0 -175.5 29.5t-123.5 78t-68.5 106t-19.5 117.5h80q-1 -46 17.5 -90.5t55.5 -82t99 -60.5t141 -23 q92 0 170.5 30.5t133.5 83t90.5 120.5t48.5 145q8 59 5 112.5t-26 100.5t-59.5 81.5t-94.5 54.5t-132 20q-81 0 -151 -23t-119 -62.5t-82.5 -82t-55.5 -90.5h-80q23 64 63.5 120t100 105t145 78t185.5 29q103 0 181.5 -32t123.5 -87t65 -124t15 -149h350l115 658h-1465z" />
<glyph horiz-adv-x="1327" d="M45 1444l14 72h1467l-13 -72h-481l-65 -357h-162q-109 0 -205.5 -28.5t-176.5 -83.5t-135 -144.5t-75 -203.5q-35 -191 74.5 -315t308.5 -124t341.5 127t176.5 328h80q-37 -219 -182 -361.5t-361 -162.5l273 -334h-86l-271 330l-385 -330h-100l399 338 q-189 33 -288.5 171.5t-63.5 336.5q24 133 87 235t154.5 165.5t203 95.5t239.5 32h86l51 285h-905z" />
<glyph horiz-adv-x="1382" d="M47 1444l12 72h1522l-12 -72h-721l-55 -307q136 -9 236 -76.5t145.5 -184t19.5 -258.5q-36 -201 -184 -335.5t-351 -159.5l277 -340h-86l-270 330l-385 -330h-101l400 340q-191 27 -294 169.5t-67 344.5q39 216 200.5 352.5t377.5 147.5l55 307h-719zM217 635 q-35 -190 71 -317.5t298 -127.5q190 0 340.5 121.5t185.5 309.5q34 192 -71 318t-300 126q-191 0 -341 -120t-183 -310z" />
<glyph horiz-adv-x="1187" d="M16 -354l400 340q-176 26 -258.5 132.5t-55.5 254.5h82q-25 -143 62.5 -235.5t283.5 -92.5q158 0 260 75.5t123 190.5q13 77 -7.5 133t-67.5 85.5t-103 43t-125 13.5h-88q-67 0 -125 16t-103 48t-65.5 87t-7.5 127q11 63 41.5 112t71 79.5t92.5 50.5t103.5 27.5 t107.5 7.5h285l55 303h-920l13 72h1316l-12 -72h-317l-66 -367h-336q-310 0 -352 -215q-10 -58 5.5 -100.5t51 -66.5t81.5 -35t102 -11h90q64 0 121.5 -11t107.5 -37t83.5 -64t47 -96.5t0.5 -131.5q-26 -136 -130.5 -225.5t-276.5 -103.5l272 -334h-86l-270 329l-385 -329 h-101z" />
<glyph horiz-adv-x="1292" d="M51 1444l12 72h1428l-12 -72h-404l-61 -346h-168q-115 0 -218 -31.5t-188.5 -92.5t-145 -158.5t-81.5 -221.5q-38 -217 81 -354.5t343 -137.5q170 0 295 91.5t151 232.5q20 116 -39.5 191t-173.5 75q-102 0 -179.5 -62t-92.5 -165q-4 -24 -4 -43h-66q0 21 4 53 q23 130 121 206.5t232 76.5q140 0 218.5 -94t53.5 -238q-29 -162 -160.5 -268.5t-322.5 -118.5l274 -336h-86l-270 330l-385 -330h-101l406 344q-205 34 -311.5 184.5t-67.5 366.5q25 141 91.5 251t162 177.5t210.5 102t243 34.5h106l49 281h-944z" />
<glyph horiz-adv-x="1705" d="M55 1444l15 72h1835l-15 -72h-309l-254 -1444h-80l105 588l-738 -637h-104l856 735l133 758h-471l-88 -496q-30 -173 -138.5 -279t-273.5 -106q-164 0 -245 108t-50 277l86 496h-264zM313 942q-24 -135 35.5 -220t183.5 -85q127 0 214.5 84.5t111.5 220.5l88 502h-545z " />
<glyph horiz-adv-x="1404" d="M55 1444l13 72h1536l-15 -72h-307l-254 -1444h-82l115 649l-764 -649h-111v6l891 744q-24 126 -121.5 205t-250.5 79q-177 0 -313 -109.5t-169 -299.5h-82q37 222 194.5 350.5t366.5 128.5q83 0 152 -21.5t115.5 -58t77.5 -78t49 -88.5l104 586h-1145z" />
<glyph horiz-adv-x="1533" d="M188 766q5 23 21 86h213q56 0 106.5 5.5t105.5 19t101.5 38t86 59.5t67.5 87.5t39 118.5q22 121 -38.5 200.5t-189.5 79.5q-159 0 -252.5 -109.5t-91.5 -279.5h-77q2 202 119.5 332.5t310.5 130.5q163 0 245 -101.5t54 -254.5q-19 -107 -73.5 -185t-134.5 -122 t-170.5 -64.5t-195.5 -20.5h-160q-47 -225 61 -358t339 -133q123 0 235 54t190.5 154t100.5 226l139 787h394l-13 -72h-309l-256 -1444h-82l92 516q-49 -103 -161 -182h2l-705 -490h-106v6l550 379q-47 -6 -92 -6q-253 0 -381 149t-84 394z" />
<glyph horiz-adv-x="1245" d="M55 1444l13 72h1376l-12 -72h-330l-60 -334h-266q-96 0 -183.5 -24.5t-160.5 -72.5t-123.5 -125.5t-68.5 -176.5q-31 -178 58.5 -289t264.5 -111q108 0 207 54l16 12l5 -2q151 93 182 268h76l-115 -655h-82l80 456q-43 -73 -127 -125l-529 -417h-96l443 348 q-36 -8 -86 -8q-201 0 -309 131t-72 340q21 121 80.5 213t145 147.5t186.5 83t214 27.5h191l45 260h-963z" />
<glyph horiz-adv-x="1433" d="M166 578q25 131 114 205.5t197 86.5v7q-52 10 -94 35t-73.5 66.5t-42 98.5t0.5 133q24 142 129 233t254 91q162 0 233 -102.5t25 -270.5h-69q38 139 -15.5 220t-181.5 81q-114 0 -198 -74.5t-103 -185.5q-25 -133 48.5 -212t234.5 -79h120l-12 -69h-110 q-160 0 -256.5 -72.5t-116.5 -185.5q-24 -135 67 -211t246 -76q197 0 353.5 127.5t191.5 325.5l123 694l10 72h393l-12 -72h-309l-254 -1444h-84l92 520q-68 -112 -174 -186l-574 -457h-102l469 365q-80 -17 -149 -17q-117 0 -207.5 40.5t-137 122t-26.5 190.5z" />
<glyph horiz-adv-x="1628" d="M55 1444l15 72h1757l-12 -72h-312l-254 -1444h-78l89 494l-723 -627h-99l836 717l67 387h-559q68 -42 101 -122.5t14 -184.5q-28 -163 -151.5 -265t-288.5 -102q-171 0 -264 105.5t-64 267.5q29 171 157 271.5t312 100.5h756l69 402h-1368zM207 666q-25 -131 48 -214 t214 -83q132 0 232.5 86.5t125.5 214.5q25 131 -47.5 215t-206.5 84q-139 0 -240 -83.5t-126 -219.5z" />
<glyph horiz-adv-x="1314" d="M55 1444l13 72h1445l-12 -72h-309l-254 -1444h-84l117 666q-50 -81 -125 -134l-653 -540h-99l572 467q-41 -8 -97 -8q-202 0 -293 131.5t-51 359.5l90 502h-260zM309 942q-34 -200 38.5 -311t248.5 -111q148 0 259.5 93.5t148.5 232.5l104 598h-711z" />
<glyph horiz-adv-x="2019" d="M55 1444l13 72h2150l-14 -72h-1053l-94 -533q64 118 176 192.5t264 74.5q90 0 163 -32.5t121.5 -91.5t67 -146t0.5 -191q-39 -220 -182.5 -347.5t-331.5 -127.5q-70 0 -121 14l13 68q57 -11 106 -11q158 0 278.5 107.5t153.5 294.5q31 177 -56 284t-243 107 q-97 0 -178 -37t-134.5 -98t-87 -131t-46.5 -144l-123 -696h-82l117 668q-42 -70 -103 -119l-669 -557h-97l570 469q-36 -8 -84 -8q-199 0 -281.5 129t-42.5 358l90 504h-260zM307 940q-35 -201 30.5 -310.5t237.5 -109.5q155 0 261.5 105t134.5 260l98 559h-672z" />
<glyph horiz-adv-x="1411" d="M55 1444l13 72h1544l-15 -72h-309l-254 -1444h-80l86 489q-47 -79 -120 -141l-570 -448h-98l438 342q-58 -15 -125 -15q-99 0 -182.5 34t-141 94.5t-81 152.5t-4.5 201q38 223 198 355t377 132q160 0 258.5 -78.5t126.5 -199.5l92 526h-1153zM229 707q-16 -96 4.5 -175.5 t70.5 -131.5t123 -80.5t161 -28.5q183 0 315 112l-526 588q-119 -116 -148 -284zM414 1024l526 -586q57 58 93.5 130.5t47.5 142.5q11 50 7 100.5t-16.5 97.5t-42 88.5t-69.5 72t-98.5 48t-128.5 17.5q-180 0 -319 -111z" />
<glyph horiz-adv-x="1599" d="M156 625q27 136 140 215.5t269 79.5h234l37 213q27 156 -16 241.5t-163 85.5q-105 0 -180 -69.5t-98 -192.5q-6 -40 -6 -84h-80q0 44 6 88q26 152 125.5 242t239.5 90q158 0 219 -109t26 -301l-35 -204h429l106 596h389l-12 -72h-311l-254 -1444h-78l86 492l-731 -625 h-105l850 717l47 266h-428l-26 -156q-35 -195 -137.5 -297t-256.5 -102q-151 0 -231 91.5t-55 238.5zM236 625q-21 -116 39 -187t174 -71q119 0 200 84t109 239l28 160h-231q-123 0 -210 -61t-109 -164z" />
<glyph horiz-adv-x="1542" d="M57 1444l13 72h1673l-12 -72h-312l-254 -1444h-78l89 496l-740 -629h-102l854 719l55 317h-442l-35 -190q-35 -196 -136.5 -298t-256.5 -102q-151 0 -231 91.5t-54 238.5q27 152 142 242t274 90h231l84 469h-762zM166 643q-22 -116 38.5 -188t174.5 -72q119 0 200 85 t109 239l35 196h-231q-124 0 -214 -70.5t-112 -189.5zM813 975h444l82 469h-442z" />
<glyph horiz-adv-x="1486" d="M55 1444l13 72h1618l-13 -72h-311l-252 -1444h-84l92 524q-69 -111 -180 -176l-670 -469h-104v6l557 385q-47 -6 -98 -6q-251 0 -374.5 158t-76.5 420q2 15 18 80h35q90 0 161 16t135.5 54.5t108.5 110.5t62 175l29 166h-666zM252 836q-43 -232 63.5 -366t327.5 -134 q181 0 324.5 107.5t187.5 283.5l125 717h-477l-31 -176q-20 -112 -66 -191t-115 -124.5t-150 -66t-183 -20.5q-3 -18 -6 -30z" />
<glyph horiz-adv-x="1822" d="M39 1444l12 72h1970l-12 -72h-567l-56 -311q155 -18 224.5 -145t36.5 -312q-38 -219 -180 -354t-365 -134q-16 0 -74 5l12 73q40 -4 62 -4q187 0 308 115.5t153 300.5q29 167 -32.5 275t-211.5 108q-158 0 -263 -121.5t-143 -331.5l-4 -22h-71l2 22q39 207 -20.5 330 t-213.5 123q-158 0 -259 -106t-130 -277q-34 -185 45.5 -300.5t267.5 -115.5q16 0 62 4l-14 -73q-50 -5 -60 -5q-113 0 -197.5 38t-130 104.5t-62.5 156t5 193.5q36 208 161 331.5t312 123.5q67 0 120 -20.5t86.5 -53t56 -77t31.5 -90t9 -93.5h4q22 59 53.5 111.5 t78.5 102.5t114 81.5t146 36.5l55 311h-1321zM573 -297l433 367h110l299 -367h-86l-270 330l-385 -330h-101z" />
<glyph horiz-adv-x="1390" d="M55 1444l13 72h1521l-14 -72h-309l-254 -1444h-80l86 498q-58 -104 -158 -170l-534 -416h-97l435 336q-58 -10 -111 -10q-208 0 -321.5 130.5t-73.5 352.5q38 211 192.5 338t356.5 127q165 0 262 -74t123 -194l92 526h-1129zM238 715q-33 -190 62.5 -300t272.5 -110 q105 0 193.5 37.5t146 98t93.5 128.5t49 138q8 59 6.5 116.5t-26 110.5t-63 93.5t-105.5 64.5t-152 24q-171 0 -307.5 -109.5t-169.5 -291.5z" />
<glyph horiz-adv-x="1583" d="M59 403l2 11l498 336l-6 4q-288 180 -238 450q25 141 138.5 235.5t271.5 94.5q162 0 246.5 -102t60.5 -242q-22 -127 -98.5 -222.5t-216.5 -189.5l-31 -20l514 -318l191 1076h391l-13 -72h-309l-256 -1444h-82l64 365l-160 98l-588 -467h-100v8l629 496l-349 213 l-458 -310h-101zM391 1198q-40 -233 193 -377l43 -26l47 32q122 83 190.5 166t87.5 195q21 111 -43.5 192.5t-195.5 81.5q-118 0 -211 -79t-111 -185z" />
<glyph horiz-adv-x="1320" d="M55 1444l13 72h1450l-13 -72h-309l-254 -1444h-82l117 662q-51 -84 -135 -142l-645 -528h-103l570 459q-47 -7 -84 -7q-199 0 -297.5 135t-57.5 363l90 502h-260zM305 942q-35 -197 46.5 -310.5t252.5 -113.5q123 0 220.5 65.5t148.5 172.5l-592 614zM397 1444l602 -625 q16 60 17 68l98 557h-717z" />
<glyph horiz-adv-x="1748" d="M55 1444l13 72h1824l-12 -72h-254l-256 -1444h-76l97 541l-588 -647h-90l692 749l22 135h-1151l-63 -362q-26 -164 30.5 -262.5t190.5 -98.5q233 0 285 338h74q-12 -90 -38 -161.5t-69 -129t-108.5 -89t-149.5 -31.5q-168 0 -247 121t-48 319l74 418h213q180 0 299 104.5 t153 284.5l39 215h-856zM684 844h756l104 600h-553l-39 -215q-26 -147 -98 -242.5t-170 -142.5z" />
<glyph horiz-adv-x="1202" d="M74 1444l12 72h1333l-14 -72h-303l-53 -295l-13 -66h-387q-56 0 -104 -10.5t-91 -33t-72.5 -63t-39.5 -95.5q-14 -87 33.5 -143t132.5 -76q55 12 113 12q148 0 241 -67.5t115 -164.5l-309 -260h-88l319 264q-30 68 -102 114t-183 46q-171 0 -291 -114t-151 -279 q-19 -109 7 -196.5t104 -142t200 -54.5q146 0 252 71.5t150 165.5h76q-21 -56 -63.5 -109.5t-102 -99t-142.5 -73t-174 -27.5q-89 0 -161.5 25t-119 68.5t-76.5 103t-34.5 128.5t6.5 144q25 140 111 252.5t215 165.5q-47 17 -85 48.5t-61 87.5t-10 122q24 130 127 193 t252 63h326l51 295h-946z" />
<glyph horiz-adv-x="2066" d="M35 1444l12 72h2218l-14 -72h-627l-51 -289q172 -19 261 -143t56 -316q-31 -176 -153.5 -297t-292.5 -147l278 -340h-86l-270 330l-385 -330h-100l401 340q-132 21 -209.5 106.5t-83.5 200.5h-6q-54 -133 -182 -223t-293 -90q-198 0 -305 126.5t-72 323.5 q36 208 185.5 335.5t345.5 127.5q88 0 157.5 -25.5t113 -70t69 -98t34.5 -115.5h4q60 128 175.5 215.5t277.5 93.5l51 285h-1509zM213 696q-30 -167 58.5 -273t252.5 -106q167 0 290 106.5t153 272.5q31 173 -54 282t-254 109q-165 0 -290.5 -107.5t-155.5 -283.5zM1055 696 q-31 -165 54 -272t253 -107q164 0 290.5 106t155.5 273q30 177 -56.5 284t-252.5 107q-169 0 -291 -109t-153 -282z" />
<glyph horiz-adv-x="2097" d="M-39 137q4 31 28 50.5t56 19.5q28 0 44.5 -20t12.5 -50t-27.5 -49.5t-54.5 -19.5t-47 19t-12 50zM20 1444l13 72h2263l-12 -72h-1053l-92 -529q64 117 172.5 190t257.5 73q186 0 290 -128t68 -337q-40 -219 -182.5 -345t-331.5 -126q-57 0 -119 12l13 70q53 -11 104 -11 q156 0 277.5 108t154.5 294q31 177 -56 284t-243 107q-96 0 -176.5 -36.5t-133.5 -96.5t-86 -129t-46 -142l-123 -702h-80l88 500q-55 -95 -133 -154h2l-561 -440h-96l442 346q-41 -8 -96 -8q-193 0 -297.5 127.5t-67.5 343.5q25 140 102.5 246.5t188 161.5t236.5 55 q153 0 241 -73t113 -190l92 529h-1133zM264 715q-33 -188 55 -296t254 -108q118 0 209 51l21 17l4 -2q81 51 135 131.5t76 167.5l6 39q9 44 6 90t-12.5 89.5t-35 82t-60.5 67.5t-89 45.5t-120 16.5q-158 0 -288 -107t-161 -284z" />
<glyph horiz-adv-x="1880" d="M-12 -131q4 31 28 50.5t56 19.5q28 0 44.5 -20t12.5 -50q-4 -31 -27.5 -50.5t-54.5 -19.5t-47.5 19.5t-11.5 50.5zM55 1444l13 72h2011l-15 -72h-309l-254 -1444h-82l94 530q-58 -98 -157.5 -159.5t-229.5 -61.5q-32 0 -86 8q-73 -127 -184 -208l-516 -412h-98l2 6 l385 305q-41 -8 -97 -8q-215 0 -322.5 123.5t-70.5 335.5l64 352h82q303 0 360 332l53 301h-643zM221 453q-31 -173 57 -277t269 -104q135 0 248.5 76.5t177.5 191.5q-104 46 -154 150.5t-26 248.5q32 185 164 295.5t305 108.5q137 0 216 -61.5t103 -159.5l92 522h-893 l-53 -309q-69 -390 -430 -390h-25zM866 733q-28 -165 54.5 -260.5t230.5 -95.5q69 0 129.5 21.5t104.5 56.5t78.5 81t54.5 93.5t28 95.5q9 40 6 81.5t-12 80.5t-32 73t-55 59.5t-80.5 40.5t-108.5 15q-144 0 -257 -92.5t-141 -249.5z" />
<glyph horiz-adv-x="1443" d="M25 250q4 31 28 50t56 19q28 0 44.5 -19.5t12.5 -49.5q-4 -31 -27.5 -50.5t-54.5 -19.5t-47.5 19.5t-11.5 50.5zM55 1444l13 72h1574l-12 -72h-311l-252 -1444h-82l105 588l-738 -629h-104l856 725l133 760h-426l-90 -514q-11 -66 -36 -120.5t-65 -99t-100.5 -69.5 t-136.5 -25q-97 0 -158 46t-79.5 116t-2.5 154q2 10 5.5 26.5t5.5 26.5h82l-13 -63q-11 -42 -5.5 -83.5t21.5 -75t54.5 -54.5t93.5 -21q59 0 105 20.5t74.5 56t45.5 75t25 86.5l90 518h-672z" />
<glyph horiz-adv-x="1697" d="M55 1444l13 72h1828l-12 -72h-309l-254 -1444h-80l100 580l-729 -631h-102l848 727l51 291h-481l-23 -133q-30 -171 -143 -278t-273 -107q-164 0 -244.5 107.5t-49.5 277.5l36 202h84l-36 -202q-25 -139 32 -225.5t181 -86.5q127 0 218 87t115 225l35 202h561l74 408 h-1440zM98 111q4 31 28 50t56 19q28 0 45 -19.5t13 -49.5q-4 -31 -27.5 -50.5t-54.5 -19.5t-47.5 19.5t-12.5 50.5z" />
<glyph horiz-adv-x="2045" d="M-74 313q4 31 28 50.5t56 19.5q28 0 45 -20t13 -50t-27.5 -49.5t-54.5 -19.5t-47.5 19t-12.5 50zM-16 1444l12 72h2247l-13 -72h-1052l-93 -529q64 117 175 190t262 73q186 0 287.5 -126.5t64.5 -334.5q-39 -220 -182.5 -347.5t-331.5 -127.5q-68 0 -119 14l12 68 q57 -11 107 -11q157 0 278 107.5t154 294.5q30 177 -57.5 284t-241.5 107q-97 0 -178 -37t-134.5 -98t-87 -131t-46.5 -144l-123 -696h-82l116 668q-42 -68 -102 -119l-670 -557h-98l569 467q-41 -6 -82 -6q-201 0 -283 128.5t-40 358.5l88 504h-356zM334 940 q-35 -201 30.5 -310.5t237.5 -109.5q155 0 261 105t132 260l99 559h-670z" />
<glyph horiz-adv-x="1556" d="M55 1444l13 72h1974l-12 -72h-824l-92 -526q64 117 172.5 188.5t257.5 71.5q185 0 289.5 -128t67.5 -335h-82q30 177 -57 284t-242 107q-92 0 -170 -33.5t-131 -89t-87.5 -120t-50.5 -134.5l-129 -729h-78l89 500q-52 -90 -134 -154l-559 -440h-98l444 346q-41 -8 -96 -8 q-194 0 -298.5 127.5t-65.5 343.5q25 140 102.5 246.5t187 161.5t234.5 55q152 0 240.5 -72.5t113.5 -187.5l92 526h-1071zM240 715q-33 -188 54.5 -296t252.5 -108q119 0 217 56q93 52 151.5 140.5t79.5 182.5l6 35q8 43 4 88.5t-14.5 87.5t-36 79.5t-60.5 65.5t-88 44 t-118 16q-159 0 -288 -107t-160 -284z" />
<glyph horiz-adv-x="1386" d="M55 1444l13 72h1718l-14 -72h-992l-53 -309q-69 -390 -430 -390h-25l-51 -292q-31 -173 57 -277t269 -104q142 0 251 75.5t175 192.5q-109 45 -157.5 145.5t-24.5 239.5q34 192 170 305t329 113q194 0 292 -113t65 -305q-33 -191 -171.5 -303.5t-330.5 -112.5 q-51 0 -103 10q-85 -157 -221 -243l-477 -379h-98v6l381 301q-41 -6 -82 -6q-219 0 -331.5 124.5t-74.5 336.5l64 352h82q49 0 91 8t86.5 30t79 57.5t62 96t41.5 140.5l53 301h-643zM866 725q-28 -157 51.5 -251.5t239.5 -94.5t273 94.5t141 251.5q28 160 -51.5 255 t-239.5 95q-159 0 -272.5 -95.5t-141.5 -254.5z" />
<glyph horiz-adv-x="903" d="M55 1444l13 72h1194l-13 -72h-438l-90 -514q-11 -66 -36 -120.5t-65 -99t-100.5 -69.5t-136.5 -25q-97 0 -158.5 46t-80 116t-1.5 154q2 10 5.5 26.5t5.5 26.5h82l-13 -63q-11 -42 -5.5 -83.5t21.5 -75t54.5 -54.5t93.5 -21q59 0 105 20.5t74.5 56t45.5 75t25 86.5 l90 518h-672zM248 -41l872 739l-14 -94l-754 -645h-104z" />
<glyph horiz-adv-x="929" d="M55 1444l13 72h1278l-13 -72h-901l-33 -189q-27 -144 40.5 -218t242.5 -74h106l-12 -70h-110q-186 0 -291.5 -78.5t-128.5 -204.5q-18 -102 23 -173t123.5 -103.5t197.5 -32.5q132 0 249.5 55.5t197.5 157t102 229.5h71q-23 -124 -90.5 -227t-169.5 -172l-577 -459h-99 l467 365q-77 -21 -163 -21q-221 0 -334.5 98t-81.5 279q25 136 127.5 221.5t230.5 98.5l2 4q-115 15 -174 93.5t-33 229.5l33 191h-293z" />
<glyph horiz-adv-x="1302" d="M31 -354l397 338q-182 23 -267.5 130t-58.5 259h82q-25 -143 62.5 -235.5t283.5 -92.5q158 0 260 75.5t123 190.5q13 77 -7.5 133t-67.5 85.5t-103 43t-125 13.5h-88q-67 0 -125 16t-103 48t-65.5 87t-7.5 127q11 63 41.5 112t71 79.5t92.5 50.5t103.5 27.5t107.5 7.5 h299l55 303h-934l13 72h1431l-12 -72h-416l-59 -328l-6 -39h-353q-310 0 -352 -215q-10 -58 5.5 -100.5t51 -66.5t81.5 -35t102 -11h90q64 0 121.5 -11t107.5 -37t83.5 -64t47 -96.5t0.5 -131.5q-24 -132 -126 -220.5t-269 -106.5l274 -336h-86l-270 329l-385 -329h-100z M418 -365h84l174 -380h-86zM1124 834q4 30 27.5 49.5t54.5 19.5t47 -19t11 -50q-6 -29 -29.5 -48.5t-52.5 -19.5q-31 0 -47.5 19.5t-10.5 48.5z" />
<glyph horiz-adv-x="966" d="M55 1444l13 72h1290l-12 -72h-1291zM147 1028l13 70h737l-14 -70h-64q-180 0 -306.5 -106t-154.5 -267q-15 -84 3.5 -153t63 -113t108.5 -68t141 -24q172 0 306.5 117t162.5 280h69q-15 -114 -80.5 -214t-166.5 -165l-514 -409h-97l420 330q-60 -13 -117 -13 q-189 0 -301 114t-77 308q25 133 106.5 233t206.5 150h-445z" />
<glyph horiz-adv-x="1658" d="M51 1444l10 72h1797l-11 -72h-1427l-45 -252q-25 -146 40 -219.5t238 -73.5h47l-10 -72h-47q-191 0 -305 -87.5t-139 -223.5q-16 -92 14.5 -165t99 -119.5t165.5 -70.5t216 -24q193 0 359 69.5t279.5 203t144.5 309.5q31 172 -37.5 264t-182.5 92q-48 0 -95 -14.5 t-92.5 -45.5t-80 -88t-47.5 -132q-17 -87 2 -209h-74q-18 113 0 215q16 90 58 158.5t99 106.5t118 56.5t125 18.5q71 0 129 -25t100.5 -77t57 -131.5t-2.5 -188.5q-49 -267 -244 -437.5t-476 -207.5l280 -342h-94l-268 331l-385 -331h-95l390 331q-178 3 -309 55 t-196.5 154.5t-39.5 241.5q18 102 75.5 178.5t135 117t168.5 50.5v4q-113 15 -172.5 94.5t-32.5 229.5l47 256h-287z" />
<glyph horiz-adv-x="1136" d="M59 1444l13 72h1472l-12 -72h-1473zM195 834l36 202h84l-36 -202q-25 -139 32 -225.5t181 -86.5q127 0 218 87t115 225l35 202h602l-12 -69h-522l-23 -133q-30 -171 -143 -278t-273 -107q-164 0 -244.5 107.5t-49.5 277.5zM512 -51l893 768l-19 -96l-774 -672h-100z" />
<glyph horiz-adv-x="1175" d="M70 1444l12 72h1477l-15 -72h-463l-55 -301h2l-12 -66h-352q-45 0 -86 -5t-87.5 -19.5t-82 -37.5t-63 -63t-36.5 -92q-20 -109 50 -160t192 -51h854l-10 -65l-521 2q74 -38 109 -110t16 -173q-25 -134 -131 -220.5t-284 -86.5q-73 0 -135 17.5t-100 42t-66.5 56 t-41.5 55.5t-18 44l-65 -361h-80l92 502h74q-3 -124 81 -207.5t255 -83.5q149 0 236 70.5t106 177.5q23 130 -54.5 203.5t-246.5 73.5h-99q-71 0 -129 16.5t-100.5 49t-60.5 87t-5 125.5q13 78 55.5 135t103.5 87t126 43.5t137 13.5h297l55 301h-931zM834 -209l522 576 l-21 -105l-409 -471h-92z" />
<glyph horiz-adv-x="1124" d="M57 1444l11 72h1415l-13 -72h-1413zM137 612h80q-1 -46 17.5 -90.5t55.5 -82t99 -60.5t141 -23q92 0 170.5 30.5t133.5 83t90.5 120.5t48.5 145q8 59 5 112.5t-26 100.5t-59.5 81.5t-94.5 54.5t-132 20q-81 0 -151 -23t-119 -62.5t-82.5 -82t-55.5 -90.5h-80 q23 64 63.5 120t100 105t145 78t185.5 29q103 0 181.5 -32t123.5 -87t65 -124t15 -149h297l-13 -73h-294q-19 -87 -61.5 -163.5t-106.5 -137.5t-155.5 -96t-199.5 -35q-98 0 -175.5 29.5t-123.5 78t-68.5 106t-19.5 117.5zM555 -150l748 648l-17 -97l-637 -551h-94z" />
<glyph horiz-adv-x="1327" d="M45 1444l14 72h1467l-13 -72h-481l-65 -357h-162q-109 0 -205.5 -28.5t-176.5 -83.5t-135 -144.5t-75 -203.5q-35 -191 74.5 -315t308.5 -124t341.5 127t176.5 328h80q-37 -219 -182 -361.5t-361 -162.5l273 -334h-86l-271 330l-385 -330h-100l399 338 q-189 33 -288.5 171.5t-63.5 336.5q24 133 87 235t154.5 165.5t203 95.5t239.5 32h86l51 285h-905zM471 -225h84l176 -379h-86z" />
<glyph horiz-adv-x="1382" d="M47 1444l12 72h1522l-12 -72h-721l-55 -307q136 -9 236 -76.5t145.5 -184t19.5 -258.5q-36 -201 -184 -335.5t-351 -159.5l277 -340h-86l-270 330l-385 -330h-101l400 340q-191 27 -294 169.5t-67 344.5q39 216 200.5 352.5t377.5 147.5l55 307h-719zM217 635 q-35 -190 71 -317.5t298 -127.5q190 0 340.5 121.5t185.5 309.5q34 192 -71 318t-300 126q-191 0 -341 -120t-183 -310zM469 -227h84l178 -379h-88z" />
<glyph horiz-adv-x="1187" d="M16 -354l400 340q-176 26 -258.5 132.5t-55.5 254.5h82q-25 -143 62.5 -235.5t283.5 -92.5q158 0 260 75.5t123 190.5q13 77 -7.5 133t-67.5 85.5t-103 43t-125 13.5h-88q-67 0 -125 16t-103 48t-65.5 87t-7.5 127q11 63 41.5 112t71 79.5t92.5 50.5t103.5 27.5 t107.5 7.5h285l55 303h-920l13 72h1316l-12 -72h-317l-66 -367h-336q-310 0 -352 -215q-10 -58 5.5 -100.5t51 -66.5t81.5 -35t102 -11h90q64 0 121.5 -11t107.5 -37t83.5 -64t47 -96.5t0.5 -131.5q-26 -136 -130.5 -225.5t-276.5 -103.5l272 -334h-86l-270 329l-385 -329 h-101zM395 -365h84l176 -380h-88z" />
<glyph horiz-adv-x="1292" d="M51 1444l12 72h1428l-12 -72h-404l-61 -346h-168q-115 0 -218 -31.5t-188.5 -92.5t-145 -158.5t-81.5 -221.5q-38 -217 81 -354.5t343 -137.5q170 0 295 91.5t151 232.5q20 116 -39.5 191t-173.5 75q-102 0 -179.5 -62t-92.5 -165q-4 -24 -4 -43h-66q0 21 4 53 q23 130 121 206.5t232 76.5q140 0 218.5 -94t53.5 -238q-29 -162 -160.5 -268.5t-322.5 -118.5l274 -336h-86l-270 330l-385 -330h-101l406 344q-205 34 -311.5 184.5t-67.5 366.5q25 141 91.5 251t162 177.5t210.5 102t243 34.5h106l49 281h-944zM500 -307h84l178 -379h-88 z" />
<glyph horiz-adv-x="1130" d="M55 1444l15 72h1403l-15 -72h-430l-88 -496q-30 -173 -138.5 -279t-273.5 -106q-164 0 -245 108t-50 277l86 496h-264zM313 942q-24 -135 35.5 -220t183.5 -85q127 0 214.5 84.5t111.5 220.5l88 502h-545zM510 -49l809 694l-19 -102l-686 -592h-104z" />
<glyph horiz-adv-x="888" d="M55 1444l13 72h1224l-12 -72h-1225zM141 625q25 148 109.5 258t206.5 165.5t264 55.5q195 0 308 -105t126 -266l-864 -733h-109v6l893 748q-23 125 -117 202.5t-245 77.5q-180 0 -318.5 -109.5t-171.5 -299.5h-82z" />
<glyph horiz-adv-x="962" d="M185.5 598q-14.5 116 25.5 254h213q68 0 128 7.5t125 29.5t113.5 57.5t86 95.5t51.5 138q22 121 -38 200.5t-188 79.5q-161 0 -254.5 -108.5t-91.5 -280.5h-77q2 203 120 333t316 130q159 0 239.5 -101.5t53.5 -254.5q-18 -106 -72.5 -184t-134 -122.5t-170 -65 t-195.5 -20.5h-162q-45 -229 64 -360t338 -131q118 0 229 51.5t191 147.5t102 215h72q-18 -115 -81 -210t-159 -161h2l-713 -500h-108l2 8l557 385q-47 -8 -104 -8q-141 0 -246.5 46.5t-162.5 129.5t-71.5 199z" />
<glyph horiz-adv-x="1245" d="M55 1444l13 72h1376l-12 -72h-330l-60 -334h-266q-96 0 -183.5 -24.5t-160.5 -72.5t-123.5 -125.5t-68.5 -176.5q-31 -178 58.5 -289t264.5 -111q108 0 207 54l16 12l5 -2q151 93 182 268h76l-115 -655h-82l80 456q-43 -73 -127 -125l-529 -417h-96l443 348 q-36 -8 -86 -8q-201 0 -309 131t-72 340q21 121 80.5 213t145 147.5t186.5 83t214 27.5h191l45 260h-963zM817 -201h84l176 -381h-88z" />
<glyph horiz-adv-x="878" d="M166 575q25 132 114 208.5t197 86.5v7q-110 22 -172.5 107t-36.5 226q24 142 129 233t254 91q162 0 233 -102.5t25 -270.5h-69q38 139 -15.5 220t-181.5 81q-114 0 -198.5 -75t-102.5 -185q-25 -133 48.5 -212t234.5 -79h120l-12 -69h-110q-160 0 -256 -73.5t-117 -188.5 q-13 -72 6.5 -127t65 -88.5t107.5 -50.5t138 -17q206 0 353 107t176 278h73q-42 -224 -227 -350l-573 -455h-101l473 369q-97 -23 -190 -23q-127 0 -220 38.5t-139 119.5t-26 194z" />
<glyph horiz-adv-x="1038" d="M55 1444l15 72h1396l-14 -72h-1397zM129 670q29 171 157 271.5t312 100.5h782l-12 -71h-586q68 -42 101 -122.5t14 -184.5q-28 -163 -151.5 -265t-288.5 -102q-171 0 -264 105.5t-64 267.5zM207 666q-25 -131 48 -214t214 -83q132 0 233 86.5t125 214.5q25 131 -47.5 215 t-206.5 84q-139 0 -240 -83.5t-126 -219.5zM438 -133l867 745l-13 -92l-753 -653h-101z" />
<glyph horiz-adv-x="765" d="M55 1444l13 72h1124l-12 -72h-783l-90 -502q-35 -202 35.5 -312t253.5 -110q163 0 275 104t139 259h71q-39 -213 -190 -334l-672 -557h-98l573 469q-52 -12 -112 -12q-216 0 -306.5 132.5t-48.5 364.5l88 498h-260z" />
<glyph horiz-adv-x="1554" d="M55 1444l13 72h1923l-15 -72h-825l-94 -533q64 118 176 192.5t264 74.5q185 0 286.5 -127t65.5 -336h-84q31 177 -56 284t-243 107q-97 0 -178 -37t-134.5 -98t-87 -131t-46.5 -144l-123 -696h-82l117 668q-42 -70 -103 -119l-669 -557h-97l570 469q-36 -8 -84 -8 q-199 0 -281.5 129t-42.5 358l90 504h-260zM307 940q-35 -201 30.5 -310.5t237.5 -109.5q155 0 261.5 105t134.5 260l98 559h-672z" />
<glyph horiz-adv-x="899" d="M55 1444l13 72h1224l-14 -72h-1223zM152 707q39 222 202 356.5t379 134.5q83 0 152 -20.5t116 -56.5t82 -83.5t50.5 -102t21.5 -112t-6 -112.5q-21 -117 -85 -218.5t-163 -168.5l-526 -424h-94l434 342q-73 -17 -137 -17q-103 0 -189.5 34t-145.5 95t-84 152.5t-7 200.5z M225 705q-16 -96 5 -176t71.5 -131.5t123.5 -80t159 -28.5q183 0 315 112l-526 588q-119 -116 -148 -284zM410 1022l526 -586q115 115 143 273q11 50 6.5 101t-17.5 98.5t-43 89t-70 72t-98.5 48t-129.5 17.5q-180 0 -317 -113z" />
<glyph horiz-adv-x="1009" d="M156 625q27 136 140 215.5t269 79.5h234l37 213q27 156 -16 241.5t-163 85.5q-105 0 -180 -69.5t-98 -192.5q-6 -40 -6 -84h-80q0 44 6 88q26 152 125.5 242t239.5 90q158 0 219 -109t26 -301l-35 -204h402l-14 -70h-400l-26 -156q-35 -195 -137.5 -297t-256.5 -102 q-151 0 -231 91.5t-55 238.5zM236 625q-21 -116 39 -187t174 -71q119 0 200 84t109 239l28 160h-231q-123 0 -210 -61t-109 -164zM393 -133l817 686l-14 -90l-698 -596h-105z" />
<glyph horiz-adv-x="1001" d="M57 1444l13 72h1306l-14 -72h-465l-84 -469h465l-14 -72h-463l-35 -190q-35 -196 -136.5 -298t-256.5 -102q-151 0 -231 91.5t-54 238.5q27 152 142 242t274 90h231l84 469h-762zM166 643q-22 -116 38.5 -188t174.5 -72q119 0 200 85t109 239l35 196h-231 q-124 0 -214 -70.5t-112 -189.5zM334 -133l876 735l-16 -88l-758 -647h-102z" />
<glyph horiz-adv-x="927" d="M55 1444l13 72h1302l-12 -72h-555l-31 -178q-20 -111 -66 -190t-115 -124t-150 -65.5t-183 -20.5q-3 -18 -6 -30q-42 -234 65 -367t328 -133q188 0 335 116t179 300h76q-20 -126 -89.5 -230t-176.5 -168l-680 -475h-105l2 6l555 385q-47 -8 -108 -8q-255 0 -381.5 158 t-79.5 422q2 15 18 80h35q90 0 161 16t135.5 53.5t108.5 109.5t62 175l29 168h-666z" />
</font>
</defs>
</svg>
