<?xml version="1.0" encoding="UTF-8"?><svg id="_Ñëîé_1" xmlns="http://www.w3.org/2000/svg" viewBox="0 0 192.13 173.87"><path d="M44.03,172.6c-4.09-1.89-6.74-6.2-6.74-11v-28.35s-7.85,0-7.85,0c-16.23,0-29.44-13.21-29.44-29.44V29.66C0,13.31,13.21,0,29.44,0h133.25c16.23,0,29.44,13.31,29.44,29.66v74.15c0,16.24-13.21,29.44-29.44,29.44h-57.81s-48.13,38.07-48.13,38.07c-2.25,1.69-4.83,2.54-7.41,2.54-1.81,0-3.62-.42-5.31-1.27ZM29.44,7.42c-12.15,0-22.02,9.98-22.02,22.25v74.15c0,12.15,9.88,22.03,22.02,22.03h11.56c2.05,0,3.71,1.66,3.71,3.71v32.06c0,1.88.97,3.6,2.53,4.32,1.69.85,3.49.66,4.98-.46l49.07-38.82c.65-.52,1.47-.8,2.3-.8h59.1c12.15,0,22.02-9.88,22.02-22.03V29.66c0-12.27-9.88-22.25-22.02-22.25H29.44Z" style="fill:#fff;"/><path d="M90.04,75.97c-5.44,0-10.03-4.59-10.03-10.03s4.5-10.03,10.03-10.03,10.03,4.41,10.03,10.03-4.5,10.03-10.03,10.03ZM90.04,61.32c-2.55,0-4.62,2.07-4.62,4.62s2.11,4.62,4.62,4.62,4.62-2.07,4.62-4.62-1.99-4.62-4.62-4.62Z" style="fill:#fff;"/><path d="M54.05,75.97c-5.44,0-10.03-4.59-10.03-10.03s4.5-10.03,10.03-10.03,10.03,4.41,10.03,10.03-4.5,10.03-10.03,10.03ZM54.05,61.32c-2.55,0-4.62,2.07-4.62,4.62s2.11,4.62,4.62,4.62,4.62-2.07,4.62-4.62-1.99-4.62-4.62-4.62Z" style="fill:#fff;"/><path d="M126.03,75.97c-5.44,0-10.03-4.59-10.03-10.03s4.5-10.03,10.03-10.03,10.03,4.41,10.03,10.03-4.5,10.03-10.03,10.03ZM126.03,61.32c-2.55,0-4.62,2.07-4.62,4.62s2.11,4.62,4.62,4.62,4.62-2.07,4.62-4.62-1.98-4.62-4.62-4.62Z" style="fill:#fff;"/></svg>