<?xml version="1.0" encoding="UTF-8"?><svg id="Layer_1" xmlns="http://www.w3.org/2000/svg" viewBox="0 0 1348.9 1200"><path d="M1328.27,502.11h-59.55l-142.27-259.94c-.38-.7-1.16-1.02-1.61-1.67-1.28-1.83-2.76-3.38-4.55-4.71-.9-.66-1.68-1.3-2.68-1.81-2.69-1.4-5.63-2.34-8.85-2.42-.14,0-.25-.11-.39-.11h-.02s-.03.02-.05.02c-.03,0-.05-.02-.07-.02h-339.84c-8.03-36.66-36.91-65.54-73.57-73.57V20.63c0-11.4-9.23-20.63-20.63-20.63s-20.63,9.23-20.63,20.63v137.25c-36.68,8.03-65.56,36.91-73.59,73.57H240.12s-.04.02-.06.02c-3.46.02-6.57,1.08-9.42,2.59-.8.42-1.44.94-2.18,1.47-2.11,1.49-3.85,3.29-5.27,5.45-.32.48-.89.7-1.17,1.21L80.18,502.11H20.63c-11.4,0-20.63,9.23-20.63,20.63,0,63.84,24.98,124.24,70.41,170.13,45.41,45.41,105.68,70.41,169.73,70.41,132.64,0,240.54-107.9,240.54-240.54,0-11.4-9.23-20.63-20.63-20.63h-59.57l-125.54-229.4h305.02c8.03,36.68,36.91,65.56,73.59,73.59l-.12,438.67-139.33,255.31h-69.93c-76.69,0-139.09,62.39-139.09,139.09,0,11.4,9.23,20.63,20.63,20.63h697.06c11.4,0,20.63-9.23,20.63-20.63,0-76.69-62.39-139.09-139.09-139.09h-69.93l-139.71-255.3.12-438.68c36.67-8.04,65.55-36.91,73.58-73.59h305.21l-125.19,229.4h-59.53c-11.4,0-20.63,9.23-20.63,20.63,0,63.84,24.98,124.24,70.41,170.13,45.41,45.41,105.66,70.41,169.71,70.41,132.64,0,240.54-107.9,240.54-240.54,0-11.4-9.23-20.63-20.63-20.63ZM240.14,722.02c-53.02,0-102.94-20.71-140.48-58.24-32.74-33.06-52.68-75.22-57.33-120.41h396.02c-10.33,100.22-95.29,178.65-198.21,178.65ZM127.18,502.11l112.98-207.02,113.28,207.02H127.18ZM999.95,1158.74H348.54c9.49-44.08,48.77-77.2,95.63-77.2h460.15c46.86,0,86.14,33.12,95.63,77.2ZM561.1,1040.28l112.98-207.02,113.28,207.02h-226.26ZM674.23,307.37s-.03,0-.05,0-.03,0-.05,0c-30.48-.03-55.25-24.81-55.25-55.29s24.8-55.28,55.3-55.28,55.28,24.8,55.28,55.28-24.77,55.26-55.23,55.29ZM1108.38,295.09l113.3,207.02h-226.28l112.98-207.02ZM1108.36,722.02c-53.02,0-102.92-20.71-140.46-58.24-32.74-33.06-52.68-75.22-57.33-120.41h396c-10.33,100.22-95.29,178.65-198.21,178.65Z" style="fill:#fff;"/></svg>