<?xml version="1.0" encoding="UTF-8"?><svg id="_Ñëîé_1" xmlns="http://www.w3.org/2000/svg" viewBox="0 0 340.3 263.76"><path d="M101.29,126.64l-49.07,38.82c-1.49,1.12-3.29,1.31-4.98.46-1.56-.72-2.53-2.43-2.53-4.32v-32.06c0-2.05-1.66-3.71-3.71-3.71h-11.56c-12.15,0-22.03-9.88-22.03-22.03V29.66c0-12.27,9.88-22.25,22.03-22.25h133.25c12.15,0,22.02,9.98,22.02,22.25v53.77h7.42V29.66c0-16.36-13.21-29.66-29.44-29.66H29.44C13.21,0,0,13.31,0,29.66v74.15c0,16.24,13.21,29.44,29.44,29.44h7.85v28.35c0,4.8,2.64,9.11,6.74,11,1.69.85,3.5,1.27,5.31,1.27,2.58,0,5.17-.86,7.41-2.54l48.13-38.07h36.33v-7.42h-37.62c-.83,0-1.65.28-2.3.8Z" style="fill:#fff;"/><path d="M40.35,70.44h111.44c2.05,0,3.71-1.66,3.71-3.71s-1.66-3.71-3.71-3.71H40.35c-2.05,0-3.71,1.66-3.71,3.71s1.66,3.71,3.71,3.71Z" style="fill:#fff;"/><path d="M40.35,39.47h111.44c2.05,0,3.71-1.66,3.71-3.71s-1.66-3.71-3.71-3.71H40.35c-2.05,0-3.71,1.66-3.71,3.71s1.66,3.71,3.71,3.71Z" style="fill:#fff;"/><path d="M290.96,263.76c-2.58,0-5.17-.86-7.41-2.54l-48.13-38.07h-57.81c-16.23,0-29.44-13.21-29.44-29.44v-74.15c0-16.36,13.21-29.66,29.44-29.66h133.25c16.23,0,29.44,13.31,29.44,29.66v74.15c0,16.24-13.21,29.44-29.44,29.44h-7.85v28.35c0,4.8-2.64,9.11-6.74,11-1.69.85-3.5,1.27-5.31,1.27ZM177.6,97.31c-12.15,0-22.02,9.98-22.02,22.25v74.15c0,12.15,9.88,22.03,22.02,22.03h59.1c.83,0,1.65.28,2.3.8l49.07,38.82c1.49,1.12,3.29,1.31,4.98.46,1.56-.72,2.53-2.43,2.53-4.32v-32.06c0-2.05,1.66-3.71,3.71-3.71h11.56c12.15,0,22.02-9.88,22.02-22.03v-74.15c0-12.27-9.88-22.25-22.02-22.25h-133.25Z" style="fill:#fff;"/><path d="M299.95,160.33h-111.44c-2.05,0-3.71-1.66-3.71-3.71s1.66-3.71,3.71-3.71h111.44c2.05,0,3.71,1.66,3.71,3.71s-1.66,3.71-3.71,3.71Z" style="fill:#fff;"/><path d="M299.95,129.36h-111.44c-2.05,0-3.71-1.66-3.71-3.71s1.66-3.71,3.71-3.71h111.44c2.05,0,3.71,1.66,3.71,3.71s-1.66,3.71-3.71,3.71Z" style="fill:#fff;"/><path d="M244.12,191.3h-55.61c-2.05,0-3.71-1.66-3.71-3.71s1.66-3.71,3.71-3.71h55.61c2.05,0,3.71,1.66,3.71,3.71s-1.66,3.71-3.71,3.71Z" style="fill:#fff;"/></svg>