<svg id="Calque_1" data-name="Calque 1" xmlns="http://www.w3.org/2000/svg" viewBox="0 0 285.38 195.93"><path d="M105.06,195.93a20.44,20.44,0,0,1-15-8.11c-5.55-7.07-10.8-14.37-16.23-21.53a240.51,240.51,0,0,0-61.14-56.86C7.07,105.8,2.5,101.37.76,94.65a22.52,22.52,0,0,1,8.31-24c7.73-5.73,17.11-6.22,25.74-.88A295.25,295.25,0,0,1,70.42,96.35,234.11,234.11,0,0,1,101,127.89c2.77,3.43,3.91,2.76,6.23-.42C135.12,89.18,166.88,54.54,205,26.16c14.71-10.94,30.27-20.66,48.6-24.63A62.15,62.15,0,0,1,264.46,0c10.86-.44,17.12,4.36,20,14.9s-.73,20.32-9.59,24.87c-6.06,3.11-12.44,5.58-18.65,8.39-15.94,7.23-29.8,17.6-42.76,29.14-29.46,26.25-56,55.14-77.32,88.48a105.35,105.35,0,0,0-8.31,16.46C124.29,190.68,115.91,196.13,105.06,195.93Z" style="fill:#fdfefd"/></svg>