<svg id="Calque_1" data-name="Calque 1" xmlns="http://www.w3.org/2000/svg" viewBox="0 0 275.57 310.44"><path d="M247.14,310.3a26.1,26.1,0,0,1-21-9.23c-14.06-16-28-32.14-41.87-48.27q-22-25.52-43.88-51.15c-2-2.35-3.15-2.63-5.3-.11-27.39,32-55,63.79-82.28,95.82-8.75,10.26-19,15.7-32.51,11.83-18.56-5.33-26.49-27.62-14.83-43,9.43-12.45,20-24,30.23-35.87,20.4-23.72,40.75-47.49,61.42-71,3.64-4.13,1.45-6.17-1-9q-44-51-88-102.14C-5.51,32.17-1,10.32,17.35,2.39c10.54-4.58,22.81-2.6,30.8,6.12C60,21.38,71.21,34.77,82.62,48q26.26,30.42,52.39,61c2,2.36,3.16,2.59,5.31.09,27.28-31.84,54.71-63.56,82-95.42C229.08,5.69,236.63-.15,247.76.26s19.15,5.49,24.18,15c5.16,9.75,5,20-1.74,28.78C260.54,56.53,250,68.32,239.66,80.31c-20.39,23.72-40.77,47.46-61.41,71-3.29,3.75-1.9,5.71.64,8.64q44.25,51.15,88.32,102.48c13.4,15.67,9.34,37-8.24,45.41A24.64,24.64,0,0,1,247.14,310.3Z" style="fill:#fefcfd"/></svg>