<?xml version="1.0" encoding="UTF-8"?><svg id="_Ñëîé_2" xmlns="http://www.w3.org/2000/svg" viewBox="0 0 240.15 240.15"><path d="M36.35,108.37v23.4l19.77,2.93c1.66,7.29,4.53,14.11,8.39,20.25l-11.91,16.05,16.55,16.55,16.05-11.91c6.14,3.86,12.96,6.73,20.25,8.39l2.93,19.77h23.4l2.93-19.77c7.29-1.66,14.11-4.53,20.25-8.39l16.05,11.91,16.55-16.55-11.91-16.05c3.86-6.14,6.73-12.96,8.39-20.25l19.77-2.93v-23.4l-19.77-2.93c-1.66-7.29-4.53-14.11-8.39-20.25l11.91-16.05-16.55-16.55-16.05,11.91c-6.14-3.86-12.96-6.73-20.25-8.39l-2.93-19.77h-23.4l-2.93,19.77c-7.29,1.66-14.11,4.53-20.25,8.39l-16.05-11.91-16.55,16.55,11.91,16.05c-3.86,6.14-6.73,12.96-8.39,20.25l-19.77,2.93Z" style="fill:none; stroke:#fff; stroke-linecap:round; stroke-linejoin:round; stroke-width:6px;"/><polyline points="209.4 153.81 213.47 178 237.15 167.95" style="fill:none; stroke:#fff; stroke-linecap:round; stroke-linejoin:round; stroke-width:6px;"/><path d="M215.65,65.99c5.4,9.57,9.44,20.12,11.83,31.44,6.07,28.8.3,57.35-14.02,80.57" style="fill:none; stroke:#fff; stroke-linecap:round; stroke-linejoin:round; stroke-width:6px;"/><polyline points="86.34 209.4 62.15 213.47 72.19 237.15" style="fill:none; stroke:#fff; stroke-linecap:round; stroke-linejoin:round; stroke-width:6px;"/><path d="M174.16,215.65c-9.57,5.4-20.12,9.44-31.44,11.83-28.8,6.07-57.35.3-80.57-14.02" style="fill:none; stroke:#fff; stroke-linecap:round; stroke-linejoin:round; stroke-width:6px;"/><polyline points="30.75 86.34 26.68 62.15 3 72.19" style="fill:none; stroke:#fff; stroke-linecap:round; stroke-linejoin:round; stroke-width:6px;"/><path d="M24.5,174.16c-5.4-9.57-9.44-20.12-11.83-31.44-6.07-28.8-.3-57.35,14.02-80.57" style="fill:none; stroke:#fff; stroke-linecap:round; stroke-linejoin:round; stroke-width:6px;"/><polyline points="153.81 30.75 178 26.68 167.95 3" style="fill:none; stroke:#fff; stroke-linecap:round; stroke-linejoin:round; stroke-width:6px;"/><path d="M65.99,24.5c9.57-5.4,20.12-9.44,31.44-11.83,28.8-6.07,57.35-.3,80.57,14.02" style="fill:none; stroke:#fff; stroke-linecap:round; stroke-linejoin:round; stroke-width:6px;"/><circle cx="120.07" cy="120.07" r="37" transform="translate(-36.21 53.65) rotate(-21.97)" style="fill:none; stroke:#fff; stroke-linecap:round; stroke-linejoin:round; stroke-width:6px;"/></svg>