<?xml version="1.0" encoding="UTF-8"?><svg id="ICON" xmlns="http://www.w3.org/2000/svg" viewBox="0 0 657.75 657.75"><circle cx="326.59" cy="327.96" r="57.97" transform="translate(-49.45 597.8) rotate(-80.78)" style="fill:none; stroke:#fff; stroke-linecap:round; stroke-linejoin:round; stroke-width:18px;"/><line x1="328.74" y1="648.75" x2="328.74" y2="435.42" style="fill:none; stroke:#fff; stroke-linecap:round; stroke-linejoin:round; stroke-width:18px;"/><polyline points="356.39 445.71 328.88 426.76 301.36 445.71" style="fill:none; stroke:#fff; stroke-linecap:round; stroke-linejoin:round; stroke-width:18px;"/><line x1="648.75" y1="328.74" x2="435.42" y2="328.74" style="fill:none; stroke:#fff; stroke-linecap:round; stroke-linejoin:round; stroke-width:18px;"/><polyline points="445.71 356.39 426.76 328.88 445.71 301.36" style="fill:none; stroke:#fff; stroke-linecap:round; stroke-linejoin:round; stroke-width:18px;"/><line x1="9" y1="328.74" x2="222.33" y2="328.74" style="fill:none; stroke:#fff; stroke-linecap:round; stroke-linejoin:round; stroke-width:18px;"/><polyline points="212.05 356.39 230.99 328.88 212.05 301.36" style="fill:none; stroke:#fff; stroke-linecap:round; stroke-linejoin:round; stroke-width:18px;"/><line x1="328.74" y1="9" x2="328.74" y2="222.33" style="fill:none; stroke:#fff; stroke-linecap:round; stroke-linejoin:round; stroke-width:18px;"/><polyline points="356.39 212.05 328.88 230.99 301.36 212.05" style="fill:none; stroke:#fff; stroke-linecap:round; stroke-linejoin:round; stroke-width:18px;"/><path d="M289.65,146c-71.92,14.52-128.76,70.62-144.4,142.12" style="fill:none; stroke:#fff; stroke-linecap:round; stroke-linejoin:round; stroke-width:18px;"/><path d="M507.94,288.12c-15.18-69.44-69.24-124.34-138.21-140.75" style="fill:none; stroke:#fff; stroke-linecap:round; stroke-linejoin:round; stroke-width:18px;"/><path d="M369.73,508.54c68.83-16.38,122.81-71.09,138.12-140.33" style="fill:none; stroke:#fff; stroke-linecap:round; stroke-linejoin:round; stroke-width:18px;"/><path d="M145.34,368.21c15.77,71.31,72.53,127.21,144.31,141.7" style="fill:none; stroke:#fff; stroke-linecap:round; stroke-linejoin:round; stroke-width:18px;"/><path d="M289.65,30.69C154.73,47.29,47.59,153.61,29.71,288.12" style="fill:none; stroke:#fff; stroke-linecap:round; stroke-linejoin:round; stroke-width:18px;"/><path d="M623.47,288.12c-17.6-132.45-121.75-237.56-253.74-256.6" style="fill:none; stroke:#fff; stroke-linecap:round; stroke-linejoin:round; stroke-width:18px;"/><path d="M369.73,624.39c131.85-19.02,235.92-123.93,253.69-256.18" style="fill:none; stroke:#fff; stroke-linecap:round; stroke-linejoin:round; stroke-width:18px;"/><path d="M29.76,368.21c18.05,134.32,125.1,240.43,259.88,257.01" style="fill:none; stroke:#fff; stroke-linecap:round; stroke-linejoin:round; stroke-width:18px;"/></svg>