<?xml version="1.0" encoding="UTF-8"?><svg id="_Layer_" xmlns="http://www.w3.org/2000/svg" viewBox="0 0 279.99 210"><path d="M5,205l40.31-111.98c2.81-7.81,10.22-13.02,18.52-13.02h199.42c3.8,0,7.4,1.85,9.6,5,2.2,3.15,2.75,7.15,1.45,10.75l-34.62,96.23c-2.81,7.81-10.22,13.02-18.52,13.02H5V25C5,13.95,13.95,5,25,5h36.7c5.3,0,10.4,2.1,14.15,5.85l23.3,23.3c3.75,3.75,8.85,5.85,14.15,5.85h102c10.9,0,19.7,8.8,19.7,19.7v20.3" style="fill:none; stroke:#fff; stroke-linecap:round; stroke-linejoin:round; stroke-width:10px;"/></svg>