<?xml version="1.0" encoding="UTF-8"?><svg id="Capa_1" xmlns="http://www.w3.org/2000/svg" viewBox="0 0 208 256"><g id="report"><polyline points="196 28 204 28 204 252 28 252 28 244" style="fill:none; stroke:#fff; stroke-linecap:round; stroke-linejoin:round; stroke-width:8px;"/><rect x="4" y="4" width="176" height="224" style="fill:none; stroke:#fff; stroke-linecap:round; stroke-linejoin:round; stroke-width:8px;"/><circle cx="132" cy="52" r="24" style="fill:none; stroke:#fff; stroke-linecap:round; stroke-linejoin:round; stroke-width:8px;"/><polyline points="156 52 132 52 132 28" style="fill:none; stroke:#fff; stroke-linecap:round; stroke-linejoin:round; stroke-width:8px;"/><line x1="28" y1="76" x2="92" y2="76" style="fill:none; stroke:#fff; stroke-linecap:round; stroke-linejoin:round; stroke-width:8px;"/><line x1="28" y1="100" x2="156" y2="100" style="fill:none; stroke:#fff; stroke-linecap:round; stroke-linejoin:round; stroke-width:8px;"/><line x1="28" y1="124" x2="156" y2="124" style="fill:none; stroke:#fff; stroke-linecap:round; stroke-linejoin:round; stroke-width:8px;"/><line x1="28" y1="28" x2="92" y2="28" style="fill:none; stroke:#fff; stroke-linecap:round; stroke-linejoin:round; stroke-width:8px;"/><line x1="28" y1="52" x2="92" y2="52" style="fill:none; stroke:#fff; stroke-linecap:round; stroke-linejoin:round; stroke-width:8px;"/><polyline points="28 144 28 204 156 204" style="fill:none; stroke:#fff; stroke-linecap:round; stroke-linejoin:round; stroke-width:8px;"/><line x1="48" y1="160" x2="48" y2="204" style="fill:none; stroke:#fff; stroke-linecap:round; stroke-linejoin:round; stroke-width:8px;"/><line x1="64" y1="168" x2="64" y2="204" style="fill:none; stroke:#fff; stroke-linecap:round; stroke-linejoin:round; stroke-width:8px;"/><line x1="80" y1="184" x2="80" y2="204" style="fill:none; stroke:#fff; stroke-linecap:round; stroke-linejoin:round; stroke-width:8px;"/><line x1="96" y1="164" x2="96" y2="204" style="fill:none; stroke:#fff; stroke-linecap:round; stroke-linejoin:round; stroke-width:8px;"/><line x1="112" y1="172" x2="112" y2="204" style="fill:none; stroke:#fff; stroke-linecap:round; stroke-linejoin:round; stroke-width:8px;"/><line x1="128" y1="160" x2="128" y2="204" style="fill:none; stroke:#fff; stroke-linecap:round; stroke-linejoin:round; stroke-width:8px;"/><line x1="144" y1="156" x2="144" y2="204" style="fill:none; stroke:#fff; stroke-linecap:round; stroke-linejoin:round; stroke-width:8px;"/></g></svg>