<?xml version="1.0" encoding="UTF-8"?><svg id="Layer_1" xmlns="http://www.w3.org/2000/svg" viewBox="0 0 306.46 306.52"><path d="M191.8,201.19c-23.1,0-44.8-8.99-61.13-25.32-16.33-16.33-25.33-38.04-25.33-61.13s9-44.8,25.33-61.13c33.73-33.71,88.56-33.69,122.26,0,33.7,33.71,33.7,88.55,0,122.26h0c-16.33,16.33-38.04,25.32-61.12,25.32ZM191.8,38.32c-19.58,0-39.16,7.45-54.06,22.35-14.44,14.44-22.4,33.64-22.4,54.06s7.96,39.62,22.4,54.06c14.44,14.44,33.63,22.39,54.06,22.39s39.61-7.95,54.05-22.39h0c29.8-29.8,29.8-78.31,0-108.12-14.9-14.9-34.48-22.35-54.05-22.35Z" style="fill:#fff; stroke-width:0px;"/><path d="M191.8,229.41c-29.38,0-58.77-11.18-81.13-33.55-44.73-44.74-44.73-117.52,0-162.26C132.33,11.93,161.14,0,191.8,0s59.45,11.93,81.12,33.6c44.73,44.74,44.73,117.52,0,162.26h0c-22.36,22.37-51.75,33.55-81.12,33.55ZM191.8,10.05c-26.83,0-53.64,10.21-74.06,30.62-40.83,40.83-40.83,107.29,0,148.12,40.84,40.83,107.28,40.83,148.12,0,40.83-40.84,40.83-107.29,0-148.12-20.42-20.42-47.24-30.62-74.05-30.62ZM269.38,192.33h.1-.1Z" style="fill:#fff; stroke-width:0px;"/><path d="M94.94,204.75c-1.28,0-2.56-.49-3.54-1.46-1.95-1.95-1.95-5.12,0-7.07l13.34-13.33c1.95-1.95,5.12-1.95,7.07,0,1.95,1.95,1.95,5.12,0,7.07l-13.34,13.34c-.98.98-2.26,1.46-3.54,1.46Z" style="fill:#fff; stroke-width:0px;"/><path d="M106.78,216.58c-1.28,0-2.56-.49-3.54-1.46-1.95-1.95-1.95-5.12,0-7.07l13.34-13.33c1.95-1.95,5.12-1.95,7.07,0,1.95,1.95,1.95,5.12,0,7.07l-13.34,13.34c-.98.98-2.26,1.46-3.54,1.46Z" style="fill:#fff; stroke-width:0px;"/><path d="M101.46,238.48c-1.33,0-2.6-.53-3.54-1.46l-28.41-28.4c-.94-.94-1.46-2.21-1.46-3.54s.53-2.6,1.46-3.54l13.61-13.61c1.95-1.95,5.12-1.95,7.07,0l28.4,28.4c1.95,1.95,1.95,5.12,0,7.07l-13.6,13.61c-.94.94-2.21,1.46-3.54,1.46ZM80.12,205.07l21.34,21.33,6.53-6.54-21.33-21.33-6.54,6.54Z" style="fill:#fff; stroke-width:0px;"/><path d="M44.05,295.87c-1.28,0-2.56-.49-3.54-1.46l-28.4-28.4c-1.95-1.95-1.95-5.12,0-7.07l57.39-57.4c1.95-1.95,5.12-1.95,7.07,0,1.95,1.95,1.95,5.12,0,7.07l-53.86,53.86,21.33,21.33,53.87-53.86c1.95-1.95,5.12-1.95,7.07,0,1.95,1.95,1.95,5.12,0,7.07l-57.4,57.39c-.98.98-2.26,1.46-3.54,1.46Z" style="fill:#fff; stroke-width:0px;"/><path d="M24.53,306.52c-1.28,0-2.56-.49-3.54-1.46l-19.53-19.53c-.94-.94-1.46-2.21-1.46-3.54s.53-2.6,1.46-3.54l15.1-15.09c1.95-1.95,5.12-1.95,7.07,0s1.95,5.12,0,7.07l-11.56,11.55,12.46,12.46,11.55-11.55c1.95-1.95,5.12-1.95,7.07,0s1.95,5.12,0,7.07l-15.09,15.09c-.98.98-2.26,1.46-3.54,1.46Z" style="fill:#fff; stroke-width:0px;"/><path d="M191.8,201.19c-23.1,0-44.8-8.99-61.13-25.32-16.33-16.33-25.33-38.04-25.33-61.13s9-44.8,25.33-61.13c33.73-33.71,88.56-33.69,122.26,0,33.7,33.71,33.7,88.55,0,122.26h0c-16.33,16.33-38.04,25.32-61.12,25.32ZM191.8,38.32c-19.58,0-39.16,7.45-54.06,22.35-14.44,14.44-22.4,33.64-22.4,54.06s7.96,39.62,22.4,54.06c14.44,14.44,33.63,22.39,54.06,22.39s39.61-7.95,54.05-22.39h0c29.8-29.8,29.8-78.31,0-108.12-14.9-14.9-34.48-22.35-54.05-22.35Z" style="fill:#fff; stroke-width:0px;"/><path d="M191.8,229.41c-29.38,0-58.77-11.18-81.13-33.55-44.73-44.74-44.73-117.52,0-162.26C132.33,11.93,161.14,0,191.8,0s59.45,11.93,81.12,33.6c44.73,44.74,44.73,117.52,0,162.26h0c-22.36,22.37-51.75,33.55-81.12,33.55ZM191.8,10.05c-26.83,0-53.64,10.21-74.06,30.62-40.83,40.83-40.83,107.29,0,148.12,40.84,40.83,107.28,40.83,148.12,0,40.83-40.84,40.83-107.29,0-148.12-20.42-20.42-47.24-30.62-74.05-30.62ZM269.38,192.33h.1-.1Z" style="fill:#fff; stroke-width:0px;"/><path d="M94.94,204.75c-1.28,0-2.56-.49-3.54-1.46-1.95-1.95-1.95-5.12,0-7.07l13.34-13.33c1.95-1.95,5.12-1.95,7.07,0,1.95,1.95,1.95,5.12,0,7.07l-13.34,13.34c-.98.98-2.26,1.46-3.54,1.46Z" style="fill:#fff; stroke-width:0px;"/><path d="M106.78,216.58c-1.28,0-2.56-.49-3.54-1.46-1.95-1.95-1.95-5.12,0-7.07l13.34-13.33c1.95-1.95,5.12-1.95,7.07,0,1.95,1.95,1.95,5.12,0,7.07l-13.34,13.34c-.98.98-2.26,1.46-3.54,1.46Z" style="fill:#fff; stroke-width:0px;"/><path d="M101.46,238.48c-1.33,0-2.6-.53-3.54-1.46l-28.41-28.4c-.94-.94-1.46-2.21-1.46-3.54s.53-2.6,1.46-3.54l13.61-13.61c1.95-1.95,5.12-1.95,7.07,0l28.4,28.4c1.95,1.95,1.95,5.12,0,7.07l-13.6,13.61c-.94.94-2.21,1.46-3.54,1.46ZM80.12,205.07l21.34,21.33,6.53-6.54-21.33-21.33-6.54,6.54Z" style="fill:#fff; stroke-width:0px;"/><path d="M44.05,295.87c-1.28,0-2.56-.49-3.54-1.46l-28.4-28.4c-1.95-1.95-1.95-5.12,0-7.07l57.39-57.4c1.95-1.95,5.12-1.95,7.07,0,1.95,1.95,1.95,5.12,0,7.07l-53.86,53.86,21.33,21.33,53.87-53.86c1.95-1.95,5.12-1.95,7.07,0,1.95,1.95,1.95,5.12,0,7.07l-57.4,57.39c-.98.98-2.26,1.46-3.54,1.46Z" style="fill:#fff; stroke-width:0px;"/><path d="M24.53,306.52c-1.28,0-2.56-.49-3.54-1.46l-19.53-19.53c-.94-.94-1.46-2.21-1.46-3.54s.53-2.6,1.46-3.54l15.1-15.09c1.95-1.95,5.12-1.95,7.07,0s1.95,5.12,0,7.07l-11.56,11.55,12.46,12.46,11.55-11.55c1.95-1.95,5.12-1.95,7.07,0s1.95,5.12,0,7.07l-15.09,15.09c-.98.98-2.26,1.46-3.54,1.46Z" style="fill:#fff; stroke-width:0px;"/><path d="M191.8,201.19c-23.1,0-44.8-8.99-61.13-25.32-16.33-16.33-25.33-38.04-25.33-61.13s9-44.8,25.33-61.13c33.73-33.71,88.56-33.69,122.26,0,33.7,33.71,33.7,88.55,0,122.26h0c-16.33,16.33-38.04,25.32-61.12,25.32ZM191.8,38.32c-19.58,0-39.16,7.45-54.06,22.35-14.44,14.44-22.4,33.64-22.4,54.06s7.96,39.62,22.4,54.06c14.44,14.44,33.63,22.39,54.06,22.39s39.61-7.95,54.05-22.39h0c29.8-29.8,29.8-78.31,0-108.12-14.9-14.9-34.48-22.35-54.05-22.35Z" style="fill:#fff; stroke-width:0px;"/><path d="M191.8,229.41c-29.38,0-58.77-11.18-81.13-33.55-44.73-44.74-44.73-117.52,0-162.26C132.33,11.93,161.14,0,191.8,0s59.45,11.93,81.12,33.6c44.73,44.74,44.73,117.52,0,162.26h0c-22.36,22.37-51.75,33.55-81.12,33.55ZM191.8,10.05c-26.83,0-53.64,10.21-74.06,30.62-40.83,40.83-40.83,107.29,0,148.12,40.84,40.83,107.28,40.83,148.12,0,40.83-40.84,40.83-107.29,0-148.12-20.42-20.42-47.24-30.62-74.05-30.62ZM269.38,192.33h.1-.1Z" style="fill:#fff; stroke-width:0px;"/><path d="M94.94,204.75c-1.28,0-2.56-.49-3.54-1.46-1.95-1.95-1.95-5.12,0-7.07l13.34-13.33c1.95-1.95,5.12-1.95,7.07,0,1.95,1.95,1.95,5.12,0,7.07l-13.34,13.34c-.98.98-2.26,1.46-3.54,1.46Z" style="fill:#fff; stroke-width:0px;"/><path d="M106.78,216.58c-1.28,0-2.56-.49-3.54-1.46-1.95-1.95-1.95-5.12,0-7.07l13.34-13.33c1.95-1.95,5.12-1.95,7.07,0,1.95,1.95,1.95,5.12,0,7.07l-13.34,13.34c-.98.98-2.26,1.46-3.54,1.46Z" style="fill:#fff; stroke-width:0px;"/><path d="M101.46,238.48c-1.33,0-2.6-.53-3.54-1.46l-28.41-28.4c-.94-.94-1.46-2.21-1.46-3.54s.53-2.6,1.46-3.54l13.61-13.61c1.95-1.95,5.12-1.95,7.07,0l28.4,28.4c1.95,1.95,1.95,5.12,0,7.07l-13.6,13.61c-.94.94-2.21,1.46-3.54,1.46ZM80.12,205.07l21.34,21.33,6.53-6.54-21.33-21.33-6.54,6.54Z" style="fill:#fff; stroke-width:0px;"/><path d="M44.05,295.87c-1.28,0-2.56-.49-3.54-1.46l-28.4-28.4c-1.95-1.95-1.95-5.12,0-7.07l57.39-57.4c1.95-1.95,5.12-1.95,7.07,0,1.95,1.95,1.95,5.12,0,7.07l-53.86,53.86,21.33,21.33,53.87-53.86c1.95-1.95,5.12-1.95,7.07,0,1.95,1.95,1.95,5.12,0,7.07l-57.4,57.39c-.98.98-2.26,1.46-3.54,1.46Z" style="fill:#fff; stroke-width:0px;"/><path d="M24.53,306.52c-1.28,0-2.56-.49-3.54-1.46l-19.53-19.53c-.94-.94-1.46-2.21-1.46-3.54s.53-2.6,1.46-3.54l15.1-15.09c1.95-1.95,5.12-1.95,7.07,0s1.95,5.12,0,7.07l-11.56,11.55,12.46,12.46,11.55-11.55c1.95-1.95,5.12-1.95,7.07,0s1.95,5.12,0,7.07l-15.09,15.09c-.98.98-2.26,1.46-3.54,1.46Z" style="fill:#fff; stroke-width:0px;"/><path d="M191.8,201.19c-23.1,0-44.8-8.99-61.13-25.32-16.33-16.33-25.33-38.04-25.33-61.13s9-44.8,25.33-61.13c33.73-33.71,88.56-33.69,122.26,0,33.7,33.71,33.7,88.55,0,122.26h0c-16.33,16.33-38.04,25.32-61.12,25.32ZM191.8,38.32c-19.58,0-39.16,7.45-54.06,22.35-14.44,14.44-22.4,33.64-22.4,54.06s7.96,39.62,22.4,54.06c14.44,14.44,33.63,22.39,54.06,22.39s39.61-7.95,54.05-22.39h0c29.8-29.8,29.8-78.31,0-108.12-14.9-14.9-34.48-22.35-54.05-22.35Z" style="fill:#fff; stroke-width:0px;"/><path d="M191.8,229.41c-29.38,0-58.77-11.18-81.13-33.55-44.73-44.74-44.73-117.52,0-162.26C132.33,11.93,161.14,0,191.8,0s59.45,11.93,81.12,33.6c44.73,44.74,44.73,117.52,0,162.26h0c-22.36,22.37-51.75,33.55-81.12,33.55ZM191.8,10.05c-26.83,0-53.64,10.21-74.06,30.62-40.83,40.83-40.83,107.29,0,148.12,40.84,40.83,107.28,40.83,148.12,0,40.83-40.84,40.83-107.29,0-148.12-20.42-20.42-47.24-30.62-74.05-30.62ZM269.38,192.33h.1-.1Z" style="fill:#fff; stroke-width:0px;"/><path d="M94.94,204.75c-1.28,0-2.56-.49-3.54-1.46-1.95-1.95-1.95-5.12,0-7.07l13.34-13.33c1.95-1.95,5.12-1.95,7.07,0,1.95,1.95,1.95,5.12,0,7.07l-13.34,13.34c-.98.98-2.26,1.46-3.54,1.46Z" style="fill:#fff; stroke-width:0px;"/><path d="M106.78,216.58c-1.28,0-2.56-.49-3.54-1.46-1.95-1.95-1.95-5.12,0-7.07l13.34-13.33c1.95-1.95,5.12-1.95,7.07,0,1.95,1.95,1.95,5.12,0,7.07l-13.34,13.34c-.98.98-2.26,1.46-3.54,1.46Z" style="fill:#fff; stroke-width:0px;"/><path d="M101.46,238.48c-1.33,0-2.6-.53-3.54-1.46l-28.41-28.4c-.94-.94-1.46-2.21-1.46-3.54s.53-2.6,1.46-3.54l13.61-13.61c1.95-1.95,5.12-1.95,7.07,0l28.4,28.4c1.95,1.95,1.95,5.12,0,7.07l-13.6,13.61c-.94.94-2.21,1.46-3.54,1.46ZM80.12,205.07l21.34,21.33,6.53-6.54-21.33-21.33-6.54,6.54Z" style="fill:#fff; stroke-width:0px;"/><path d="M44.05,295.87c-1.28,0-2.56-.49-3.54-1.46l-28.4-28.4c-1.95-1.95-1.95-5.12,0-7.07l57.39-57.4c1.95-1.95,5.12-1.95,7.07,0,1.95,1.95,1.95,5.12,0,7.07l-53.86,53.86,21.33,21.33,53.87-53.86c1.95-1.95,5.12-1.95,7.07,0,1.95,1.95,1.95,5.12,0,7.07l-57.4,57.39c-.98.98-2.26,1.46-3.54,1.46Z" style="fill:#fff; stroke-width:0px;"/><path d="M24.53,306.52c-1.28,0-2.56-.49-3.54-1.46l-19.53-19.53c-.94-.94-1.46-2.21-1.46-3.54s.53-2.6,1.46-3.54l15.1-15.09c1.95-1.95,5.12-1.95,7.07,0s1.95,5.12,0,7.07l-11.56,11.55,12.46,12.46,11.55-11.55c1.95-1.95,5.12-1.95,7.07,0s1.95,5.12,0,7.07l-15.09,15.09c-.98.98-2.26,1.46-3.54,1.46Z" style="fill:#fff; stroke-width:0px;"/><path d="M191.8,201.19c-23.1,0-44.8-8.99-61.13-25.32-16.33-16.33-25.33-38.04-25.33-61.13s9-44.8,25.33-61.13c33.73-33.71,88.56-33.69,122.26,0,33.7,33.71,33.7,88.55,0,122.26h0c-16.33,16.33-38.04,25.32-61.12,25.32ZM191.8,38.32c-19.58,0-39.16,7.45-54.06,22.35-14.44,14.44-22.4,33.64-22.4,54.06s7.96,39.62,22.4,54.06c14.44,14.44,33.63,22.39,54.06,22.39s39.61-7.95,54.05-22.39h0c29.8-29.8,29.8-78.31,0-108.12-14.9-14.9-34.48-22.35-54.05-22.35Z" style="fill:#fff; stroke-width:0px;"/><path d="M191.8,229.41c-29.38,0-58.77-11.18-81.13-33.55-44.73-44.74-44.73-117.52,0-162.26C132.33,11.93,161.14,0,191.8,0s59.45,11.93,81.12,33.6c44.73,44.74,44.73,117.52,0,162.26h0c-22.36,22.37-51.75,33.55-81.12,33.55ZM191.8,10.05c-26.83,0-53.64,10.21-74.06,30.62-40.83,40.83-40.83,107.29,0,148.12,40.84,40.83,107.28,40.83,148.12,0,40.83-40.84,40.83-107.29,0-148.12-20.42-20.42-47.24-30.62-74.05-30.62ZM269.38,192.33h.1-.1Z" style="fill:#fff; stroke-width:0px;"/><path d="M94.94,204.75c-1.28,0-2.56-.49-3.54-1.46-1.95-1.95-1.95-5.12,0-7.07l13.34-13.33c1.95-1.95,5.12-1.95,7.07,0,1.95,1.95,1.95,5.12,0,7.07l-13.34,13.34c-.98.98-2.26,1.46-3.54,1.46Z" style="fill:#fff; stroke-width:0px;"/><path d="M106.78,216.58c-1.28,0-2.56-.49-3.54-1.46-1.95-1.95-1.95-5.12,0-7.07l13.34-13.33c1.95-1.95,5.12-1.95,7.07,0,1.95,1.95,1.95,5.12,0,7.07l-13.34,13.34c-.98.98-2.26,1.46-3.54,1.46Z" style="fill:#fff; stroke-width:0px;"/><path d="M101.46,238.48c-1.33,0-2.6-.53-3.54-1.46l-28.41-28.4c-.94-.94-1.46-2.21-1.46-3.54s.53-2.6,1.46-3.54l13.61-13.61c1.95-1.95,5.12-1.95,7.07,0l28.4,28.4c1.95,1.95,1.95,5.12,0,7.07l-13.6,13.61c-.94.94-2.21,1.46-3.54,1.46ZM80.12,205.07l21.34,21.33,6.53-6.54-21.33-21.33-6.54,6.54Z" style="fill:#fff; stroke-width:0px;"/><path d="M44.05,295.87c-1.28,0-2.56-.49-3.54-1.46l-28.4-28.4c-1.95-1.95-1.95-5.12,0-7.07l57.39-57.4c1.95-1.95,5.12-1.95,7.07,0,1.95,1.95,1.95,5.12,0,7.07l-53.86,53.86,21.33,21.33,53.87-53.86c1.95-1.95,5.12-1.95,7.07,0,1.95,1.95,1.95,5.12,0,7.07l-57.4,57.39c-.98.98-2.26,1.46-3.54,1.46Z" style="fill:#fff; stroke-width:0px;"/><path d="M24.53,306.52c-1.28,0-2.56-.49-3.54-1.46l-19.53-19.53c-.94-.94-1.46-2.21-1.46-3.54s.53-2.6,1.46-3.54l15.1-15.09c1.95-1.95,5.12-1.95,7.07,0s1.95,5.12,0,7.07l-11.56,11.55,12.46,12.46,11.55-11.55c1.95-1.95,5.12-1.95,7.07,0s1.95,5.12,0,7.07l-15.09,15.09c-.98.98-2.26,1.46-3.54,1.46Z" style="fill:#fff; stroke-width:0px;"/></svg>