<?xml version="1.0" encoding="UTF-8"?><svg id="Main" xmlns="http://www.w3.org/2000/svg" viewBox="0 0 250 265.94"><path d="M125,155.56c-10.61,0-19.23-8.62-19.23-19.23s8.62-19.23,19.23-19.23,19.23,8.62,19.23,19.23-8.62,19.23-19.23,19.23ZM125,126.72c-5.3,0-9.62,4.31-9.62,9.62s4.31,9.62,9.62,9.62,9.62-4.31,9.62-9.62-4.31-9.62-9.62-9.62Z" style="fill:#fff; stroke-width:0px;"/><path d="M144.23,218.06h-38.46v-17.28c-4.41-1.31-8.67-3.08-12.74-5.29l-12.23,12.23-27.2-27.2,12.23-12.23c-2.2-4.06-3.97-8.32-5.29-12.74h-17.28v-38.46h17.28c1.32-4.41,3.08-8.68,5.29-12.74l-12.23-12.23,27.2-27.2,12.23,12.23c4.07-2.2,8.32-3.97,12.74-5.29v-17.28h38.46v17.28c4.41,1.31,8.67,3.08,12.74,5.29l12.23-12.23,27.2,27.2-12.23,12.23c2.2,4.06,3.97,8.32,5.29,12.74h17.28v38.46h-17.28c-1.32,4.41-3.08,8.68-5.29,12.74l12.23,12.23-27.2,27.2-12.23-12.23c-4.07,2.2-8.32,3.97-12.74,5.29v17.28ZM115.38,208.45h19.23v-15.16l3.7-.87c5.97-1.41,11.66-3.77,16.92-7.02l3.23-2,10.73,10.73,13.6-13.6-10.73-10.73,2-3.23c3.24-5.25,5.6-10.94,7.02-16.92l.87-3.7h15.16v-19.23h-15.16l-.87-3.7c-1.42-5.97-3.78-11.66-7.02-16.92l-2-3.23,10.73-10.73-13.6-13.6-10.73,10.73-3.23-2c-5.25-3.24-10.95-5.61-16.92-7.02l-3.7-.87v-15.16h-19.23v15.16l-3.7.87c-5.97,1.41-11.66,3.77-16.92,7.02l-3.23,2-10.73-10.73-13.6,13.6,10.73,10.73-2,3.23c-3.24,5.25-5.6,10.94-7.02,16.92l-.87,3.7h-15.16v19.23h15.16l.87,3.7c1.42,5.97,3.78,11.66,7.02,16.92l2,3.23-10.73,10.73,13.6,13.6,10.73-10.73,3.23,2c5.25,3.24,10.95,5.61,16.92,7.02l3.7.87v15.16Z" style="fill:#fff; stroke-width:0px;"/><path d="M176.83,262.73l-4.94-8.25c2.49-1.49,4.36-2.66,6.75-4.23l5.28,8.04c-2.51,1.64-4.47,2.88-7.08,4.45Z" style="fill:#fff; stroke-width:0px;"/><path d="M191.4,253.16l-5.58-7.83c15.92-11.34,28.43-23.58,39.39-38.53l7.76,5.69c-11.59,15.79-24.79,28.72-41.57,40.67Z" style="fill:#fff; stroke-width:0px;"/><path d="M125,265.94l-1.66-.61C42.65,235.61,0,176.04,0,93.06v-38.46h19.23c39.84,0,71.35-15.58,102.16-50.51l3.61-4.09,3.61,4.09c30.81,34.94,62.32,50.51,102.16,50.51h19.23v38.46c0,82.98-42.65,142.55-123.34,172.26l-1.66.61ZM9.62,64.22v28.85c0,79.15,38.82,133.85,115.38,162.62,76.57-28.77,115.38-83.47,115.38-162.62v-28.85h-9.62c-41.27,0-74.09-15.4-105.77-49.77-31.68,34.38-64.5,49.77-105.77,49.77h-9.62Z" style="fill:#fff; stroke-width:0px;"/><path d="M59.11,253.53c-14.56-10.39-27.31-22.36-37.9-35.6l7.51-6.01c10.03,12.55,22.14,23.91,35.98,33.78l-5.59,7.83Z" style="fill:#fff; stroke-width:0px;"/></svg>