<?xml version="1.0" encoding="UTF-8"?><svg id="_ëîé_1" xmlns="http://www.w3.org/2000/svg" viewBox="0 0 973.41 750.11"><path d="M352.75,594.26h-218.12c-44.1,0-81.72-30.03-91.49-73.03L.95,335.66c-2.57-11.34.11-23.05,7.36-32.13,7.25-9.09,18.08-14.3,29.71-14.3h97.42c33.28,0,62.62,22.44,71.32,54.56l20.88,76.96c5.9,21.73,25.74,36.91,48.26,36.91h33.02c29.68,0,53.83,24.15,53.83,53.83v72.78c0,5.52-4.47,10-10,10ZM38.02,309.23c-5.51,0-10.64,2.47-14.08,6.77-3.43,4.31-4.7,9.85-3.48,15.22l42.18,185.57c7.69,33.84,37.29,57.47,71.98,57.47h208.12v-62.78c0-18.65-15.18-33.83-33.83-33.83h-33.02c-31.52,0-59.31-21.25-67.56-51.67l-20.88-76.96h0c-6.36-23.43-27.74-39.79-52.02-39.79H38.02Z" style="fill:#fff; stroke-width:0px;"/><path d="M339.8,749.74c-.8,0-1.62-.09-2.43-.3-5.36-1.34-8.62-6.77-7.28-12.13l35.75-143.05h-64.92c-5.53,0-10-4.48-10-10s4.47-10,10-10h77.73c3.08,0,5.99,1.42,7.88,3.85,1.89,2.43,2.57,5.59,1.82,8.58l-38.87,155.47c-1.13,4.54-5.21,7.57-9.69,7.57Z" style="fill:#fff; stroke-width:0px;"/><path d="M417.54,749.74c-.72,0-1.45-.08-2.18-.24-5.39-1.2-8.79-6.54-7.6-11.93l38.95-175.29c2.49-11.2-.2-22.74-7.36-31.68-7.18-8.95-17.86-14.07-29.33-14.07h-57.28c-5.53,0-10-4.48-10-10s4.47-10,10-10h57.28c17.56,0,33.94,7.86,44.92,21.56,11,13.7,15.11,31.39,11.3,48.54l-38.96,175.28c-1.04,4.66-5.18,7.83-9.76,7.83Z" style="fill:#fff; stroke-width:0px;"/><path d="M181,749.74c-.8,0-1.62-.09-2.43-.3-5.36-1.34-8.62-6.77-7.28-12.13l38.87-155.47c1.33-5.36,6.75-8.63,12.12-7.28,5.36,1.34,8.62,6.77,7.28,12.13l-38.87,155.47c-1.13,4.54-5.2,7.57-9.69,7.57Z" style="fill:#fff; stroke-width:0px;"/><path d="M258.74,749.74c-.72,0-1.45-.08-2.18-.24-5.39-1.2-8.79-6.54-7.6-11.93l34.55-155.47c1.2-5.4,6.57-8.76,11.93-7.59,5.39,1.2,8.79,6.54,7.6,11.93l-34.55,155.47c-1.04,4.66-5.18,7.83-9.76,7.83Z" style="fill:#fff; stroke-width:0px;"/><path d="M413.44,477.66h-135.5c-31.01,0-57.92-19.93-66.96-49.59l-18.87-61.91c-1.6-5.28,1.38-10.87,6.66-12.48,5.31-1.64,10.87,1.38,12.48,6.65l18.87,61.91c6.46,21.19,25.67,35.42,47.82,35.42h125.5v-8.63c0-19.83-16.13-35.96-35.96-35.96h-76.43c-4.41,0-8.3-2.89-9.57-7.11l-32.93-109.16c-6.69-22.16-26.74-37.05-49.88-37.05h-79.06c-18.38,0-35.56,9.8-44.85,25.59-3.9,6.63-6.76,11.52-10.18,17.48-2.75,4.78-8.87,6.45-13.65,3.69-4.79-2.75-6.45-8.86-3.69-13.65,3.46-6.02,6.34-10.96,10.29-17.66,12.86-21.86,36.65-35.44,62.08-35.44h79.06c32.03,0,59.78,20.61,69.02,51.27l30.79,102.06h68.99c30.86,0,55.96,25.1,55.96,55.96v18.63c0,5.52-4.47,10-10,10Z" style="fill:#fff; stroke-width:0px;"/><path d="M166.09,219.74h-.17c-21.48-.04-39.55-8.46-52.25-24.35-11.4-14.25-17.64-34.06-17.6-55.79.04-21.73,6.38-41.52,17.82-55.72,12.72-15.79,30.77-24.14,52.18-24.14h.17c21.48.04,39.55,8.46,52.25,24.35,11.39,14.24,17.63,34.06,17.59,55.79-.04,21.73-6.37,41.52-17.81,55.72-12.73,15.79-30.77,24.14-52.18,24.14ZM166.08,79.74c-36.82,0-49.94,32.25-50,59.9-.04,17.2,4.66,32.56,13.21,43.27,8.78,10.98,21.46,16.81,36.67,16.84h.12c15.16,0,27.81-5.77,36.61-16.69,8.6-10.67,13.35-26.02,13.39-43.21l10,.02-10-.02c.06-27.68-12.97-60.03-49.87-60.1h-.13Z" style="fill:#fff; stroke-width:0px;"/><path d="M307.63,749.74c-5.53,0-10-4.48-10-10v-145.47h-140v145.47c0,5.52-4.47,10-10,10s-10-4.48-10-10v-155.47c0-5.52,4.47-10,10-10h160c5.53,0,10,4.48,10,10v155.47c0,5.52-4.47,10-10,10Z" style="fill:#fff; stroke-width:0px;"/><path d="M838.79,594.63h-218.12c-5.53,0-10-4.48-10-10v-72.78c0-29.68,24.15-53.83,53.83-53.83h33.03c22.52,0,42.35-15.18,48.25-36.91l20.88-76.96c8.71-32.12,38.04-54.56,71.32-54.56h97.42c11.63,0,22.46,5.21,29.71,14.3,7.26,9.09,9.93,20.8,7.36,32.13l-42.18,185.57c-9.78,43-47.39,73.03-91.49,73.03ZM630.66,574.63h208.12c34.7,0,64.3-23.63,71.98-57.47l42.18-185.57c1.23-5.37-.05-10.92-3.48-15.22-3.44-4.31-8.57-6.78-14.08-6.78h-97.42c-24.28,0-45.66,16.36-52.02,39.79h0l-20.88,76.96c-8.25,30.42-36.03,51.67-67.55,51.67h-33.03c-18.65,0-33.83,15.18-33.83,33.83v62.78ZM776.3,346.77h.1-.1Z" style="fill:#fff; stroke-width:0px;"/><path d="M633.61,750.11c-4.48,0-8.55-3.03-9.69-7.57l-38.87-155.47c-.75-2.99-.08-6.15,1.82-8.58,1.89-2.43,4.8-3.85,7.88-3.85h77.73c5.53,0,10,4.48,10,10s-4.47,10-10,10h-64.92l35.75,143.05c1.35,5.36-1.91,10.79-7.28,12.13-.81.21-1.63.3-2.43.3Z" style="fill:#fff; stroke-width:0px;"/><path d="M555.88,750.11c-4.58,0-8.72-3.17-9.76-7.83l-38.96-175.29c-3.81-17.14.3-34.82,11.29-48.53,11-13.7,27.37-21.56,44.94-21.56h57.27c5.53,0,10,4.48,10,10s-4.47,10-10,10h-57.27c-11.46,0-22.16,5.13-29.34,14.08-7.17,8.94-9.85,20.48-7.36,31.67l38.96,175.29c1.19,5.39-2.21,10.73-7.6,11.93-.73.16-1.46.24-2.18.24Z" style="fill:#fff; stroke-width:0px;"/><path d="M792.42,750.11c-4.48,0-8.55-3.03-9.69-7.57l-38.88-155.47c-1.35-5.36,1.91-10.79,7.28-12.13,5.35-1.37,10.78,1.92,12.12,7.28l38.88,155.47c1.35,5.36-1.91,10.79-7.28,12.13-.81.21-1.63.3-2.43.3Z" style="fill:#fff; stroke-width:0px;"/><path d="M714.67,750.11c-4.58,0-8.72-3.17-9.76-7.83l-34.55-155.47c-1.19-5.39,2.21-10.73,7.6-11.93,5.37-1.19,10.74,2.2,11.93,7.59l34.55,155.47c1.19,5.39-2.21,10.73-7.6,11.93-.73.16-1.45.24-2.18.24Z" style="fill:#fff; stroke-width:0px;"/><path d="M695.47,478.03h-135.5c-5.53,0-10-4.48-10-10v-18.63c0-30.86,25.1-55.96,55.96-55.96h68.99l30.79-102.05c9.25-30.67,36.99-51.27,69.02-51.27h79.06c25.43,0,49.22,13.58,62.08,35.44,3.95,6.69,6.84,11.64,10.29,17.66,2.75,4.79,1.09,10.9-3.69,13.65-4.8,2.76-10.91,1.09-13.65-3.69-3.42-5.95-6.27-10.84-10.18-17.47-9.3-15.79-26.48-25.6-44.85-25.6h-79.06c-23.14,0-43.19,14.89-49.88,37.05l-32.93,109.16c-1.27,4.22-5.16,7.11-9.57,7.11h-76.43c-19.82,0-35.96,16.13-35.96,35.96v8.63h125.5c22.15,0,41.37-14.23,47.82-35.42l18.87-61.91c1.61-5.28,7.22-8.28,12.48-6.65,5.28,1.61,8.26,7.2,6.66,12.48l-18.87,61.91c-9.04,29.66-35.95,49.59-66.96,49.59Z" style="fill:#fff; stroke-width:0px;"/><path d="M807.32,220.11c-21.41,0-39.44-8.34-52.18-24.14-11.45-14.2-17.77-33.99-17.81-55.72-.04-21.73,6.2-41.55,17.59-55.79,12.7-15.89,30.76-24.31,52.25-24.35h.17c41.78,0,69.9,32.07,70,79.86.04,21.73-6.2,41.55-17.6,55.8-12.7,15.88-30.76,24.3-52.25,24.35h-.17ZM807.33,80.11h-.13c-36.9.07-49.93,32.42-49.87,60.1.04,17.2,4.79,32.54,13.39,43.21,8.83,10.95,21.07,16.59,36.73,16.68,36.9-.07,49.94-32.42,49.88-60.1-.06-27.65-13.18-59.9-50-59.9Z" style="fill:#fff; stroke-width:0px;"/><path d="M825.78,750.11c-5.53,0-10-4.48-10-10v-145.47h-140v145.47c0,5.52-4.47,10-10,10s-10-4.48-10-10v-155.47c0-5.52,4.47-10,10-10h160c5.53,0,10,4.48,10,10v155.47c0,5.52-4.47,10-10,10Z" style="fill:#fff; stroke-width:0px;"/><path d="M661.2,413.27h-298.77c-5.53,0-10-4.48-10-10s4.47-10,10-10h298.77c5.53,0,10,4.48,10,10s-4.47,10-10,10Z" style="fill:#fff; stroke-width:0px;"/><path d="M457.08,165.43c-42.23,0-70.6-33.24-70.6-82.71S414.85,0,457.08,0s70.61,33.24,70.61,82.72-28.38,82.71-70.61,82.71ZM457.08,20c-37.3,0-50.6,32.4-50.6,62.72s13.29,62.71,50.6,62.71,50.61-32.4,50.61-62.71-13.29-62.72-50.61-62.72Z" style="fill:#fff; stroke-width:0px;"/><path d="M636.42,413.27h-94.62c-6.65,0-12.99-2.87-17.38-7.86-4.39-5-6.44-11.65-5.6-18.25l17.11-139.49c1.47-11.59,11.36-20.28,22.98-20.28h94.62c6.65,0,12.99,2.87,17.38,7.86,4.39,5,6.44,11.65,5.6,18.25l-6.34,52.84c-.66,5.48-5.6,9.41-11.12,8.74-5.48-.65-9.39-5.63-8.74-11.12l6.35-52.92c.17-1.31-.4-2.17-.75-2.57-.35-.4-1.13-1.07-2.37-1.07h-94.62c-1.59,0-2.94,1.19-3.13,2.77l-17.11,139.49c-.16,1.29.41,2.14.76,2.54.35.4,1.13,1.07,2.37,1.07h94.62c1.59,0,2.94-1.19,3.13-2.77l4.37-34.26c.7-5.47,5.71-9.31,11.18-8.66,5.48.7,9.36,5.71,8.66,11.19l-4.37,34.26c-1.47,11.54-11.36,20.23-22.98,20.23Z" style="fill:#fff; stroke-width:0px;"/><path d="M634.39,366.37c-4.81,0-9.42-1.85-12.95-5.25-4.15-4.02-6.19-9.62-5.59-15.38l2.9-27.76c.88-8.56,7.47-15.39,16.02-16.57l29.79-4.13h0c5.72-.78,11.39,1.06,15.55,5.08,4.15,4.02,6.19,9.62,5.59,15.38l-2.89,27.76c-.9,8.58-7.49,15.39-16.02,16.57l-29.8,4.13c-.87.12-1.74.18-2.61.18ZM638.54,321.08l-2.63,25.07,27.11-3.76,2.62-25.07-27.1,3.76Z" style="fill:#fff; stroke-width:0px;"/><path d="M466.65,210.68h-20.26c-5.53,0-10-4.48-10-10s4.47-10,10-10h20.26c5.53,0,10,4.48,10,10s-4.47,10-10,10Z" style="fill:#fff; stroke-width:0px;"/><path d="M456.52,291.71c-5.53,0-10-4.48-10-10v-81.04c0-5.52,4.47-10,10-10s10,4.48,10,10v81.04c0,5.52-4.47,10-10,10Z" style="fill:#fff; stroke-width:0px;"/><path d="M446.38,413.27h-131.68c-16.71,0-25.88-7.73-30.63-14.21-8.37-11.42-9.9-28.29-4.22-46.28l31.35-97.08c15.35-43.23,41.33-65.01,77.3-65.01h7.24c3.48,0,6.71,1.81,8.53,4.78l51.86,84.73,52.65-84.73c1.82-2.97,5.05-4.78,8.53-4.78h7.24c28.62,0,50.97,13.72,66.43,40.76,2.74,4.79,1.07,10.9-3.72,13.64-4.79,2.73-10.91,1.07-13.64-3.72-11.96-20.93-27.56-30.68-49.06-30.68h-1.63l-48.94,79.95c-3.24,6.05-10.03,10.1-17.45,10.1s-14.2-4.05-17.71-10.58l-48.66-79.48h-1.63c-27.35,0-45.91,16.34-58.37,51.43l-31.24,96.75c-3.6,11.44-3.12,22.34,1.31,28.37,2.98,4.06,7.71,6.04,14.5,6.04h131.68l.14-30.34c0-4.15-3.23-7.45-7.35-7.5-19.26-.27-55.91-.61-84.93.23-3.39.13-6.62-1.55-8.55-4.36-1.92-2.82-2.28-6.42-.94-9.55l17.13-40.27c2.16-5.09,8.04-7.44,13.12-5.29,5.08,2.16,7.45,8.04,5.28,13.12l-11.06,26.03c25.92-.4,54.11-.13,70.23.09,14.93.21,27.07,12.55,27.07,27.5v30.21c0,11.1-9.03,20.13-20.14,20.13Z" style="fill:#fff; stroke-width:0px;"/></svg>