<?xml version="1.0" encoding="UTF-8"?><svg id="leaf_line_icon" xmlns="http://www.w3.org/2000/svg" viewBox="0 0 201.33 160.87"><path d="M104.25,101.02C128.36,38.75,88.65-12.25,5.23,7.2c1.42,1.84,13.26,14.96,12.32,35.81-1.21,39.63,21.57,67.22,62.53,67.02" style="fill:none; stroke:#fff; stroke-linecap:round; stroke-miterlimit:10; stroke-width:6px;"/><path d="M56.67,42.82c29.47,28.21,40.75,57.68,38.43,115.05" style="fill:none; stroke:#fff; stroke-linecap:round; stroke-miterlimit:10; stroke-width:6px;"/><line x1="84.42" y1="80.35" x2="84.42" y2="46.07" style="fill:none; stroke:#fff; stroke-linecap:round; stroke-miterlimit:10; stroke-width:6px;"/><line x1="84.56" y1="79.75" x2="52.52" y2="67.57" style="fill:none; stroke:#fff; stroke-linecap:round; stroke-miterlimit:10; stroke-width:6px;"/><path d="M124.7,116.35c-17.08-44.12,12.3-78.98,71.39-65.21-1.01,1.3-9.4,10.6-8.73,25.37.86,28.07-12.77,47.62-41.79,47.48" style="fill:none; stroke:#fff; stroke-linecap:round; stroke-miterlimit:10; stroke-width:6px;"/><path d="M159.66,76.37c-20.87,19.99-28.87,40.86-27.22,81.5" style="fill:none; stroke:#fff; stroke-linecap:round; stroke-miterlimit:10; stroke-width:6px;"/><line x1="140" y1="102.96" x2="140" y2="78.68" style="fill:none; stroke:#fff; stroke-linecap:round; stroke-miterlimit:10; stroke-width:6px;"/><line x1="139.9" y1="102.53" x2="162.6" y2="93.91" style="fill:none; stroke:#fff; stroke-linecap:round; stroke-miterlimit:10; stroke-width:6px;"/></svg>