<?xml version="1.0" encoding="UTF-8"?><svg id="_ëîé_1" xmlns="http://www.w3.org/2000/svg" viewBox="0 0 574.95 626.65"><circle cx="124.68" cy="185.08" r="47.6" transform="translate(-62.2 307.03) rotate(-89.16)" style="fill:none; stroke:#fff; stroke-linecap:round; stroke-linejoin:round; stroke-width:23.51px;"/><path d="M63.8,480.36l-20.62-17.28c-15.31-12.47-27.73-29.34-28.36-47.1l-3.06-79.58c-.81-22.94,22.27-43.94,46.76-50.91,15.8-4.49,36.98-5.85,65.9-7.05,28.63-1.19,42.11-1.7,59.1-5.68,22.32-5.23,68.94-18.59,83.61-27.27,9.94-5.88,22.62-4.03,30.49,4.42h0c10.07,10.81,8.39,28-3.57,36.66l-113.66,63.16-3.05,241.08c-.13,12.47-10.8,22.83-24.71,23.98h0c-16,1.33-31.22-9.94-31.16-24.3l.62-94.05-.63,94.1c-.06,14.33-16.04,25.51-32.01,24.1h-.01c-13.91-1.23-24.52-11.66-24.56-24.14l-.79-241.1" style="fill:none; stroke:#fff; stroke-linecap:round; stroke-linejoin:round; stroke-width:23.51px;"/><line x1="283.95" y1="292.19" x2="283.95" y2="611.36" style="fill:none; stroke:#fff; stroke-linecap:round; stroke-linejoin:round; stroke-width:23.51px;"/><line x1="283.95" y1="88.15" x2="283.95" y2="242.47" style="fill:none; stroke:#fff; stroke-linecap:round; stroke-linejoin:round; stroke-width:23.51px;"/><path d="M563.98,223.15c-94.39-48.2-185.78-3.31-280.16-51.51,0-53.56,0-107.12,0-160.67,94.39,48.2,185.78,3.31,280.16,51.51-28.52,12.21-57.05,37.63-85.57,68.27,28.52,22.92,57.05,51.06,85.57,92.4Z" style="fill:none; stroke:#fff; stroke-linecap:round; stroke-linejoin:round; stroke-width:21.94px;"/></svg>