<?xml version="1.0" encoding="UTF-8"?><svg id="Layer_1" xmlns="http://www.w3.org/2000/svg" viewBox="0 0 49.5 49.01"><g><path d="m46.69,40.49c-.2,0-.39-.08-.53-.22-.14-.14-.22-.34-.22-.53,0-.2.08-.39.22-.53.29-.28.78-.28,1.06,0,.14.14.22.33.22.53s-.08.39-.22.53c-.14.14-.33.22-.53.22Z" style="fill:#fff;"/><path d="m13.68,43.29c-.41,0-.75-.34-.75-.75v-10.62c0-.09.02-.17.04-.26l6.09-16.83c.09-.24.29-.42.54-.48l19.97-4.46c.32-.07.66.08.82.37l9.01,16.09c.08.15.11.32.09.48l-1.52,9.59c-.06.41-.45.69-.86.62-.41-.07-.69-.45-.62-.86l1.48-9.33-8.61-15.38-19.02,4.24-5.9,16.32v10.49c0,.41-.34.75-.75.75Z" style="fill:#fff;"/><path d="m45.34,49.01H13.68c-.41,0-.75-.34-.75-.75v-2.1c0-.41.34-.75.75-.75s.75.34.75.75v1.35h30.27l.71-4.46c.06-.41.45-.69.86-.62.41.06.69.45.62.86l-.81,5.09c-.06.36-.37.63-.74.63Z" style="fill:#fff;"/><path d="m19.77,15.84c-.14,0-.28-.04-.4-.12L6.65,7.58c-.24-.15-.37-.43-.34-.71.03-.28.22-.52.49-.62L23.88.05c.22-.08.46-.05.66.07l15.6,9.89c.35.22.45.69.23,1.04-.22.35-.69.45-1.04.23L24.04,1.58l-15.31,5.55,11.43,7.32c.35.22.45.69.23,1.04-.14.22-.38.35-.63.35Z" style="fill:#fff;"/><path d="m13.68,49.01c-.09,0-.18-.02-.26-.05L.49,44.08C.19,43.97,0,43.69,0,43.38v-12.95c0-.21.09-.42.25-.56.16-.14.37-.21.58-.19l12.93,1.49c.41.05.71.42.66.83-.05.41-.43.71-.83.66l-12.09-1.39v11.59l12.44,4.69c.39.15.58.58.44.97-.11.3-.4.49-.7.49Z" style="fill:#fff;"/><path d="m.75,31.19c-.06,0-.13,0-.19-.03-.4-.11-.64-.52-.53-.92L6.33,6.75c.11-.4.52-.63.92-.53.4.11.64.52.53.92L1.47,30.63c-.09.34-.39.56-.72.56Z" style="fill:#fff;"/></g><path d="m35.05,27.78c-.15,0-.31-.05-.44-.15-.33-.25-.41-.71-.16-1.05l7.88-10.71c.25-.33.71-.41,1.05-.16.33.25.41.71.16,1.05l-7.88,10.71c-.15.2-.37.31-.6.31Z" style="fill:#fff;"/><path d="m35.52,35.2c-.25,0-.5-.13-.64-.36-.22-.35-.11-.81.24-1.03l5.18-3.19-2.91-7.46c-.15-.39.04-.82.43-.97.39-.15.82.04.97.43l3.14,8.04c.13.34,0,.72-.31.91l-5.71,3.52c-.12.08-.26.11-.39.11Z" style="fill:#fff;"/><path d="m9.48,23.73c-.1,0-.21-.02-.31-.07l-2.57-1.17c-.18-.08-.32-.23-.39-.41l-2.12-5.41c-.15-.39.04-.82.42-.97.38-.15.82.04.97.42l2.01,5.12,2.29,1.04c.38.17.54.62.37.99-.13.28-.4.44-.68.44Z" style="fill:#fff;"/><path d="m25.72,49.01c-.25,0-.5-.13-.64-.36-.21-.35-.1-.82.25-1.03l6.31-3.81-3.1-5.36c-.21-.36-.09-.82.27-1.02.36-.21.82-.09,1.02.27l3.47,5.99c.21.35.09.81-.26,1.02l-6.95,4.19c-.12.07-.25.11-.39.11Z" style="fill:#fff;"/></svg>