<?xml version="1.0" encoding="UTF-8"?><svg id="_Ñëîé_1" xmlns="http://www.w3.org/2000/svg" viewBox="0 0 192.13 191.91"><path d="m96.17,14.4c-2.05,0-3.7-1.66-3.7-3.71V3.71c0-2.05,1.65-3.71,3.7-3.71s3.7,1.66,3.7,3.71v6.98c0,2.05-1.65,3.71-3.7,3.71Z" style="fill:#fff;"/><path d="m96.17,191.91c-2.05,0-3.7-1.66-3.7-3.71v-6.98c0-2.05,1.65-3.71,3.7-3.71s3.7,1.66,3.7,3.71v6.98c0,2.05-1.65,3.71-3.7,3.71Z" style="fill:#fff;"/><path d="m10.68,99.66H3.7c-2.05,0-3.7-1.66-3.7-3.71s1.65-3.71,3.7-3.71h6.98c2.05,0,3.7,1.66,3.7,3.71s-1.65,3.71-3.7,3.71Z" style="fill:#fff;"/><path d="m188.42,99.66h-6.98c-2.05,0-3.7-1.66-3.7-3.71s1.65-3.71,3.7-3.71h6.98c2.05,0,3.7,1.66,3.7,3.71s-1.65,3.71-3.7,3.71Z" style="fill:#fff;"/><path d="m16.14,145.9c-1.28,0-2.53-.67-3.22-1.87-1.02-1.78-.41-4.04,1.37-5.06l6.1-3.49c1.75-1.01,4.03-.41,5.06,1.38,1.02,1.78.41,4.04-1.37,5.06l-6.1,3.49c-.58.33-1.21.49-1.84.49Z" style="fill:#fff;"/><path d="m170.1,56.92c-1.26,0-2.49-.65-3.19-1.82-1.04-1.76-.46-4.03,1.3-5.08l5.89-3.49c1.75-1.04,4.03-.47,5.09,1.3,1.04,1.76.46,4.03-1.3,5.08l-5.89,3.49c-.59.35-1.25.52-1.89.52Z" style="fill:#fff;"/><path d="m142.19,179.7c-1.28,0-2.54-.67-3.22-1.87l-3.49-6.11c-1.01-1.78-.39-4.04,1.38-5.06,1.8-1.01,4.05-.39,5.06,1.38l3.49,6.11c1.01,1.78.39,4.04-1.38,5.06-.59.33-1.22.49-1.84.49Z" style="fill:#fff;"/><path d="m53.43,25.73c-1.28,0-2.54-.67-3.22-1.87l-3.49-6.11c-1.01-1.78-.39-4.04,1.38-5.06,1.8-1.01,4.05-.4,5.06,1.38l3.49,6.11c1.01,1.78.39,4.04-1.38,5.06-.59.33-1.22.49-1.84.49Z" style="fill:#fff;"/><path d="m175.99,145.9c-.65,0-1.3-.17-1.89-.52l-5.89-3.49c-1.76-1.04-2.34-3.32-1.3-5.08,1.06-1.76,3.34-2.34,5.09-1.3l5.89,3.49c1.76,1.04,2.34,3.32,1.3,5.08-.7,1.17-1.93,1.82-3.19,1.82Z" style="fill:#fff;"/><path d="m22.24,56.92c-.63,0-1.26-.16-1.84-.49l-6.1-3.49c-1.78-1.02-2.4-3.28-1.37-5.06,1.01-1.79,3.29-2.38,5.06-1.38l6.1,3.49c1.78,1.02,2.4,3.28,1.37,5.06-.68,1.2-1.93,1.87-3.22,1.87Z" style="fill:#fff;"/><path d="m138.7,25.73c-.62,0-1.25-.16-1.84-.49-1.77-1.01-2.4-3.28-1.38-5.06l3.49-6.11c1.02-1.78,3.28-2.39,5.06-1.38,1.77,1.01,2.4,3.28,1.38,5.06l-3.49,6.11c-.68,1.2-1.94,1.87-3.22,1.87Z" style="fill:#fff;"/><path d="m49.94,179.7c-.62,0-1.25-.16-1.84-.49-1.77-1.01-2.4-3.28-1.38-5.06l3.49-6.11c1.01-1.78,3.28-2.39,5.06-1.38,1.77,1.01,2.4,3.28,1.38,5.06l-3.49,6.11c-.68,1.2-1.94,1.87-3.22,1.87Z" style="fill:#fff;"/><path d="m69.57,120.82c-1.09,0-2.17-.48-2.9-1.4-1.28-1.6-1.01-3.93.59-5.21l25.21-20.05v-45.97c0-2.05,1.65-3.71,3.7-3.71s3.7,1.66,3.7,3.71v47.76c0,1.13-.51,2.2-1.4,2.9l-26.6,21.16c-.68.54-1.5.81-2.31.81Z" style="fill:#fff;"/><path d="m96.17,191.91C43.14,191.91,0,148.87,0,95.96S43.14,0,96.17,0s95.96,43.05,95.96,95.96-43.04,95.96-95.96,95.96Zm0-184.5C47.23,7.42,7.41,47.13,7.41,95.96s39.82,88.54,88.76,88.54,88.55-39.72,88.55-88.54S145,7.42,96.17,7.42Z" style="fill:#fff;"/></svg>