<?xml version="1.0" encoding="UTF-8"?><svg id="_Ñëîé_1" xmlns="http://www.w3.org/2000/svg" viewBox="0 0 1079.21 1079.08"><line x1="23.81" y1="539.54" x2="1055.54" y2="539.54" style="fill:none; stroke:#fff; stroke-linecap:round; stroke-miterlimit:10; stroke-width:47.35px;"/><line x1="539.67" y1="23.68" x2="539.67" y2="1055.41" style="fill:none; stroke:#fff; stroke-linecap:round; stroke-miterlimit:10; stroke-width:47.35px;"/><path d="m925.94,198.26c-94.4,54.3-232.67,88.71-386.42,88.71s-292.02-34.41-386.41-88.71C247.5,91.24,385.47,23.68,539.52,23.68s292.34,67.56,386.42,174.58Z" style="fill:none; stroke:#fff; stroke-linecap:round; stroke-miterlimit:10; stroke-width:47.35px;"/><path d="m925.94,880.8c-94.08,107.02-232.35,174.58-386.42,174.58s-292.02-67.56-386.41-174.58c94.39-54.3,232.68-88.71,386.41-88.71s292.02,34.41,386.42,88.71Z" style="fill:none; stroke:#fff; stroke-linecap:round; stroke-miterlimit:10; stroke-width:47.35px;"/><path d="m1055.38,539.53c0,130.7-48.94,250.35-129.44,341.27-94.08,107.02-232.35,174.58-386.42,174.58s-292.02-67.56-386.41-174.58c-80.5-90.92-129.44-210.57-129.44-341.27s48.94-250.35,129.44-341.27C247.5,91.24,385.47,23.68,539.52,23.68s292.34,67.56,386.42,174.58c80.5,90.92,129.44,210.57,129.44,341.27Z" style="fill:none; stroke:#fff; stroke-linecap:round; stroke-miterlimit:10; stroke-width:47.35px;"/><ellipse cx="539.67" cy="539.54" rx="257.93" ry="515.86" style="fill:none; stroke:#fff; stroke-linecap:round; stroke-miterlimit:10; stroke-width:47.35px;"/></svg>