<?xml version="1.0" encoding="UTF-8"?><svg id="Icons" xmlns="http://www.w3.org/2000/svg" viewBox="0 0 466.91 474.86"><g id="_6"><path d="m369.25,474.86c-7.51,0-15.06-1.22-22.39-3.67l-5.25-1.76c-3.67-1.23-5.64-5.19-4.42-8.86,1.23-3.67,5.19-5.64,8.86-4.42l5.25,1.76c14.27,4.78,29.55,3.71,43.02-3.01,13.47-6.71,23.52-18.27,28.29-32.54l15.75-47.07c4.78-14.27,3.71-29.55-3.01-43.02-6.71-13.47-18.27-23.52-32.54-28.29l-4.55-1.52c-3.67-1.23-5.64-5.19-4.42-8.86,1.23-3.67,5.19-5.64,8.86-4.42l4.55,1.52c17.82,5.96,32.25,18.51,40.63,35.32,8.38,16.82,9.72,35.89,3.75,53.71l-15.75,47.07c-5.96,17.82-18.51,32.25-35.32,40.63-9.9,4.93-20.57,7.43-31.32,7.43Z" style="fill:#fff;"/><path d="m340.88,468.81c-.15,0-.3,0-.45-.01l-18.14-1.17c-8.99-.58-16.99-4.8-21.95-11.57-5.85-7.99-7.48-18.36-4.34-27.75l44.82-133.94c1.72-5.14,4.78-9.74,8.85-13.29,5.24-4.58,12.08-7.1,19.26-7.1,5.96,0,11.8,1.7,16.88,4.91l16.39,10.36c2.75,1.74,3.94,5.13,2.88,8.2l-57.57,166.66c-.98,2.84-3.65,4.71-6.61,4.71Zm28.04-180.85c-3.79,0-7.36,1.29-10.05,3.65-2.19,1.92-3.85,4.4-4.78,7.19l-44.82,133.94c-1.7,5.08-.82,10.7,2.35,15.03,2.51,3.42,6.72,5.57,11.56,5.88l12.81.83,54.02-156.37-11.7-7.4c-2.84-1.79-6.09-2.74-9.4-2.74Z" style="fill:#fff;"/><path d="m97.78,474.86c-10.74,0-21.42-2.49-31.32-7.43-16.81-8.38-29.36-22.81-35.32-40.63l-15.75-47.07c-5.96-17.82-4.63-36.89,3.75-53.71,8.38-16.81,22.81-29.36,40.63-35.32l6.58-2.2c3.67-1.23,7.63.75,8.86,4.42,1.23,3.67-.75,7.63-4.42,8.86l-6.58,2.2c-14.27,4.78-25.83,14.82-32.54,28.29-6.71,13.47-7.78,28.75-3.01,43.02l15.75,47.07c4.78,14.27,14.82,25.83,28.29,32.54,13.47,6.71,28.75,7.78,43.02,3.01l8.21-2.75c3.67-1.23,7.63.75,8.86,4.42,1.23,3.67-.75,7.63-4.42,8.86l-8.21,2.75c-7.33,2.45-14.88,3.67-22.39,3.67Z" style="fill:#fff;"/><path d="m126.15,468.81c-2.97,0-5.63-1.88-6.61-4.71l-57.57-166.66c-1.06-3.07.13-6.47,2.88-8.2l16.39-10.36c5.08-3.21,10.92-4.91,16.88-4.91,7.18,0,14.02,2.52,19.26,7.1,4.07,3.55,7.13,8.15,8.85,13.29l44.82,133.94c3.14,9.38,1.52,19.76-4.34,27.75-4.96,6.78-12.97,10.99-21.95,11.57l-18.14,1.17c-.15,0-.3.01-.45.01Zm-49.14-170.7l54.02,156.37,12.81-.83c4.84-.31,9.06-2.46,11.56-5.88,3.17-4.33,4.05-9.95,2.35-15.03l-44.82-133.94c-.93-2.79-2.59-5.27-4.78-7.19-2.69-2.35-6.26-3.65-10.05-3.65-3.31,0-6.56.95-9.4,2.74l-11.7,7.4Z" style="fill:#fff;"/><path d="m23.96,337.72c-2.77,0-5.4-1.66-6.5-4.39C5.88,304.54,0,274.07,0,242.76c0-65.38,23.55-126.29,66.31-171.52C109.75,25.3,169.11,0,233.46,0s123.7,25.3,167.14,71.24c42.76,45.23,66.31,106.14,66.31,171.52,0,31.15-5.82,61.48-17.29,90.15-1.44,3.59-5.51,5.33-9.1,3.9-3.59-1.44-5.33-5.51-3.9-9.1,10.81-27.01,16.29-55.59,16.29-84.95,0-128.28-96.4-228.76-219.46-228.76S14,114.48,14,242.76c0,29.51,5.53,58.22,16.45,85.35,1.44,3.59-.29,7.66-3.88,9.11-.86.34-1.74.51-2.61.51Z" style="fill:#fff;"/><path d="m412.52,306.33c-.67,0-1.34-.1-2.01-.3-3.7-1.11-5.8-5.01-4.69-8.72,5.28-17.62,7.96-35.98,7.96-54.56,0-108.1-77.52-189.62-180.32-189.62S53.14,134.66,53.14,242.76c0,17.81,2.46,35.43,7.33,52.38,1.07,3.72-1.08,7.59-4.8,8.66-3.72,1.07-7.59-1.08-8.66-4.8-5.22-18.2-7.87-37.13-7.87-56.24,0-54.91,19.47-105.99,54.82-143.81,36.05-38.57,85.59-59.81,139.5-59.81s103.45,21.24,139.5,59.81c35.35,37.83,54.82,88.9,54.82,143.81,0,19.94-2.88,39.65-8.55,58.58-.91,3.03-3.69,4.99-6.7,4.99Z" style="fill:#fff;"/><path d="m133.41,131.88c-4.32,0-8.64-.99-12.6-3l-27.16-13.79c-3.45-1.75-4.82-5.96-3.07-9.41,1.75-3.45,5.96-4.82,9.41-3.07l27.16,13.79c4.85,2.46,10.83,1.83,15.23-1.62,26.53-20.82,58.02-31.83,91.08-31.83s64.36,10.94,90.84,31.64c4.43,3.46,10.22,4.08,15.12,1.63l27.45-13.73c3.46-1.73,7.66-.33,9.39,3.13,1.73,3.46.33,7.66-3.13,9.39l-27.45,13.73c-9.63,4.82-21.41,3.59-30-3.13-23.99-18.75-52.42-28.67-82.21-28.67s-58.4,9.97-82.44,28.84c-5.12,4.02-11.36,6.09-17.61,6.09Z" style="fill:#fff;"/></g></svg>