<?xml version="1.0" encoding="UTF-8"?><svg id="Large_Preview" xmlns="http://www.w3.org/2000/svg" viewBox="0 0 341.23 353.89"><path d="M72,201.89c18.32,0,32-15.35,32-34.28v-11.43c0-18.93-13.68-34.28-32-34.28s-32,15.35-32,34.28v11.43c0,18.93,13.68,34.28,32,34.28Z" style="fill:none; stroke:#fff; stroke-miterlimit:10; stroke-width:16px;"/><path d="M70.74,334.16l-25.73-5.5c-7.61-1.07-12.77-2.77-19.87-13.5l-6.83-15.06c-6.02-13.24-10.31-18.92-10.31-29.69,0-22.55,11.53-44.51,36.95-44.51h46.11c14.78.6,23.85,3.19,31.92,12.92,8.07,9.73,15.64,18.91,15.64,18.91" style="fill:none; stroke:#fff; stroke-linecap:round; stroke-linejoin:round; stroke-width:16px;"/><path d="M45.9,268.17l7.23,18.08c2.89,7.22,6.38,10.05,13.11,12.54l18.62,6.62" style="fill:none; stroke:#fff; stroke-linecap:round; stroke-linejoin:round; stroke-width:16px;"/><path d="M156.34,321.89h-28.24c-1.53-19,15.01-32,15.01-32h25.38c5.58,0,9.21,6.26,6.71,11.58l-5.43,11.58c-2.54,5.42-7.74,8.84-13.42,8.84Z" style="fill:none; stroke:#fff; stroke-linejoin:round; stroke-width:16px;"/><path d="M164.71,289.89l10.52-21.53c2.4-4.88-1.09-10.63-6.46-10.63h-56.04c-2.73,0-5.23,1.57-6.46,4.06l-36.09,73.47c-2.4,4.88,1.09,10.63,6.46,10.63h56.04c2.73,0,5.23-1.57,6.46-4.06l9.79-19.94" style="fill:none; stroke:#fff; stroke-linejoin:round; stroke-width:16px;"/><line x1="40" y1="327.69" x2="40" y2="353.89" style="fill:none; stroke:#fff; stroke-linejoin:round; stroke-width:16px;"/><path d="M122.71,116.6L186.47,15.47c6.28-9.96,20.79-9.96,27.07,0l117.2,185.89c6.72,10.65-.94,24.53-13.53,24.53h-164.87" style="fill:none; stroke:#fff; stroke-linecap:round; stroke-linejoin:round; stroke-width:16px;"/><line x1="200.01" y1="73.23" x2="200" y2="145.89" style="fill:none; stroke:#fff; stroke-linecap:round; stroke-linejoin:round; stroke-width:16px;"/><line x1="200" y1="177.89" x2="200" y2="185.89" style="fill:none; stroke:#fff; stroke-linecap:round; stroke-linejoin:round; stroke-width:16px;"/></svg>