<?xml version="1.0" encoding="UTF-8"?><svg id="_Ñëîé_1" xmlns="http://www.w3.org/2000/svg" viewBox="0 0 384 384"><line x1="192" y1="232" x2="192" y2="72" style="fill:none; stroke:#fff; stroke-miterlimit:10; stroke-width:16px;"/><path d="M192,200c28.99-20.28,48-53.89,48-92s-19.01-71.72-48-92c-28.96,20.24-48,53.92-48,92,0,26.16,8.96,50.32,24,69.36" style="fill:none; stroke:#fff; stroke-miterlimit:10; stroke-width:16px;"/><path d="M192,384v-68.48c0-27.84-11.16-54.52-30.99-74.07l-41.73-41.13-33.76-61.84c-3.44-6.24-9.92-10.48-17.52-10.48-11.04,0-20,8.96-20,20,0,3.44.96,6.64,2.48,9.52l48,88" style="fill:none; stroke:#fff; stroke-miterlimit:10; stroke-width:16px;"/><path d="M80,104V40c0-17.68-14.32-32-32-32h-8v34.88" style="fill:none; stroke:#fff; stroke-miterlimit:10; stroke-width:16px;"/><path d="M112,136v-64c0-17.68-14.32-32-32-32" style="fill:none; stroke:#fff; stroke-miterlimit:10; stroke-width:16px;"/><path d="M48,104v-40c0-17.67-14.33-32-32-32h-8v184.8c0,14.85,5.9,29.1,16.4,39.6l62.23,62.23c6,6,9.37,14.14,9.37,22.63v42.75" style="fill:none; stroke:#fff; stroke-miterlimit:10; stroke-width:16px;"/><path d="M192,384v-68.48c0-27.84,11.16-54.52,30.99-74.07l41.73-41.13,33.76-61.84c3.44-6.24,9.92-10.48,17.52-10.48,11.04,0,20,8.96,20,20,0,3.44-.96,6.64-2.48,9.52l-48,88" style="fill:none; stroke:#fff; stroke-miterlimit:10; stroke-width:16px;"/><path d="M304,104V40c0-17.68,14.32-32,32-32h8v34.88" style="fill:none; stroke:#fff; stroke-miterlimit:10; stroke-width:16px;"/><path d="M272,136v-64c0-17.68,14.32-32,32-32" style="fill:none; stroke:#fff; stroke-miterlimit:10; stroke-width:16px;"/><path d="M336,104v-40c0-17.67,14.33-32,32-32h8v184.8c0,14.85-5.9,29.1-16.4,39.6l-62.23,62.23c-6,6-9.37,14.14-9.37,22.63v42.75" style="fill:none; stroke:#fff; stroke-miterlimit:10; stroke-width:16px;"/></svg>