<?xml version="1.0" encoding="UTF-8"?><svg id="_Ñëîé_1" xmlns="http://www.w3.org/2000/svg" viewBox="0 0 384 353.21"><line x1="120" y1="73.21" x2="120" y2="9.21" style="fill:none; stroke:#fff; stroke-miterlimit:10; stroke-width:16px;"/><circle cx="200" cy="169.21" r="96" style="fill:none; stroke:#fff; stroke-miterlimit:10; stroke-width:16px;"/><path d="M370.84,315.17l-52.8-52.8c-3.19-3.18-7.59-5.15-12.44-5.15-9.72,0-17.6,7.88-17.6,17.6,0,4.86,1.97,9.26,5.16,12.44l52.8,52.8c3.18,3.18,7.59,5.15,12.44,5.15,9.72,0,17.6-7.88,17.6-17.6,0-4.86-1.97-9.26-5.16-12.44Z" style="fill:none; stroke:#fff; stroke-miterlimit:10; stroke-width:16px;"/><line x1="293.12" y1="262.33" x2="267.92" y2="237.13" style="fill:none; stroke:#fff; stroke-miterlimit:10; stroke-width:16px;"/><path d="M208.4,232.65c15.04-19.28,23.6-43.36,23.6-68.64V41.21c-43.79,0-77.09-12.05-112-32C85.09,29.16,51.79,41.21,8,41.21v122.78c0,42.42,23.97,81.2,61.91,100.18l50.09,25.04,50.09-25.04c1.54-.77,3.02-1.63,4.52-2.46" style="fill:none; stroke:#fff; stroke-miterlimit:10; stroke-width:16px;"/></svg>