<?xml version="1.0" encoding="UTF-8"?><svg id="Artwork" xmlns="http://www.w3.org/2000/svg" viewBox="0 0 420.98 615"><path d="m403.01,200.79c-10.7-17.65-26.66-15.94-32-22.36-2.99-3.27-3.18-8.22-.45-11.7,5.24,0,4.72,0,4.72-3.2-.02-1.8.16-3.59.53-5.35l2.68-2.15-5.36-9.62c1.55-2.76,1.98-9.51-4.77-9.51s-11.26-.91-17.53,5.84c-5.26,5.64-5.41,10.81-4.51,15.31.56,2.81,3.73,6.62,5.31,8.51-1.68,3.22-16.65,19.4-16.65,27.5,0,1.86-.1,6.18,0,7.66h-12.66l-.32-30.17h-7.22c3.24-3.49,5.1-9.92,5.1-14.31,0-7.85-4.18-17.86-15.7-17.86h-5.79c-.44,1.91-2.14,3.27-4.1,3.28-2.29,0-4.21-2.04-4.21-4.85-2.77.06-5.52-.53-8.01-1.74-1.86-2.13-3.77-4.1-5.72-5.94-1.72-3.44-2.56-7.96-2.56-13.58h-5.7c.92-2.26.72-4.81-.53-6.9-1.15-1.85-3.18-2.98-5.36-2.99v-8.23s-2.75-5.34-19.18-5.34c-13.37,0-16.71-3.76-19.13-6.53,1.3-1.54,4.18-6.36,4.18-19.08,0-16.49-11.24-34.74-11.24-34.74v-5.29c0-5.25,7.49-7.39,7.49-7.39-.56-8.9-7.89-12.55-13.59-12.55-.08,0-.16,0-.24.01-.08,0-.16-.01-.24-.01-5.69,0-13.03,3.66-13.6,12.55,0,0,7.49,2.14,7.49,7.39v5.29s-11.24,18.26-11.24,34.74c0,12.72,2.88,17.54,4.18,19.08-2.42,2.77-5.76,6.53-19.13,6.53-16.42,0-19.18,5.34-19.18,5.34v8.23c-2.18,0-4.21,1.13-5.36,2.99-1.25,2.09-1.44,4.65-.52,6.9h-5.7c0,5.62-.83,10.14-2.55,13.58-1.96,1.84-3.87,3.81-5.72,5.94-2.49,1.21-5.24,1.81-8.01,1.74,0,2.81-1.91,4.85-4.2,4.85-1.96,0-3.66-1.36-4.11-3.28h-5.79c-11.52,0-15.7,10-15.7,17.86,0,4.39,1.86,10.83,5.1,14.31h-7.22l-.32,30.17h-12.66c.09-1.48,0-5.8,0-7.66,0-8.11-14.97-24.28-16.64-27.5,1.58-1.89,4.75-5.7,5.31-8.51.9-4.5.76-9.66-4.5-15.31-6.27-6.75-10.59-5.84-17.53-5.84s-6.32,6.75-4.78,9.51l-5.35,9.62,2.68,2.15c.37,1.76.54,3.55.52,5.35,0,3.2-.52,3.2,4.71,3.2,2.73,3.48,2.54,8.43-.45,11.7-5.33,6.41-21.29,4.71-31.99,22.36-10.71,17.68-19.7,44.33,7.49,69.94,27.19,25.6,34.05,22.37,36.72,29.87,1.88,5.2,1.41,8.6.6,10.17-1.75,0-3.16,1.42-3.15,3.17s1.42,3.16,3.17,3.15c1.15,0,2.21-.63,2.76-1.64l6.28-1.57s1.09-.11,2.87-.21c-1.92,1.34-2.4,3.98-1.06,5.9,1.34,1.92,3.98,2.4,5.9,1.06,1.92-1.34,2.4-3.98,1.06-5.9-.34-.5-.79-.91-1.31-1.22,5.47-.11,12.59.16,16.53,1.98,6.96,3.22,7.5,6.43,9.11,11.26,1.19,3.66-.37,9.2-1.19,11.63-1.46-1.44-3.43-2.25-5.48-2.23-4.32-.01-7.83,3.48-7.84,7.8,0,.01,0,.02,0,.03.03,4.45,3.26,8.24,7.65,8.97,5.23.61,10.29.07,14.86-7.58.76-1.52,1.36-3.11,1.77-4.76l.15-.93c.04-.56.11-1.03.18-1.47,10.85,30.58,27.74,52.92,47.51,61.03,2.53,5.43,3.89,11.33,3.99,17.32-.07,10.93-8.13,20.17-18.95,21.73-11.87.9-20.76,11.25-19.86,23.12.21,2.8.97,5.54,2.23,8.05-6,.42-10.65,5.41-10.64,11.43,0,.91.1,1.83.32,2.71-5.2.89-9.01,5.4-9,10.68v77.43c-3.05,0-5.53,2.46-5.54,5.52,0,1.02.28,2.02.81,2.89-7.5,1.38-12.46,8.58-11.08,16.08,1.21,6.55,6.92,11.31,13.58,11.3h204.15c7.63,0,13.81-6.17,13.82-13.79,0-6.67-4.75-12.39-11.31-13.59,1.59-2.6.77-6.01-1.83-7.6-.87-.53-1.88-.82-2.9-.81v-77.43c0-5.28-3.79-9.79-8.99-10.68.22-.89.33-1.8.32-2.71.01-6.01-4.64-11.01-10.64-11.43,5.35-10.63,1.06-23.59-9.57-28.94-2.52-1.26-5.25-2.02-8.06-2.24-10.82-1.56-18.88-10.8-18.95-21.73.1-5.99,1.46-11.89,4-17.32,19.77-8.11,36.67-30.45,47.51-61.03.06.44.14.9.18,1.47l.15.93c.42,1.65,1.01,3.24,1.77,4.76,4.58,7.65,9.64,8.19,14.87,7.58,4.39-.73,7.63-4.51,7.66-8.97,0-4.32-3.49-7.83-7.81-7.83-.01,0-.02,0-.03,0-2.05-.02-4.02.79-5.48,2.23-.82-2.43-2.38-7.97-1.19-11.63,1.61-4.83,2.15-8.04,9.1-11.26,3.93-1.81,11.06-2.08,16.53-1.98-2.01,1.2-2.66,3.79-1.47,5.8,1.2,2.01,3.79,2.66,5.8,1.47,1.28-.76,2.06-2.14,2.06-3.63,0-1.38-.67-2.68-1.81-3.48,1.78.1,2.87.21,2.87.21l6.27,1.57c.84,1.53,2.76,2.1,4.29,1.26,1.53-.84,2.1-2.76,1.26-4.29-.55-1.01-1.62-1.65-2.78-1.65-.81-1.57-1.29-4.97.6-10.17,2.67-7.5,9.53-4.27,36.72-29.87,27.19-25.61,18.2-52.26,7.49-69.94Zm-295.4,114.32c-3.84-4.12-8.62-7.24-13.94-9.1-7.72-2.86-8.59-6.3-8.59-6.3-.83.81-1.39,1.87-1.59,3.01h-13.54c1.59-3.91,4.98-7.05-7.25-16.04-12.2-9.01-29.33-25.07-34.58-39.96-3.57-10.06-9.03-25.05,7.38-38.44,15.3-12.44,31.04-1.21,30.95,6.95-4.87-.49-13.71,1.46-12.05,10.31,2.23,12.14,14.8,14.26,26.11,5.85,7.21-5.42,7.34-11.85,8.41-13.69,2.33-3.72,5.17-5.68,8.32-5.68,2.28,0,5.72,1.19,8.19,5.33-2.17,13.69-3.26,27.53-3.24,41.38-.06,19.04,2.01,38.02,6.18,56.6-.25-.07-.52-.17-.78-.25Zm285.23-68.38c-5.25,14.89-22.38,30.95-34.58,39.96-12.22,8.99-8.84,12.12-7.25,16.04h-13.54c-.2-1.15-.75-2.2-1.58-3.01,0,0-.86,3.43-8.59,6.3-5.31,1.86-10.1,4.98-13.94,9.1-.26.08-.53.17-.78.25,4.17-18.58,6.24-37.56,6.18-56.6.01-13.86-1.07-27.7-3.25-41.38,2.47-4.15,5.91-5.33,8.19-5.33,3.15,0,5.99,1.95,8.32,5.68,1.08,1.84,1.2,8.27,8.42,13.69,11.3,8.41,23.87,6.29,26.11-5.85,1.67-8.85-7.18-10.81-12.05-10.31-.09-8.16,15.65-19.38,30.95-6.95,16.41,13.39,10.95,28.38,7.39,38.44h0Z" style="fill:none; stroke:#fff; stroke-miterlimit:10; stroke-width:15px;"/></svg>