<?xml version="1.0" encoding="UTF-8"?><svg id="Artwork" xmlns="http://www.w3.org/2000/svg" viewBox="0 0 69.99 116.67"><path d="m20.03,1.37L1.37,20.04s-.07.09-.11.13c-.17.18-.33.37-.47.57-.06.1-.11.2-.16.3-.1.16-.19.33-.27.5-.05.13-.08.26-.12.39-.06.16-.11.32-.15.48-.12.61-.12,1.24,0,1.85.04.18.1.36.16.54.04.11.06.23.1.34.08.18.17.36.28.52.05.09.09.19.15.28.14.2.3.4.47.58.04.04.06.09.1.13l18.67,18.67c1.82,1.82,4.78,1.82,6.6,0,1.82-1.82,1.82-4.77,0-6.59l-10.66-10.66c25.75,1.1,45.73,22.86,44.64,48.61-.52,12.15-5.75,23.61-14.6,31.96-1.87,1.77-1.96,4.72-.19,6.6s4.72,1.96,6.6.19h0c22.49-21.23,23.52-56.67,2.29-79.16-10.13-10.73-24.08-17.03-38.82-17.53l10.74-10.74c1.83-1.82,1.83-4.77.01-6.6-1.82-1.83-4.77-1.83-6.6-.01,0,0,0,0-.01.01Z" style="fill:#fff;"/></svg>