<?xml version="1.0" encoding="UTF-8"?><svg id="_Ñëîé_1" xmlns="http://www.w3.org/2000/svg" viewBox="0 0 335.37 387.2"><path d="m334.81,82.41l-20.81-18.89-19.72-17.9c-.31-.28-.72-.44-1.14-.44-.24,0-.61.05-.98.31l-25.77,18.18c-.42.3-.68.76-.71,1.28-.03.51.17,1.01.55,1.36l25.52,23.26,25.05,22.83c.38.34.9.5,1.4.42.51-.08.95-.38,1.21-.83l15.72-27.48c.4-.7.26-1.56-.33-2.1Z" style="fill:#fff;"/><path d="m182.72,55.82l-4.49-.45v-18.3s20.98-.06,22.7-.06c4.94,0,7.76-.85,10.03-3.03,5.6-6.2,6.73-11.3,6.74-16.04,0-4.71-1.12-9.55-6.7-15.22-1.96-1.93-4.47-2.73-8.65-2.73-1.84,0-71.36.28-73.48.26h-.2c-3.45,0-5.6.7-7.4,2.43-5.6,6.2-6.73,11.3-6.74,16.03,0,4.71,1.12,9.55,6.7,15.22,1.86,1.83,4.29,3.06,10.06,3.06,1.72,0,22.7.06,22.7.06v18.3l-4.49.45C64.27,64.36,0,135.42,0,221.1c0,91.59,74.52,166.1,166.11,166.1s166.11-74.51,166.11-166.1c0-85.68-64.27-156.73-149.49-165.28Zm84.8,257.99c-10.95,11.99-23.79,21.83-38.17,29.26-15.62,8.07-32.45,13.01-50.04,14.67l-3.07.29h-20.4s-2.95-.29-2.95-.29c-18.03-1.69-35.31-6.86-51.37-15.36-12.07-6.39-23.07-14.51-32.69-24.13-10.06-10.06-18.47-21.62-24.99-34.35-7.99-15.59-12.87-32.32-14.5-49.7l-.29-3.07v-.12s.12-20.28.12-20.28l.28-2.96c1.94-20.24,8.47-40.11,18.88-57.47,6.82-11.37,15.27-21.68,25.09-30.65,15.93-14.54,35.35-25.22,56.17-30.9,11.85-3.23,24.13-4.87,36.5-4.87,36.81,0,71.32,14.23,97.16,40.07,12.48,12.48,22.28,26.97,29.13,43.05,7.26,17.05,10.94,35.26,10.94,54.11,0,34.51-12.72,67.43-35.81,92.71Z" style="fill:#fff;"/></svg>