<?xml version="1.0" encoding="UTF-8"?><svg id="ICONS" xmlns="http://www.w3.org/2000/svg" viewBox="0 0 131.1 161.36"><path d="m65.55,70.59c-19.46,0-35.3-15.83-35.3-35.3S46.09,0,65.55,0s35.3,15.83,35.3,35.3-15.83,35.3-35.3,35.3Zm0-60.51c-13.9,0-25.21,11.31-25.21,25.21s11.31,25.21,25.21,25.21,25.21-11.31,25.21-25.21-11.31-25.21-25.21-25.21Z" style="fill:#fff;"/><path d="m112.22,161.36H18.88c-10.41,0-18.88-8.47-18.88-18.88v-6.33c0-33.69,25.73-55.47,65.55-55.47s65.55,21.77,65.55,55.47v6.33c0,10.41-8.47,18.88-18.88,18.88Zm-46.67-70.59c-26.82,0-55.47,11.92-55.47,45.38v6.33c0,4.85,3.94,8.79,8.79,8.79h93.35c4.85,0,8.79-3.94,8.79-8.79v-6.33c0-33.46-28.65-45.38-55.47-45.38Z" style="fill:#fff;"/></svg>