<?xml version="1.0" encoding="UTF-8"?><svg id="Artwork" xmlns="http://www.w3.org/2000/svg" viewBox="0 0 149.33 143.73"><path d="m121.33,42.93c11.58,0,21-9.13,21-20.35s-9.42-20.35-21-20.35-21,9.13-21,20.35c0,11.22,9.42,20.35,21,20.35Zm0-31.36c6.43,0,11.67,4.94,11.67,11.01s-5.23,11.01-11.67,11.01-11.67-4.94-11.67-11.01c0-6.07,5.23-11.01,11.67-11.01h0Zm4.67,33.23h-9.33c-12.87,0-23.33,10.13-23.33,22.59v26.88c.05,5.84,3.8,10.99,9.33,12.85v18.51c0,9.98,8.37,18.11,18.67,18.11s18.67-8.12,18.67-18.11v-18.51c5.53-1.85,9.28-7.01,9.33-12.85v-26.88c0-12.45-10.47-22.59-23.33-22.59h0Zm14,49.47c-.11,2.47-2.19,4.39-4.67,4.29-2.58,0-4.67,2.09-4.67,4.67h0v22.4c0,4.84-4.19,8.77-9.33,8.77s-9.33-3.94-9.33-8.77v-22.4c0-2.58-2.09-4.67-4.67-4.67h0c-2.47.1-4.56-1.82-4.67-4.29v-26.88c0-7.31,6.28-13.25,14-13.25h9.33c7.72,0,14,5.95,14,13.25v26.88Zm-56.46-47.26c-1.12,2.32-3.9,3.3-6.23,2.19l-25.78-12.38L9.33,61.12v1.6h60.67c2.58,0,4.67,2.09,4.67,4.67s-2.09,4.67-4.67,4.67H4.67C2.09,72.05,0,69.96,0,67.39v-8.96c0-1.67.89-3.21,2.34-4.04l44.33-25.53v-6.26c0-2.58,2.09-4.67,4.67-4.67h0c2.37-.2,4.13-2.28,3.93-4.65-.2-2.37-2.28-4.13-4.65-3.93-2.23.19-3.95,2.05-3.95,4.29,0,2.58-2.09,4.67-4.67,4.67s-4.67-2.09-4.67-4.67C37.54,5.89,43.98-.2,51.71,0c7.44.2,13.42,6.18,13.62,13.62-.05,5.83-3.8,10.99-9.33,12.85v2.14l25.35,12.17c2.32,1.12,3.3,3.9,2.19,6.23Z" style="fill:#fff;"/></svg>