<svg id="Artwork" xmlns="http://www.w3.org/2000/svg" viewBox="0 0 200 200"><defs><style>.cls-1{fill:#fff;}</style></defs><title>RWC23_IC_TICKETS_WHITE_R_NEG</title><path class="cls-1" d="M79.68652,34.73975l-7.96875,2.49414A20.26744,20.26744,0,0,1,34.07715,49.01562l-7.96,2.49122a1.57021,1.57021,0,0,0-1.0293,1.96679l29.00879,92.68262a1.57152,1.57152,0,0,0,1.96875,1.02979l5.31641-1.66407A4.66655,4.66655,0,0,1,64.169,154.4292l-5.31641,1.66406a10.90006,10.90006,0,0,1-13.66211-7.14844L16.18164,56.26221a10.90213,10.90213,0,0,1,7.14844-13.6626L32.5,39.72949a7.76753,7.76753,0,0,1,9.26562,3.90869A10.93309,10.93309,0,0,0,62.335,37.19141a7.75379,7.75379,0,0,1,5.38672-8.48633L76.89844,25.833a10.90318,10.90318,0,0,1,13.66211,7.148l6.69336,21.38769a4.66615,4.66615,0,1,1-8.90625,2.7876L81.6543,35.76953a1.57158,1.57158,0,0,0-1.96778-1.02978ZM183.80957,74.44043l-29.251,92.60547a10.88316,10.88316,0,0,1-13.68164,7.1123l-9.15332-2.8916a7.76363,7.76363,0,0,1-5.3623-8.50683,10.92948,10.92948,0,0,0-20.55957-6.50049,7.75761,7.75761,0,0,1-9.2793,3.88867l-9.16894-2.89649a10.90293,10.90293,0,0,1-7.11231-13.68164l29.251-92.60546a10.91583,10.91583,0,0,1,13.68066-7.1128l9.16309,2.89453a7.76173,7.76173,0,0,1,5.36133,8.50977,10.89753,10.89753,0,0,0,7.53906,11.917l.00195.00049a10.90076,10.90076,0,0,0,13.0166-5.43408,7.754,7.754,0,0,1,9.27442-3.87647l9.168,2.896a10.90294,10.90294,0,0,1,7.1123,13.68164Zm-9.00293-4.00879a1.564,1.564,0,0,0-.9209-.77344l-7.96094-2.51465a20.26714,20.26714,0,0,1-37.60937-11.88037L120.3623,52.751a1.57073,1.57073,0,0,0-1.96972,1.02441l-29.252,92.60645a1.56939,1.56939,0,0,0,1.02442,1.97021l7.957,2.51367a20.26366,20.26366,0,0,1,37.624,11.88428l7.94239,2.50879a1.56933,1.56933,0,0,0,1.96972-1.02393l29.252-92.60644A1.55943,1.55943,0,0,0,174.80664,70.43164Z"/></svg>