<svg id="Artwork" xmlns="http://www.w3.org/2000/svg" viewBox="0 0 200 200"><defs><style>.cls-1{fill:#ff3000;}</style></defs><title>RWC23_IC_ARROW_RIGHT_RED_R_POS</title><path class="cls-1" d="M173.366,103.219c-.02454.02564-.041.05579-.06617.08094l-65.333,65.333a4.66663,4.66663,0,0,1-6.59961-6.59961l57.36719-57.36719H30a4.666,4.666,0,1,1,0-9.332H158.73438L101.36719,37.96693a4.66663,4.66663,0,0,1,6.59961-6.59961l65.333,65.333c.0254.02539.042.05578.06666.08154a4.6881,4.6881,0,0,1,.51269.62756,4.54393,4.54393,0,0,1,.21729.40052c.07177.13379.15319.26147.21191.40271a4.61773,4.61773,0,0,1,.15967.51477c.03418.11938.08105.23291.10559.35608a4.68918,4.68918,0,0,1,0,1.83313c-.02454.12341-.07166.2373-.10584.35693a4.57187,4.57187,0,0,1-.15942.514c-.05884.14172-.1405.26965-.21252.40381a4.53509,4.53509,0,0,1-.21668.39929A4.6886,4.6886,0,0,1,173.366,103.219Z"/></svg>