<?xml version="1.0" encoding="UTF-8"?><svg id="_ëîé_1" xmlns="http://www.w3.org/2000/svg" viewBox="0 0 604.24 416.72"><circle cx="126.79" cy="104.08" r="23.97" transform="translate(-17.89 181.39) rotate(-67.5)" style="fill:#fff;"/><circle cx="304.54" cy="80.53" r="23.97" style="fill:#fff;"/><circle cx="475.22" cy="104.08" r="23.97" transform="translate(197.2 503.3) rotate(-67.5)" style="fill:#fff;"/><polygon points="98.8 214.52 124.67 124.4 132.12 124.4 194.67 207.65 162.05 299.34 98.8 214.52" style="fill:#fff;"/><polygon points="505.44 214.52 478.39 124.4 470.94 124.4 409.57 207.65 442.19 299.34 505.44 214.52" style="fill:#fff;"/><polygon points="260.66 220.65 298.76 101.34 304.54 101.34 304.54 313.99 260.66 220.65" style="fill:#fff;"/><polygon points="348.41 220.65 310.31 101.34 298.76 101.34 298.76 313.99 348.41 220.65" style="fill:#fff;"/><circle cx="571.24" cy="80.12" r="33" transform="translate(278.62 577.21) rotate(-67.5)" style="fill:#fff;"/><rect x="96.73" y="390.52" width="415.61" height="26.2" style="fill:#fff;"/><circle cx="33" cy="80.12" r="33" transform="translate(-37.19 29.31) rotate(-31.72)" style="fill:#fff;"/><polygon points="96.73 366.96 37.84 92.36 154.69 261.46 214.98 48.35 310.51 244.82 310.51 366.96 96.73 366.96" style="fill:#fff;"/><polygon points="512.34 366.96 571.24 92.36 454.38 261.46 394.1 48.35 304.54 239.83 304.54 366.96 512.34 366.96" style="fill:#fff;"/><circle cx="212.41" cy="33" r="33" style="fill:#fff;"/><circle cx="391.83" cy="33" r="33" style="fill:#fff;"/></svg>