<svg id="Artwork" xmlns="http://www.w3.org/2000/svg" viewBox="0 0 200 200"><defs><style>.cls-1{fill:#fff;}</style></defs><title>RWC23_IC_ARROW_LEFT_WHITE_R_NEG</title><path class="cls-1" d="M174.666,100.00013a4.66579,4.66579,0,0,1-4.666,4.666H41.26562l57.36719,57.36719A4.66663,4.66663,0,0,1,92.0332,168.633l-65.333-65.333c-.02491-.0249-.0412-.05481-.06543-.08008a4.68553,4.68553,0,0,1-.514-.6294c-.0849-.12695-.14441-.26416-.21552-.397-.07245-.135-.15436-.26343-.2135-.40588a4.60081,4.60081,0,0,1-.15881-.5116c-.03449-.1206-.08179-.23523-.10657-.35962a4.68609,4.68609,0,0,1,0-1.83252c.02472-.12414.072-.23852.10632-.35888a4.58883,4.58883,0,0,1,.15906-.51233c.059-.142.14075-.27027.21295-.40479a4.521,4.521,0,0,1,.21613-.39819,4.67114,4.67114,0,0,1,.51343-.62854c.02441-.02564.04083-.05567.066-.08081l65.333-65.333a4.66663,4.66663,0,0,1,6.59961,6.59961L41.26562,95.33412H170A4.66578,4.66578,0,0,1,174.666,100.00013Z"/></svg>