<?xml version="1.0" encoding="UTF-8"?><svg id="Outlined_Art" xmlns="http://www.w3.org/2000/svg" viewBox="0 0 20 20.92"><path d="m12.85,20.92c-.22,0-.44-.03-.64-.09-.04-.01-.07-.02-.11-.04-.03-.01-.05-.02-.08-.03-.71-.3-1.41-.64-2.08-1.02-.81-.44-1.12-.61-2.38-.66-.44-.02-.85.09-1.24.19-.69.18-1.4.37-2.2-.15-1.37-.89-.72-3.81-.15-6.38.21-.96.5-2.27.4-2.55-.2-.21-.8-.6-1.38-.97C1.15,8.04-.14,7.14.01,6.23c.09-.56.61-.77,1.02-.85.42-.08.93-.07,1.43-.07.37,0,.71,0,.99-.02.35-.04.42-.11.42-.12.18-.2.15-.65.11-1.08-.03-.36-.05-.74.02-1.09.07-.3.21-.55.42-.73.18-.15.49-.29.97-.07.25.11.51.3.78.5.41.3.87.64,1.18.58.05,0,.19-.04.36-.31.28-.45.53-.92.75-1.39.23-.47.43-.88.67-1.16.32-.38.7-.51,1.13-.37.38.12,2.52.87,4.65,1.77,3.69,1.56,4.26,2.24,4.33,2.71.1.64-.3,1.72-.76,2.96-.46,1.24-.98,2.64-.91,3.45.12,1.38.91,2.66,1.54,3.69.48.79.86,1.41.86,1.92,0,.2-.09.49-.77,1.11-.43.39-1.01.84-1.65,1.27-.76.51-3.08,1.98-4.73,1.98Zm-.41-.82c.09.03.2.02.37-.12.69-.59,1.36-2.68,1.69-5.34.36-2.81.29-5.64-.18-7.56-.25-1.02-.74-2.28-1.64-2.49-.88-.2-1.47.53-1.8,1.18-.03.06-.06.13-.09.2.31.09.6.26.84.48.7.64,1.09,1.75,1.15,3.32.06,1.45-.17,3.26-.68,5.22-.05.2-.26.33-.46.27-.06-.02-.11-.04-.16-.08-1.12-1-1.85-2.69-2.05-4.75-.12-1.31-.02-2.64.29-3.75-.19.03-.37.08-.56.15-1.13.4-1.71,1.43-1.75,3.06-.04,1.73.6,4.05,1.7,6.22,1.01,1.98,2.26,3.52,3.21,3.94.02,0,.04.02.07.03.02,0,.03.01.05.02Zm-.07-16.3c.16,0,.32.02.48.06,1.03.23,1.77,1.26,2.21,3.05.49,2.01.56,4.93.2,7.83-.17,1.35-.43,2.59-.74,3.57-.23.71-.48,1.28-.75,1.7.39-.11.77-.26,1.14-.43.92-.42,1.98-1.05,2.9-1.73.92-.68,1.35-1.16,1.43-1.32-.02-.31-.37-.88-.75-1.49-.67-1.1-1.51-2.46-1.65-4.02-.09-.98.44-2.4.95-3.78.37-1,.79-2.13.72-2.57-.03-.07-.37-.66-3.97-2.17-2.08-.87-4.13-1.59-4.49-1.71-.08-.03-.16-.05-.32.14-.18.21-.36.58-.57,1-.24.5-.5.99-.79,1.46-.23.37-.52.59-.87.66-.07.01-.14.02-.22.02-.56,0-1.09-.39-1.56-.74-.22-.16-.68-.5-.8-.46,0,0,0,0,0,0-.08.07-.13.17-.16.31-.05.24-.03.56,0,.87.04.56.08,1.2-.3,1.64-.37.41-1.12.4-1.99.39-.61,0-1.64-.02-1.69.28,0,.03-.02.28.73.9.54.44,1.26.9,1.9,1.31.73.47,1.31.83,1.56,1.12.36.41.18,1.28-.25,3.21-.25,1.14-.54,2.43-.62,3.52-.08,1.1.07,1.82.44,2.06.52.34.97.22,1.59.06.42-.11.9-.24,1.46-.22,1.21.05,1.7.22,2.33.55-.57-.76-1.06-1.56-1.49-2.41-1.17-2.31-1.82-4.71-1.79-6.58.04-1.95.82-3.24,2.25-3.76.35-.13.71-.2,1.08-.22.06-.16.13-.31.21-.45.55-1.07,1.31-1.63,2.18-1.63Zm6.87,12.71h0ZM10.52,6.7c-.32,1.06-.45,2.38-.32,3.66.15,1.53.62,2.86,1.33,3.76.37-1.62.54-3.1.49-4.32-.05-1.33-.37-2.3-.9-2.78-.17-.16-.37-.27-.6-.32Z" style="fill:#ff00d2;"/></svg>