<?xml version="1.0" encoding="UTF-8"?><svg id="Outlined_Art" xmlns="http://www.w3.org/2000/svg" viewBox="0 0 472.59 249.09"><path d="m66.01,249.09c-4.41,0-6.58-2.86-8.67-5.62-.93-1.22-2.45-3.25-4.42-5.99-3.33-4.62-8.51-12.04-14.26-21.1-10.13-15.97-23.88-40.02-31.88-63.97-8.94-26.77-13.49-62.75,15.63-82.14,16.91-11.26,35.85-14.45,56.3-9.47,8.27,2.09,16.25,5.17,23.78,9.18C121.7,31.99,148.35,2.56,185.06.17c25.92-1.69,49.63,8.91,70.47,31.51,15.88,17.22,30.11,41.51,42.3,72.2.17.44.34.87.52,1.31,36.26-48.73,65.91-73.59,90.25-75.79,19.04-1.72,35.32,3.96,48.4,16.9,43.32,42.84,35.1,153.15,34.73,157.83-.39,4.95-4.73,8.65-9.68,8.26-3.03-.24-5.74-2-7.19-4.66-22.26-40.84-45.17-61.78-66.25-60.55-30.35,1.77-55.65,48.52-62.84,66.39-1.86,4.61-7.1,6.85-11.71,4.99-2.97-1.19-5.08-3.87-5.54-7.03-3.76-22.74-9-45.21-15.7-67.27-30.22,44.9-53.41,88.72-53.65,89.17-1.54,2.92-4.56,4.77-7.87,4.8h-.1c-3.27,0-6.28-1.77-7.87-4.63-.64-1.15-53.73-95.99-112.89-137.75-3.25,7.77-6.44,16.28-9.54,25.6-11.27,33.83-20.62,76.9-25.65,118.17-.28,2.27-.42,3.41-1.38,5.05-1.52,2.59-4.24,4.25-7.24,4.42-.21.01-.42.02-.62.02Zm-5.6-172.58c-10.01,0-19.79,3.06-28.03,8.74-7.87,5.24-12.42,12.61-13.92,22.54-2.81,18.65,5.26,45.86,23.36,78.67,6.37,11.54,12.96,21.93,18.44,30.05,5.18-33.93,15.54-85.81,34.65-130.27-6.47-3.48-13.35-6.15-20.47-7.96-4.59-1.15-9.3-1.74-14.03-1.77Zm57.57,2.78c50.56,34.37,95.15,102.29,112.96,131.67,9.76-17.47,27.92-48.81,49.25-80.17,1.86-2.73,3.7-5.41,5.53-8.03-1.49-4.15-3.06-8.32-4.71-12.48-11.37-28.56-24.42-50.93-38.78-66.47-17.19-18.6-35.51-27-55.99-25.66-19.02,1.24-44.67,13.78-68.25,61.15h0Zm187.78,46.3c6.21,18.66,11.41,37.65,15.56,56.88,13.02-22.12,35.89-51.48,66.2-53.27,23.11-1.36,45.53,13.31,66.97,43.67-.45-34.36-5.32-89.22-30.16-113.78-9.26-9.15-20.42-13-34.11-11.76-11.67,1.06-37.65,12.98-84.46,78.26Z" style="fill:#ff00d2;"/></svg>