<svg xmlns="http://www.w3.org/2000/svg" xmlns:xlink="http://www.w3.org/1999/xlink" viewBox="0 0 194 256"><defs><style>.cls-1{isolation:isolate;}.cls-2{fill:#fff;}.cls-3{fill:url(#radial-gradient);}.cls-4{fill:url(#radial-gradient-2);}.cls-5{fill:url(#radial-gradient-3);}.cls-6{fill:url(#radial-gradient-4);}.cls-7{fill:url(#radial-gradient-5);}.cls-8{opacity:0.5;mix-blend-mode:multiply;fill:url(#linear-gradient);}.cls-9{fill:url(#radial-gradient-6);}.cls-10{fill:#ff00d2;}.cls-11{fill:url(#radial-gradient-7);}.cls-12{fill:url(#linear-gradient-2);}</style><radialGradient id="radial-gradient" cx="105.93955" cy="111.83653" r="30.02716" gradientTransform="translate(82.81467 -136.67948) rotate(19.8) scale(1 2.02072)" gradientUnits="userSpaceOnUse"><stop offset="0.63" stop-color="#fff" stop-opacity="0"/><stop offset="0.68762" stop-color="#ebecff" stop-opacity="0.23844"/><stop offset="0.74983" stop-color="#d8dbff" stop-opacity="0.46725"/><stop offset="0.81004" stop-color="#c8ccff" stop-opacity="0.65792"/><stop offset="0.86663" stop-color="#bbc0ff" stop-opacity="0.80637"/><stop offset="0.91876" stop-color="#b2b8ff" stop-opacity="0.91278"/><stop offset="0.96483" stop-color="#adb3ff" stop-opacity="0.97733"/><stop offset="1" stop-color="#abb1ff"/></radialGradient><radialGradient id="radial-gradient-2" cx="109.84416" cy="115.66447" r="35.08963" gradientTransform="translate(78.47724 -189.74389) rotate(15.1) scale(1 2.47865)" gradientUnits="userSpaceOnUse"><stop offset="0.65" stop-color="#fff" stop-opacity="0"/><stop offset="0.70451" stop-color="#ebecff" stop-opacity="0.23844"/><stop offset="0.76335" stop-color="#d8dbff" stop-opacity="0.46725"/><stop offset="0.82031" stop-color="#c8ccff" stop-opacity="0.65792"/><stop offset="0.87384" stop-color="#bbc0ff" stop-opacity="0.80637"/><stop offset="0.92315" stop-color="#b2b8ff" stop-opacity="0.91278"/><stop offset="0.96673" stop-color="#adb3ff" stop-opacity="0.97733"/><stop offset="1" stop-color="#abb1ff"/></radialGradient><radialGradient id="radial-gradient-3" cx="120.35702" cy="102.7362" r="32.79079" gradientTransform="translate(52.00508 -181.26108) rotate(10.8) scale(1 2.5907)" gradientUnits="userSpaceOnUse"><stop offset="0.2" stop-color="#abb1ff"/><stop offset="0.38112" stop-color="#acb2ff" stop-opacity="0.99009"/><stop offset="0.4901" stop-color="#afb4ff" stop-opacity="0.95719"/><stop offset="0.57997" stop-color="#b3b9ff" stop-opacity="0.90101"/><stop offset="0.65949" stop-color="#babfff" stop-opacity="0.82137"/><stop offset="0.73218" stop-color="#c3c7ff" stop-opacity="0.7181"/><stop offset="0.79988" stop-color="#cdd1ff" stop-opacity="0.59109"/><stop offset="0.86373" stop-color="#daddff" stop-opacity="0.44014"/><stop offset="0.92453" stop-color="#e9eaff" stop-opacity="0.26494"/><stop offset="0.98088" stop-color="#f9f9ff" stop-opacity="0.07237"/><stop offset="1" stop-color="#fff" stop-opacity="0"/></radialGradient><radialGradient id="radial-gradient-4" cx="61.22986" cy="113.93093" r="20.52227" gradientTransform="translate(-77.63384 -177.37005) rotate(-14.54969) scale(1 2.78102)" gradientUnits="userSpaceOnUse"><stop offset="0.42" stop-color="#abb1ff"/><stop offset="0.51417" stop-color="#acb2ff" stop-opacity="0.98748"/><stop offset="0.58984" stop-color="#afb5ff" stop-opacity="0.94814"/><stop offset="0.65907" stop-color="#b5baff" stop-opacity="0.8818"/><stop offset="0.7245" stop-color="#bdc2ff" stop-opacity="0.78829"/><stop offset="0.78724" stop-color="#c7cbff" stop-opacity="0.66751"/><stop offset="0.84798" stop-color="#d3d7ff" stop-opacity="0.51923"/><stop offset="0.90714" stop-color="#e2e4ff" stop-opacity="0.34321"/><stop offset="0.96355" stop-color="#f3f4ff" stop-opacity="0.14479"/><stop offset="1" stop-color="#fff" stop-opacity="0"/></radialGradient><radialGradient id="radial-gradient-5" cx="102.37021" cy="86.74664" r="33.15574" gradientTransform="translate(37.16966 -71.35037) rotate(14.35855) scale(1 1.57919)" gradientUnits="userSpaceOnUse"><stop offset="0.28" stop-color="#abb1ff"/><stop offset="0.44301" stop-color="#acb2ff" stop-opacity="0.99009"/><stop offset="0.54109" stop-color="#afb4ff" stop-opacity="0.95719"/><stop offset="0.62197" stop-color="#b3b9ff" stop-opacity="0.90101"/><stop offset="0.69354" stop-color="#babfff" stop-opacity="0.82137"/><stop offset="0.75896" stop-color="#c3c7ff" stop-opacity="0.7181"/><stop offset="0.81989" stop-color="#cdd1ff" stop-opacity="0.59109"/><stop offset="0.87736" stop-color="#daddff" stop-opacity="0.44014"/><stop offset="0.93208" stop-color="#e9eaff" stop-opacity="0.26494"/><stop offset="0.9828" stop-color="#f9f9ff" stop-opacity="0.07237"/><stop offset="1" stop-color="#fff" stop-opacity="0"/></radialGradient><linearGradient id="linear-gradient" x1="83.17501" y1="17.71362" x2="123.63817" y2="167.67678" gradientUnits="userSpaceOnUse"><stop offset="0" stop-color="#58595b" stop-opacity="0"/><stop offset="1" stop-color="#616dff" stop-opacity="0.55"/></linearGradient><radialGradient id="radial-gradient-6" cx="101.28728" cy="35.07726" r="17.03773" gradientTransform="translate(16.03971 92.47644) rotate(-43.7) scale(1 0.496)" gradientUnits="userSpaceOnUse"><stop offset="0" stop-color="#ff8366"/><stop offset="1" stop-color="#ff3000"/></radialGradient><radialGradient id="radial-gradient-7" cx="46.70569" cy="67.01663" r="14.68849" gradientTransform="translate(100.23335 40.94458) rotate(115.7) scale(1 0.551)" xlink:href="#radial-gradient-6"/><linearGradient id="linear-gradient-2" x1="112.61521" y1="167.02168" x2="112.61521" y2="32.42391" gradientUnits="userSpaceOnUse"><stop offset="0" stop-color="#dc0a0a"/><stop offset="1" stop-color="#ff00d2"/></linearGradient></defs><title>RWC23_ENG_EM_STA_FC_R_NEG</title><g class="cls-1"><g id="ARTWORK"><g id="Artwork-2" data-name="Artwork"><path class="cls-2" d="M73.38722,195.82705v-9.18359h3.62061v9.0957c0,2.53223,1.2666,4.041,3.35546,4.041s3.355-1.46338,3.355-3.93067v-9.20605h3.62012v9.07226c0,4.71094-2.84228,7.02246-7.01977,7.02246S73.38722,200.40566,73.38722,195.82705Zm95.07349,26.65772c0,3.43066-1.761,5.46582-4.66529,5.46582s-4.6665-2.09766-4.6665-5.61963V209.683h-5.03467v12.77051c0,6.36669,3.82959,9.61132,9.63892,9.61132s9.76123-3.21533,9.76123-9.7666V209.683h-5.03369Zm-130.38745,6.7705a11.82607,11.82607,0,0,1,0-17.03955,12.83918,12.83918,0,0,1,9.06738-3.16113,12.82071,12.82071,0,0,1,9.05835,3.16113,11.82112,11.82112,0,0,1,0,17.03955,12.90658,12.90658,0,0,1-9.05835,3.13135A12.92524,12.92524,0,0,1,38.07326,229.25527Zm2.11108-8.50439a8.37365,8.37365,0,0,0,1.779,5.53564,6.265,6.265,0,0,0,5.17725,2.34229,6.36319,6.36319,0,0,0,5.20459-2.34229,9.64779,9.64779,0,0,0,0-11.06982,6.36935,6.36935,0,0,0-5.20459-2.33936,6.35446,6.35446,0,0,0-5.17725,2.37256A8.48085,8.48085,0,0,0,40.18434,220.75088ZM84.60426,209.683v22.07617H98.001l1.582-3.92334a30.49207,30.49207,0,0,1-7.33789.66357,23.80242,23.80242,0,0,1-2.56787-.10205V209.683Zm-58.2395,22.93408L34.10939,209.683h-4.834l-4.70288,15.15478L19.27858,209.683H15.68385L10.7195,224.79287l-5.26-15.10986H0l6.459,18.09131a10.17275,10.17275,0,0,0,.91894,2.18359,5.26616,5.26616,0,0,0,2.23584,1.72949c.38843.1753,1.29029.48194,2.69043.92383l4.84619-14.52441,3.36206,9.91455a8.826,8.826,0,0,0,1.08423,2.27392,5.58918,5.58918,0,0,0,2.07056,1.418C24.85109,232.11172,25.75245,232.41982,26.36476,232.61709Zm166.87891-15.78418a6.03027,6.03027,0,0,1-2.10181,4.811,7.36358,7.36358,0,0,1-5.01416,1.71093,6.85668,6.85668,0,0,1-3.62769-.92041V231.765h-5.07666V209.64346a56.92883,56.92883,0,0,1,5.938-.25977q6.68518,0,8.99048,4.01758A6.89352,6.89352,0,0,1,193.24367,216.83291Zm-5.17041-.16113a3.51529,3.51529,0,0,0-1.28858-2.91553,4.76314,4.76314,0,0,0-3.05713-.91992c-.42236,0-.83276.02783-1.22754.03174v8.05664a5.18584,5.18584,0,0,0,.825.061C186.50368,220.98574,188.07326,219.54629,188.07326,216.67178Zm-89.58765-13.9336a8.61794,8.61794,0,0,0,5.90454-2.18066v-6.0752h-3.4021v5.03125a5.7877,5.7877,0,0,1-2.31665.4878,5.28969,5.28969,0,0,1-3.95923-1.563,5.9391,5.9391,0,0,1,.012-8.06738A5.32567,5.32567,0,0,1,98.74,188.77236a8.11979,8.11979,0,0,1,4.32788,1.13477v-2.77686a11.22479,11.22479,0,0,0-4.86035-.90429,8.722,8.722,0,0,0-6.27392,2.22314,7.89687,7.89687,0,0,0-2.37891,5.835,7.50007,7.50007,0,0,0,2.31372,5.94385A9.80262,9.80262,0,0,0,98.48561,202.73818Zm36.44678,26.51563a13.04985,13.04985,0,0,0,8.92578,3.01074,16.2607,16.2607,0,0,0,5.84106-.959l2.01294-4.84864a12.2331,12.2331,0,0,1-7.0249,2.07325,7.3632,7.3632,0,0,1-5.62476-2.12842,7.91665,7.91665,0,0,1-2.05542-5.7583,7.693,7.693,0,0,1,2.07813-5.50635,7.07763,7.07763,0,0,1,5.37622-2.19385,9.88036,9.88036,0,0,1,5.70361,1.45606v-4.25879a16.30072,16.30072,0,0,0-6.03613-1.08594,13.17669,13.17669,0,0,0-8.96338,3.10352,10.68259,10.68259,0,0,0-3.82861,8.53515A10.81781,10.81781,0,0,0,134.93239,229.25381Zm-23.877-26.853a33.04851,33.04851,0,0,1-3.98193-.18555v-15.7163c1.59106-.14209,2.926-.10352,4.00488-.10352a11.18,11.18,0,0,1,5.24829,1.02393,3.29193,3.29193,0,0,1,1.50684,2.99121,3.34936,3.34936,0,0,1-1.64746,2.60986c-.09351.05713-.18921.11328-.28613.16748a2.21892,2.21892,0,0,1-.28321.11231,5.50062,5.50062,0,0,1,1.73145.69726q.12963.0813.251.16553a3.85445,3.85445,0,0,1,1.51416,2.71972c.00538.11866.00879.2417.00879.3711a4.27044,4.27044,0,0,1-2.83325,4.23535A12.07963,12.07963,0,0,1,111.05543,202.40078Zm-.58569-9.89746h1.105c1.804.01514,2.98853-.63135,2.98853-1.94189,0-1.46778-1.3545-1.94385-3.15821-1.94385h-.9353Zm0,7.605c.27661.01514,1.14453.02344,1.59326.02344,2.60474,0,3.679-1.01514,3.679-2.68994,0-1.78028-1.53662-2.66846-3.80469-2.66846-.44873,0-1.19092.00879-1.46753.02344Zm17.7644-4.10254,6.01148-9.3623h-3.95557l-3.80029,6.09912-3.79883-6.09912h-3.956l6.01147,9.3623v6.14893h3.48779Zm-9.76587,33.0835q-3.731,2.937-10.38427,2.9331a38.02759,38.02759,0,0,1-6.03247-.39355V209.77725a39.91012,39.91012,0,0,1,6.03247-.39356q6.65625,0,10.38427,2.93067a10.15411,10.15411,0,0,1,3.98365,8.40576A10.04882,10.04882,0,0,1,118.46827,229.08926Zm-1.58642-8.355a7.6096,7.6096,0,0,0-2.20654-5.90967,8.672,8.672,0,0,0-6.02832-1.91309c-.46412,0-.96778.02-1.51661.063v15.457c.54883.04444,1.05249.06787,1.51661.06787Q116.8816,228.49941,116.88185,220.73428ZM68.1924,202.15469l-5.62989-7.083v7.083H58.99806V186.64248a29.85267,29.85267,0,0,1,3.94043-.20654,10.28812,10.28812,0,0,1,5.10229.99267,4.06619,4.06619,0,0,1-1.23217,7.7334l5.76,6.99268Zm-1.32959-11.002c0-1.70312-1.43213-2.2871-3.43726-2.2871a6.99725,6.99725,0,0,0-.863.05175v4.65967a5.66572,5.66572,0,0,0,.863.05762C65.43068,193.63467,66.86281,192.767,66.86281,191.15273Zm1.165,40.60645H62.949V209.683a39.14514,39.14514,0,0,1,5.44385-.29932q4.81566,0,7.14941,1.41113a6.2199,6.2199,0,0,1,1.91016,9.10059,5.43135,5.43135,0,0,1-3.45948,1.92676l7.80811,9.937H75.57521l-7.54737-10.08252Zm0-12.15772c.33082.01856.67872.03028,1.0564.03028q4.281,0,4.28589-3.40674,0-3.38379-4.28589-3.38525c-.37768,0-.72558.01171-1.0564.03759Zm16.54175,27.35792A5.09842,5.09842,0,0,1,89.7671,241.578a6.70093,6.70093,0,0,1,3.978,1.01172v-2.96631a10.58306,10.58306,0,0,0-4.20825-.75879c-4.80615,0-8.92261,3.03613-8.92261,8.11767,0,5.17383,3.79443,8.07129,8.73853,8.07129a11.64341,11.64341,0,0,0,4.07055-.6665l1.40259-3.38086a8.07087,8.07087,0,0,1-4.89819,1.44922C86.54738,252.45547,84.56959,250.29336,84.56959,246.95938Zm15.8335,5.38085v-4.71386h4.8064v-2.29981h-4.8064V241.578c.529-.023,1.08081-.023,1.63281-.023a16.26485,16.26485,0,0,1,3.81738.29883v-2.57569H96.86183v15.40772h9.52026l1.17285-2.87451a21.02488,21.02488,0,0,1-5.22021.59765Q101.369,252.40908,100.40309,252.34023Zm-25.3042-3.70214-7.77271-9.35987H64.03785v15.40772H67.1421V244.54482l6.89893,8.30127a6.39265,6.39265,0,0,0,4.16235,2.34571V239.27822H75.09889Zm44.44971,3.6792c1.90844-2.20752,5.58764-6.30079,5.58764-9.313,0-2.9668-2.64428-4.18555-5.24267-4.18555a9.98094,9.98094,0,0,0-4.32324.96582l-.55176,3.0127a7.34477,7.34477,0,0,1,4.11572-1.311c1.21875,0,2.43774.52881,2.43774,1.93164a3.76384,3.76384,0,0,1-.50585,1.7251,22.13448,22.13448,0,0,1-2.13843,3.127,65.93584,65.93584,0,0,1-5.4502,6.416h11.981l.96582-2.668a20.32617,20.32617,0,0,1-4.2544.39111C121.29616,252.40908,120.42238,252.36318,119.5486,252.31729Zm47.50488-6.39258a3.12881,3.12881,0,0,0,2.13867-3.12744c0-2.898-2.85181-3.95557-5.31225-3.95557a10.60394,10.60394,0,0,0-3.58716.62109l-.46021,2.82813a7.95924,7.95924,0,0,1,3.42652-.78174c1.12671,0,2.43774.32178,2.43774,1.70166,0,1.79346-2.13867,1.79346-3.42651,1.79346-.32178,0-.6438,0-.96582-.02246v2.69043a13.96393,13.96393,0,0,1,1.95459-.11524c1.47168,0,3.38061.41406,3.38061,2.25391,0,2.13867-2.16162,2.667-3.88623,2.667a15.5931,15.5931,0,0,1-4.25439-.59766l1.28784,2.94336a13.46363,13.46363,0,0,0,2.89746.29883c3.33423,0,7.63476-1.31055,7.63476-5.35742C170.3191,247.58047,169.10011,246.43057,167.05348,245.92471ZM55.87306,239.25576l6.43872,15.43018H58.37941l-1.70166-4.34619H51.2046l-1.67846,4.34619H42.41725l-5.26611-7.03662v7.03662h-3.541V239.25576a26.21717,26.21717,0,0,1,3.79419-.207,10.02157,10.02157,0,0,1,4.99.98877,4.36336,4.36336,0,0,1,2.18457,3.67969,3.791,3.791,0,0,1-3.26538,4.02392l5,6.3711,6.1333-14.85645Zm-14.99634,4.57569c0-1.74707-1.449-2.36866-2.9895-2.36866-.25317,0-.48291,0-.73608.02344v4.71436c.25317,0,.48291.023.73608.023C39.42775,246.22354,40.87672,245.60293,40.87672,243.83145ZM55.689,247.85586l-1.7937-4.53027-1.74781,4.53027Zm-32.9812,6.83008h3.56445v-7.05957h4.39209v-2.29981H26.27223V241.578c.437-.023.89673-.023,1.33374-.023a19.15375,19.15375,0,0,1,3.81714.29883v-2.57569H22.70778ZM149.875,252.31729c1.90845-2.20752,5.58765-6.30079,5.58765-9.313,0-2.9668-2.64429-4.18555-5.24292-4.18555a9.982,9.982,0,0,0-4.32349.96582l-.55175,3.0127a7.34769,7.34769,0,0,1,4.11645-1.311c1.21851,0,2.4375.52881,2.4375,1.93164a3.76373,3.76373,0,0,1-.50586,1.7251,22.13527,22.13527,0,0,1-2.13867,3.127,65.9009,65.9009,0,0,1-5.4502,6.416h11.981l.96582-2.668a20.323,20.323,0,0,1-4.25439.39111C151.62257,252.40908,150.74879,252.36318,149.875,252.31729Zm-6.49072-5.35791c0,4.59912-3.15039,8.16308-7.84155,8.16308-4.71436,0-7.86475-3.564-7.86475-8.16308,0-4.59961,3.15039-8.16358,7.86475-8.16358C140.2339,238.7958,143.38429,242.35977,143.38429,246.95938Zm-3.97852,0c0-2.41456-.96582-5.4502-3.863-5.4502-2.87476,0-3.88648,3.05859-3.88648,5.4502,0,2.41455.96582,5.42675,3.88648,5.42675C138.44,252.38613,139.40577,249.37393,139.40577,246.95938Z"/><path class="cls-2" d="M83.53447,109.57856c-1.39453,11.54834-1.2041,22.43408.62793,31.61426,2.20117,11.03271,6.67676,18.354,11.97192,19.584,4.69824,1.09033,10.66651-2.23584,16.62354-8.98584,3.198-11.19775,5.54028-25.41308,6.98681-42.2124Z"/><path class="cls-2" d="M119.32622,114.1225c1.23608-12.5205,1.95019-26.57568,2.10473-42.0288.19824-11.24024-.021-22.71582-.52173-33.33741-11.38964,2.07959-27.34887,23.9795-34.657,55.44629a142.00076,142.00076,0,0,0-3.18408,19.91992Z"/><path class="cls-2" d="M73.43994,90.2373c4.42749-18.56542,11.87549-35.32177,21.02149-47.26953,8.09594-10.57617,16.979-16.623,25.637-17.61474-.44727-5.98926-.97974-11.4668-1.56519-16.17285C89.68335,17.87061,73.94092,28.24707,73.94092,28.24707s-1.09766,23.02051-.99707,36.26025C72.93457,73.8374,73.11157,82.39307,73.43994,90.2373Z"/><path class="cls-2" d="M151.92546,0a81.94046,81.94046,0,0,0-17.03632,3.97444c28.59215,119.071-26.53885,167.82742-26.53885,167.82742C200.22773,131.53961,151.92546,0,151.92546,0"/><path class="cls-2" d="M67.753,159.91813c-8.12775-9.17986-15.12653-22.403-19.7069-37.23384-4.58038-14.83057-6.2573-29.69735-4.72148-41.86155,1.164-9.22028,4.1266-16.38136,8.57759-20.99968.305-6.716.8015-12.85506,1.28431-18.12911l.1483-1.62217a177.23977,177.23977,0,0,0-22.51873,17.237,183.34027,183.34027,0,0,0-.8145,19.70789,139.969,139.969,0,0,0,5.64675,38.69714,96.7227,96.7227,0,0,0,18.631,34.68158C66.60043,164.78169,79.37,170.02782,82.68071,171.2078,77.67622,169.20813,72.61387,165.40825,67.753,159.91813Z"/><path class="cls-3" d="M83.53447,109.57856c-1.39453,11.54834-1.2041,22.43408.62793,31.61426,2.20117,11.03271,6.67676,18.354,11.97192,19.584,4.69824,1.09033,10.66651-2.23584,16.62354-8.98584,3.198-11.19775,5.54028-25.41308,6.98681-42.2124Z"/><path class="cls-4" d="M119.32622,114.1225c1.23608-12.5205,1.95019-26.57568,2.10473-42.0288.19824-11.24024-.021-22.71582-.52173-33.33741-11.38964,2.07959-27.34887,23.9795-34.657,55.44629a142.00076,142.00076,0,0,0-3.18408,19.91992Z"/><path class="cls-5" d="M151.92546,0a81.94046,81.94046,0,0,0-17.03632,3.97444c28.59215,119.071-26.53885,167.82742-26.53885,167.82742C200.22773,131.53961,151.92546,0,151.92546,0"/><path class="cls-6" d="M67.753,159.91813c-8.12775-9.17986-15.12653-22.403-19.7069-37.23384-4.58038-14.83057-6.2573-29.69735-4.72148-41.86155,1.164-9.22028,4.1266-16.38136,8.57759-20.99968.305-6.716.8015-12.85506,1.28431-18.12911l.1483-1.62217a177.23977,177.23977,0,0,0-22.51873,17.237,183.34027,183.34027,0,0,0-.8145,19.70789,139.969,139.969,0,0,0,5.64675,38.69714,96.7227,96.7227,0,0,0,18.631,34.68158C66.60043,164.78169,79.37,170.02782,82.68071,171.2078,77.67622,169.20813,72.61387,165.40825,67.753,159.91813Z"/><path class="cls-7" d="M73.43994,90.2373c4.42749-18.56542,11.87549-35.32177,21.02149-47.26953,8.09594-10.57617,16.979-16.623,25.637-17.61474-.44727-5.98926-.97974-11.4668-1.56519-16.17285C89.68335,17.87061,73.94092,28.24707,73.94092,28.24707s-1.09766,23.02051-.99707,36.26025C72.93457,73.8374,73.11157,82.39307,73.43994,90.2373Z"/><path class="cls-8" d="M108.35034,171.80176S163.4812,123.04541,134.88916,3.97461A81.92014,81.92014,0,0,1,151.92529,0S200.22778,131.53955,108.35034,171.80176Zm4.40747-20.01074c5.35913-18.76514,8.3357-45.94336,8.6731-79.69727.19824-11.24023-.021-22.71582-.52173-33.3374-11.38965,2.07959-27.34888,23.97949-34.657,55.44629-3.97705,17.12451-4.71949,33.8125-2.09009,46.99023,2.20117,11.03272,6.67676,18.354,11.97217,19.584C100.83252,161.86719,106.80078,158.541,112.75781,151.791ZM73.43994,90.2373c4.42749-18.56542,11.87549-35.32177,21.02149-47.26953,8.09594-10.57617,16.979-16.623,25.637-17.61474-.44727-5.98926-.97974-11.4668-1.56519-16.17285C89.68335,17.87061,73.94092,28.24707,73.94092,28.24707s-1.09766,23.02051-.99707,36.26025C72.93457,73.8374,73.11157,82.39307,73.43994,90.2373Zm-5.687,69.68067c-8.12769-9.17969-15.12647-22.40283-19.70679-37.23389-4.58032-14.83056-6.25732-29.69726-4.72143-41.86133,1.16406-9.22021,4.12646-16.38134,8.57763-20.99951.30494-6.71631.80127-12.85547,1.28418-18.12939l.14844-1.62207a177.26166,177.26166,0,0,0-22.5188,17.23681,183.40038,183.40038,0,0,0-.8147,19.708,139.97346,139.97346,0,0,0,5.647,38.69727A96.72543,96.72543,0,0,0,54.2793,150.39551c12.32129,14.38623,25.09082,19.63232,28.40136,20.8125C77.67627,169.208,72.61377,165.4082,67.75293,159.918Z"/><path class="cls-9" d="M102.27218,166.87656c-16.53987-2.03562-18.98175-19.59437-19.8738-30.65884-1.09863-13.62442,1.05854-34.29563,5.59777-48.78574a127.42189,127.42189,0,0,1,9.25869-23.72306A114.8337,114.8337,0,0,1,112.177,40.65981c9.114-10.90958,21.67463-10.2964,29.02619-2.17188q-.23941-1.95384-.51125-3.93926a23.52085,23.52085,0,0,0-13.20111-8.7838c-10.874-2.52436-22.60425,3.58408-33.0295,17.203C85.1616,55.11652,77.61727,72.237,73.21905,91.17553c-4.39849,18.93849-5.172,37.63166-2.17856,52.63543,3.3557,16.81958,11.19264,27.47321,22.06661,29.99893a21.42569,21.42569,0,0,0,3.99437.52851,28.40947,28.40947,0,0,0,11.25171-2.53911,59.93427,59.93427,0,0,0,6.669-7.49346A21.63826,21.63826,0,0,1,102.27218,166.87656Z"/><path class="cls-10" d="M64.6755,59.5897c-3.37438,2.45591-7.197,7.79491-8.37534,17.12859-1.15443,9.14475-.437,20.03323,2.07757,31.41984a79.996,79.996,0,0,1-1.50884-25.60535c1.015-8.03955,3.77935-13.69292,7.21408-14.75369a4.89774,4.89774,0,0,1,1.45028-.20753c2.06143,0,4.62791,1.09631,7.433,3.22761q-.02553-3.08563-.02255-6.29172c-.01353-1.78384-.00531-3.74524.019-5.804l-.00017.01433C69.82937,57.79076,66.96088,57.92638,64.6755,59.5897Z"/><path class="cls-11" d="M56.30016,76.71829c1.17839-9.33368,5.001-14.67268,8.37534-17.12859,2.28538-1.66332,5.15387-1.79894,8.28708-.87188.01311-1.11167.03093-2.2518.05258-3.40773a19.86005,19.86005,0,0,0-12.96063-.57487c-9.0161,2.78458-14.95766,12.04932-16.72991,26.08753-1.53582,12.16419.1411,27.031,4.72148,41.86154,4.58037,14.83079,11.57915,28.054,19.7069,37.23384,5.01338,5.66237,10.24106,9.52679,15.39855,11.47258.65378.25913,1.41436.47924,2.168.73635l.02257.00807c.13327.04675.27218.0927.40787.13918a35.10816,35.10816,0,0,0,11.30339,2.0621,21.40212,21.40212,0,0,1-3.94633-.52652c-10.874-2.52572-18.71091-13.17935-22.06661-29.99893q-.34923-1.75044-.63018-3.56622A103.19388,103.19388,0,0,1,61.09,118.65585c-1.09193-3.53544-1.99785-7.05712-2.71223-10.51768h0C55.86318,96.75155,55.14573,85.86305,56.30016,76.71829Z"/><path class="cls-12" d="M141.20317,38.4873v.00049c-7.35156-8.12451-19.91211-8.7378-29.02612,2.17187A114.843,114.843,0,0,0,97.25493,63.709c7.94653-15.34229,17.56787-24.727,24.92846-25.10352a8.19817,8.19817,0,0,1,2.28052.19287c5.29517,1.23,9.77051,8.55079,11.97192,19.5835,2.6294,13.17774,1.887,29.86621-2.09008,46.99024a131.35556,131.35556,0,0,1-11.0669,30.61523l-.00049.00293a79.354,79.354,0,0,1-10.5205,15.80078v-.00049q-.08056.09083-.16065.18164l-.009.00977q-.07251.0813-.14478.16162l-.05078.05664q-.20288.22485-.40576.44482c-.03589.03858-.07178.07764-.10742.11622l-.09131.09765c-.03955.04248-.0791.08447-.11865.12647l-.084.08935q-.09448.10035-.189.19873l-.063.06592q-.0846.08789-.16895.17481l-.03247.03369q-.22155.22777-.44311.44922l-.009.00927q-.80165.80127-1.59937,1.51612h.00024c-4.68847,4.20312-9.21752,6.12011-12.94653,5.25439-5.29541-1.23-9.771-8.55127-11.97217-19.584-2.62939-13.17774-1.887-29.86573,2.09009-46.99024q.80457-3.46509,1.7439-6.77051c-4.53906,14.48975-6.69629,35.16114-5.59766,48.78565.89209,11.06445,3.334,28.62305,19.87378,30.65869a21.63677,21.63677,0,0,0,12.75-2.5708,105.00537,105.00537,0,0,0,6.75293-9.86768l.04468-.07373q.08423-.13915.1687-.27929l.02563-.04248V154.042C133.959,134.17871,148.36137,96.9038,141.20317,38.4873Z"/></g></g></g></svg>