<?xml version="1.0" encoding="UTF-8"?><svg id="Layer_1" xmlns="http://www.w3.org/2000/svg" viewBox="0 0 383.98 464"><path d="M371.99,0H38.65C17.34,0,0,17.34,0,38.66v333.34c0,28.67,23.32,52,51.99,52h28.01v28c0,4.85,2.91,9.23,7.4,11.08,4.51,1.87,9.65.83,13.07-2.6l31.52-31.51,31.52,31.51c2.29,2.29,5.35,3.52,8.48,3.52,1.54,0,3.11-.3,4.59-.92,4.49-1.86,7.4-6.23,7.4-11.08v-108h176.02v56h-108.01c-6.62,0-11.99,5.37-11.99,12s5.37,12,11.99,12h120c6.62,0,11.99-5.37,11.99-12V12c0-6.63-5.37-12-11.99-12ZM80,400h-28.01c-15.43,0-28.01-12.56-28.01-28.01s12.58-27.99,28.01-27.99h28.01v56ZM160,423.03l-19.53-19.51c-2.34-2.34-5.41-3.52-8.48-3.52s-6.13,1.17-8.48,3.52l-19.53,19.51v-79.02h56.02v79.02ZM360,320H51.99c-10.33,0-19.91,3.11-28.01,8.33V38.66c0-8.09,6.58-14.66,14.67-14.66h321.35v296Z" style="fill:#af8756; stroke-width:0px;"/><path d="M131.99,144h120c6.62,0,11.99-5.37,11.99-12s-5.37-12-11.99-12h-120c-6.62,0-11.99,5.37-11.99,12s5.37,12,11.99,12Z" style="fill:#af8756; stroke-width:0px;"/><path d="M131.99,224h120c6.62,0,11.99-5.37,11.99-12s-5.37-12-11.99-12h-120c-6.62,0-11.99,5.37-11.99,12s5.37,12,11.99,12Z" style="fill:#af8756; stroke-width:0px;"/></svg>