<?xml version="1.0" encoding="UTF-8"?><svg id="Large_Preview" xmlns="http://www.w3.org/2000/svg" viewBox="0 0 360 384"><path d="M296,208h-8c-20.36,0-54.38-27.44-54.38-27.44" style="fill:none; stroke:#af8755; stroke-linecap:round; stroke-linejoin:round; stroke-width:16px;"/><path d="M100.72,298.91s-30.38,10.27-44.72-10.91c8.12-13.53,40-72,40-72l72-48,26.69,2.75" style="fill:none; stroke:#af8755; stroke-linecap:round; stroke-linejoin:round; stroke-width:16px;"/><polyline points="65.46 346.19 109 325 126.53 304" style="fill:none; stroke:#af8755; stroke-linecap:round; stroke-linejoin:round; stroke-width:16px;"/><path d="M160,264l118-136c5.95-6.74,5.63-16.94-.73-23.3h0c-6.9-6.9-18.17-6.6-24.69.66l-140.93,159.2" style="fill:none; stroke:#af8755; stroke-linecap:round; stroke-linejoin:round; stroke-width:16px;"/><path d="M208,224v16c0,12.23-11.77,24-24,24h-64c-10.46,0-23.56,6.29-23.56,19.82s7.56,20.18,23.56,20.18h56c14.05,12.4,22.43,24,40,24h24c7.47,0,18.06-3.64,25.24-5.7h0c7.19-2.06,15.28-2.3,22.76-2.3h8" style="fill:none; stroke:#af8755; stroke-linecap:round; stroke-linejoin:round; stroke-width:16px;"/><rect x="296" y="192" width="56" height="136" style="fill:none; stroke:#af8755; stroke-linecap:round; stroke-linejoin:round; stroke-width:16px;"/><line x1="320" y1="288" x2="320" y2="304" style="fill:none; stroke:#af8755; stroke-linejoin:round; stroke-width:16px;"/><polyline points="272 344 272 376 8 376 8 8 272 8 272 77" style="fill:none; stroke:#af8755; stroke-linejoin:round; stroke-width:16px;"/><path d="M152,312v1.59c0,9.64,10.81,14.41,24.31,14.41h-.38c8.79,0,16.34-2.02,20.54-6.1" style="fill:none; stroke:#af8755; stroke-linecap:round; stroke-linejoin:round; stroke-width:16px;"/><path d="M113.52,319.99c2.9,5.36,9.71,8.01,18.35,8.01h-.41c11.57,0,20.54-4.77,20.54-14.41v-1.59" style="fill:none; stroke:#af8755; stroke-linecap:round; stroke-linejoin:round; stroke-width:16px;"/><polyline points="78.51 302.54 73.5 308.25 65.46 346.19" style="fill:none; stroke:#af8755; stroke-linecap:round; stroke-linejoin:round; stroke-width:16px;"/><polyline points="48 80 64 96 96 56" style="fill:none; stroke:#af8755; stroke-linecap:round; stroke-linejoin:round; stroke-width:16px;"/><polyline points="48 160 64 176 96 136" style="fill:none; stroke:#af8755; stroke-linecap:round; stroke-linejoin:round; stroke-width:16px;"/><line x1="136" y1="136" x2="176" y2="136" style="fill:none; stroke:#af8755; stroke-linecap:round; stroke-linejoin:round; stroke-width:16px;"/><line x1="136" y1="88" x2="208" y2="88" style="fill:none; stroke:#af8755; stroke-linecap:round; stroke-linejoin:round; stroke-width:16px;"/><line x1="136" y1="56" x2="168" y2="56" style="fill:none; stroke:#af8755; stroke-linecap:round; stroke-linejoin:round; stroke-width:16px;"/></svg>