<?xml version="1.0" encoding="UTF-8"?><svg id="Large_Preview" xmlns="http://www.w3.org/2000/svg" viewBox="0 0 356 384"><path d="M211,266.64s4.84-51.29,5.67-60.81c-1.2-7.13-3.33-19.83-4.75-28.75,6.25-13.71,24.93-15.26,30.01-9.08,7.82,9.5,18.08,26.6,18.08,26.6,9.17,1.28,17.67,1.9,27.04,12.3,9.38,0,18.88,4.98,25.47,11.57,9.49,1.7,17.87,6.06,19.66,14.51s4.2,61.64,1.64,75.48c-2.56,13.83-11.3,22.04,2.82,48.16,3.19,5.86,11.36,19.38,11.36,19.38" style="fill:none; stroke:#fff; stroke-linecap:round; stroke-miterlimit:10; stroke-width:16px;"/><path d="M176.6,249.25c0,16.18,19.96,72.14,23.78,77.39,12.3,16.91,30.61,16.56,39.32,33.72l8.3,15.64" style="fill:none; stroke:#fff; stroke-linecap:round; stroke-miterlimit:10; stroke-width:16px;"/><line x1="192.45" y1="161.57" x2="212.68" y2="181.8" style="fill:none; stroke:#fff; stroke-linecap:round; stroke-miterlimit:10; stroke-width:16px;"/><line x1="158.41" y1="194.37" x2="212.7" y2="248.65" style="fill:none; stroke:#fff; stroke-linecap:round; stroke-miterlimit:10; stroke-width:16px;"/><circle cx="108" cy="108" r="100" style="fill:none; stroke:#fff; stroke-linecap:round; stroke-miterlimit:10; stroke-width:16px;"/><path d="M42.15,90.95c6.85-26.54,29.33-46.81,57.04-50.39" style="fill:none; stroke:#fff; stroke-linecap:round; stroke-miterlimit:10; stroke-width:16px;"/><path d="M45.21,134.16c-2.04-4.89-3.53-10.07-4.38-15.46" style="fill:none; stroke:#fff; stroke-linecap:round; stroke-miterlimit:10; stroke-width:16px;"/></svg>