<svg width="651" height="826" viewBox="0 0 651 826" fill="none" xmlns="http://www.w3.org/2000/svg">
<path fill-rule="evenodd" clip-rule="evenodd" d="M826 138.935C826 207.815 775.877 264.986 710.113 275.968C775.877 286.949 826 344.122 826 413C826 481.878 775.877 539.051 710.113 550.032C775.877 561.014 826 618.187 826 687.065C826 763.795 763.795 826 687.065 826C618.187 826 561.014 775.877 550.032 710.113C539.051 775.877 481.878 826 413 826C344.122 826 286.949 775.877 275.968 710.113C264.986 775.877 207.815 826 138.935 826C62.2035 826 0 763.795 0 687.065C0 618.187 50.1238 561.014 115.886 550.032C50.1238 539.051 0 481.878 0 413C0 344.122 50.1238 286.949 115.886 275.968C50.1238 264.986 0 207.815 0 138.935C0 62.2035 62.2035 0 138.935 0C207.815 0 264.986 50.1238 275.968 115.886C286.949 50.1238 344.122 0 413 0C481.878 0 539.051 50.1238 550.032 115.886C561.014 50.1238 618.187 0 687.065 0C763.795 0 826 62.2035 826 138.935ZM275.968 161.985C266.238 220.25 220.25 266.238 161.985 275.968C220.25 285.697 266.238 331.687 275.968 389.952C285.697 331.687 331.687 285.697 389.952 275.968C331.687 266.238 285.697 220.25 275.968 161.985ZM436.048 275.968C494.313 266.238 540.303 220.25 550.032 161.985C559.762 220.25 605.751 266.238 664.016 275.968C605.751 285.697 559.762 331.687 550.032 389.952C540.303 331.687 494.313 285.697 436.048 275.968ZM550.032 664.016C559.762 605.751 605.751 559.762 664.016 550.032C605.751 540.303 559.762 494.313 550.032 436.048C540.303 494.313 494.313 540.303 436.048 550.032C494.313 559.762 540.303 605.751 550.032 664.016ZM275.968 436.048C285.697 494.313 331.687 540.303 389.952 550.032C331.687 559.762 285.697 605.751 275.968 664.016C266.238 605.751 220.25 559.762 161.985 550.032C220.25 540.303 266.238 494.313 275.968 436.048Z" fill="white"/>
</svg>
