<svg width="156" height="279" viewBox="0 0 156 279" fill="none" xmlns="http://www.w3.org/2000/svg">
<path fill-rule="evenodd" clip-rule="evenodd" d="M156 -71.1866C156 -36.0797 130.453 -6.94048 96.9339 -1.34332C130.453 4.25385 156 33.394 156 68.5C156 103.606 130.453 132.746 96.9339 138.343C130.453 143.94 156 173.081 156 208.187C156 247.295 124.295 279 85.1866 279C50.0807 279 20.9405 253.453 15.3433 219.934C9.74616 253.453 -19.394 279 -54.5 279C-89.606 279 -118.746 253.453 -124.343 219.934C-129.94 253.453 -159.08 279 -194.187 279C-233.296 279 -265 247.295 -265 208.187C-265 173.081 -239.453 143.94 -205.935 138.343C-239.453 132.746 -265 103.606 -265 68.5C-265 33.394 -239.453 4.25385 -205.935 -1.34332C-239.453 -6.94048 -265 -36.0797 -265 -71.1866C-265 -110.296 -233.296 -142 -194.187 -142C-159.08 -142 -129.94 -116.453 -124.343 -82.9349C-118.746 -116.453 -89.606 -142 -54.5 -142C-19.394 -142 9.74616 -116.453 15.3433 -82.9349C20.9405 -116.453 50.0807 -142 85.1866 -142C124.295 -142 156 -110.296 156 -71.1866ZM-124.343 -59.4384C-129.302 -29.7416 -152.742 -6.30219 -182.438 -1.34332C-152.742 3.61556 -129.302 27.0558 -124.343 56.7528C-119.384 27.0558 -95.9442 3.61556 -66.2472 -1.34332C-95.9442 -6.30219 -119.384 -29.7416 -124.343 -59.4384ZM-42.7528 -1.34332C-13.0558 -6.30219 10.3844 -29.7416 15.3433 -59.4384C20.3022 -29.7416 43.7424 -6.30219 73.4394 -1.34332C43.7424 3.61556 20.3022 27.0558 15.3433 56.7528C10.3844 27.0558 -13.0558 3.61556 -42.7528 -1.34332ZM15.3433 196.439C20.3022 166.742 43.7424 143.302 73.4394 138.343C43.7424 133.384 20.3022 109.944 15.3433 80.2472C10.3844 109.944 -13.0558 133.384 -42.7528 138.343C-13.0558 143.302 10.3844 166.742 15.3433 196.439ZM-124.343 80.2472C-119.384 109.944 -95.9442 133.384 -66.2472 138.343C-95.9442 143.302 -119.384 166.742 -124.343 196.439C-129.302 166.742 -152.742 143.302 -182.438 138.343C-152.742 133.384 -129.302 109.944 -124.343 80.2472Z" fill="#FFDB11"/>
</svg>
