<?xml version="1.0" encoding="UTF-8"?>
<svg id="Calque_1" xmlns="http://www.w3.org/2000/svg" version="1.1" viewBox="0 0 128.6 112.9">
  <!-- Generator: Adobe Illustrator 29.6.1, SVG Export Plug-In . SVG Version: 2.1.1 Build 9)  -->
  <defs>
    <style>
      .st0 {
        fill: none;
        stroke: #e04475;
        stroke-linecap: round;
        stroke-linejoin: round;
        stroke-width: 5px;
      }
    </style>
  </defs>
  <path class="st0" d="M54.2,8.2L4.1,92.5c-1,1.8-1.6,3.8-1.6,5.9,0,2.1.5,4.1,1.6,5.9,1,1.8,2.5,3.3,4.3,4.4,1.8,1.1,3.8,1.6,5.9,1.6h100.2c2.1,0,4.1-.6,5.9-1.6,1.8-1.1,3.3-2.6,4.3-4.4,1-1.8,1.6-3.9,1.6-5.9,0-2.1-.6-4.1-1.6-5.9L74.4,8.2c-1.1-1.8-2.5-3.2-4.3-4.2-1.8-1-3.8-1.5-5.8-1.5s-4,.5-5.8,1.5c-1.8,1-3.3,2.5-4.3,4.2Z"/>
  <path class="st0" d="M64.3,38.9v23.8"/>
  <path class="st0" d="M64.3,86.5h0"/>
</svg>