<svg width="77" height="102" viewBox="0 0 77 102" fill="none" xmlns="http://www.w3.org/2000/svg">
<path d="M52.7737 31.5917L39.804 44.5613C37.6079 43.1773 35.014 42.3818 32.2294 42.3818C29.4449 42.3818 26.8509 43.1773 24.6548 44.5613L11.8011 31.7077C15.9863 28.2602 21.0498 25.8403 26.594 24.8292L31.9145 30.1497C32.1217 30.3568 32.4615 30.3568 32.6769 30.1497L38.014 24.8126C43.5499 25.7905 48.5969 28.1773 52.782 31.5917H52.7737Z" fill="#BAA0F5"/>
<path d="M32.3786 22.028C26.594 22.1274 21.2984 16.923 21.2404 11.0721C21.1824 5.13012 26.2045 0.0416968 32.1548 0.000260131C38.1549 -0.0411765 43.2184 4.87321 43.3179 10.8401C43.4173 16.6081 38.2212 21.9203 32.3786 22.0197V22.028Z" fill="#BAA0F5"/>
<path d="M73.6661 88.153L59.3124 75.8463L58.7323 75.349L59.2047 74.6529C62.8014 69.3407 64.6992 63.1252 64.6992 56.6694C64.6992 48.4483 61.6246 40.9483 56.561 35.23L51.771 40.0201C55.6163 44.4953 57.945 50.313 57.945 56.6694C57.945 61.2854 56.6771 65.8352 54.282 69.8131C51.9036 73.7496 48.514 76.9899 44.4698 79.1778C40.7737 81.1833 36.5803 82.2358 32.3455 82.2358C18.2321 82.2358 6.74589 70.7661 6.74589 56.6611C6.74589 50.371 9.0249 44.6113 12.7956 40.1527L8.00556 35.3626C3.03316 41.0643 0 48.5146 0 56.6694C0 74.4954 14.5111 88.9983 32.3537 88.9983C38.3952 88.9983 44.3041 87.3076 49.4422 84.117L50.1384 83.6861L50.6356 84.2828L62.7848 99.0674C62.9174 99.2497 63.05 99.374 63.1743 99.49L63.3401 99.6558C66.4976 102.482 71.3954 102.225 74.2296 99.0591C77.0805 95.9016 76.8319 91.0121 73.6661 88.153Z" fill="#BAA0F5"/>
</svg>
