<svg width="372" height="383" viewBox="0 0 372 383" fill="none" xmlns="http://www.w3.org/2000/svg">
<path d="M-290.652 100.212C-290.652 93.3886 -296.181 87.8567 -303 87.8567V0C-247.687 0 -202.848 44.8663 -202.848 100.212V282.788C-202.848 289.611 -197.319 295.143 -190.5 295.143C-183.681 295.143 -178.152 289.611 -178.152 282.788V100.212C-178.152 44.8663 -133.313 0 -77.9991 0C-22.6872 0 22.1521 44.8663 22.1521 100.212V282.788C22.1521 289.611 27.6815 295.143 34.5 295.143C41.3185 295.143 46.8479 289.611 46.8479 282.788V100.212C46.8479 44.8663 91.6872 0 146.999 0C202.314 0 247.153 44.8663 247.153 100.212V282.788C247.153 289.611 252.68 295.143 259.501 295.143C266.319 295.143 271.849 289.611 271.849 282.788V100.212C271.849 44.8663 316.688 0 372 0V87.8567C365.182 87.8567 359.652 93.3886 359.652 100.212V282.788C359.652 338.133 314.813 383 259.501 383C204.186 383 159.347 338.133 159.347 282.788V100.212C159.347 93.3886 153.82 87.8567 146.999 87.8567C140.181 87.8567 134.651 93.3886 134.651 100.212V282.788C134.651 338.133 89.812 383 34.5 383C-20.8119 383 -65.6512 338.133 -65.6512 282.788V100.212C-65.6512 93.3886 -71.1806 87.8567 -77.9991 87.8567C-84.8202 87.8567 -90.3471 93.3886 -90.3471 100.212V282.788C-90.3471 338.133 -135.187 383 -190.5 383C-245.813 383 -290.652 338.133 -290.652 282.788V100.212Z" fill="#E04475"/>
</svg>
