<svg width="306" height="209" viewBox="0 0 306 209" fill="none" xmlns="http://www.w3.org/2000/svg">
<path fill-rule="evenodd" clip-rule="evenodd" d="M611 -299.228C611 -248.277 573.923 -205.987 525.277 -197.864C573.923 -189.741 611 -147.45 611 -96.5C611 -45.5505 573.923 -3.25916 525.277 4.86404C573.923 12.9872 611 55.2786 611 106.228C611 162.986 564.986 209 508.228 209C457.279 209 414.987 171.923 406.864 123.277C398.741 171.923 356.45 209 305.5 209C254.55 209 212.259 171.923 204.136 123.277C196.013 171.923 153.723 209 102.772 209C46.0125 209 0 162.986 0 106.228C0 55.2786 37.077 12.9872 85.7216 4.86404C37.077 -3.25916 0 -45.5505 0 -96.5C0 -147.45 37.077 -189.741 85.7216 -197.864C37.077 -205.987 0 -248.277 0 -299.228C0 -355.987 46.0125 -402 102.772 -402C153.723 -402 196.013 -364.923 204.136 -316.278C212.259 -364.923 254.55 -402 305.5 -402C356.45 -402 398.741 -364.923 406.864 -316.278C414.987 -364.923 457.279 -402 508.228 -402C564.986 -402 611 -355.987 611 -299.228ZM204.136 -282.178C196.939 -239.079 162.921 -205.061 119.822 -197.864C162.921 -190.667 196.939 -156.648 204.136 -113.549C211.333 -156.648 245.352 -190.667 288.451 -197.864C245.352 -205.061 211.333 -239.079 204.136 -282.178ZM322.549 -197.864C365.648 -205.061 399.667 -239.079 406.864 -282.178C414.061 -239.079 448.08 -205.061 491.179 -197.864C448.08 -190.667 414.061 -156.648 406.864 -113.549C399.667 -156.648 365.648 -190.667 322.549 -197.864ZM406.864 89.1792C414.061 46.0798 448.08 12.0609 491.179 4.86404C448.08 -2.33281 414.061 -36.3517 406.864 -79.4512C399.667 -36.3517 365.648 -2.33281 322.549 4.86404C365.648 12.0609 399.667 46.0798 406.864 89.1792ZM204.136 -79.4512C211.333 -36.3517 245.352 -2.33281 288.451 4.86404C245.352 12.0609 211.333 46.0798 204.136 89.1792C196.939 46.0798 162.921 12.0609 119.822 4.86404C162.921 -2.33281 196.939 -36.3517 204.136 -79.4512Z" fill="#FFDB11"/>
</svg>
