<svg width="73" height="70" viewBox="0 0 73 70" fill="none" xmlns="http://www.w3.org/2000/svg">
<path d="M72.106 2.92924C71.3669 1.12211 69.6931 0 67.7389 0H5.01151C3.05673 0 1.38351 1.12266 0.644355 2.92979C-0.0953519 4.73637 0.312264 6.70824 1.70727 8.07551L27.5681 33.4192V66.7995C27.5681 68.1041 28.3495 69.2662 29.5584 69.7604C29.9538 69.9218 30.3659 70 30.7746 70C31.616 70 32.4395 69.6666 33.0554 69.0399L44.2643 57.6335C44.8557 57.0317 45.1811 56.2363 45.1811 55.3932V33.4192L71.042 8.07551C72.437 6.70824 72.8441 4.73637 72.1049 2.92924H72.106Z" fill="#BAA0F5"/>
</svg>
