<svg width="78" height="80" viewBox="0 0 78 80" fill="none" xmlns="http://www.w3.org/2000/svg">
<path d="M42.2647 79.1088C42.2647 77.7523 42.2778 76.4114 42.2623 75.0705C42.2373 72.9355 40.7994 71.4239 38.8511 71.4612C36.9363 71.4984 35.5771 72.9763 35.552 75.0717C35.5365 76.4126 35.5496 77.7535 35.5496 79.2554C20.3155 77.142 9.33797 69.415 2.99967 55.2876C1.36859 51.6554 0.494634 47.813 0.061827 43.8576C-0.00494216 43.246 0.188211 43.1583 0.693749 43.1679C1.69529 43.1871 2.69802 43.204 3.69717 43.1547C5.63467 43.061 7.02967 41.6372 7.03801 39.8025C7.04636 38.0002 5.61917 36.5067 3.7234 36.3974C2.7624 36.3421 1.79306 36.3469 0.830865 36.3926C0.198942 36.4226 0.046327 36.2736 0.122635 35.5948C1.0121 27.6107 4.05128 20.5506 9.21397 14.4649C15.1445 7.47568 22.6429 3.09496 31.6103 1.30951C32.5176 1.12928 33.4476 1.0656 34.3561 0.891378C34.9857 0.771226 35.1168 1.01754 35.0966 1.59186C35.062 2.52544 35.0632 3.46142 35.1049 4.395C35.186 6.25494 36.5953 7.62948 38.3981 7.6499C40.2378 7.67153 41.7139 6.26576 41.7937 4.37217C41.8343 3.40255 41.8271 2.42812 41.7997 1.45729C41.7842 0.921416 41.8474 0.684717 42.5091 0.75801C54.0244 2.03522 63.3137 7.30867 70.2875 16.606C74.3616 22.0369 76.7498 28.209 77.638 34.97C77.743 35.769 77.545 35.9925 76.7569 35.936C75.7602 35.8651 74.7539 35.8951 73.7535 35.9264C71.7981 35.9877 70.3209 37.4583 70.3137 39.311C70.3077 41.1902 71.7373 42.626 73.7344 42.6945C74.8826 42.7342 76.0344 42.7294 77.1838 42.6957C77.7418 42.6789 77.8538 42.8651 77.8062 43.4082C76.3778 59.6863 64.9126 73.5302 49.229 77.8773C46.9791 78.5009 44.6887 78.9262 42.2647 79.1076V79.1088ZM19.2782 16.8139C17.8534 16.8667 16.7887 17.524 16.2271 18.8468C15.6477 20.2118 15.8766 21.5226 16.9127 22.5715C23.4227 29.1654 29.9434 35.7498 36.4916 42.3064C37.9092 43.7266 39.8622 43.7422 41.2775 42.3401C45.0583 38.5949 48.789 34.8006 52.5257 31.0122C53.2959 30.2324 53.6608 29.2664 53.4962 28.155C53.2995 26.8237 52.5567 25.8757 51.3143 25.4179C49.9241 24.9061 48.6888 25.2918 47.6539 26.3299C45.001 28.9924 42.3327 31.6394 39.7227 34.344C39.0967 34.9916 38.7832 35.0589 38.1083 34.3704C32.7942 28.9492 27.4276 23.5784 22.0873 18.1836C21.3016 17.3894 20.4515 16.7838 19.277 16.8127L19.2782 16.8139Z" fill="#BAA0F5"/>
</svg>
