<svg width="609" height="201" viewBox="0 0 609 201" fill="none" xmlns="http://www.w3.org/2000/svg">
<path d="M12.3477 -81.7884C12.3477 -88.6114 6.81928 -94.1433 0 -94.1433V-182C55.3127 -182 100.152 -137.134 100.152 -81.7884V100.788C100.152 107.611 105.681 113.143 112.5 113.143C119.319 113.143 124.848 107.611 124.848 100.788V-81.7884C124.848 -137.134 169.687 -182 225.001 -182C280.313 -182 325.152 -137.134 325.152 -81.7884V100.788C325.152 107.611 330.681 113.143 337.5 113.143C344.319 113.143 349.848 107.611 349.848 100.788V-81.7884C349.848 -137.134 394.687 -182 449.999 -182C505.314 -182 550.153 -137.134 550.153 -81.7884V100.788C550.153 107.611 555.68 113.143 562.501 113.143C569.319 113.143 574.849 107.611 574.849 100.788V-81.7884C574.849 -137.134 619.688 -182 675 -182V-94.1433C668.182 -94.1433 662.652 -88.6114 662.652 -81.7884V100.788C662.652 156.133 617.813 201 562.501 201C507.186 201 462.347 156.133 462.347 100.788V-81.7884C462.347 -88.6114 456.82 -94.1433 449.999 -94.1433C443.181 -94.1433 437.651 -88.6114 437.651 -81.7884V100.788C437.651 156.133 392.812 201 337.5 201C282.188 201 237.349 156.133 237.349 100.788V-81.7884C237.349 -88.6114 231.819 -94.1433 225.001 -94.1433C218.18 -94.1433 212.653 -88.6114 212.653 -81.7884V100.788C212.653 156.133 167.813 201 112.5 201C57.1872 201 12.3477 156.133 12.3477 100.788V-81.7884Z" fill="white" fill-opacity="0.2"/>
</svg>
