<svg width="730" height="412" viewBox="0 0 730 412" fill="none" xmlns="http://www.w3.org/2000/svg">
<path d="M17.2502 139.982C17.2502 130.451 9.52678 122.724 0 122.724V0C77.2739 0 139.917 62.6723 139.917 139.982V395.018C139.917 404.549 147.64 412.276 157.167 412.276C166.694 412.276 174.417 404.549 174.417 395.018V139.982C174.417 62.6723 237.06 0 314.335 0C391.607 0 454.249 62.6723 454.249 139.982V395.018C454.249 404.549 461.974 412.276 471.5 412.276C481.026 412.276 488.751 404.549 488.751 395.018V139.982C488.751 62.6723 551.393 0 628.665 0C705.942 0 768.584 62.6723 768.584 139.982V395.018C768.584 404.549 776.305 412.276 785.835 412.276C795.36 412.276 803.085 404.549 803.085 395.018V139.982C803.085 62.6723 865.727 0 943 0V122.724C933.474 122.724 925.75 130.451 925.75 139.982V395.018C925.75 472.327 863.107 535 785.835 535C708.558 535 645.916 472.327 645.916 395.018V139.982C645.916 130.451 638.195 122.724 628.665 122.724C619.14 122.724 611.415 130.451 611.415 139.982V395.018C611.415 472.327 548.773 535 471.5 535C394.227 535 331.585 472.327 331.585 395.018V139.982C331.585 130.451 323.86 122.724 314.335 122.724C304.805 122.724 297.084 130.451 297.084 139.982V395.018C297.084 472.327 234.44 535 157.167 535C79.8927 535 17.2502 472.327 17.2502 395.018V139.982Z" fill="#E04475"/>
</svg>
