<svg width="126" height="119" viewBox="0 0 126 119" fill="none" xmlns="http://www.w3.org/2000/svg">
<g filter="url(#filter0_d_22_69)">
<path d="M52.2828 77.5353H103.907C113.883 77.5353 122 69.3838 122 59.3641V18.17C122 8.1515 113.883 0 103.907 0H22.0953C12.117 0 4 8.1515 4 18.17V59.363C4 68.3085 10.4714 75.7654 18.9586 77.2617V111.001L52.2828 77.5353ZM25.9426 22.9303C26.5775 22.2927 27.4559 21.8974 28.4255 21.8974H97.162C99.1012 21.8974 100.673 23.4752 100.673 25.4237C100.673 26.3975 100.28 27.2796 99.6449 27.9183C99.01 28.5559 98.1316 28.9512 97.162 28.9512H28.4244C26.4852 28.9512 24.9129 27.3723 24.9129 25.4237C24.9129 24.45 25.3066 23.569 25.9415 22.9303H25.9426ZM25.9426 36.7365C26.5775 36.0989 27.4559 35.7036 28.4255 35.7036H97.162C99.1012 35.7036 100.673 37.2814 100.673 39.2299C100.673 40.2037 100.28 41.0847 99.6449 41.7234C99.01 42.361 98.1316 42.7563 97.162 42.7563H28.4244C26.4852 42.7563 24.9129 41.1785 24.9129 39.2299C24.9129 38.2562 25.3066 37.3752 25.9415 36.7365H25.9426ZM24.9141 52.9557C24.9141 51.1602 26.3629 49.7041 28.152 49.7041H86.0784C87.8664 49.7041 89.3163 51.159 89.3163 52.9557V53.5062C89.3163 55.3018 87.8675 56.7579 86.0784 56.7579H28.152C26.364 56.7579 24.9141 55.3029 24.9141 53.5062V52.9557Z" fill="#7DEAAF"/>
</g>
<defs>
<filter id="filter0_d_22_69" x="0" y="0" width="126" height="119.001" filterUnits="userSpaceOnUse" color-interpolation-filters="sRGB">
<feFlood flood-opacity="0" result="BackgroundImageFix"/>
<feColorMatrix in="SourceAlpha" type="matrix" values="0 0 0 0 0 0 0 0 0 0 0 0 0 0 0 0 0 0 127 0" result="hardAlpha"/>
<feOffset dy="4"/>
<feGaussianBlur stdDeviation="2"/>
<feComposite in2="hardAlpha" operator="out"/>
<feColorMatrix type="matrix" values="0 0 0 0 0 0 0 0 0 0 0 0 0 0 0 0 0 0 0.25 0"/>
<feBlend mode="normal" in2="BackgroundImageFix" result="effect1_dropShadow_22_69"/>
<feBlend mode="normal" in="SourceGraphic" in2="effect1_dropShadow_22_69" result="shape"/>
</filter>
</defs>
</svg>
