<svg width="144" height="144" viewBox="0 0 144 144" fill="none" xmlns="http://www.w3.org/2000/svg">
<g clip-path="url(#clip0_0_70)">
<path d="M119.001 115.954C112.826 114.199 102.565 107.509 98.2865 104.608C96.9844 103.721 95.4465 103.254 93.8708 103.254C93.1537 103.254 92.5735 102.674 92.5735 101.957V87.7096C92.5735 86.6812 92.8282 85.6716 93.3188 84.7706C95.2766 81.1852 96.8853 77.1422 98.0647 72.8209C98.2582 73.1039 98.4846 73.2738 98.7394 73.321C100.126 73.571 101.91 70.0752 102.726 65.518C103.542 60.9608 103.08 58.9323 101.693 58.687C101.235 58.6068 100.73 58.7341 100.235 59.1021C100.268 58.4605 100.291 57.8189 100.301 57.1726C101.018 55.1865 102.348 56.4131 102.348 56.1111C102.348 44.1096 101.617 18.3892 69.3534 18.3892C60.3523 18.3892 55.2997 20.781 52.6956 24.2249C41.7838 25.6071 39.2316 43.9916 41.7602 50.5019C42.8877 53.408 44.4068 55.8375 44.5908 57.4651C44.6049 58.0123 44.6285 58.5596 44.6568 59.1068C44.1567 58.7388 43.6567 58.6068 43.1943 58.6917C41.8074 58.9417 41.3451 60.9656 42.1612 65.5228C42.9773 70.08 44.7606 73.5757 46.1476 73.3257C46.407 73.2785 46.6335 73.1039 46.8269 72.8256C47.8459 76.5525 49.181 80.0671 50.785 83.2609C51.2096 84.1054 51.4171 85.0395 51.4171 85.9877V101.966C51.4171 102.683 50.8369 103.264 50.1198 103.264C48.5441 103.264 47.0062 103.735 45.7041 104.618C41.4252 107.519 31.1645 114.208 24.9891 115.963C17.04 118.223 8.15674 119.157 8.15674 135.994H135.829C135.829 119.162 126.946 118.223 118.997 115.963L119.001 115.954Z" fill="#7DEAAF"/>
<path d="M144 144H0V0H144V144ZM8.5247 135.475H135.475V8.5247H8.5247V135.475Z" fill="#7DEAAF"/>
</g>
<defs>
<clipPath id="clip0_0_70">
<rect width="144" height="144" fill="white"/>
</clipPath>
</defs>
</svg>
