<svg width="158" height="152" viewBox="0 0 158 152" fill="none" xmlns="http://www.w3.org/2000/svg">
<g filter="url(#filter0_d_23_135)">
<path d="M118.377 36.5872L112.765 40.7859C116.318 47.4801 118.33 55.1109 118.33 63.2093C118.33 89.7508 96.7185 111.267 70.0601 111.267C43.4017 111.267 21.7899 89.7508 21.7899 63.2093C21.7899 36.6678 43.4009 15.1513 70.0601 15.1513C82.9585 15.1513 94.6757 20.1883 103.335 28.3948L108.997 24.1588L109.995 17.2223C99.2893 7.9985 85.3286 2.41858 70.0601 2.41858C36.3378 2.41858 9 29.6351 9 63.2093C9 96.7835 36.3378 124 70.0601 124C103.782 124 131.12 96.7828 131.12 63.2093C131.12 54.0511 129.086 45.3658 125.443 37.5769L118.377 36.5872Z" fill="#7DEAAF"/>
<path d="M34.0389 63.2093C34.0389 83.0157 50.1659 99.0716 70.0601 99.0716C89.9542 99.0716 106.081 83.0157 106.081 63.2093C106.081 57.865 104.907 52.7945 102.802 48.2385L92.8614 55.6747C93.651 58.044 94.0794 60.5767 94.0794 63.2093C94.0794 76.4163 83.3256 87.1227 70.0601 87.1227C56.7945 87.1227 46.0407 76.4163 46.0407 63.2093C46.0407 50.0023 56.7945 39.2959 70.0601 39.2959C74.992 39.2959 79.5757 40.777 83.39 43.3149L93.3588 35.8578C87.0778 30.5494 78.945 27.347 70.0601 27.347C50.1659 27.347 34.0389 43.4029 34.0389 63.2093Z" fill="#7DEAAF"/>
<path d="M133.857 15.2847L135.284 0L113.529 16.2737L112.129 26.0038L76.1621 52.9093C74.374 51.857 72.2886 51.2522 70.0608 51.2522C63.4284 51.2522 58.0515 56.6054 58.0515 63.2085C58.0515 69.8117 63.4284 75.1649 70.0608 75.1649C76.6932 75.1649 82.0701 69.8117 82.0701 63.2085C82.0701 62.063 81.9083 60.9555 81.6057 59.9062L117.47 33.0783L127.246 34.4476L149.001 18.1739L133.857 15.2847Z" fill="#7DEAAF"/>
</g>
<defs>
<filter id="filter0_d_23_135" x="-0.1" y="0" width="157.201" height="151.1" filterUnits="userSpaceOnUse" color-interpolation-filters="sRGB">
<feFlood flood-opacity="0" result="BackgroundImageFix"/>
<feColorMatrix in="SourceAlpha" type="matrix" values="0 0 0 0 0 0 0 0 0 0 0 0 0 0 0 0 0 0 127 0" result="hardAlpha"/>
<feOffset dy="19"/>
<feGaussianBlur stdDeviation="4.05"/>
<feComposite in2="hardAlpha" operator="out"/>
<feColorMatrix type="matrix" values="0 0 0 0 0.160734 0 0 0 0 0.548077 0 0 0 0 0.30276 0 0 0 1 0"/>
<feBlend mode="normal" in2="BackgroundImageFix" result="effect1_dropShadow_23_135"/>
<feBlend mode="normal" in="SourceGraphic" in2="effect1_dropShadow_23_135" result="shape"/>
</filter>
</defs>
</svg>
