<svg width="586" height="468" viewBox="0 0 586 468" fill="none" xmlns="http://www.w3.org/2000/svg">
<path d="M81.7592 562.391C77.172 554.446 67.0123 551.722 59.0681 556.309L0 454C64.4373 416.797 146.839 438.885 184.049 503.334L306.799 715.945C311.387 723.89 321.546 726.614 329.49 722.027C337.435 717.441 340.156 707.281 335.568 699.335L212.818 486.725C175.608 422.275 197.68 339.87 262.118 302.666C326.554 265.464 408.955 287.552 446.165 352.001L568.916 564.612C573.503 572.557 583.664 575.28 591.607 570.694C599.551 566.108 602.273 555.947 597.686 548.002L474.935 335.391C437.725 270.942 459.797 188.536 524.233 151.334C588.672 114.13 671.073 136.218 708.283 200.667L831.034 413.278C835.621 421.223 845.779 423.948 853.725 419.36C861.669 414.774 864.391 404.613 859.804 396.668L737.053 184.057C699.843 119.608 721.915 37.2024 786.351 -1.21593e-05L845.419 102.309C837.476 106.895 834.754 117.056 839.341 125.001L962.092 337.612C999.301 402.061 977.23 484.467 912.794 521.669C848.354 558.873 765.953 536.784 728.743 472.336L605.993 259.725C601.405 251.78 591.247 249.055 583.301 253.643C575.358 258.229 572.636 268.39 577.223 276.335L699.974 488.946C737.183 553.395 715.112 635.801 650.676 673.003C586.239 710.205 503.838 688.117 466.628 623.668L343.878 411.057C339.29 403.112 329.129 400.389 321.186 404.975C313.24 409.563 310.52 419.722 315.108 427.667L437.858 640.278C475.068 704.727 452.996 787.134 388.558 824.336C324.121 861.539 241.72 839.451 204.51 775.002L81.7592 562.391Z" fill="#E04475"/>
</svg>
