<svg width="675" height="383" viewBox="0 0 675 383" fill="none" xmlns="http://www.w3.org/2000/svg">
<path d="M12.3477 100.212C12.3477 93.3886 6.81928 87.8567 0 87.8567V0C55.3127 0 100.152 44.8663 100.152 100.212V282.788C100.152 289.611 105.681 295.143 112.5 295.143C119.319 295.143 124.848 289.611 124.848 282.788V100.212C124.848 44.8663 169.687 0 225.001 0C280.313 0 325.152 44.8663 325.152 100.212V282.788C325.152 289.611 330.681 295.143 337.5 295.143C344.319 295.143 349.848 289.611 349.848 282.788V100.212C349.848 44.8663 394.687 0 449.999 0C505.314 0 550.153 44.8663 550.153 100.212V282.788C550.153 289.611 555.68 295.143 562.501 295.143C569.319 295.143 574.849 289.611 574.849 282.788V100.212C574.849 44.8663 619.688 0 675 0V87.8567C668.182 87.8567 662.652 93.3886 662.652 100.212V282.788C662.652 338.133 617.813 383 562.501 383C507.186 383 462.347 338.133 462.347 282.788V100.212C462.347 93.3886 456.82 87.8567 449.999 87.8567C443.181 87.8567 437.651 93.3886 437.651 100.212V282.788C437.651 338.133 392.812 383 337.5 383C282.188 383 237.349 338.133 237.349 282.788V100.212C237.349 93.3886 231.819 87.8567 225.001 87.8567C218.18 87.8567 212.653 93.3886 212.653 100.212V282.788C212.653 338.133 167.813 383 112.5 383C57.1872 383 12.3477 338.133 12.3477 282.788V100.212Z" fill="#E04475"/>
</svg>
