<svg width="611" height="611" viewBox="0 0 611 611" fill="none" xmlns="http://www.w3.org/2000/svg">
<path fill-rule="evenodd" clip-rule="evenodd" d="M611 102.772C611 153.723 573.923 196.013 525.277 204.136C573.923 212.259 611 254.55 611 305.5C611 356.45 573.923 398.741 525.277 406.864C573.923 414.987 611 457.279 611 508.228C611 564.986 564.986 611 508.228 611C457.279 611 414.987 573.923 406.864 525.277C398.741 573.923 356.45 611 305.5 611C254.55 611 212.259 573.923 204.136 525.277C196.013 573.923 153.723 611 102.772 611C46.0125 611 0 564.986 0 508.228C0 457.279 37.077 414.987 85.7216 406.864C37.077 398.741 0 356.45 0 305.5C0 254.55 37.077 212.259 85.7216 204.136C37.077 196.013 0 153.723 0 102.772C0 46.0125 46.0125 0 102.772 0C153.723 0 196.013 37.077 204.136 85.7216C212.259 37.077 254.55 0 305.5 0C356.45 0 398.741 37.077 406.864 85.7216C414.987 37.077 457.279 0 508.228 0C564.986 0 611 46.0125 611 102.772ZM204.136 119.822C196.939 162.921 162.921 196.939 119.822 204.136C162.921 211.333 196.939 245.352 204.136 288.451C211.333 245.352 245.352 211.333 288.451 204.136C245.352 196.939 211.333 162.921 204.136 119.822ZM322.549 204.136C365.648 196.939 399.667 162.921 406.864 119.822C414.061 162.921 448.08 196.939 491.179 204.136C448.08 211.333 414.061 245.352 406.864 288.451C399.667 245.352 365.648 211.333 322.549 204.136ZM406.864 491.179C414.061 448.08 448.08 414.061 491.179 406.864C448.08 399.667 414.061 365.648 406.864 322.549C399.667 365.648 365.648 399.667 322.549 406.864C365.648 414.061 399.667 448.08 406.864 491.179ZM204.136 322.549C211.333 365.648 245.352 399.667 288.451 406.864C245.352 414.061 211.333 448.08 204.136 491.179C196.939 448.08 162.921 414.061 119.822 406.864C162.921 399.667 196.939 365.648 204.136 322.549Z" fill="#FFDB11"/>
</svg>
