<svg width="336" height="422" viewBox="0 0 336 422" fill="none" xmlns="http://www.w3.org/2000/svg">
<path d="M-589.75 139.982C-589.75 130.451 -597.473 122.724 -607 122.724V0C-529.726 0 -467.083 62.6723 -467.083 139.982V395.018C-467.083 404.549 -459.36 412.276 -449.833 412.276C-440.306 412.276 -432.583 404.549 -432.583 395.018V139.982C-432.583 62.6723 -369.94 0 -292.665 0C-215.393 0 -152.751 62.6723 -152.751 139.982V395.018C-152.751 404.549 -145.026 412.276 -135.5 412.276C-125.974 412.276 -118.249 404.549 -118.249 395.018V139.982C-118.249 62.6723 -55.6074 0 21.6655 0C98.9418 0 161.584 62.6723 161.584 139.982V395.018C161.584 404.549 169.305 412.276 178.835 412.276C188.36 412.276 196.085 404.549 196.085 395.018V139.982C196.085 62.6723 258.727 0 336 0V122.724C326.474 122.724 318.75 130.451 318.75 139.982V395.018C318.75 472.327 256.107 535 178.835 535C101.558 535 38.916 472.327 38.916 395.018V139.982C38.916 130.451 31.1947 122.724 21.6655 122.724C12.1398 122.724 4.41496 130.451 4.41496 139.982V395.018C4.41496 472.327 -58.2272 535 -135.5 535C-212.773 535 -275.415 472.327 -275.415 395.018V139.982C-275.415 130.451 -283.14 122.724 -292.665 122.724C-302.195 122.724 -309.916 130.451 -309.916 139.982V395.018C-309.916 472.327 -372.56 535 -449.833 535C-527.107 535 -589.75 472.327 -589.75 395.018V139.982Z" fill="#FFDB11"/>
</svg>
