<svg width="399" height="378" viewBox="0 0 399 378" fill="none" xmlns="http://www.w3.org/2000/svg">
<path d="M17.2502 -17.0178C17.2502 -26.5486 9.52678 -34.276 0 -34.276V-157C77.2739 -157 139.917 -94.3277 139.917 -17.0178V238.018C139.917 247.549 147.64 255.276 157.167 255.276C166.694 255.276 174.417 247.549 174.417 238.018V-17.0178C174.417 -94.3277 237.06 -157 314.335 -157C391.607 -157 454.249 -94.3277 454.249 -17.0178V238.018C454.249 247.549 461.974 255.276 471.5 255.276C481.026 255.276 488.751 247.549 488.751 238.018V-17.0178C488.751 -94.3277 551.393 -157 628.665 -157C705.942 -157 768.584 -94.3277 768.584 -17.0178V238.018C768.584 247.549 776.305 255.276 785.835 255.276C795.36 255.276 803.085 247.549 803.085 238.018V-17.0178C803.085 -94.3277 865.727 -157 943 -157V-34.276C933.474 -34.276 925.75 -26.5486 925.75 -17.0178V238.018C925.75 315.327 863.107 378 785.835 378C708.558 378 645.916 315.327 645.916 238.018V-17.0178C645.916 -26.5486 638.195 -34.276 628.665 -34.276C619.14 -34.276 611.415 -26.5486 611.415 -17.0178V238.018C611.415 315.327 548.773 378 471.5 378C394.227 378 331.585 315.327 331.585 238.018V-17.0178C331.585 -26.5486 323.86 -34.276 314.335 -34.276C304.805 -34.276 297.084 -26.5486 297.084 -17.0178V238.018C297.084 315.327 234.44 378 157.167 378C79.8927 378 17.2502 315.327 17.2502 238.018V-17.0178Z" fill="#E04475"/>
</svg>
