<svg width="157" height="161" viewBox="0 0 157 161" fill="none" xmlns="http://www.w3.org/2000/svg">
<g filter="url(#filter0_d_11_108)">
<path d="M108.504 42.5669C106.539 40.0801 103.646 38.3733 100.569 37.8623C98.5874 37.5172 96.7909 37.6356 94.834 38.2673L105.588 61.2395C108.527 59.2361 110.827 55.9935 111.26 52.3398C111.711 48.9109 110.686 45.2862 108.504 42.5669Z" fill="#BAA0F5"/>
<path d="M70.3348 21.7949C65.9944 33.8312 53.8126 52.4439 35.6083 61.7281L49.476 91.3514C68.3178 83.4285 90.4621 86.0968 102.509 90.522L70.3348 21.7949Z" fill="#BAA0F5"/>
<path d="M74.7158 13.0611C74.668 13.0834 74.6203 13.1057 74.5726 13.1276C71.8842 14.3815 70.6202 17.346 71.7468 19.753L104.986 90.7563C106.113 93.1633 109.206 94.1044 111.898 92.8591C111.946 92.8372 111.993 92.8149 112.041 92.793C114.739 91.5449 116.013 88.5742 114.884 86.161C108.26 71.9987 88.2771 29.3119 81.6434 15.1543C80.513 12.7421 77.4099 11.8043 74.7153 13.0611H74.7158Z" fill="#BAA0F5"/>
<path d="M8.7619 74.2032C6.84794 75.0944 5.89502 77.2 6.00907 79.0219C6.25815 83.0012 7.24829 86.6934 8.85972 90.1351C10.9288 94.555 13.766 99.725 17.3243 103.192C18.6046 104.44 20.7519 104.689 22.6267 103.82C24.9057 102.763 27.1852 101.707 29.4608 100.645L29.4628 100.648L47.5306 92.2555L33.6633 62.6317C33.6423 62.6417 16.2927 70.6973 8.7619 74.2032Z" fill="#BAA0F5"/>
<path d="M58.1415 125.136L44.4976 96.0223L27.8676 103.747L48.2034 130.544C49.2241 131.917 51.0745 132.385 52.6292 131.663C53.876 131.083 55.1453 130.493 56.3965 129.912C58.2026 129.073 58.9837 126.935 58.1415 125.136V125.136Z" fill="#BAA0F5"/>
<path d="M141.363 33.8027L124.968 41.4181C123.518 42.0912 121.796 41.4666 121.121 40.0236C120.445 38.58 121.072 36.8646 122.521 36.1916L138.916 28.5762C140.366 27.9031 142.088 28.5277 142.763 29.9707C143.439 31.4143 142.812 33.1296 141.363 33.8027Z" fill="#BAA0F5"/>
<path d="M109.075 20.0405C108.269 20.2221 107.391 20.061 106.682 19.5239C105.41 18.56 105.162 16.7509 106.13 15.4833L117.079 1.13886C118.047 -0.128792 119.863 -0.375003 121.135 0.588452C122.408 1.55238 122.655 3.36142 121.688 4.62907L110.739 18.9735C110.31 19.5348 109.715 19.8961 109.075 20.0405Z" fill="#BAA0F5"/>
<path d="M128.285 62.1308C127.627 62.6289 127.187 63.4022 127.144 64.2887C127.067 65.8795 128.299 67.2308 129.896 67.3074L147.966 68.1734C149.563 68.2499 150.92 67.0222 150.997 65.4318C151.073 63.8409 149.841 62.4896 148.244 62.4131L130.175 61.5471C129.467 61.5133 128.807 61.7348 128.285 62.1308Z" fill="#BAA0F5"/>
<path d="M56.1999 107.856L53.7768 108.982C53.3645 109.173 52.8377 108.918 52.601 108.411L49.0136 100.748C48.5383 99.7336 49.5586 98.9393 50.301 99.7464L56.3115 106.284C56.783 106.797 56.7253 107.612 56.2004 107.856H56.1999Z" fill="#BAA0F5"/>
</g>
<defs>
<filter id="filter0_d_11_108" x="0.699908" y="0" width="155.6" height="160.3" filterUnits="userSpaceOnUse" color-interpolation-filters="sRGB">
<feFlood flood-opacity="0" result="BackgroundImageFix"/>
<feColorMatrix in="SourceAlpha" type="matrix" values="0 0 0 0 0 0 0 0 0 0 0 0 0 0 0 0 0 0 127 0" result="hardAlpha"/>
<feOffset dy="23"/>
<feGaussianBlur stdDeviation="2.65"/>
<feComposite in2="hardAlpha" operator="out"/>
<feColorMatrix type="matrix" values="0 0 0 0 0.325005 0 0 0 0 0.180647 0 0 0 0 0.766827 0 0 0 0.4 0"/>
<feBlend mode="normal" in2="BackgroundImageFix" result="effect1_dropShadow_11_108"/>
<feBlend mode="normal" in="SourceGraphic" in2="effect1_dropShadow_11_108" result="shape"/>
</filter>
</defs>
</svg>
