<svg width="154" height="142" viewBox="0 0 154 142" fill="none" xmlns="http://www.w3.org/2000/svg">
<g clip-path="url(#clip0_11_86)" filter="url(#filter0_d_11_86)">
<path d="M45.0484 60.0746H108.951C110.878 60.0746 112.222 58.1482 111.568 56.3218L98.3063 19.2283C97.9084 18.1166 96.8618 17.3752 95.6885 17.3752H58.3096C57.1363 17.3752 56.0887 18.1166 55.6917 19.2283L42.4296 56.3218C41.7761 58.1482 43.1204 60.0746 45.0474 60.0746H45.0484ZM93.5669 23.4028C94.299 23.1553 95.092 23.5523 95.3377 24.2898L104.652 52.2621C104.898 52.9996 104.504 53.7985 103.772 54.0459C103.04 54.2934 102.247 53.8965 102.002 53.159L92.6874 25.1866C92.4417 24.4492 92.8358 23.6503 93.5679 23.4038L93.5669 23.4028Z" fill="#F9D17A"/>
<path d="M144.833 103.247L131.571 66.1537C131.173 65.042 130.126 64.3005 128.953 64.3005H91.574C90.4007 64.3005 89.3532 65.042 88.9562 66.1537L77 99.5943L65.0438 66.1537C64.6458 65.042 63.5993 64.3005 62.426 64.3005H25.0471C23.8737 64.3005 22.8262 65.042 22.4292 66.1537L9.16706 103.247C8.51358 105.074 9.85787 107 11.7849 107H75.6871C76.1687 107 76.6128 106.88 76.999 106.671C77.3852 106.88 77.8304 107 78.3109 107H142.213C144.141 107 145.484 105.074 144.831 103.247H144.833ZM71.3329 101.241C70.6008 101.488 69.8078 101.091 69.5631 100.354L60.2484 72.3813C60.0027 71.6438 60.3967 70.8449 61.1288 70.5984C61.8609 70.351 62.6539 70.7479 62.8996 71.4854L72.2144 99.4577C72.46 100.195 72.066 100.994 71.3339 101.241H71.3329ZM137.268 101.241C136.536 101.488 135.743 101.091 135.499 100.354L126.184 72.3813C125.938 71.6438 126.332 70.8449 127.064 70.5984C127.796 70.351 128.589 70.7479 128.835 71.4854L138.15 99.4577C138.395 100.195 138.001 100.994 137.269 101.241H137.268Z" fill="#F9D17A"/>
<path d="M123.321 32.5557C123.913 27.2556 126.773 24.0067 132.48 23.3296C126.958 22.7079 123.958 19.5807 123.321 14.1035C122.583 19.9975 119.294 22.7851 114.163 23.3296C119.522 23.7097 122.455 26.926 123.321 32.5557Z" fill="#F9D17A"/>
<path d="M111.663 10.909C112.013 7.77586 113.704 5.85442 117.077 5.45449C113.813 5.08722 112.039 3.23804 111.663 0C111.227 3.48454 109.282 5.13276 106.248 5.45449C109.416 5.6792 111.151 7.58084 111.663 10.909Z" fill="#F9D17A"/>
<path d="M26.6636 42.0015C27.5303 36.3718 30.4626 33.1555 35.8221 32.7754C30.6906 32.2319 27.4025 29.4433 26.6636 23.5493C26.0268 29.0256 23.0267 32.1528 17.5051 32.7754C23.2114 33.4525 26.072 36.7005 26.6636 42.0015Z" fill="#F9D17A"/>
<path d="M38.322 20.3548C38.834 17.0267 40.5684 15.1251 43.7365 14.9003C40.703 14.5786 38.7583 12.9304 38.322 9.44586C37.9456 12.6839 36.1719 14.5331 32.9075 14.9003C36.281 15.3003 37.9722 17.2207 38.322 20.3548Z" fill="#F9D17A"/>
</g>
<defs>
<filter id="filter0_d_11_86" x="0.4" y="0" width="153.2" height="141.6" filterUnits="userSpaceOnUse" color-interpolation-filters="sRGB">
<feFlood flood-opacity="0" result="BackgroundImageFix"/>
<feColorMatrix in="SourceAlpha" type="matrix" values="0 0 0 0 0 0 0 0 0 0 0 0 0 0 0 0 0 0 127 0" result="hardAlpha"/>
<feOffset dy="26"/>
<feGaussianBlur stdDeviation="4.3"/>
<feComposite in2="hardAlpha" operator="out"/>
<feColorMatrix type="matrix" values="0 0 0 0 0.713942 0 0 0 0 0.412805 0 0 0 0 0.14931 0 0 0 0.7 0"/>
<feBlend mode="normal" in2="BackgroundImageFix" result="effect1_dropShadow_11_86"/>
<feBlend mode="normal" in="SourceGraphic" in2="effect1_dropShadow_11_86" result="shape"/>
</filter>
<clipPath id="clip0_11_86">
<rect width="136" height="107" fill="white" transform="translate(9)"/>
</clipPath>
</defs>
</svg>
