<svg width="125" height="135" viewBox="0 0 125 135" fill="none" xmlns="http://www.w3.org/2000/svg">
<g filter="url(#filter0_d_11_98)">
<path d="M62.5007 0C55.1264 0 48.0951 1.49949 41.697 4.21117C35.2989 6.92285 29.5326 10.8438 24.6896 15.6882C19.8467 20.5326 15.9243 26.2974 13.2126 32.697C10.4995 39.0951 9 46.1264 9 53.5007C9 60.875 10.4995 67.9064 13.2112 74.3045C15.9228 80.7026 19.8438 86.4689 24.6882 91.3133C29.5326 96.1577 35.2974 100.079 41.6955 102.79C48.0936 105.502 55.125 107.001 62.4993 107.001C69.8736 107.001 76.9049 105.502 83.303 102.79C89.7011 100.079 95.4675 96.1577 100.312 91.3133C105.156 86.4689 109.077 80.704 111.789 74.3045C114.501 67.9064 116 60.875 116 53.5007C116 46.1264 114.501 39.0951 111.789 32.697C109.077 26.2989 105.156 20.5326 100.312 15.6882C95.4675 10.8438 89.7026 6.92285 83.303 4.21117C76.9064 1.49949 69.875 0 62.5007 0ZM65.7078 100.46V92.0227H59.2936V100.46C53.4423 100.062 47.8811 98.5923 42.8051 96.2456C37.7292 93.8974 33.1413 90.6727 29.2335 86.7665C25.3258 82.8602 22.1011 78.2708 19.7544 73.1963C17.4077 68.1218 15.9375 62.5607 15.5417 56.7093H23.9787V50.2951H15.5417C15.9375 44.4437 17.4062 38.8826 19.7544 33.8066C22.1011 28.7306 25.3273 24.1428 29.2335 20.235C33.1413 16.3273 37.7292 13.1025 42.8051 10.7558C47.8811 8.40914 53.4423 6.93897 59.2936 6.54321V14.9802H65.7078V6.54321C71.5592 6.93897 77.1204 8.40768 82.1949 10.7558C87.2694 13.1025 91.8587 16.3287 95.765 20.235C99.6713 24.1428 102.897 28.7306 105.244 33.8066C107.592 38.8826 109.061 44.4437 109.458 50.2951H101.021V56.7093H109.458C109.061 62.5607 107.591 68.1218 105.244 73.1963C102.896 78.2708 99.6713 82.8602 95.765 86.7665C91.8587 90.6727 87.2694 93.8989 82.1949 96.2456C77.1204 98.5923 71.5592 100.062 65.7078 100.46Z" fill="#7DEAAF"/>
<path d="M40.0701 63.6894C40.8982 63.1397 41.7498 62.6458 42.6161 62.1943C43.4824 61.7428 44.3633 61.3354 45.253 60.9601C46.1413 60.5849 47.0384 60.2404 47.9339 59.9179C48.8295 59.5955 49.7266 59.2921 50.6148 58.9974C50.7424 58.9549 50.8714 58.911 50.9989 58.8626C51.1264 58.8157 51.2554 58.7658 51.3829 58.7175C51.5104 58.6676 51.638 58.6193 51.7655 58.5709C51.893 58.5225 52.0205 58.4771 52.1466 58.4346L52.173 58.4185L52.1993 58.4023L52.2257 58.3862L52.2521 58.3701C52.4397 58.3027 52.6259 58.2367 52.8076 58.1693C52.9894 58.1019 53.1668 58.0344 53.3397 57.9655C53.5127 57.8966 53.6798 57.8248 53.8395 57.7515C54.0008 57.6782 54.1547 57.602 54.2998 57.5229C54.3071 57.5068 54.3145 57.4892 54.3218 57.4672C54.3291 57.4452 54.3379 57.4203 54.3467 57.3924C54.3555 57.3646 54.3658 57.3323 54.376 57.2986C54.3863 57.2634 54.398 57.2253 54.4097 57.1843C53.6783 56.1157 53.0055 54.9021 52.4075 53.5931C51.8094 52.2842 51.2862 50.88 50.8538 49.4333C50.4214 47.9866 50.0813 46.4959 49.8497 45.014C49.6181 43.5321 49.4935 42.0575 49.4935 40.643C49.4935 39.4426 49.5873 38.3198 49.7735 37.2776C49.9596 36.2354 50.2367 35.2724 50.6016 34.393C50.9681 33.5135 51.4225 32.7161 51.9648 32.0023C52.5057 31.2899 53.1345 30.6611 53.8469 30.1217C53.5405 29.9649 53.2166 29.8329 52.8795 29.7215C52.5423 29.6101 52.192 29.5237 51.8285 29.4548C51.4665 29.3859 51.0927 29.3375 50.7101 29.3053C50.3275 29.273 49.9362 29.2584 49.5375 29.2584C48.4733 29.2584 47.459 29.3639 46.5371 29.6189C45.6151 29.874 44.784 30.2771 44.0878 30.8707C43.39 31.4644 42.8272 32.2485 42.4373 33.2658C42.0474 34.283 41.8319 35.5333 41.8319 37.0592C41.8319 38.0721 41.9272 39.1435 42.1046 40.2238C42.2819 41.3041 42.5428 42.3961 42.8756 43.4514C43.2083 44.5068 43.6099 45.524 44.0716 46.4592C44.5333 47.3944 45.0537 48.2445 45.6195 48.9657C45.6136 49.0229 45.6092 49.08 45.6019 49.1386C45.596 49.1958 45.5887 49.253 45.5828 49.3101C45.5755 49.3673 45.5682 49.4245 45.5594 49.4816C45.5506 49.5388 45.5418 49.5945 45.5315 49.6517C45.4978 49.807 45.4582 49.9668 45.4099 50.1251C45.3615 50.2834 45.3029 50.4388 45.2311 50.5868C45.1592 50.7334 45.0728 50.8727 44.9687 50.9958C44.8646 51.1189 44.7415 51.2274 44.5964 51.3139C44.4351 51.4106 44.268 51.4985 44.098 51.5792C43.928 51.6598 43.755 51.7345 43.5806 51.8049C43.4062 51.8752 43.2288 51.9412 43.0514 52.0042C42.8741 52.0673 42.6953 52.1288 42.5179 52.1904C41.7806 52.4381 41.0375 52.6785 40.2973 52.9277C39.557 53.1769 38.8168 53.4319 38.0869 53.7119C37.3584 53.9918 36.6387 54.2952 35.9395 54.6368C35.2403 54.9783 34.5588 55.3594 33.9065 55.7947C33.5664 56.019 33.2528 56.299 32.9669 56.6156C32.6811 56.9322 32.4231 57.2869 32.1901 57.6592C31.957 58.0315 31.7533 58.4258 31.5744 58.8201C31.3956 59.2144 31.2432 59.6116 31.1157 59.9927C30.9837 60.3899 30.8723 60.7842 30.7785 61.1858C30.6847 61.5875 30.61 61.9964 30.5528 62.423C30.4956 62.8495 30.4561 63.2936 30.4326 63.7641C30.4092 64.2346 30.4033 64.733 30.4121 65.2695H38.4475C38.5735 65.0013 38.7025 64.7931 38.8344 64.6231C38.9663 64.4545 39.0997 64.3255 39.2346 64.2185C39.3709 64.1115 39.5087 64.025 39.6479 63.943C39.7886 63.8609 39.9308 63.7803 40.0759 63.685L40.0701 63.6894Z" fill="#7DEAAF"/>
<path d="M91.1068 55.8521C90.4531 55.4182 89.7715 55.0371 89.0709 54.6927C88.3702 54.3482 87.652 54.0418 86.922 53.759C86.1921 53.4761 85.4533 53.2152 84.7116 52.9645C83.97 52.7139 83.2268 52.4705 82.491 52.2228C82.3136 52.1613 82.1348 52.0982 81.9575 52.0337C81.7801 51.9692 81.6027 51.9004 81.4283 51.8285C81.2539 51.7567 81.0809 51.6805 80.9109 51.5969C80.7409 51.5149 80.5752 51.4254 80.4125 51.3287C80.266 51.2422 80.1428 51.1338 80.0388 51.0092C79.9347 50.8846 79.8482 50.7453 79.7764 50.5973C79.7046 50.4492 79.6459 50.2924 79.5976 50.1341C79.5492 49.9758 79.5096 49.816 79.4759 49.6621C79.4612 49.58 79.4481 49.4979 79.4363 49.4144C79.4246 49.3309 79.4143 49.2488 79.4055 49.1652C79.3967 49.0817 79.388 48.9996 79.3821 48.916C79.3762 48.834 79.3704 48.7504 79.366 48.6683C79.8995 47.9369 80.3876 47.0897 80.82 46.1706C81.2524 45.2501 81.6306 44.2578 81.9413 43.2347C82.2521 42.2116 82.4969 41.1562 82.664 40.1126C82.8311 39.069 82.919 38.0371 82.919 37.0594C82.919 35.5335 82.7035 34.2832 82.3136 33.266C81.9237 32.2487 81.3594 31.4631 80.6632 30.8694C79.9655 30.2758 79.1358 29.8712 78.2139 29.6162C77.2919 29.3612 76.2776 29.2542 75.2134 29.2542C74.8089 29.2542 74.4117 29.2703 74.0232 29.304C73.6363 29.3377 73.2581 29.389 72.8916 29.4594C72.5252 29.5312 72.172 29.6221 71.8319 29.7349C71.4918 29.8478 71.1664 29.9826 70.8557 30.1424C71.5607 30.6847 72.1837 31.3121 72.7201 32.0245C73.2566 32.7368 73.7081 33.5327 74.0716 34.4107C74.4351 35.2887 74.7092 36.2488 74.8939 37.2881C75.0786 38.3273 75.1709 39.4471 75.1709 40.6432C75.1709 42.0196 75.0551 43.4487 74.8382 44.8852C74.6213 46.3216 74.3017 47.7654 73.8942 49.1711C73.4868 50.5768 72.9928 51.9458 72.4241 53.2313C71.8553 54.5168 71.2119 55.7216 70.5098 56.7975C70.5127 56.8092 70.5156 56.821 70.5171 56.8327C70.5186 56.8444 70.5215 56.8561 70.5244 56.8679C70.5274 56.8796 70.5288 56.8913 70.5303 56.903C70.5317 56.9148 70.5332 56.9265 70.5347 56.9382C70.5523 57.0218 70.5699 57.0951 70.5875 57.161C70.6036 57.2255 70.6197 57.2827 70.6344 57.331C70.649 57.3794 70.6622 57.4205 70.6754 57.4556C70.6886 57.4908 70.6988 57.5187 70.7076 57.5406C70.8615 57.6257 71.0228 57.7063 71.1913 57.784C71.3599 57.8617 71.5358 57.9364 71.7176 58.0097C71.8993 58.083 72.0884 58.1548 72.2833 58.2252C72.4783 58.297 72.6791 58.3673 72.8858 58.4392L73.1936 58.5418L73.5014 58.6444L73.8092 58.747L74.117 58.8496C75.0287 59.153 75.9478 59.4711 76.8668 59.8141C77.7859 60.1571 78.7064 60.5235 79.6166 60.9237C80.5283 61.3238 81.4327 61.7562 82.3195 62.2297C83.2078 62.7031 84.0799 63.2176 84.9286 63.7819C85.0678 63.8713 85.2041 63.9431 85.3375 64.015C85.4709 64.0883 85.6028 64.1616 85.7333 64.2583C85.8623 64.355 85.9898 64.4738 86.1159 64.635C86.2419 64.7962 86.365 65.0014 86.4867 65.2697H94.5895C94.5968 64.7347 94.5895 64.2363 94.566 63.7643C94.5426 63.2938 94.5015 62.8497 94.4444 62.4231C94.3872 61.9966 94.3125 61.5876 94.2187 61.186C94.1263 60.7844 94.0149 60.3901 93.8845 59.9929C93.7584 59.6133 93.6045 59.2204 93.4257 58.8305C93.2468 58.4406 93.0416 58.0551 92.81 57.6887C92.5785 57.3222 92.3205 56.9749 92.0346 56.6627C91.7488 56.3504 91.4381 56.0749 91.098 55.8506L91.1068 55.8521Z" fill="#7DEAAF"/>
<path d="M83.5199 65.7222C82.6478 65.1432 81.739 64.6331 80.8053 64.1728C79.8716 63.7126 78.9144 63.3022 77.9426 62.9225C76.9708 62.5429 75.9858 62.194 74.9994 61.8584C74.0114 61.5227 73.022 61.1988 72.0414 60.8675C71.804 60.7854 71.5651 60.7019 71.3276 60.6139C71.0901 60.526 70.8542 60.4351 70.6196 60.3369C70.3851 60.2402 70.155 60.1361 69.9278 60.0247C69.7006 59.9133 69.4778 59.7946 69.2609 59.6641C69.0659 59.5498 68.9017 59.4047 68.7625 59.239C68.6232 59.0734 68.5089 58.8887 68.4136 58.6908C68.3184 58.493 68.2407 58.2848 68.1762 58.0738C68.1117 57.8627 68.0604 57.6501 68.0164 57.4435C67.9974 57.3335 67.9783 57.2236 67.9622 57.1122C67.9461 57.0008 67.9314 56.8909 67.9182 56.7795C67.905 56.6681 67.8933 56.5581 67.8845 56.4467C67.8742 56.3353 67.8669 56.2254 67.861 56.1155C68.5749 55.1407 69.2271 54.0136 69.8047 52.7867C70.3822 51.5613 70.8864 50.2377 71.2997 48.8731C71.7131 47.5085 72.0385 46.1028 72.2598 44.7118C72.4812 43.3207 72.5984 41.9444 72.5984 40.6398C72.5984 38.6053 72.3111 36.9373 71.7908 35.58C71.2704 34.2227 70.5185 33.1761 69.5892 32.3831C68.6599 31.5902 67.5532 31.0522 66.3234 30.7136C65.0937 30.375 63.7437 30.2314 62.3248 30.2314C60.9059 30.2314 59.5545 30.3736 58.3262 30.7136C57.0979 31.0537 55.9912 31.5916 55.0604 32.3831C54.1311 33.1761 53.3792 34.2227 52.8589 35.58C52.3385 36.9373 52.0512 38.6053 52.0512 40.6398C52.0512 41.9898 52.1773 43.4175 52.4147 44.8583C52.6522 46.2992 52.9996 47.7547 53.4422 49.1604C53.8849 50.5675 54.4214 51.9248 55.0355 53.1722C55.6497 54.4196 56.343 55.5556 57.0979 56.5186C57.0905 56.5948 57.0832 56.6695 57.0759 56.7458C57.0686 56.822 57.0598 56.8967 57.0495 56.973C57.0392 57.0492 57.0304 57.1239 57.0187 57.2001C57.007 57.2764 56.9953 57.3526 56.9821 57.4273C56.9366 57.634 56.8839 57.8466 56.8194 58.0576C56.7549 58.2687 56.6772 58.4754 56.5819 58.6718C56.4866 58.8682 56.3723 59.0529 56.2331 59.2185C56.0938 59.3827 55.9311 59.5278 55.7376 59.6421C55.5207 59.7696 55.2979 59.8869 55.0707 59.9954C54.8435 60.1038 54.6119 60.2035 54.3774 60.2959C54.1429 60.3897 53.9069 60.4776 53.6694 60.5626C53.432 60.6476 53.1945 60.7297 52.9585 60.8118C51.9765 61.1416 50.9856 61.4626 49.9977 61.7953C49.0097 62.1266 48.0247 62.4696 47.0529 62.8434C46.0811 63.2171 45.124 63.6217 44.1917 64.0776C43.2595 64.5334 42.3522 65.0406 41.4801 65.6181C41.0257 65.9156 40.6079 66.2835 40.2268 66.6984C39.8457 67.1132 39.4998 67.5778 39.1905 68.0674C38.8812 68.557 38.6071 69.0729 38.3682 69.5947C38.1293 70.1165 37.9255 70.6413 37.7555 71.1514C37.5811 71.6776 37.4331 72.2419 37.3099 72.8253C37.1853 73.4087 37.0857 74.0126 37.0094 74.6165C36.9332 75.2204 36.879 75.8257 36.8467 76.4135C36.8145 77.0013 36.8042 77.5715 36.8145 78.105H88.1723C88.1825 77.5715 88.1723 77.0013 88.14 76.4135C88.1078 75.8257 88.055 75.2204 87.9773 74.6165C87.9011 74.0126 87.8014 73.4087 87.6768 72.8238C87.5522 72.239 87.4042 71.6747 87.2312 71.147C87.0612 70.6384 86.8575 70.1209 86.6185 69.6094C86.3796 69.0993 86.1055 68.5965 85.7962 68.1187C85.487 67.6409 85.1425 67.1909 84.7614 66.7848C84.3803 66.3788 83.964 66.0168 83.5111 65.7178L83.5199 65.7222Z" fill="#7DEAAF"/>
</g>
<defs>
<filter id="filter0_d_11_98" x="0.9" y="0" width="123.2" height="134.101" filterUnits="userSpaceOnUse" color-interpolation-filters="sRGB">
<feFlood flood-opacity="0" result="BackgroundImageFix"/>
<feColorMatrix in="SourceAlpha" type="matrix" values="0 0 0 0 0 0 0 0 0 0 0 0 0 0 0 0 0 0 127 0" result="hardAlpha"/>
<feOffset dy="19"/>
<feGaussianBlur stdDeviation="4.05"/>
<feComposite in2="hardAlpha" operator="out"/>
<feColorMatrix type="matrix" values="0 0 0 0 0.160734 0 0 0 0 0.548077 0 0 0 0 0.30276 0 0 0 1 0"/>
<feBlend mode="normal" in2="BackgroundImageFix" result="effect1_dropShadow_11_98"/>
<feBlend mode="normal" in="SourceGraphic" in2="effect1_dropShadow_11_98" result="shape"/>
</filter>
</defs>
</svg>
