<svg width="693" height="322" viewBox="0 0 693 322" fill="none" xmlns="http://www.w3.org/2000/svg">
<path fill-rule="evenodd" clip-rule="evenodd" d="M356 -118.12C356 -88.4332 334.397 -63.7929 306.053 -59.0599C334.397 -54.3269 356 -29.6858 356 2.38419e-07C356 29.6858 334.397 54.3269 306.053 59.0599C334.397 63.7929 356 88.434 356 118.12C356 151.19 329.19 178 296.12 178C266.434 178 241.793 156.397 237.06 128.053C232.327 156.397 207.686 178 178 178C148.314 178 123.673 156.397 118.94 128.053C114.207 156.397 89.5668 178 59.8802 178C26.8093 178 0 151.19 0 118.12C0 88.434 21.603 63.7929 49.9458 59.0599C21.603 54.3269 0 29.6858 0 2.38419e-07C0 -29.6858 21.603 -54.3269 49.9458 -59.0599C21.603 -63.7929 0 -88.4332 0 -118.12C0 -151.191 26.8093 -178 59.8802 -178C89.5668 -178 114.207 -156.397 118.94 -128.054C123.673 -156.397 148.314 -178 178 -178C207.686 -178 232.327 -156.397 237.06 -128.054C241.793 -156.397 266.434 -178 296.12 -178C329.19 -178 356 -151.191 356 -118.12ZM118.94 -108.185C114.747 -83.0737 94.9263 -63.2532 69.8145 -59.0599C94.9263 -54.8667 114.747 -35.0455 118.94 -9.93354C123.133 -35.0455 142.955 -54.8667 168.066 -59.0599C142.955 -63.2532 123.133 -83.0737 118.94 -108.185ZM187.934 -59.0599C213.045 -63.2532 232.867 -83.0737 237.06 -108.185C241.253 -83.0737 261.074 -63.2532 286.186 -59.0599C261.074 -54.8667 241.253 -35.0455 237.06 -9.93354C232.867 -35.0455 213.045 -54.8667 187.934 -59.0599ZM237.06 108.186C241.253 83.0743 261.074 63.2532 286.186 59.0599C261.074 54.8667 241.253 35.0455 237.06 9.93354C232.867 35.0455 213.045 54.8667 187.934 59.0599C213.045 63.2532 232.867 83.0743 237.06 108.186ZM118.94 9.93354C123.133 35.0455 142.955 54.8667 168.066 59.0599C142.955 63.2532 123.133 83.0743 118.94 108.186C114.747 83.0743 94.9263 63.2532 69.8145 59.0599C94.9263 54.8667 114.747 35.0455 118.94 9.93354Z" fill="#FFDB11"/>
<path d="M295.25 -73.0178C295.25 -82.5486 287.527 -90.276 278 -90.276V-213C355.274 -213 417.917 -150.328 417.917 -73.0178V182.018C417.917 191.549 425.64 199.276 435.167 199.276C444.694 199.276 452.417 191.549 452.417 182.018V-73.0178C452.417 -150.328 515.06 -213 592.335 -213C669.607 -213 732.249 -150.328 732.249 -73.0178V182.018C732.249 191.549 739.974 199.276 749.5 199.276C759.026 199.276 766.751 191.549 766.751 182.018V-73.0178C766.751 -150.328 829.393 -213 906.665 -213C983.942 -213 1046.58 -150.328 1046.58 -73.0178V182.018C1046.58 191.549 1054.31 199.276 1063.83 199.276C1073.36 199.276 1081.09 191.549 1081.09 182.018V-73.0178C1081.09 -150.328 1143.73 -213 1221 -213V-90.276C1211.47 -90.276 1203.75 -82.5486 1203.75 -73.0178V182.018C1203.75 259.327 1141.11 322 1063.83 322C986.558 322 923.916 259.327 923.916 182.018V-73.0178C923.916 -82.5486 916.195 -90.276 906.665 -90.276C897.14 -90.276 889.415 -82.5486 889.415 -73.0178V182.018C889.415 259.327 826.773 322 749.5 322C672.227 322 609.585 259.327 609.585 182.018V-73.0178C609.585 -82.5486 601.86 -90.276 592.335 -90.276C582.805 -90.276 575.084 -82.5486 575.084 -73.0178V182.018C575.084 259.327 512.44 322 435.167 322C357.893 322 295.25 259.327 295.25 182.018V-73.0178Z" fill="#E04475"/>
</svg>
