<svg width="706" height="625" viewBox="0 0 706 625" fill="none" xmlns="http://www.w3.org/2000/svg">
<path fill-rule="evenodd" clip-rule="evenodd" d="M943 158.615C943 237.251 885.777 302.52 810.698 315.058C885.777 327.595 943 392.866 943 471.5C943 550.134 885.777 615.405 810.698 627.942C885.777 640.479 943 705.751 943 784.385C943 871.984 871.984 943 784.385 943C705.751 943 640.479 885.777 627.942 810.698C615.405 885.777 550.134 943 471.5 943C392.866 943 327.595 885.777 315.058 810.698C302.52 885.777 237.251 943 158.615 943C71.0144 943 0 871.984 0 784.385C0 705.751 57.2236 640.479 132.3 627.942C57.2236 615.405 0 550.134 0 471.5C0 392.866 57.2236 327.595 132.3 315.058C57.2236 302.52 0 237.251 0 158.615C0 71.0144 71.0144 0 158.615 0C237.251 0 302.52 57.2236 315.058 132.3C327.595 57.2236 392.866 0 471.5 0C550.134 0 615.405 57.2236 627.942 132.3C640.479 57.2236 705.751 0 784.385 0C871.984 0 943 71.0144 943 158.615ZM315.058 184.93C303.95 251.448 251.448 303.95 184.93 315.058C251.448 326.165 303.95 378.669 315.058 445.187C326.165 378.669 378.669 326.165 445.187 315.058C378.669 303.95 326.165 251.448 315.058 184.93ZM497.813 315.058C564.331 303.95 616.835 251.448 627.942 184.93C639.05 251.448 691.554 303.95 758.072 315.058C691.554 326.165 639.05 378.669 627.942 445.187C616.835 378.669 564.331 326.165 497.813 315.058ZM627.942 758.072C639.05 691.554 691.554 639.05 758.072 627.942C691.554 616.835 639.05 564.331 627.942 497.813C616.835 564.331 564.331 616.835 497.813 627.942C564.331 639.05 616.835 691.554 627.942 758.072ZM315.058 497.813C326.165 564.331 378.669 616.835 445.187 627.942C378.669 639.05 326.165 691.554 315.058 758.072C303.95 691.554 251.448 639.05 184.93 627.942C251.448 616.835 303.95 564.331 315.058 497.813Z" fill="white"/>
</svg>
