<svg width="903" height="364" viewBox="0 0 903 364" fill="none" xmlns="http://www.w3.org/2000/svg">
<path fill-rule="evenodd" clip-rule="evenodd" d="M903 -420.385C903 -341.749 845.777 -276.48 770.698 -263.942C845.777 -251.405 903 -186.134 903 -107.5C903 -28.866 845.777 36.4053 770.698 48.9424C845.777 61.4795 903 126.751 903 205.385C903 292.984 831.984 364 744.385 364C665.751 364 600.479 306.777 587.942 231.698C575.405 306.777 510.134 364 431.5 364C352.866 364 287.595 306.777 275.058 231.698C262.52 306.777 197.251 364 118.615 364C31.0144 364 -40 292.984 -40 205.385C-40 126.751 17.2236 61.4795 92.3003 48.9424C17.2236 36.4053 -40 -28.866 -40 -107.5C-40 -186.134 17.2236 -251.405 92.3003 -263.942C17.2236 -276.48 -40 -341.749 -40 -420.385C-40 -507.986 31.0144 -579 118.615 -579C197.251 -579 262.52 -521.776 275.058 -446.7C287.595 -521.776 352.866 -579 431.5 -579C510.134 -579 575.405 -521.776 587.942 -446.7C600.479 -521.776 665.751 -579 744.385 -579C831.984 -579 903 -507.986 903 -420.385ZM275.058 -394.07C263.95 -327.552 211.448 -275.05 144.93 -263.942C211.448 -252.835 263.95 -200.331 275.058 -133.813C286.165 -200.331 338.669 -252.835 405.187 -263.942C338.669 -275.05 286.165 -327.552 275.058 -394.07ZM457.813 -263.942C524.331 -275.05 576.835 -327.552 587.942 -394.07C599.05 -327.552 651.554 -275.05 718.072 -263.942C651.554 -252.835 599.05 -200.331 587.942 -133.813C576.835 -200.331 524.331 -252.835 457.813 -263.942ZM587.942 179.072C599.05 112.554 651.554 60.0498 718.072 48.9424C651.554 37.835 599.05 -14.6689 587.942 -81.1873C576.835 -14.6689 524.331 37.835 457.813 48.9424C524.331 60.0498 576.835 112.554 587.942 179.072ZM275.058 -81.1873C286.165 -14.6689 338.669 37.835 405.187 48.9424C338.669 60.0498 286.165 112.554 275.058 179.072C263.95 112.554 211.448 60.0498 144.93 48.9424C211.448 37.835 263.95 -14.6689 275.058 -81.1873Z" fill="white"/>
</svg>
