<?xml version="1.0" encoding="UTF-8"?><svg id="svg188" xmlns="http://www.w3.org/2000/svg" viewBox="0 0 750 434.64"><g id="g1079"><path id="path1046" d="M363.04,369.18v64.64h9.76v-28.08h4.08c4.98,0,9.05,1.51,18,14.77l8.55,13.29h11.46l-5.03-7.51c-1.26-1.73-2.47-3.49-3.63-5.29-5.18-8.04-8.96-14.03-15.11-17.92,7.25-2.74,11.34-8.35,11.34-15.81,0-11.17-8.57-18.09-22.29-18.09h-17.13ZM372.82,377.12h6.26c9.46,0,13.22,3.7,13.33,9.76.08,5.43-2.88,10.51-13.33,10.51l-.02.02h-6.24v-20.29Z"/><path id="path1038" d="M305.57,368.77l-28.59,65h10.32l7.83-19.04h28.32l8.09,19.04h10.55l-29.78-65h-6.73ZM308.8,380.85l10.72,25.54h-20.68l9.96-25.54Z"/><path id="path1034" d="M225.78,369.16v64.64h9.57v-27.98h10.61c15.43,0,22.44-7.93,22.44-18.09s-6.64-18.57-21.19-18.57h-21.44ZM235.37,377.5h11.87c8.69,0,11.29,5.11,11.29,9.83,0,6.47-4.55,10.17-11.68,10.17h-11.48v-20Z"/><path id="path1044" d="M489.38,384.32c0-4.56,4.65-7.68,11.13-7.68,4.78,0,10.58,1.52,16.54,6.74v-10.54c-4.72-2.93-10.15-4.5-15.71-4.53-12.91,0-21.38,6.71-21.38,17.24,0,17.72,30.46,19.24,30.46,32.61,0,3.59-3.61,8.13-11.47,8.13-6.93,0-13.41-3.33-18.59-9.35v11.74c5.89,4.08,12.06,5.98,19.72,5.98,11.36,0,19.72-7.41,19.72-17.53.04-20.57-30.43-20.38-30.43-32.8h0Z"/><path id="path1042" d="M440.05,369.16h9.56v64.64h-9.56v-64.64Z"/></g><g id="g1088"><path id="path1060" d="M472.02,313.24v16.01h46.08v-16.01h-15.11v-80.86h15.11v-16.09h-41.19l-27.28,66.02-.57,3.24-.54-3.29-27.28-65.97h-41.15v16.09h15.07v80.86h-15.1v16.01h46.05v-16h-14.4v-74.36l.11-4.91,1.34,3.91,31.41,75.16h8.93l31.52-75.18,1.15-3.96.17,4.46v74.88"/><path id="path1058" d="M722.83,264.66c-11.36-3.24-19.38-2.5-30.93-6.36-10.43-3.5-12.5-9.91-12.5-14.16s4.61-15.35,21-15.35,27.15,10.85,27.76,20.4l.07-.04v.04h15.76v-32.93h-15.25v7.17l.48,2.24c-.11-.33-.54-1.23-2.15-2.83-.02-.03-.02-.05-.02-.09-4.84-4.35-14.05-9.09-27.91-9.09-16.79,0-36.57,10.41-36.57,30.54s14.17,26.47,26.19,29.64c12.04,3.2,18.18,3.2,28.23,5.91,10.02,2.72,16.52,8.76,16.52,17.72,0,8.48-5.22,19.6-26.43,19.6s-29.64-11.46-32.1-27.85l-.17.08h-15v39.97h15.67v-7.48l-.04-.05-.57-1.98s.57,1.34,2.35,2.58l.15.22c7.93,6.09,18.35,10.13,31.69,10.13,14.89,0,40.95-7.64,40.95-34.7-.04-19.37-10.33-28.5-27.17-33.34h0Z"/><path id="path1056" d="M566.27,200.8l9.15,9.91h32.54l-8.32-9.91h-33.37ZM539.27,216.3v16.09h15.14v80.86h-15.14v16.01h93.04v-37.64h-16.41l-.02,21.63h-44.77v-37.68h38.51v-15.94h-38.53v-27.24h45.13v15.45h15.86v-31.54h-92.81Z"/><path id="path1054" d="M227.7,291.61h-16.41v21.63h-44.78v-37.68h38.53v-15.94h-38.53v-27.24h45.14v15.46h15.87v-31.54h-92.82v16.09h15.14v80.86h-15.15v16.01h93.01"/><path id="path182" d="M67.86,232.38h14.37v27.45H31.13v-27.45h14.3v-16.09H0v16.09h14.46v80.86H0v16.01h45.43v-16.01h-14.31v-37.52h51.1v37.52h-14.36v16.01h45.54v-16.01h-14.5v-80.86h14.51v-16.09h-45.54"/><path id="path1030" d="M252.84,216.25v16.09h14.24v81.03h-14.24v16.01h44.92v-16.03h-14.05v-35.68h31.06c10.71.13,14.85,7.17,15.07,13.22l.79,38.46h31.04v-15.98h-14.52l-.42-23.2c0-6.63-4.43-14.45-10.51-18.13-1.48-.9-3.15-1.45-4.88-1.59,1.48.09,3.47-.02,5.35-.81.06-.02.13-.04.19-.04,6.15-2.74,13.61-10.69,13.61-24.11,0-9.92-4.26-17.93-11.51-23.2-6.78-4.91-14.83-6.03-22.86-6.03h-63.26ZM283.73,232.34h32.54c3.37,0,7.58-.11,10.85,1.55,4,2.03,7.75,6.41,7.75,13.56,0,8.26-7.58,14.69-16.75,14.69v-.02h-34.39v-29.78Z"/></g><g id="g1583"><path id="path1068" d="M275.11,168.73h-63.21c-.22.43-3.11,2.93-4.28,3.7h71.52c-1.48-1.07-2.83-2.31-4.02-3.7Z"/><path id="path1066" d="M157.25,183.21h418.55v-7.83h-269.19c-6.88,3.28-15.61,3.13-22.41,0h-81.73c-7.72,3.39-16.61,3.37-24.35.03l-20.87-.05v7.85Z"/><path id="path1064" d="M575.86,168.8h-8.09c-2.25.43-3.91,2.34-4.1,3.63h12.17v-3.64h.01Z"/><path id="path1062" d="M157.25,168.73v3.7h15.54c-1.54-1.16-3.02-2.39-4.43-3.7h-11.11Z"/><g id="g1569"><path id="path184" d="M486.05,0c-.83-.02-1.47,0-1.78.11-1.23.43-3.59,2.65-3.59,2.65-4.81,1.01-7.72-.56-11.04-2.57,0,0,.71,3.8,4.5,5.41-3.35,1.37-4.83,4.2-5.37,7.75-4.61.93-4.78,5.51-4.18,7.6-3.77,2.25-3.4,5.24-2.06,8.26-3.37,2.26-2.87,5.54-1.91,8.02-2.83,1.74.01,6.56.45,9.38,8.12-1.67,18.25,16.24,32.82,18.45,2.74-12.79-.69-19.05-3.84-25.37,2.37-1.38,4.93-3.29,7.43-5.29,1.46,8.1,2.5,19.82.87,33.22-.11-.11-.21-.19-.28-.3-.91,0-1.83-.62-2.57-.91.15.43,1.82,3.1,1.49,3.59,0,0-4.72,3.13-14.07-.81-2.5,5.85-34.62,20.21-34.62,20.21,1.2,8.87,5.42,14.77,9.76,19.57,6.9,5.11,14.26,7.73,22.97,9.53,1.83,4.72,7.71,20.43,8.26,22.95.59,2.52,2,2.53,2,2.53.84,1.13,3.58,6.13,3.88,8.53l.68,8.47c.29,1.93,2.83.47,3.31,2.12l-1.17,5.71-96.25.02c1.35-6.74-2.08-12.64-.3-18.64-3.87-6.74-14.37-11.38-12.59-20.23,5.11-7.04,20.97-13.93,17.39-22.44,14.42-7.31,22.02,4.89,35.68,3.99,4.76-.26,10.08-.78,14.43-2.06-5.39-4.67-10.55-11.54-13.27-17.68-28.63,11.52-56.46,21.01-87.5,27.3l-2.4-.76c-2.36.36-36.55,8.06-45.62,11.59-2.38-1.43-4.98-2.44-7.71-2.97h.79c2.9,0,7.35-1.56,10.49-2.65,13.28-4.85,18.16-23.75,24.11-35.77,5.22,18.69,17.33,20.22,24.35,17.9l.66,5.86s6.13-.21,10.74-2.06c-.47-1.11-1.09-4.08-1.53-7.98,2.79-1.45,4.31-2.51,5.58-3.25.38,4.43.65,8.62-.68,10.87l15.79-4.2c3.04-13.66,11.3-32.66,25.9-46.53-19.6-7.79-34.27,1.13-38,4.69-18.44,5.89-19.19,31.34-18.64,40.1-3.2.63-16.6,5.28-22.95-17.94,3.7-8.91,10.72-18.83,18.6-26.56.68-.58-.12-1.48-1.7-.55-15.84,10.87-21.63,30-30.14,46.15-6.67,10.03-15.68,15.46-29.19,14.88-16.87-.26-25.03-17.85-32.75-29.27-11.85-25.94-42.49-16.64-65.28-22.18-1.27-.65-3.8-8.16-7.43-7.88-2.58.2-.16,2.87-1.63,3.76-2.86-1.2-5.27-3.29-8.85-2.7-2.25.46-2.86,2.84-2.7,4.95,1.79,8.24,10.64,11.86,17.24,14.86,2.53,3.78,1.58,16.85-.53,21.33-2.72,5-13.4,3.21-15.54,14.67-.41,2.33.11,4.34,1.06,6.24-4.15,2.18-7.66,5.4-10.19,9.34-4.53,1.09-8.97,2.32-13.1,3.8-1.09.39-1.07,1.01.34,1.34,3.17.65,6.43,1.2,9.72,1.61-.76,2.45-1.17,4.99-1.21,7.56.53,14.91,13.06,26.57,27.97,26.04,14.16-.51,25.52-11.86,26.04-26.01,0-3.2-.66-6.24-1.68-9.09,3.11-.54,6.17-1.18,9.17-2.02,1.41-.38,1.34-1.02.23-1.36-4-1.23-8.26-2.19-12.61-2.99-5.03-7.24-13.28-11.56-22.1-11.57-3.48,0-6.76.71-9.79,1.91-.04-.02-.08-.08-.11-.11-1.25-2.25-1.38-4.95-.34-7.3,2.75-4.48,8.85-6.22,13.86-6.64,1.68-.09,5.72.09,6.16.57.98.78,2.66,1.08,4.46.45,1.72.65,2.16,1.15,4.12,1.76,17.22,5.87,36.27,8.97,55.53,5.43,3.01,2.85,4.68,7.86,6.79,11.31.57.87,1.23-.65,10.72-.98,3.35-.13,7.46-.11,11.04-.02-7.39.85-13.74,5-17.51,11-5.93,1.89-10.51,3.69-12.23,4.73-2.11,1.27-2.5,1.98,0,2.63,3.02.79,5.95,1.3,8.87,1.66-.2,1.2-.36,2.42-.36,3.67.26,13.24,11.2,23.76,24.43,23.5,12.87-.25,23.25-10.63,23.5-23.5,0-4.13-1.14-7.97-2.97-11.36,3.02-1.09,6.18-2.28,9.55-3.59,2.61.95,4.39,2.5,6.26,4.67,1.52,1.72,4.96,1.05,7.01.55,3.31-.87,3.82-3.51,3.8-6.52,0-1.37.07-2.71.72-3.8,3.88-8.84,19.39-10.02,27.34-11.97,0,0-4.17,5-7.11,6.11-.6,12.9-5.54,24.12-6.13,36.43,3.75.15,3.6,4.36,4.5,6.75-1.04,2.26-2.86,0-4.5.76-5.7-3.15,1.34-8.24-3.31-12.14,2.39-10.33,6.31-20.39,5.99-31.33-1.49.15-2.06,1.8-2.67,2.99-1.05,10.36-4.06,19.81-6.75,29.4,1.2.6,3.3,1.19,3.16,2.99-3.61,2.25.14,5.86-1.36,8.43h-37.02l-4.1,3.71h56.74l.55-2.1c-8.37-8.69-5.22-21.74-1.34-31.63l9.74-13.18c8.1-3.15,13.05-13.04,21.59-16.2,0,4.21-5.26,6.02-8.11,8.41-2.98,7.04-12.43,7.78-13.78,15.58,3.59,4.2,8.97,6.9,13.48,10.8,4.65,2.86,2.97,8.85,6.73,11.85.61.9,0,2.24-1.06,2.99-3.95.95-3.82,3.62-1.44,5.84,1.52,1.41,3.25,3.25,3.06,3.95h-26.2c0,1.2,1.08,1.65,2.23,3.69h144.67c1.09-2.04-1.28-4.46-2.29-6.47-10.22-3.86-10.16-13.51-10.76-24.16.11-.43-.58-1.46-.47-3.65-1.52-1.43-8.25-18.53-5.2-31.91l2.23-4.39c2.1-3.01-.13-4.63,1.36-7.77l30.5-5.88c.54-.28.38-1.54-.19-2.1l-9.26,1.72c-7.36-3.1-18.15-9.94-25.26-19.23,2.21-15.06,1.11-27.28-.38-35.43,4.46-3.7,8.09-7.2,8.09-7.2,3.08,1.85,3.74.98,4.16-.02-.49-.57-5.04-2.5-4.29-4.48,2.88.76,3.52-.13,3.97-1.74l-2.04-.72h-.06l.34-1.08c.59-1.2,3.29-.06,4.33-.36,1.82-1.11-.21-2.79.4-4.29-4.24-3.59-11.89-3.69-16.52-7.03-1.43-2.67-2.02-3.8-3.52-4.88-1.16-.82-5.24-1.37-7.73-1.42ZM487.86,4.65c.68.02,1.56.35,1.85.55.36.27.06,1.37.04,1.74,0,.37-1.66,1.15-1.66,1.15,0,0-1.55-1.2-1.53-1.57l-.08-.02c.26-.61.55-1.21.89-1.78.06-.02.14-.03.21-.04.09-.01.18-.02.28-.02h0ZM504.01,16.12c.77-.09,2.33.5,3.01.68.46.11.29,1.08.06,1.95-1.13.24-2.9-.38-3.14-.98-.32-.65-.77-1.33-.15-1.61.06-.02.14-.03.21-.04h0ZM502.36,20.47c.59-.02,1.14.02,1.59.15.22,1.27.74,2.73,1.49,3.82-.02.59-3.23,3.54-6.92,6.67-.91-4.53-1.84-7.63-2.06-8.87,1.15-.82,3.8-1.7,5.9-1.76ZM494.78,22.89s1.17,3.54,2.34,9.34c-2.83,2.36-5.75,4.66-7.71,6.01-2.04-4.13-3.7-8.51-3.27-14.9,1.98-.03,4.85,1.27,8.64-.45ZM180.01,63.82c1.07.03,2.3.6,3.14.98,1.14.6,10.12,5.44,12.57,6.11,18.15,4.52,41.08-2.15,55.47,10.89.71.65,1.23,1.28,1.08,2.19-21.12-14.39-52.93,6.88-72.11-13.06-1.35-1.8-3.34-4.55-1.8-6.43.42-.52,1.01-.7,1.66-.68ZM380.91,66.85c-8.02,8.06-7.01,20.11-6.07,29.59-1.85,1.35-4.13,2.46-5.6,3.29-.87-11.63.38-28.97,11.68-32.88ZM501.93,75.56c3.91,4.27,13.25,10.74,19.23,12.86l-17.3,3.21c1.96-7.34-4.71-10.14-1.93-16.07ZM197.23,94.17h.02c1.5.9,2.08,3.3,3.74,4.65,2.7,4.5,7.79,6,10.49,9.89-.91.07-1.83,0-2.72-.21-1.76-.35-2.45-.86-3.93-1.51-.78-1.27-2.74-1.7-4.29-.87-1.23.22-4.64.05-6.9-.55.43-3.61,3.91-7.05,3.59-11.4h0ZM462.94,108.22c9.81,4.52,14.77,3.48,22.12,2.59,1.05,1.35,2.48,2.6,2.48,4.39-8.99,2.55-15.98-.75-24.07-5.12l.02-.02c-6.2-3.11-2.35-.5-.55-1.85h0ZM487.33,117.25c1.3.03,2.4,1.82,3.4,5.88,1.38,4.76,3.05,8.7,4.31,12.67,1.67,4,2.94,9.32,4.22,12.12,0,0,1.13.21,1.76,1.72,3.15,8.8,3.97,10.22,3.44,14.41.76,3.29,5.39.61,4.97,4.67h-9.83l4.33-.04c-2.98-3.15-.88-7.83-5.09-10.23-.58-4.76-.84-8.13-3.04-10.4-1.74-4.74-6.79-17.91-10.38-29.78.68-.67,1.32-1.03,1.91-1.02h0ZM345.23,124.49c-5.3,3.83-2.81,8.33-6.09,9.23-1.2-.17-7.87,1.05-8.92,1.53-2.25-2.1-4.55-3.86-8-4.78,6.58-2.7,17.01-5.38,23.01-5.99ZM189.9,124.66c.08,0,.15,0,.23,0,1.89,0,3.69.29,5.46.72v.02c.4.29.95,1.46.62,2.55l-.74,2.06c-2.01-.09-4-.19-6.01-.17-.52,0-1.02.11-1.55.11l-.51-2.78c-.2-1.28.4-2.11.85-2.31.57-.05,1.1-.16,1.66-.19h0ZM183.98,125.61c.49.05,1.43.8,1.68,1.91l.32,1.76c-1.11-1.02-2.13-2.14-3.06-3.33l1.06-.34ZM199.77,126.91s.06.02.08.02c2.11,1.01,4.07,2.32,5.77,3.91-2.76-.36-5.54-.61-8.32-.76l.55-1.57c.45-1.16,1.4-1.6,1.91-1.59h0ZM180.03,127.14c.93,1.07,2.01,2.12,3.18,3.16-2.11.2-4.21.44-6.28.76-.43-.85-.45-1.63-.21-1.91,1.03-.76,2.14-1.43,3.31-2.02h0ZM295.24,130.47s.1,0,.15,0l.25.02h-.49s.06-.02.08-.02h0ZM296,130.51c2.07.05,4.03.45,5.88,1.08-2.17.28-4.32.63-6.52,1.02l-.02-.76c-.02-.46.31-1.26.66-1.34h0ZM293.07,130.71h.04c.33.13.64.83.64,1.25l.06.96c-3.26.63-6.47,1.34-9.53,2.12-.2-.4-.29-.89-.13-1.1,2.61-1.77,5.66-2.86,8.92-3.23h0ZM189.52,131.72c1.79,0,3.55.06,5.31.11l-2.59,7.2h-.02c-.86.02-1.69.07-2.53.08h-.04l-1.36-7.28c.43-.02.81-.07,1.23-.11h0ZM196.68,131.87c3.11.11,6.12.31,8.94.59-.13.38-.25.78-.55,1.08h-.02l-6.11,5.2c-1.57.11-3.16.17-4.76.23l2.51-7.11ZM186.49,131.94l1.34,7.17c-1.25.02-2.51.02-3.78,0l-5.86-6.41c2.7-.33,5.44-.58,8.3-.76h0ZM314.57,132.85c3.86-.05,7.01.3,9.06,1.15-1.14.54-4.18,1.73-8.28,3.16-1.02-1.54-2.22-2.95-3.57-4.2.96-.05,1.89-.09,2.78-.11h0ZM176.11,133l5.54,6.11c-4-.03-7.86-.22-11.53-.47-.28-.39-.44-.76-.36-.98.71-1.48,1.56-2.84,2.55-4.12,1.23-.22,2.52-.39,3.8-.55h0ZM305.19,133.55c-.04.33-.13.66-.28.96l-4.92,7.47c-1.46.43-2.79.78-4.12,1.1l-.38-8c3.33-.63,6.58-1.16,9.7-1.53h0ZM213.3,133.57c2.04.39,3.91.81,5.5,1.29l.02.02c.85.27,1.14.83.06,1.13-1.13.3-2.52.53-3.82.81-.49-1.15-1.13-2.19-1.76-3.25h0ZM207.86,134.21c.48-.02.84.13.98.3h.02c.67.98,1.22,2.02,1.74,3.1-2.72.4-5.62.69-8.66.93l4.31-3.69c.54-.43,1.14-.62,1.61-.64h0ZM307.36,134.68c.05,0,.1,0,.15,0,1.41,1.11,2.71,2.4,3.8,3.84-2.93.98-5.98,1.91-9,2.82l3.93-5.97c.19-.31.74-.67,1.13-.7h0ZM166.4,134.7c-.6,1.12-1.13,2.27-1.57,3.46-1.55-.18-3.15-.37-4.46-.62-1.11-.2-.84-.82,0-1.13,1.7-.61,3.75-1.18,6.03-1.72h0ZM293.94,135.38l.36,8.11c-1.09.26-1.98.43-2.91.59l-5.52-6.92c2.67-.65,5.37-1.25,8.07-1.78h0ZM284.2,137.54l5.43,6.86-.25.04c-3.52.43-6.82.64-9.93.68l-1.63-.42v.02c-.43-.13-1.08-.71-1.06-1.08.62-1.7,1.41-3.29,2.44-4.73,1.63-.47,3.33-.92,5.01-1.36h0ZM211.15,138.86c.36.92.62,1.87.87,2.84-.02.53-.75,1.44-1.87,1.66l-13.16,2.06c-.16.02-.32-.06-.38-.21-.14-.46-.32-.9-.55-1.32-.11-.14-.06-.28.06-.42l3.91-3.35c3.74-.28,7.45-.71,11.12-1.25h0ZM197.06,140.34l-2.06,1.74c-.11.11-.29.15-.42.04-.3-.27-.62-.51-.98-.7-.17-.09-.21-.22-.15-.4l.17-.51,3.44-.17ZM312.47,140.34c.32.54.63,1.08.89,1.63,0,.38-.6.98-1,1.15l.76-.25-12.21,4.59c-.13.05-.32-.1-.4-.21-.27-.37-.56-.72-.87-1.06-.14-.11-.25-.42-.19-.55l1.06-1.59c3.72-.98,7.71-2.24,11.95-3.69h0ZM173.96,140.51c3.04.17,6.1.25,9.15.25l1.68,1.85c.11.11.16.36.06.49-.27.33-.38.43-.59.83-.08.15-.27.17-.45.11l-9.85-3.52ZM273.52,140.6c-.62,1.39-1.1,2.85-1.46,4.35-1.84-.14-3.65-.45-5.43-.91v-.02c-1.07-.33-.81-.64-.17-.91,2.14-.85,4.55-1.69,7.07-2.5h0ZM187.97,140.72v.02s-.02.13-.08.15c-.45.17-.89.38-1.29.64-.15.11-.32.03-.42-.08l-.62-.68c.8-.02,1.63,0,2.42-.04h0ZM169.76,141.19c.33-.03.67.02,1.02.13l12.42,4.44c.14.04.29.2.25.36-.08.41-.12.82-.13,1.23,0,.17-.12.26-.28.32l-12.99,2.42c-1.28.18-2.17-.44-2.36-.87-.05-.65-.19-1.26-.19-1.91,0-1.88.29-3.69.74-5.46.17-.28.79-.6,1.51-.66h0ZM313.28,144.52c.41-.03.9.05,1.1.25.51,1.78.87,3.63.87,5.58,0,1.3-.14,2.61-.38,3.86-.22.31-1.08.42-1.51.32l-11.78-3.27c-.14-.03-.21-.27-.21-.42v-.35s-.01-.01-.02-.02v-.39s-.01-.04-.02-.06v-.2s-.01-.04-.02-.06v-.15s-.01-.01-.02-.02v-.13c-.03-.15.04-.49.17-.55l11.46-4.32c.1-.04.23-.05.36-.06h0ZM298.23,144.69l-.04.06c-.07.11-.34.12-.49.06l.53-.13ZM210.71,145.1c1.17-.06,1.89.5,2.02.91.02.43.11.88.11,1.32,0,1.88-.28,3.69-.72,5.46h-.02c-.17.41-1.3,1.03-2.46.66l-12.55-4.5c-.14-.04-.28-.22-.25-.38.07-.41.11-.62.11-1.06,0-.17.17-.26.32-.32l13.22-2.06c.08-.01.16-.02.23-.02h0ZM290.86,146.24c-.02.08,0,.15-.04.21-.26.37-.49.76-.7,1.17-.07.14-.33.34-.49.32l-3.97-1.08c1.69-.17,3.41-.31,5.2-.62h0ZM275.81,147.11c1.61.09,3.26.07,4.92.04l8.43,2.31c.11.03.19.27.19.42,0,.33.07,1.19.17,1.57,0,.15-.12.29-.25.34l-11.25,4.97c-.41.16-1.21.16-1.46-.13-.7-2.01-1.07-4.11-1.1-6.24,0-1.13.14-2.21.32-3.27l.04-.02ZM183.32,149.45c.16-.03.32.06.38.21.13.37.19.54.42.93.08.15.03.29-.11.42l-10.3,8.3c-1.11.84-2.3.64-2.57.32-1.18-1.9-2.08-3.96-2.67-6.11.04-.49.79-1.47,1.91-1.72l12.93-2.36ZM196.25,150.6c.08-.02.16,0,.23.04l12.61,4.48c1.3.51,1.64,1.54,1.53,1.95-.98,2-2.24,3.85-3.74,5.5h-.04c-.4.25-1.69.16-2.5-.68l-8.79-9.83c-.11-.11-.16-.33-.04-.47.23-.26.42-.54.57-.85.04-.08.1-.13.17-.15h0ZM185.34,152.34c.08-.01.14.02.21.08.29.27.78.61,1.17.83.16.09.21.23.13.42l-4.46,12.4c-.48,1.25-1.49,1.74-1.93,1.66-2.4-1.14-4.58-2.68-6.45-4.56-.23-.39-.05-1.73.85-2.48l10.27-8.22c.05-.08.13-.12.21-.13h0ZM301.09,152.78s.04,0,.06,0l11.85,3.27c.37.11.97.51,1.1.87-1.01,2.83-2.55,5.43-4.63,7.51-.33.2-1.14-.23-1.44-.55l-8-9.32c-.11-.09-.02-.33.06-.47.21-.32.41-.65.57-1,.07-.12.27-.29.42-.32h0ZM193.83,153.1c.12-.02.24.06.32.15l8.85,9.74c.87,1.02.85,2.19.55,2.55-2.17,1.59-4.63,2.77-7.28,3.52-.48-.07-1.39-.8-1.66-1.89l-2.4-12.97c-.04-.16.03-.38.19-.45.45-.14.89-.34,1.29-.59.04-.03.09-.06.13-.06h0ZM290.06,153.46c.11.03.25.15.32.23.2.24.47.6.74.87.13.11.26.42.19.53l-6.75,10.3c-.24.37-.97.75-1.32.64-2.33-1.8-4.22-4.1-5.54-6.73h-.02c0-.37.6-.93.98-1.1l11.29-4.71s.07-.03.11-.02h0ZM188.8,154.06s.04.02.06.02c.4.08.76.11,1.23.11.18,0,.29.14.32.32l2.42,12.99c.2,1.25-.37,2.07-.81,2.34-.61.04-1.22.17-1.85.17-1.92,0-3.75-.3-5.52-.76h-.02c-.41-.25-.98-1.35-.64-2.46l4.5-12.46c.04-.14.16-.25.3-.25h0ZM298.53,155.54c.11,0,.22,0,.28.06l8.05,9.32c.28.34.55,1.08.36,1.4l-.02.02c-2.71,2.02-5.97,3.3-9.51,3.71-.35-.11-.66-.82-.68-1.25l-.57-12.25c-.02-.13.21-.26.34-.32.3-.11,1.13-.44,1.46-.64.07-.04.18-.06.3-.06h0ZM292.75,155.92c.11-.02.24,0,.34.02.28.09.94.26,1.32.32.15,0,.45.22.45.36l.59,12.29c.02.43-.34,1.19-.7,1.29l.02.02c-3.26-.11-6.29-1.04-8.98-2.53-.22-.3-.14-1.11.11-1.46l6.71-10.23s.08-.07.15-.08h0ZM206.25,163.25h.02s0,.03-.02.04h-.02s0-.03.02-.04ZM284.3,166.88l.08.04-.02.02-.02-.02s-.03-.03-.04-.04h0Z"/><path id="path1028" d="M480.39,67.34c-7.83-5.39-13.89-17.93-22.42-17.09-.83-9.24-4.86-24.92,7.9-41.46,1.65-.76,4.35-1.05,5.39-2.26-5.22-.54-12.09,2.68-17.06-.14,0,0,2.3,4.02,4.98,4.63-1.76,2.39-5.17,4.1-3.1,8.26-4.26,2.53-2.65,6.33-1.34,8.37-2.13,2.2-3.42,6.14-.6,8.54-3.48,3.73.84,6.89,1.85,8.15-1.76,3.73-.07,6.61-.07,6.61-.07,2.68-4.85,6.52-6.58,7.76-2.07,6.3-1.27,18.99-.96,27.39,11.63-5.56,23.04-10.87,32-18.77h0Z"/><path id="path1024" d="M394.28,104.89c18.59-5.22,31.41-9.67,46.81-16.14-6.41-13.69-5-17.65-4.46-26.41,0,0-7.83.11-16.92-2.3-10.78,6.96-23.37,31.85-25.43,44.84h0Z"/><path id="path1022" d="M444.47,86.96c-.47-6.41,2.17-11.85-.82-18.69.03-2.83,2.01-5,1.48-7.61l-4.86,1.17c-.74,5.39-1.63,7.17-.9,12.25,1.28,5.81,1.93,11.11,5.09,12.89h.01Z"/></g><g id="g1563"><path id="path1214" d="M559.3,72.05c-.46.38-.61.9-.24.98.7.13,1.09.37,1.89,1.11.43.22.33-.46.22-.83-.43-1.04-1.35-1.67-1.85-1.26h-.02Z"/><path id="path186" d="M566.91,60.93c-1.89,1.04-3.15,3.16-6.62,5.86-.11.14-4.18-1.41-5.41-.11-1.2.98-.77,4.13,1.42,5.84-.27.84-.52,1.15-.98,2.17-.24.5-.36,1.04-.04,1.34.72.65.98,1.65.47,3.21-.54,1.65,1.3,2.88,1.95,3.12.11.03.33.25.55.53.24,1.83-5.97,5.1-5.97,6.52-.49,4.27-3.14,3.86-5.73,17.9.33,3.4.28,6.4.04,9.09-3.17,8.39-5.77,13.23-7.92,19.3-1.78,5,8.21,19.47,8.36,29.34-2.17,3.26-3.89,2.8-4.03,3.78h-21.38c-.27,1.45,1.42,2.51,2.4,3.63h23.33l6.52-3.18c1.15-2.83-1.17-5.32-1.08-7.6.39-6.8-3.41-13.58-5.41-19.81,1.3-1.38,2.93-4.56,5.07-3.71,5,7.78,5.94,17.71,5.09,27.6-.51,2.45-4.67,4.68-4.54,6.98.08.8,5.53.46,7.79-1.46.4-1.59,3.34-3.55,4.29-3.78,1.04-2.99-.58-2.89-.32-4.69.52-1.25-.19-14.73-1.13-16.18-.35-.22-.47-.22-.49-.19-1.04-2.67,1.5-6.77,2.53-9.3l7.45-.68c-.89-6.63-3.26-13.51-4.76-20.31.91-1.59,2.56-2.83,4.08-3.74,7.86-5.18.94-13.54.68-20-1.34-3.35-5.94-5.96-6.37-9.66.96.74,1.68.43,1.89.49,2.25-1.54,2.14-3.77,1.02-6.56,3.41-4.06,5.5-5.92,6.13-7.22-.22-3.4-5.69-8.49-8.89-8.49h0ZM558.61,69.59c5.46.22,4.23,2.64,4.37,3.08.43,1.17,2.72,3.69,3.84,4.48-.33,3.3-2.91,1.36-1.76,4.37-.3,5.72-7.1,5.01-10,9.7-.29-4.64,3.79-4.64,4.25-6.54.28-.23.54-.92.7-1.17,3.29-2.11,1.02-.59-2.25-2.31-1.07-.54-1.09-1.57-.96-3.01.2-1.79-.55-2.14-.83-2.72-.11-.24.4-1.12.83-1.74.76-1.15,1.45-3.55,1.8-4.14h0ZM553.09,109.27l.02.02c1.48,1.34,3.03,3.01,4.16,3.29.78,1.96-1.61,2.24-2.48,3.16-2.03.3-2.81-1.85-3.99-.87-.27.22-1.49-.04-1.46-.28.65-1.74,2.46-4.24,3.76-5.33h0ZM559.61,114.61c1.57-.07,2.56.96,2.67,2.48l-3.04,4.73c5.76.22-1.86,9.49,5.75,7.79-.25,3.48-2.1,13.23-3.44,12.74-1.04-5.4-1.91-3.16-1.91-1.57.22,2.1.18,3.8,1.42,5.5-.41.43-1.96.39-2.4.49-4.3-6.14-4.13-14.55-6.9-21.23-.47-.02-1.04.53-1.02,1.02-.33,4.02-1.9,9.83-5.2,11.74-2.07,1.22,4.54.49-.87,3.04,2.07,1.37.17,3.23-2.1,3.23-1.13-2.4-2.02-4.41-2.36-6.16-.74-3.96,4.51-10.14,8-22.18,1.43-.5,2.18,2.8,4.22,1.53,3.15.08,1.82,8.29,4.76,3.08-.07-2.3-.13-4.91,1.7-6.13.25-.06.48-.07.7-.08h0ZM546.62,145.73c.98,1.09,1.94,3.1,2.08,4.88-.71.38-1.67,1.05-2.76,1.13-.78-.91-1.99-3.57-2.48-4.71l3.16-1.29ZM559.78,148.69c.76-.03,1.59.19,2.1.11,1.01,4.67,1.25,5.31-2.65,4.99v-.02c-.51-1.34-.94-3.23-.68-4.63.33-.31.77-.43,1.23-.45h0Z"/></g></g></svg>