<svg id="Calque_1" data-name="Calque 1" xmlns="http://www.w3.org/2000/svg" viewBox="0 0 336.14 448.22"><path d="M56,168.14c0-18.24.1-35.87,0-53.51a120.27,120.27,0,0,1,8-43.94C82.1,23,135.82-7.83,185.92,1.74c48.92,9.34,79.37,39,91.54,87.07,2.1,8.28,2.35,17.15,2.53,25.77.37,17.63.11,35.27.11,53.56h12.11c25.84.12,43.85,17.91,43.88,43.6q.09,96.5,0,193c0,25.45-18,43.44-43.5,43.45q-124.48.09-249,0c-25.5,0-43.53-18-43.56-43.4Q-.06,308,.06,211.31c0-25.12,18.12-43,43.31-43.16C47.35,168.12,51.34,168.14,56,168.14Zm186.86-.22c0-14.24.17-27.89-.05-41.52-.15-9.14.06-18.43-1.44-27.39C235,61.11,200.13,34.6,161.73,37.9,125.4,41,96.41,69.41,94,105.69c-1.32,20.24-.54,40.61-.68,60.92,0,.44.37.87.57,1.31Zm-93.65,167c0,6.16-.09,12.32,0,18.48.14,7.66,2.86,14.16,10,17.73,13.52,6.79,27.3-2.09,27.59-17.77.24-12.15.14-24.31,0-36.46a7.64,7.64,0,0,1,3.42-7c20.21-15.6,20.09-44.11-.09-59.61-14.41-11.08-36.95-9.17-49.18,4.17-13.09,14.28-14.27,36.86-.56,49.69,7.83,7.33,9.88,14.71,8.86,24.28A63.83,63.83,0,0,0,149.25,334.91Z" style="fill:#434343"/></svg>