<?xml version="1.0" encoding="UTF-8"?><svg xmlns="http://www.w3.org/2000/svg" viewBox="0 0 1184.7 1184.7"><g id="Layer_1" style="opacity:.2;"><polygon points="1184.7 592.35 978.11 730.06 978.11 454.63 1184.7 592.35" style="fill:#6a4841;"/><polygon points="592.35 1184.7 454.63 978.11 730.06 978.11 592.35 1184.7" style="fill:#6a4841;"/><polygon points="206.59 730.06 0 592.35 206.59 454.63 206.59 730.06" style="fill:#6a4841;"/><polygon points="730.06 206.59 454.63 206.59 592.35 0 730.06 206.59" style="fill:#6a4841;"/><path d="M689.44,689.44h150.38c8.04-.04,14.56-6.56,14.6-14.6v-164.98c-.04-8.04-6.56-14.56-14.6-14.6h-150.38s0-150.38,0-150.38c-.04-8.04-6.56-14.56-14.6-14.6h-164.98c-8.04.04-14.56,6.56-14.6,14.6v150.38h-150.38c-8.04.04-14.56,6.56-14.6,14.6v164.98c.04,8.04,6.56,14.56,14.6,14.6h150.38s0,150.38,0,150.38c0,4.04,1.65,7.67,4.29,10.31s6.27,4.29,10.31,4.29h164.98c8.04-.04,14.56-6.56,14.6-14.6v-150.38ZM524.46,825.21v-150.38c0-4.04-1.65-7.67-4.29-10.31s-6.27-4.29-10.31-4.29h-150.38s0-135.78,0-135.78h150.38c8.04-.04,14.56-6.56,14.6-14.6v-150.38s135.78,0,135.78,0v150.38c.04,8.04,6.56,14.56,14.6,14.6h150.38s0,135.78,0,135.78h-150.38c-8.04.04-14.56,6.56-14.6,14.6v150.38s-135.78,0-135.78,0Z" style="fill:#6a4841;"/><path d="M660.24,674.84v150.38s-135.78,0-135.78,0v-150.38c0-4.04-1.65-7.67-4.29-10.31s-6.27-4.29-10.31-4.29h-150.38s0-135.78,0-135.78h150.38c8.04-.04,14.56-6.56,14.6-14.6v-150.38s135.78,0,135.78,0v150.38c.04,8.04,6.56,14.56,14.6,14.6h150.38s0,135.78,0,135.78h-150.38c-8.04.04-14.56,6.56-14.6,14.6Z" style="fill:#6a4841;"/></g></svg>