<svg width="98" height="39" viewBox="0 0 98 39" fill="none" xmlns="http://www.w3.org/2000/svg">
<path d="M12.0317 10.6865C10.133 10.6865 8.27698 11.2468 6.69827 12.2966C5.11956 13.3464 3.88911 14.8384 3.16251 16.5842C2.43591 18.3299 2.2458 20.2508 2.61621 22.104C2.98663 23.9573 3.90094 25.6596 5.24352 26.9957C6.5861 28.3318 8.29666 29.2417 10.1589 29.6104C12.0211 29.979 13.9513 29.7898 15.7055 29.0667C17.4597 28.3436 18.959 27.1191 20.0138 25.548C21.0687 23.9769 21.6317 22.1298 21.6317 20.2402C21.6317 17.7064 20.6203 15.2764 18.8199 13.4847C17.0196 11.693 14.5778 10.6865 12.0317 10.6865ZM12.0317 24.2106C11.2427 24.2106 10.4713 23.9777 9.81523 23.5415C9.15914 23.1052 8.64778 22.4851 8.34582 21.7596C8.04386 21.0341 7.96485 20.2358 8.11879 19.4656C8.27273 18.6954 8.6527 17.988 9.21066 17.4327C9.76861 16.8775 10.4795 16.4993 11.2534 16.3461C12.0273 16.1929 12.8295 16.2716 13.5585 16.5721C14.2875 16.8726 14.9106 17.3815 15.349 18.0344C15.7873 18.6873 16.0213 19.4549 16.0213 20.2402C16.0213 20.7616 15.9181 21.2779 15.7176 21.7596C15.5171 22.2413 15.2233 22.679 14.8528 23.0477C14.4823 23.4164 14.0425 23.7088 13.5585 23.9084C13.0744 24.1079 12.5557 24.2106 12.0317 24.2106Z" fill="white"/>
<path d="M23.7687 11.9161C23.7687 11.9161 27.5751 12.0104 27.7409 12.0104C27.9067 12.0104 34.1641 19.868 34.1641 19.868L34.1841 16.1458V11.9161H39.1624V28.9254L34.8087 28.9676L28.8629 21.6782V28.9056L23.7687 28.9254V11.9161Z" fill="white"/>
<path d="M64.9115 11.9161C64.9115 11.9161 68.7179 12.0104 68.8837 12.0104C69.0495 12.0104 75.3069 19.868 75.3069 19.868L75.3269 16.1458V11.9161H80.3064V28.9254L75.9515 28.9676L70.0058 21.6782V28.9056L64.9115 28.9254V11.9161Z" fill="white"/>
<path d="M41.9127 11.9161H47.179V24.5716H54.743V28.9304H41.9127V11.9161Z" fill="white"/>
<path d="M56.9935 11.9161H62.2597V28.9254H56.9935V11.9161Z" fill="white"/>
<path d="M83.1327 11.9161H97.2796V16.276H88.3977V18.3965H96.4655V22.4463H88.3977V24.5667H97.5427V28.9254H83.1327V11.9161Z" fill="white"/>
<path d="M15.0466 -0.000140919L0.457336 8.17419L2.96879 12.6135L17.5581 4.43912L15.0466 -0.000140919Z" fill="white"/>
<path d="M3.98517 34.5571H6.99732V35.2135H4.75317V36.35H6.72179V36.9703H4.74943V38.8972H3.98517V34.5571Z" fill="white"/>
<path d="M19.9973 36.7272C19.9973 37.9679 19.2156 39.0002 17.9078 39.0002C16.5999 39.0002 15.8182 37.9667 15.8182 36.7272C15.8182 35.4877 16.5999 34.4578 17.9078 34.4578C19.2156 34.4578 19.9973 35.4864 19.9973 36.7272ZM16.5825 36.7272C16.5825 37.5597 16.9727 38.3811 17.9078 38.3811C18.8428 38.3811 19.2331 37.5597 19.2331 36.7272C19.2331 35.8946 18.8428 35.0782 17.9078 35.0782C16.9727 35.0782 16.585 35.8946 16.585 36.7272H16.5825Z" fill="white"/>
<path d="M29.1359 34.5571H31.2192C32.1718 34.5571 32.6605 34.9951 32.6605 35.7296C32.6605 36.5634 32.0808 36.7755 31.9399 36.8239V36.8363C32.2029 36.8736 32.5882 37.0671 32.5882 37.7545C32.5882 38.2595 32.6605 38.721 32.8263 38.8972H32.0072C31.8912 38.7086 31.8912 38.4716 31.8912 38.2595C31.8912 37.4629 31.7267 37.1105 31.0185 37.1105H29.8964V38.8972H29.1322L29.1359 34.5571ZM29.9002 36.5324H31.1469C31.6294 36.5324 31.895 36.2954 31.895 35.84C31.895 35.2867 31.5347 35.1775 31.137 35.1775H29.9002V36.5324Z" fill="white"/>
<path d="M41.8678 34.5571H42.9425L44.1456 37.9555H44.158L45.3312 34.5571H46.3935V38.8997H45.6666V35.5497H45.6554L44.446 38.8997H43.8164L42.6071 35.5497H42.5946V38.8997H41.8678V34.5571Z" fill="white"/>
<path d="M56.9199 34.5571H57.7278L59.4071 38.8997H58.6005L58.1916 37.7508H56.4461L56.0372 38.8997H55.2467L56.9199 34.5571ZM56.6518 37.1713H57.9834L57.3301 35.304H57.3114L56.6518 37.1713Z" fill="white"/>
<path d="M68.2714 34.5571H70.1951C71.4419 34.5571 71.68 35.3599 71.68 35.9008C71.68 36.4418 71.4419 37.2371 70.1951 37.2321H69.0344V38.8972H68.2714V34.5571ZM69.0344 36.6118H70.1565C70.4981 36.6118 70.9195 36.4418 70.9195 35.8946C70.9195 35.3226 70.5716 35.1775 70.1714 35.1775H69.0419L69.0344 36.6118Z" fill="white"/>
<path d="M80.7927 34.5571H82.8747C83.8285 34.5571 84.3172 34.9951 84.3172 35.7296C84.3172 36.5634 83.7362 36.7755 83.5966 36.8239V36.8363C83.8584 36.8736 84.2437 37.0671 84.2437 37.7545C84.2437 38.2595 84.3172 38.721 84.4818 38.8972H83.6602C83.5442 38.7086 83.5442 38.4716 83.5442 38.2595C83.5442 37.4629 83.3797 37.1105 82.6778 37.1105H81.5557V38.8972H80.7927V34.5571ZM81.5557 36.5324H82.8024C83.2849 36.5324 83.5505 36.2954 83.5505 35.84C83.5505 35.2867 83.1902 35.1775 82.7937 35.1775H81.5532L81.5557 36.5324Z" fill="white"/>
<path d="M97.4778 36.7272C97.4778 37.9679 96.6961 39.0002 95.3882 39.0002C94.0804 39.0002 93.2999 37.9667 93.2999 36.7272C93.2999 35.4877 94.0816 34.4578 95.3882 34.4578C96.6948 34.4578 97.4778 35.4864 97.4778 36.7272ZM94.0629 36.7272C94.0629 37.5597 94.4544 38.3811 95.3882 38.3811C96.3221 38.3811 96.7148 37.5597 96.7148 36.7272C96.7148 35.8946 96.3233 35.0782 95.3882 35.0782C94.4532 35.0782 94.0629 35.8946 94.0629 36.7272Z" fill="white"/>
</svg>
