<svg id="Calque_1" data-name="Calque 1" xmlns="http://www.w3.org/2000/svg" viewBox="0 0 429.06 426.51"><title>footer-tutorat-chat</title><path d="M3.5,325.47V37.79A34.06,34.06,0,0,1,37.56,3.73H304.89a34.06,34.06,0,0,1,34.11,34v179a34.05,34.05,0,0,1-34,34.06H91.66Z" transform="translate(0 0)" style="fill:none;stroke:#fff;stroke-miterlimit:10;stroke-width:7px"/><line x1="75.22" y1="86.93" x2="271.13" y2="86.93" style="fill:none;stroke:#fff;stroke-linecap:round;stroke-miterlimit:10;stroke-width:7px"/><line x1="75.13" y1="141.15" x2="215.13" y2="141.15" style="fill:none;stroke:#fff;stroke-linecap:round;stroke-miterlimit:10;stroke-width:7px"/><path d="M4,325.24V37.56A34.06,34.06,0,0,1,38.06,3.5H305.4a34.06,34.06,0,0,1,34.06,34.06V216.48a34.05,34.05,0,0,1-34,34.06H92.17Z" transform="translate(0 0)" style="fill:none;stroke:#fff;stroke-miterlimit:10;stroke-width:7px"/><path d="M366.86,120.57h24.6a34.1,34.1,0,0,1,34.1,34.1h0V419.52L351.18,363.9H154.78a34.1,34.1,0,0,1-34.09-34.1V294.24" transform="translate(0 0)" style="fill:none;stroke:#fff;stroke-linecap:round;stroke-miterlimit:10;stroke-width:7px"/></svg>