<svg id="icons" xmlns="http://www.w3.org/2000/svg" viewBox="0 0 40 35"><path d="M9,14V4a3,3,0,0,1,3-3H36a3,3,0,0,1,3,3V17a3,3,0,0,1-3,3H28l-7.29,7.29a1,1,0,0,1-1.71-.7V20H15" style="fill:none;stroke:#fff;stroke-miterlimit:10;stroke-width:2px"/><path d="M17,35V32.39C17,29.6,11.23,28,9,28s-8,1.6-8,4.39V35" style="fill:none;stroke:#fff;stroke-miterlimit:10;stroke-width:2px"/><path d="M9,16a4,4,0,0,0-4,4v1a4,4,0,0,0,8,0V20A4,4,0,0,0,9,16Z" style="fill:none;stroke:#fff;stroke-miterlimit:10;stroke-width:2px"/><line x1="19" y1="11" x2="21" y2="11" style="fill:none;stroke:#fff;stroke-miterlimit:10;stroke-width:2px"/><line x1="23" y1="11" x2="25" y2="11" style="fill:none;stroke:#fff;stroke-miterlimit:10;stroke-width:2px"/><line x1="27" y1="11" x2="29" y2="11" style="fill:none;stroke:#fff;stroke-miterlimit:10;stroke-width:2px"/></svg>