<?xml version="1.0" encoding="UTF-8"?><svg id="Layer_1" xmlns="http://www.w3.org/2000/svg" viewBox="0 0 158.74 134.71"><g><path d="m29.22,91.25H2.89c-1.32,0-2.39-1.07-2.39-2.39v-48.66c0-1.32,1.07-2.39,2.39-2.39h26.32c1.32,0,2.39,1.07,2.39,2.39v48.66c0,1.32-1.07,2.39-2.39,2.39h.01Zm-23.93-4.79h21.54v-43.87H5.29s0,43.87,0,43.87Z" style="fill:#fff; stroke:#fff; stroke-miterlimit:10;"/><path d="m105.4,134.21c-.4,0-.81-.1-1.17-.31L28.05,91.13c-1.15-.65-1.56-2.11-.92-3.26.65-1.15,2.11-1.56,3.26-.91l72.62,40.77V6.74L30.27,42.53c-1.18.58-2.62.1-3.2-1.09-.58-1.19-.1-2.62,1.09-3.2L104.35.74c.74-.36,1.62-.32,2.32.12.7.44,1.13,1.21,1.13,2.03v128.92c0,.85-.45,1.64-1.18,2.06-.37.22-.79.33-1.21.33h0Z" style="fill:#fff; stroke:#fff; stroke-miterlimit:10;"/></g><g id="Calque_2"><polygon points="115.79 47.28 158.02 88.94 155.26 91.66 113.03 50 115.79 47.28" style="fill:#fff; stroke:#fff; stroke-miterlimit:10; stroke-width:1px;"/><polygon points="113.04 88.93 155.27 47.27 158.03 49.99 115.8 91.65 113.04 88.93" style="fill:#fff; stroke:#fff; stroke-miterlimit:10; stroke-width:1px;"/></g></svg>