<?xml version="1.0" encoding="UTF-8"?><svg id="Layer_1" xmlns="http://www.w3.org/2000/svg" viewBox="0 0 168.5 134.71"><path d="m29.22,91.25H2.89c-1.32,0-2.39-1.07-2.39-2.39v-48.66c0-1.32,1.07-2.39,2.39-2.39h26.32c1.32,0,2.39,1.07,2.39,2.39v48.66c0,1.32-1.07,2.39-2.39,2.39Zm-23.93-4.79h21.54v-43.87H5.29v43.87Z" style="fill:#fff; stroke:#fff; stroke-miterlimit:10;"/><path d="m105.4,134.21c-.4,0-.81-.1-1.17-.31L28.05,91.13c-1.15-.65-1.56-2.11-.92-3.26.65-1.15,2.11-1.56,3.26-.91l72.62,40.77V6.74L30.27,42.53c-1.18.58-2.62.1-3.2-1.09-.58-1.19-.1-2.62,1.09-3.2L104.35.74c.74-.36,1.62-.32,2.32.12.7.44,1.13,1.21,1.13,2.03v128.92c0,.85-.45,1.64-1.18,2.06-.37.22-.79.33-1.21.33Z" style="fill:#fff; stroke:#fff; stroke-miterlimit:10;"/><path d="m124.05,99.56c-.59,0-1.18-.22-1.64-.65-.96-.91-1.01-2.42-.1-3.38,7.93-8.4,12.3-19.39,12.3-30.94s-4.4-22.63-12.4-31.05c-.91-.96-.87-2.47.09-3.38.96-.91,2.47-.87,3.38.09,8.84,9.31,13.72,21.5,13.72,34.34s-4.83,24.94-13.61,34.23c-.47.5-1.1.75-1.74.75Z" style="fill:#fff; stroke:#fff; stroke-miterlimit:10;"/><path d="m143.92,121.56c-.59,0-1.18-.22-1.64-.65-.96-.91-1-2.42-.1-3.38,13.56-14.36,21.03-33.14,21.03-52.91s-7.53-38.7-21.2-53.08c-.91-.96-.87-2.47.09-3.38.96-.91,2.47-.87,3.38.09,14.52,15.28,22.52,35.3,22.52,56.38s-7.93,40.94-22.34,56.19c-.47.5-1.1.75-1.74.75Z" style="fill:#fff; stroke:#fff; stroke-miterlimit:10;"/></svg>