<svg id="Layer_1" data-name="Layer 1" xmlns="http://www.w3.org/2000/svg" viewBox="0 0 2187.31 402.73"><path d="M939,112.43c0-38.38,182.93-112,562-112s686.36,46.52,686.36,112.05S1880,231.08,1501,231.08,939,178,939,112.43Z" style="fill:#141414"/><path d="M0,95C0,62.47,155.12,0,476.55,0s582,39.45,582,95S798,195.63,476.55,195.63,0,150.58,0,95Z" style="fill:#141414"/><path d="M79.77,252.32c0-48.65,231.89-142,712.4-142s870,59,870,142-389.53,150.41-870,150.41S79.77,335.39,79.77,252.32Z" style="fill:#141414"/></svg>