<?xml version="1.0" encoding="UTF-8"?><svg id="One_icon" xmlns="http://www.w3.org/2000/svg" viewBox="0 0 500 480"><path id="icon" d="M100.39,313.85l90.59-156.85h-86.58c-26.55,45-29.63,105.75-4.01,156.85ZM110.33,147.91l181.14.02-43.27-74.95c-27.91.21-56.14,7.38-82.04,22.33-23.25,13.42-42.01,31.62-55.83,52.6ZM394.75,323c26.55-45,29.63-105.75,4.01-156.85l-90.59,156.85h86.58ZM259.53,73.27l90.56,156.86,43.26-74.93c-29.21-49.66-80.22-78.67-133.82-81.92ZM388.83,331.68l-181.14-.02,43.27,74.95c27.91-.21,56.14-7.38,82.04-22.33,23.25-13.42,42.01-31.62,55.83-52.6ZM105.8,324.4c29.21,49.66,80.22,78.67,133.82,81.92l-90.56-156.86-43.26,74.93ZM483.5,337.94c-9.2,0-16.5,7.46-16.5,16.66v83.83c0,3.31-3.33,8.56-5.11,8.56h-98.95c-9.2,0-16.66,7.3-16.66,16.5s7.46,16.5,16.66,16.5h100.08c20.93,0,36.98-21.35,36.98-41.56v-83.83c0-9.2-7.3-16.66-16.5-16.66ZM463.02,0h-100.08c-9.2,0-16.66,7.3-16.66,16.5s7.46,16.5,16.66,16.5h100.08c1.34,0-.02,1.71,3.98,1.79v93.18c0,9.2,7.3,16.66,16.5,16.66s16.5-7.46,16.5-16.66V31.84c0-7.16-3.05-31.84-36.98-31.84ZM16.49,144.64c9.2,0,16.58-7.46,16.58-16.66l-.04-94.02c.82-.07,1.81-.95,3.1-.95h100.17c9.2,0,16.66-7.3,16.66-16.5S145.51,0,136.3,0H36.13C2.29,0,0,24.68,0,31.84v96.13c0,9.2,7.29,16.66,16.49,16.66ZM136.3,447H37.29c-1.76,0-3.29-5.26-3.29-8.56v-83.83c0-9.2-7.8-16.66-17-16.66s-17,7.46-17,16.66v83.83c0,20.21,15.26,41.56,36.13,41.56h100.17c9.2,0,16.66-7.3,16.66-16.5s-7.46-16.5-16.66-16.5Z" style="fill:#eb7d21; stroke-width:0px;"/></svg>