<?xml version="1.0" encoding="UTF-8"?><svg id="Artwork" xmlns="http://www.w3.org/2000/svg" viewBox="0 0 105.23 159.33"><path d="m97.86,117.75v-18.4h0s0-.02,0-.02V4.67c0-2.58-2.09-4.67-4.67-4.67s-4.67,2.09-4.67,4.67v90.01H16.71V4.67c0-2.58-2.09-4.67-4.67-4.67s-4.67,2.09-4.67,4.67v94.66h0s0,.02,0,.02v18.4C2.91,119.63,0,124,0,128.85v25.82c0,2.58,2.09,4.67,4.67,4.67h14.76c2.58,0,4.67-2.09,4.67-4.67h0v-25.82c0-4.85-2.91-9.22-7.38-11.1v-13.74h71.82v13.74c-4.47,1.88-7.37,6.25-7.38,11.1v25.82c0,2.58,2.09,4.67,4.67,4.67h14.76c2.58,0,4.67-2.09,4.67-4.67h0v-25.82c0-4.85-2.91-9.22-7.38-11.1ZM14.75,150h-5.42v-21.15c0-1.5,1.22-2.71,2.71-2.71,1.5,0,2.71,1.21,2.71,2.71v21.15Zm81.15,0h-5.42v-21.15c0-1.5,1.21-2.71,2.71-2.71s2.71,1.21,2.71,2.71v21.15Z" style="fill:#ff3000;"/></svg>