<?xml version="1.0" encoding="UTF-8"?><svg id="Artwork" xmlns="http://www.w3.org/2000/svg" viewBox="0 0 149.34 149.32"><path d="m138.4,57.6c-6.98-7.02-16.49-10.96-26.39-10.93h-18.67c-20.62,0-37.33,16.72-37.33,37.33,0,20.61,16.71,37.32,37.33,37.33h2.73l26.63,26.63c1.82,1.82,4.78,1.82,6.6,0,.88-.88,1.37-2.06,1.37-3.3v-28.44c11.5-6.66,18.6-18.93,18.66-32.21h0c.03-9.91-3.91-19.42-10.93-26.41Zm-14.39,51.58c-1.63.77-2.67,2.41-2.67,4.22v19.99l-20.03-20.03c-.88-.87-2.06-1.37-3.3-1.37h-4.67c-15.46,0-27.99-12.55-27.99-28.01,0-15.45,12.53-27.98,27.99-27.99h18.67c15.43-.03,27.96,12.45,27.99,27.87.02,10.82-6.21,20.68-15.99,25.31h0ZM10.02,31.12c-2.94,12.77,3.44,25.86,15.32,31.4,1.63.77,2.67,2.41,2.67,4.22v19.99l10.7-10.7c1.82-1.82,4.77-1.83,6.6,0,1.82,1.82,1.83,4.77,0,6.6,0,0,0,0,0,0l-18.67,18.67c-1.82,1.82-4.78,1.82-6.6,0-.88-.88-1.37-2.06-1.37-3.3v-28.43C.84,59.29-5.29,36.51,4.98,18.67,11.62,7.12,23.94,0,37.27,0c.03,0,.06,0,.09,0h18.65c16.49.08,31,10.89,35.79,26.66.74,2.47-.67,5.07-3.14,5.81s-5.07-.67-5.81-3.14h0c-3.59-11.83-14.48-19.94-26.84-20h-18.73c-13.08-.06-24.44,9.01-27.25,21.78Z" style="fill:#333;"/></svg>