<?xml version="1.0" encoding="UTF-8"?><svg id="Main" xmlns="http://www.w3.org/2000/svg" viewBox="0 0 278.85 216.33"><path d="m201.92,211.53c-1.69,0-3.35-.49-4.95-1.47l-79.42-52.2,5.28-8.04,79.29,52.12,17.16-49.69,9.07,3.18-17.4,49.68c-1.38,3.85-5,6.42-9.02,6.42Z" style="fill:#fff;"/><polygon points="83.67 213.84 75.82 208.3 116.85 150.37 269.48 2.96 276.16 9.88 123.86 156.98 83.67 213.84" style="fill:#fff;"/><rect x="53.32" y="57.6" width="233.78" height="9.61" transform="translate(-9.11 89.07) rotate(-28.59)" style="fill:#fff;"/><path d="m81.73,216.33c-4.83,0-8.9-3.66-9.47-8.5l-9.17-86.4L5.07,90.11c-3.14-1.72-5.07-4.93-5.07-8.39,0-4.28,2.81-7.96,6.99-9.16L266.66.33c6.24-1.67,12.19,3.13,12.19,9.27,0,1.06-.18,2.16-.53,3.16l-51.65,147.47-9.07-3.17L269.24,9.6,9.6,81.81l62.51,33.56,9.7,91.39,60.59-40.57,5.33,8-60.77,40.49c-1.7,1.11-3.45,1.66-5.24,1.66Z" style="fill:#fff;"/></svg>