<?xml version="1.0" encoding="UTF-8"?><svg id="Artwork" xmlns="http://www.w3.org/2000/svg" viewBox="0 0 149.35 93.33"><path d="m145.47,36.59C129.13,18.62,101.91-.42,74.67,0c-.3,0-.6,0-.89,0C46.78,0,20.03,18.82,3.87,36.61c-5.16,5.71-5.16,14.41.01,20.11,16.15,17.79,42.89,36.61,69.9,36.61.29,0,.6,0,.89,0,.3,0,.59,0,.89,0,26.99,0,53.75-18.83,69.92-36.63,5.16-5.71,5.16-14.41-.01-20.11Zm-6.91,13.85c-14.98,16.48-39.63,33.94-63.82,33.55h-.16c-.28,0-.55,0-.83,0-23.94,0-48.17-17.26-62.96-33.54-1.95-2.15-1.95-5.43-.01-7.59C33.28,18.11,57.97,9.33,73.88,9.33c.24,0,.48,0,.71,0h.16c.24,0,.47,0,.71,0,15.9,0,40.59,8.78,63.09,33.52,1.95,2.15,1.95,5.43.01,7.59h0Zm-63.89-31.78h0c-15.46,0-28,12.53-28,28,0,15.46,12.53,28,28,28h0c15.46,0,28-12.53,28-28s-12.53-28-28-28h0Zm18.66,28.01c-.01,10.3-8.36,18.65-18.67,18.66h0c-10.31,0-18.67-8.36-18.67-18.67,0-10.31,8.36-18.67,18.67-18.67h0c10.31,0,18.66,8.36,18.66,18.67h0Z" style="fill:#ff3000;"/></svg>