<?xml version="1.0" encoding="UTF-8"?><svg id="Artwork" xmlns="http://www.w3.org/2000/svg" viewBox="0 0 149.33 149.33"><circle cx="73.67" cy="73.67" r="73" style="fill:#ff3000;"/><path d="m74.67,0C33.43,0,0,33.43,0,74.67s33.43,74.67,74.67,74.67,74.67-33.43,74.67-74.67h0C149.29,33.45,115.88.05,74.67,0Zm0,140c-36.08,0-65.33-29.25-65.33-65.33S38.58,9.33,74.67,9.33s65.33,29.25,65.33,65.33h0c-.04,36.07-29.27,65.29-65.33,65.33Zm31.3-40.63c1.82,1.82,1.82,4.78,0,6.6s-4.78,1.82-6.6,0l-24.7-24.7-24.7,24.7c-1.82,1.82-4.78,1.82-6.6,0s-1.82-4.78,0-6.6l24.7-24.7-24.7-24.7c-1.82-1.82-1.82-4.78,0-6.6s4.78-1.82,6.6,0l24.7,24.7,24.7-24.7c1.82-1.82,4.78-1.83,6.6,0,1.82,1.82,1.83,4.78,0,6.6,0,0,0,0,0,0l-24.7,24.7,24.7,24.7Z" style="fill:#fff;"/></svg>